<svg xmlns="http://www.w3.org/2000/svg" xmlns:xlink="http://www.w3.org/1999/xlink" viewBox="0 0 489.94 522">
  <defs>
    <clipPath id="ece8aae1-2d78-434d-8065-d23c5ca15c7d" transform="translate(5 5)">
      <path d="M97,47.16l29.28,2.15L168,70.42l16.79,25.84L196,126s-38.76,14.21-46.08,65.46-8.18,68.91-.86,86.57l7.32,17.65L137,307.28l15.5,23.26-18.95,10.33-14.64.43L126.67,312l-56-5.6L44,279.29,17.72,243.54,4.37,186.27l7.75-64.17L31.5,83.34,62.94,59.22Z" fill="none"/>
    </clipPath>
    <clipPath id="f38fd97e-f7e1-49f2-84f4-b5d7928c62ad" transform="translate(5 5)">
      <polygon points="112.46 87.21 144.33 69.12 152.08 59.22 183.52 89.8 184.82 96.26 146.49 123.82 95.67 139.75 53.46 141.48 8.67 132.86 15.99 110.04 31.5 83.34 43.56 90.23 70.69 95.39 96.96 92.81 112.46 87.21" fill="none"/>
    </clipPath>
    <clipPath id="a423732a-2e94-4668-b1cc-2328a8ec6bdd" transform="translate(5 5)">
      <path d="M152,182c-8.73,3.85-17.16,8.48-26.46,10.88-7.92,2.05-15.34,4.14-23.46,5.32-8.67,1.26-17,3.16-25.76,3.47-6.78.24-13.56.59-20.34.66-6.1.07-11.93-3-17.85-4.11-5.56-1.07-11.62-1.89-16.94-3.85-3.65-1.34-7.32-2.87-11.18-3.51-3.38-.56-3.82,0-3.57,3.66.59,8.72,1.7,17.28,1.74,26a58.35,58.35,0,0,0,3.37,18.76c2.93,8.4,10.93,11,18.49,13.67,27.14,9.56,57.45,9,85.09,1.71,7.31-1.91,14.41-3.71,21.37-6.48,5-2,5.69-2.21,6.59-7.29,1.89-10.59,1.84-21.5,4.5-32a91.88,91.88,0,0,0,2.63-15.91C150.4,189.91,150.27,185.49,152,182Z" fill="none"/>
    </clipPath>
    <clipPath id="b887af1e-6c3b-4375-b31c-f774e8799408" transform="translate(5 5)">
      <polygon points="250.85 110.48 298.97 127.56 328.47 162.23 349.69 196.91 352.27 260.56 338.82 306.1 315.53 342.32 258.61 365.61 266.89 390.96 228.08 394.59 241.01 360.43 194.44 345.43 156.39 295.65 141.14 234.16 156.66 164.82 177.88 142.05 211 116.69 250.85 110.48" fill="none"/>
    </clipPath>
    <clipPath id="a9d82bb3-f7cc-4f3f-95a6-e41b9ee34753" transform="translate(5 5)">
      <path d="M152.13,193.31c3.16,3.63,5.73,8.58,8,12.83,2.79,5.14,6.08,11.33,7.41,17,1.77,7.54.28,15.91-3.27,22.83-2.13,4.15-4.95,7.07-8.22,10.34-2.05,2-4.66,6.24-7.49,7.08-.12-13.32-4.45-26.22-4.81-39.58-.15-5.61,1.79-10.35,2.42-15.81.28-2.38.08-4.83.81-7.13C147.62,199,148.91,197.71,152.13,193.31Z" fill="none"/>
    </clipPath>
    <clipPath id="a6637313-4809-40a6-a96d-6ad8c2de894e" transform="translate(5 5)">
      <path d="M233.12,221.48c-3,.72-6.17.05-9.21.6a40.72,40.72,0,0,0-13.52,5.48c-6.1,3.79-9.56,11.09-11.94,17.56-5.22,14.17-3,31.49,7.75,42.53,9,9.27,24.57,9.52,35.88,4.39,3.49-1.59,6.18-3.92,9.28-6.15a35.54,35.54,0,0,0,9-9.77c2.18-3.82,2.63-8.3,3.68-12.48a81.48,81.48,0,0,0,2-12.65,20.62,20.62,0,0,0-8.31-19.09C250.44,226.34,240,221.58,233.12,221.48Z" fill="none"/>
    </clipPath>
    <clipPath id="e96a0e07-1f5f-4ee8-9be2-918fa1ee6cba" transform="translate(5 5)">
      <path d="M183,331.53a3.26,3.26,0,0,1,.88-1.63c2.09-2.39,6-3.71,8.85-4.84a36.82,36.82,0,0,1,11.39-2.54c4.62-.25,9.16-1.3,13.8-.66a71.14,71.14,0,0,1,11.15,2.73c6.8,2.09,12.48,7.6,15.76,13.92,2,3.92,2.61,8.53,3.73,12.76.64,2.43,2.93,6.8-.44,7.76-2.69.77-6.56-.37-9.41-.15a39.19,39.19,0,0,1-13.94-1.05,86.36,86.36,0,0,1-18.24-7.5c-4.43-2.43-8.68-5.18-13.06-7.7-2.26-1.29-5.16-2.12-7-4a12.45,12.45,0,0,1-2.33-3.82C183.43,333.39,182.83,332.5,183,331.53Z" fill="none"/>
    </clipPath>
    <clipPath id="a9945a91-09c1-4900-b1e6-fca7482b8bfa" transform="translate(5 5)">
      <path d="M350.21,256.55c-1.89-3.11-11.54.49-14.09,1-7.42,1.53-15,4.48-20.84,9.47-9,7.7-11.52,19.27-15.62,29.74a55.36,55.36,0,0,0-3.32,26.07,32.29,32.29,0,0,0,5.91,14.93c1.84,2.51,4.65,3.8,6.41,6.09,5.23-6.11,9.46-13.12,14.31-19.53,6.36-8.41,13.7-16.07,18.93-25.28a33.35,33.35,0,0,0,3.29-6.36c1-3.17.77-6.9,1.47-10.17,1.16-5.45,3.45-15-.21-19.92" fill="none"/>
    </clipPath>
    <clipPath id="f512f2d6-68ef-4e27-b31e-1d5e50a8e833" transform="translate(5 5)">
      <path d="M315,144.67c-2.25-1-5.31-.6-7.56-.2a29.11,29.11,0,0,0-12.23,4.74c-3.6,2.61-7.65,4.28-10.92,7.44a17,17,0,0,0-4.06,5.43c-.8,2-.76,4.19-1.5,6.26-2,5.7-4.95,12.17-4.36,18.31.74,7.78,4.93,14.71,10.53,20,4.19,4,9.83,8.06,15.52,9.31s12.25,2.09,17.88.76c7.95-1.87,14.45-7.26,21.82-10.35,2.38-1,6.14-2.09,7.6-4.48.74-1.21.29-2.64.13-4.09-.56-5-2.24-9.8-4-14.54-3.32-9.14-7.75-17.54-14.65-24.43-2.27-2.28-3.92-4.94-6.11-7.26a26.85,26.85,0,0,0-3.09-2.4c-1.48-1.15-2.66-3-4.15-4A4.68,4.68,0,0,0,315,144.67Z" fill="none"/>
    </clipPath>
    <clipPath id="bad67159-50da-4861-a4bb-b34be55fb1f8" transform="translate(5 5)">
      <path d="M237.08,111.49c2.68,5.81,3,13.56,3.15,20a23.88,23.88,0,0,1-4.55,14.83c-2.89,4-5.09,9-8.56,12.48-4.87,5-11.19,6.81-17.81,8.21-4.22.88-9.6,1.43-13.81.16-4.92-1.48-8.77-4.13-13.25-6.43-3.61-1.85-7.28-3.69-10.8-5.69-.9-.51-2.27-.89-2.44-2,0-.35.5-.68.58-1,.76-2.7,4.08-6.13,5.69-8.46,7.2-10.32,17.19-20,28.69-25.39a54,54,0,0,1,16.67-4.95c2.35-.28,4.67-.36,7-.85A25.73,25.73,0,0,1,237.08,111.49Z" fill="none"/>
    </clipPath>
    <clipPath id="bb9f255d-9b2c-4869-ab66-1ef0fc582425" transform="translate(5 5)">
      <polygon points="259.06 5.53 221.08 11.96 182.45 33.85 163.14 63.14 183.52 89.8 196.01 125.97 227.64 112.41 264.21 112.39 290.61 122.69 323.12 84.71 347.9 65.08 324.4 37.39 289.64 11.32 259.06 5.53" fill="none"/>
    </clipPath>
    <clipPath id="bb8fd130-e380-4c6a-b2c8-f69650969dbb" transform="translate(5 5)">
      <path d="M414.21,59.6,372.69,57,336.64,70.55l-29,29.61L290.6,122.69S326,147.48,333.42,163.9s19.63,45.7,19,66.3-5.75,52.32-5.75,52.32L330.2,321.94l18,1-18,33.47,27,1.61v-30.9l28.32-9s48.28-16.74,62.77-47.32,26.39-66.31,26.39-66.31,1.29-70.81-1.6-79.5-25.43-42.81-25.43-42.81Z" fill="none"/>
    </clipPath>
    <clipPath id="ad26e2d9-60bc-48fc-b8f1-f632aaab9d1f" transform="translate(5 5)">
      <path d="M414.21,59.6l4.18,17.06s19.64,40.24,18,74.68-10.62,70.82-26.72,95.28S356,311.32,345,316.79s-8.36-5.15-8.36-5.15l8-40.24L349.83,218l38-101.39,20-56Z" fill="none"/>
    </clipPath>
    <clipPath id="f9999658-caed-46fb-a6fd-dc4988b8a601" transform="translate(5 5)">
      <path d="M364.32,60.57,401.66,58l-3.87,6.12s-48.92,22.53-58.58,49.57S320,149.15,320,149.15l-29.38-26.46,18.34-28L347.9,65.08Z" fill="none"/>
    </clipPath>
    <clipPath id="bfa614e4-45c5-4981-b029-096d454b4799" transform="translate(5 5)">
      <path d="M467,185.66c-2,34-12.55,68.21-35.17,94.22-20.65,23.75-51,38.89-82.24,37.35A194.35,194.35,0,0,0,418.07,242,190,190,0,0,0,435.9,122.83a175.59,175.59,0,0,0-19-55.18A64.89,64.89,0,0,1,448.79,93C466.31,119.51,468.84,154.78,467,185.66ZM354.78,354.19c-3.58.25-8.17-.75-11.28-.93-2.65-.16-5.3-.34-7.95-.49,3.42-7.91,7.26-15.67,11-23.44,1.72.13,3.43.21,5.15.25a3.77,3.77,0,0,0,0,.48c.37,4.41,1,8.81,1.52,13.2C353.37,345,354.88,351,354.78,354.19Zm-48.57-16.76c-8.32-15.4-9.72-34.89-1.45-50.6,7.91-15.05,23.4-25,40.12-26.69-.42,3.38-.94,6.73-1.56,10C338.44,295.88,326.67,320.57,306.21,337.43Zm-51,18.75c-1.74-15.56-13-29.66-27.39-35.5a43.65,43.65,0,0,0-43.09,6.19C168.87,310.66,158.1,289.3,153,266.69c24.19-17.53,25.7-53.89,2.14-72.52a125.71,125.71,0,0,1,16.25-36c13.12,11.62,33,14.7,48.89,6.58,15.67-8,27.34-29.38,22.82-47.18a93.16,93.16,0,0,1,47.33,11.87,96.12,96.12,0,0,1,17.14,12.36c-11.26,3.21-21.53,9.27-28.61,19-8.68,12-11.06,28-3.84,41.27,6.65,12.2,20.11,20.11,33.88,20.77,12.82.62,25.1-4.59,34.41-13.15-.8.74,2,15,2.14,17.15q.77,11.1.48,22.23a4,4,0,0,1-.44,2.08C344.4,253,336,253.31,333.62,254A63.25,63.25,0,0,0,319,260.32a57.63,57.63,0,0,0-21.82,22.95,56.54,56.54,0,0,0,4,58A84.44,84.44,0,0,1,255.2,356.18Zm6.53,33.88c-1.36-.49-3.68,0-5.11,0H244.35c-3.73,0-7.47,0-11.2,0,.7-1.57,1.63-4.07,1.76-4.37,2.6-5.9,5.35-11.76,7.71-17.77a104,104,0,0,0,10.43.58c1.78,3.54,3.5,7.12,5.1,10.75.9,2,1.75,4.1,2.59,6.17.49,1.21.9,3.12,1.55,4.49Zm-29.8-36.22a96.07,96.07,0,0,1-44.32-24.11c11.16-6.57,25.59-8.17,37.44-2.5s18.64,16.41,21.39,28.79A90.46,90.46,0,0,1,231.93,353.84Zm-80.6-95.72a137.12,137.12,0,0,1-1.79-20.57,157.35,157.35,0,0,1,4.2-38.06C168.92,216.69,168.34,242.65,151.33,258.12Zm-41.9,49c-16.69,0-32.54-5.46-46.35-14.71-14.34-9.61-25.42-22.54-33.69-37.22a133.61,133.61,0,0,0,54.72,10.49c18.06-.37,39-4.23,55.05-13.83A151.85,151.85,0,0,0,150.25,296,79.13,79.13,0,0,1,109.43,307.12Zm38.67,23.59a77.78,77.78,0,0,1-9.62,4,64.34,64.34,0,0,1-7.18,1.9c-1.4.29-2.81.52-4.23.7l-.57-.1c.29-1.29.57-2.57.85-3.85l1.74-7.83c.64-2.88,1.45-5.8,2-8.74a72.24,72.24,0,0,0,7-2.06,4.66,4.66,0,0,0,.51,1.6A131.8,131.8,0,0,0,148.1,330.71ZM12,203.47c-.48-3-.87-6-1.21-9.06,42.1,18,94.16,17.25,134.66-5a156.74,156.74,0,0,0-6.9,53.92c-7.77,3.32-15.39,6.84-23.57,9.28a134.66,134.66,0,0,1-30,5.26,126.79,126.79,0,0,1-59.69-10.62A160,160,0,0,1,12,203.47Zm2.09-67.31c28.45,10,59.27,11.5,88.88,5.93a198.2,198.2,0,0,0,45.09-14.29c12.71-5.75,26.75-12.9,37.27-22.59A80.83,80.83,0,0,1,191,123.89a99.14,99.14,0,0,0-24.43,24.39,124.67,124.67,0,0,0-17.74,31.49l-.21.08c-22,10.63-45.25,17.85-69.79,19a176.39,176.39,0,0,1-68.58-10.42A167.39,167.39,0,0,1,14.09,136.16Zm17.18-40q2.15-3.22,4.52-6.27C54.65,99,79.14,99.38,98.84,95.14a105.71,105.71,0,0,0,52.9-29,90.39,90.39,0,0,1,29.81,31.47c-5.67,3.68-11,7.86-16.74,11.42A187,187,0,0,1,144.45,120a189.86,189.86,0,0,1-42.95,13.68,213.83,213.83,0,0,1-86.4-1.42A124.19,124.19,0,0,1,31.27,96.16Zm82.87-43.09a82.51,82.51,0,0,1,31.46,9.5A110,110,0,0,1,98,88.89a103.16,103.16,0,0,1-32.84,2.8c-9.27-.68-17.75-3-26.43-5.44C57.38,64.27,84.64,50.48,114.14,53.07Zm119.17,87.21a36.94,36.94,0,0,1-16.52,18.49c-13.55,7.12-30.66,4.31-42.13-5.31l0,0a94.15,94.15,0,0,1,33.61-28.12c1.28-.63,2.59-1.24,3.92-1.84.63-.24,1.26-.51,1.91-.73A91.11,91.11,0,0,1,235.54,118C236.52,125.66,236.43,132.83,233.31,140.28Zm-41-106.73a106.28,106.28,0,0,1,37.55-19c27.78-7.62,57.49-1.64,80.88,15a101,101,0,0,1,17.31,15.73c5.11,5.83,8.69,12.57,13.17,18.8-21.11,12-38.44,31.06-50.43,52.23a102.27,102.27,0,0,0-61.22-8.4A94.72,94.72,0,0,0,197,120c-2.25-16.62-7.94-31.8-18.36-45.27a84.16,84.16,0,0,0-12.58-13C173.91,51.53,182.16,41.6,192.31,33.55ZM368,65.6A89.69,89.69,0,0,1,394.68,63a145.5,145.5,0,0,0-72.29,76.54,108.76,108.76,0,0,0-11.64-10.83,102.7,102.7,0,0,0-14.35-9.62C314.86,95.32,338,73,368,65.6ZM341.47,200.92c-16.59,17.26-46.71,20.67-60.31-2.41-7-11.79-3.94-26.6,4.3-36.94,6.44-8.09,15.77-13.34,25.56-16.53C326.22,160.14,336.16,179.8,341.47,200.92Zm33.16-56.87q-7.41,20.59-14.57,41.28c-1.92,5.54-4,11.07-6,16.63-4.56-20.24-13-39.38-25.58-55.31,11.86-36.81,40.11-67.26,75.69-82.45C394.17,90.76,384.24,117.34,374.63,144.05Zm-17.51,76.5c3.76-10.23,6.93-20.75,10.46-31q7.31-21.18,14.37-42.42c9.05-27.29,17.77-54.67,26.42-82.09,1,.23,2,.49,2.94.77,16,34.81,23.25,72.27,18.51,110.69A185.19,185.19,0,0,1,382.75,278a192.91,192.91,0,0,1-41.31,34.27,130.63,130.63,0,0,0,7.41-17.07A172.27,172.27,0,0,0,357.12,220.55ZM462.87,93.65c-16.54-30.78-49.3-46.45-83.75-42.37a97.69,97.69,0,0,0-27.4,7.46C346.59,45,334,32.76,322.8,24.08A116.34,116.34,0,0,0,280.64,3.23a106.89,106.89,0,0,0-90.51,18.54c-12.38,9.38-23.58,21.41-29.17,36A89.75,89.75,0,0,0,132.6,44.23C95.48,34,57,47.84,32.28,76.69,5.64,107.78-2.43,150.23.6,190.19c3,39,16.53,78.72,47.25,104.57,20.19,17,48.84,26.93,75.23,23.47-1.37,4.28-2.43,8.74-3.72,12.87-1.43,4.59-4.54,11.16.68,14.6,4.52,3,12.64.58,17.46-.59,1-.24,2-.52,3-.81,1.66,3.32,3.46,6.57,5,9.95a139.08,139.08,0,0,1,6.36,17.35,134.24,134.24,0,0,1,5.83,34.84c.42,12.65-1.82,24.77-3.82,37.19-2,12.18-3.43,24.41,1.27,36.17,1.29,3.22,6.5,1.94,5.32-1.46-4.67-13.4-1.15-26.93,2.39-40.13,3.26-12.18,5.51-24.25,5.24-36.91a105.32,105.32,0,0,0-7-34.91c-3.14-8.24-7.64-17.47-13.63-24.61a55.82,55.82,0,0,0,9.72-5.4,4.7,4.7,0,0,0,1.66-6.31c-4-6.38-7.62-13.17-12.21-19.14a65.92,65.92,0,0,0,8.25-5c12.16,23.32,31,42.76,56.54,53.84a106.12,106.12,0,0,0,23.37,7.08c-2,3.51-4,7.09-5.95,10.65-2.39,4.31-7.09,9.87-7.21,14.95-.24,10.82,17.13,7.94,23.68,8l1.86,0c.38,21.48-7.62,41.29-10.6,62.35-2.43,17.11-1.09,35.14,10.76,48.64,1.36,1.55,4.18-.56,2.91-2.25-24.84-33,7.27-73.07,6.84-108.48,2.22,0,4.43,0,6.64-.07,4.16-.18,8.25-1.33,9.85-5.61,1.78-4.75-1.63-10.44-3.49-14.68s-3.87-8.34-6-12.42a93.85,93.85,0,0,0,31.53-9c14.77-7.27,27-18.45,36.58-31.69,2.39.53,4.79,1,7.19,1.31-4.61,8.81-9.17,17.69-14.35,26.13-1.94,3.17.67,6.4,3.88,6.76,4.15.47,8.32.78,12.5,1.1-1.59,24.42-18.05,45.7-23.81,69.25-4.89,19.95-3.32,44.11,13.58,58.16,2.53,2.11,6.19-1.43,3.66-3.66-18.16-16-12.35-41.45-4-60.9,8.66-20.11,19-40,18.64-62.18,4.4.56,9.7,1.51,12.86-1.85,3.47-3.68,1.74-9.6,1.16-14-.78-6-1.46-12-2.46-18,25.69-1.78,50.5-13,69.74-30.68,27.41-25.17,42.49-61.05,47.12-97.48C482.46,166,480,125.52,462.87,93.65Z" fill="none"/>
    </clipPath>
    <clipPath id="ad5f52d9-541a-4187-9ad4-7f7372c81a1f" transform="translate(5 5)">
      <path d="M239.81,289.9c-28.23,10.42-47-22.06-38.18-46A30.68,30.68,0,0,1,219.8,226c15.72-5.86,34,2,40.39,17.65C267.08,260.72,257.13,283.51,239.81,289.9Zm29.75-42c-3.7-20.8-24.39-34.89-45-30.85-14.52,2.83-26.42,15-30.16,29a39.71,39.71,0,0,0-2.22,19.53C195,286.75,214.45,302.39,236,299,258.91,295.41,273.47,269.85,269.56,247.91Z" fill="none"/>
    </clipPath>
  </defs>
  <g id="e406a5ff-86d7-4eb7-9a43-8ea695de12e2" data-name="Layer 2">
    <g id="eedec5dd-fa45-432d-860a-ab2c516dc155" data-name="Layer 1">
      <g>
        <g clip-path="url(#ece8aae1-2d78-434d-8065-d23c5ca15c7d)">
          <rect x="4.37" y="47.16" width="201.65" height="304.14" fill="#ffec8d"/>
        </g>
        <g clip-path="url(#f38fd97e-f7e1-49f2-84f4-b5d7928c62ad)">
          <rect x="8.67" y="59.22" width="186.14" height="92.26" fill="#ff9d7b"/>
        </g>
        <g clip-path="url(#a423732a-2e94-4668-b1cc-2328a8ec6bdd)">
          <rect x="6.33" y="182.03" width="155.62" height="88.17" fill="#ff9d7b"/>
        </g>
        <g clip-path="url(#b887af1e-6c3b-4375-b31c-f774e8799408)">
          <rect x="141.14" y="110.48" width="221.14" height="294.1" fill="#c69ff7"/>
        </g>
        <g clip-path="url(#a9d82bb3-f7cc-4f3f-95a6-e41b9ee34753)">
          <rect x="143.78" y="193.31" width="34.54" height="80.13" fill="#fff"/>
        </g>
        <g clip-path="url(#a6637313-4809-40a6-a96d-6ad8c2de894e)">
          <rect x="195.75" y="221.48" width="80.41" height="83.91" fill="#fff"/>
        </g>
        <g clip-path="url(#e96a0e07-1f5f-4ee8-9be2-918fa1ee6cba)">
          <rect x="182.96" y="321.66" width="76.95" height="47.65" fill="#fff"/>
        </g>
        <g clip-path="url(#a9945a91-09c1-4900-b1e6-fca7482b8bfa)">
          <rect x="295.99" y="255.3" width="64.21" height="98.56" fill="#fff"/>
        </g>
        <g clip-path="url(#f512f2d6-68ef-4e27-b31e-1d5e50a8e833)">
          <rect x="274.25" y="144.06" width="83.84" height="83.31" fill="#fff"/>
        </g>
        <g clip-path="url(#bad67159-50da-4861-a4bb-b34be55fb1f8)">
          <rect x="169.01" y="111.4" width="81.23" height="66.53" fill="#fff"/>
        </g>
        <g clip-path="url(#bb9f255d-9b2c-4869-ab66-1ef0fc582425)">
          <rect x="163.14" y="5.53" width="194.76" height="130.45" fill="#f95252"/>
        </g>
        <g clip-path="url(#bb8fd130-e380-4c6a-b2c8-f69650969dbb)">
          <rect x="290.6" y="57.03" width="194.4" height="310.96" fill="#74deda"/>
        </g>
        <g clip-path="url(#ad26e2d9-60bc-48fc-b8f1-f632aaab9d1f)">
          <rect x="336.37" y="59.6" width="110.14" height="268.75" fill="#3bd2d3"/>
        </g>
        <g clip-path="url(#f9999658-caed-46fb-a6fd-dc4988b8a601)">
          <rect x="290.61" y="57.99" width="121.05" height="101.16" fill="#3bd2d3"/>
        </g>
        <g clip-path="url(#bfa614e4-45c5-4981-b029-096d454b4799)">
          <rect width="489.94" height="522" fill="#272442"/>
        </g>
        <g clip-path="url(#ad5f52d9-541a-4187-9ad4-7f7372c81a1f)">
          <rect x="191.78" y="216.36" width="88.41" height="93.11" fill="#272442"/>
        </g>
      </g>
    </g>
  </g>
</svg>
