<svg xmlns="http://www.w3.org/2000/svg" viewBox="0 0 24 24">
  <defs/>
  <g fill="none" fill-rule="nonzero">
    <path fill="#FFEC8D" d="M4.54 2.2l1.36.1 1.95 1 .79 1.2.52 1.4s-1.8.66-2.15 3.05c-.34 2.4-.38 3.22-.04 4.05l.34.82-.9.55.72 1.08-.89.49-.68.02.36-1.37-2.62-.26-1.24-1.27-1.23-1.67L.2 8.7l.37-3 .9-1.81 1.47-1.13 1.6-.57z"/>
    <path fill="#FF9D7B" d="M5.26 4.08l1.49-.85.36-.46L8.58 4.2l.06.3-1.8 1.29-2.37.74-1.97.08-2.1-.4.35-1.07.72-1.24.57.32 1.26.24 1.23-.12zM7.1 8.5c-.4.19-.8.4-1.23.52-.37.1-.72.2-1.1.25-.4.06-.8.14-1.2.16l-.95.03c-.29 0-.56-.14-.84-.2-.26-.04-.54-.08-.79-.17-.17-.07-.34-.14-.52-.17-.16-.02-.18 0-.17.17.03.41.08.81.08 1.22 0 .3.06.6.16.88.14.39.51.51.86.64 1.27.44 2.69.42 3.98.08.34-.1.68-.18 1-.3.24-.1.27-.11.31-.35.09-.5.09-1 .21-1.5.06-.24.1-.49.12-.74.01-.14 0-.35.09-.51z"/>
    <path fill="#CEB4F7" d="M11.73 5.17l2.25.8 1.38 1.61.99 1.63.12 2.97-.63 2.13-1.09 1.7-2.66 1.08.39 1.19-1.82.17.6-1.6-2.17-.7-1.78-2.33-.71-2.87.72-3.24 1-1.07 1.54-1.18z"/>
    <path fill="#FFFFFF" d="M7.11 9.04c.15.17.27.4.38.6.13.24.28.53.34.8a1.6 1.6 0 01-.53 1.54c-.1.1-.22.3-.35.33-.01-.62-.21-1.22-.23-1.85 0-.26.08-.48.11-.74.02-.1 0-.22.04-.33.03-.09.1-.15.24-.35zM10.9 10.35c-.14.04-.29 0-.43.03a1.9 1.9 0 00-.63.26c-.29.18-.45.52-.56.82-.25.66-.14 1.47.36 1.99.42.43 1.15.44 1.68.2.16-.07.29-.18.43-.28.17-.13.31-.28.42-.46.1-.18.13-.39.17-.58.05-.2.08-.4.1-.6a.96.96 0 00-.39-.89 2.32 2.32 0 00-1.15-.49zM8.56 15.5c0-.03.02-.06.04-.08.1-.1.28-.17.41-.22.17-.07.35-.11.53-.12.22-.01.43-.06.65-.03.18.03.35.07.52.13.32.1.58.35.74.65.09.18.12.4.17.6.03.1.14.31-.02.36-.13.03-.3-.02-.44-.01-.22.02-.44 0-.65-.05-.3-.08-.58-.2-.85-.35-.21-.11-.41-.24-.61-.36-.11-.06-.25-.1-.33-.19a.58.58 0 01-.11-.18c-.03-.06-.06-.1-.05-.15zM16.37 12c-.08-.15-.54.02-.66.04-.34.07-.7.21-.97.44-.42.36-.54.9-.73 1.4-.15.38-.2.8-.16 1.21.04.26.13.5.28.7.09.12.22.18.3.29.24-.29.44-.62.67-.92.3-.39.64-.75.88-1.18.07-.1.12-.2.16-.3.05-.14.03-.32.07-.47.05-.26.16-.7-.01-.93M14.73 6.76c-.1-.04-.25-.02-.36 0-.2.02-.4.1-.57.22-.17.12-.36.2-.5.34a.8.8 0 00-.2.26c-.04.1-.03.2-.07.29-.1.27-.23.57-.2.86.03.36.23.68.49.93.2.19.46.38.73.44.26.06.57.1.83.03.37-.09.68-.34 1.02-.48.11-.05.29-.1.36-.21.03-.06.01-.12 0-.2a2.9 2.9 0 00-.18-.67 3.03 3.03 0 00-.69-1.14c-.1-.11-.18-.24-.28-.34l-.15-.12c-.07-.05-.12-.14-.2-.18a.22.22 0 00-.03-.03zM11.08 5.21c.13.27.14.64.15.94.01.25-.07.49-.21.7-.14.18-.24.41-.4.57-.23.24-.52.32-.83.39-.2.04-.45.07-.65 0-.23-.06-.41-.19-.62-.3l-.5-.26c-.05-.02-.11-.04-.12-.1l.03-.04c.03-.13.19-.29.26-.4.34-.48.8-.93 1.35-1.18.24-.12.5-.2.78-.24l.32-.03c.15-.05.3-.06.44-.05z"/>
    <path fill="#F95252" d="M12.11.26l-1.77.3-1.81 1.02-.9 1.37.95 1.25.58 1.69 1.48-.63h1.71l1.24.48 1.52-1.78 1.16-.92-1.1-1.3L13.54.54z"/>
    <path fill="#74DEDA" d="M19.37 2.79l-1.95-.13-1.68.64-1.36 1.38-.8 1.06s1.66 1.16 2 1.92c.36.77.93 2.14.9 3.1-.03.97-.27 2.45-.27 2.45l-.77 1.84.84.05-.84 1.56 1.26.08v-1.45l1.32-.42s2.26-.78 2.94-2.2c.68-1.44 1.23-3.1 1.23-3.1s.06-3.32-.07-3.73c-.14-.4-1.19-2-1.19-2L19.37 2.8z"/>
    <path fill="#3BD2D3" d="M19.37 2.79l.2.8s.9 1.88.83 3.49a9.31 9.31 0 01-1.25 4.45c-.75 1.14-2.5 3.03-3.02 3.28-.51.26-.4-.24-.4-.24l.38-1.88.25-2.5 1.77-4.74.94-2.62.3-.04zM17.03 2.83l1.75-.12-.18.29s-2.29 1.05-2.74 2.32a4.24 4.24 0 01-.9 1.65L13.6 5.74l.85-1.31 1.83-1.39.76-.2z"/>
    <path fill="#272442" d="M21.64 4.38a3.85 3.85 0 00-3.92-1.98c-.44.05-.87.17-1.28.35a4.09 4.09 0 00-1.35-1.62 5 5 0 00-6.2-.1c-.58.43-1.1.99-1.36 1.67a4.2 4.2 0 00-1.33-.63 4.59 4.59 0 00-4.7 1.52C.27 5.04-.1 7.02.04 8.89c.14 1.83.77 3.68 2.2 4.9.95.79 2.3 1.25 3.52 1.09-.06.2-.1.4-.17.6-.07.21-.21.52.03.68.21.14.6.03.82-.02l.14-.04.23.46A6.5 6.5 0 017.37 19c.02.6-.08 1.16-.18 1.74a3.1 3.1 0 00.06 1.7c.06.14.3.08.25-.08-.22-.62-.05-1.26.11-1.87a4.92 4.92 0 00-.72-4.5c.16-.08.32-.16.46-.26.1-.06.13-.2.08-.3-.2-.3-.36-.61-.57-.9.13-.06.26-.14.38-.23a5.4 5.4 0 003.74 2.85l-.28.5c-.11.2-.33.46-.34.7 0 .5.8.37 1.1.37h.1c.01 1-.36 1.93-.5 2.92-.11.8-.05 1.64.5 2.27.07.07.2-.02.14-.1-1.16-1.55.34-3.42.32-5.08h.31c.2 0 .39-.06.46-.26.08-.22-.08-.49-.16-.69l-.28-.58a4.39 4.39 0 003.18-1.9c.11.02.22.05.34.06-.22.41-.43.83-.67 1.22-.1.15.03.3.18.32l.58.05c-.07 1.14-.84 2.14-1.11 3.24-.23.93-.16 2.06.63 2.72.12.1.3-.07.17-.17-.84-.75-.57-1.94-.18-2.85.4-.94.88-1.87.87-2.9.2.02.45.06.6-.1.16-.17.08-.44.05-.65-.03-.28-.06-.56-.11-.84 1.2-.08 2.36-.6 3.26-1.44a7.41 7.41 0 002.2-4.55c.22-1.65.1-3.54-.7-5.03zM16.7 10.3l.49-1.45a183.15 183.15 0 001.9-5.82l.14.04a9.5 9.5 0 01.87 5.17 8.66 8.66 0 01-4.14 6.35 8.05 8.05 0 00.73-4.29zm.82-3.58l-.69 1.93-.28.78a6.45 6.45 0 00-1.2-2.58A6.36 6.36 0 0118.9 3c-.47 1.24-.94 2.49-1.38 3.73zM15.96 9.4c-.77.81-2.18.97-2.81-.1-.33-.56-.19-1.25.2-1.74.3-.37.73-.62 1.2-.77.7.7 1.17 1.63 1.41 2.61zm1.25-6.32c.4-.1.82-.15 1.24-.12a6.8 6.8 0 00-3.38 3.57 5.08 5.08 0 00-1.21-.95c.86-1.11 1.94-2.16 3.35-2.5zm-8.22-1.5a4.5 4.5 0 016.35.55c.24.27.4.59.61.88a6.47 6.47 0 00-2.35 2.44 4.78 4.78 0 00-4.39.17 4.32 4.32 0 00-1.45-2.72c.37-.48.76-.95 1.23-1.32zm1.92 5c-.15.36-.43.66-.77.86-.64.33-1.44.2-1.97-.25a4.4 4.4 0 011.75-1.4l.09-.04c.32-.11.66-.19 1-.22.05.36.04.69-.1 1.04zM5.34 2.47c.51.05 1.01.2 1.47.45a4.82 4.82 0 01-5 1.1 4.17 4.17 0 013.53-1.55zM1.46 4.5l.21-.3c.88.43 2.03.45 2.95.25.94-.2 1.8-.68 2.47-1.36.58.37 1.06.88 1.4 1.47l-.78.54a8.74 8.74 0 01-2.96 1.15A10 10 0 01.7 6.18c.16-.6.41-1.17.75-1.68zm-.8 1.87c1.33.46 2.77.53 4.15.27a9.27 9.27 0 003.85-1.72c.13.28.22.57.27.87A5.83 5.83 0 006.96 8.4h-.01a8.4 8.4 0 01-3.26.9A8.25 8.25 0 01.48 8.8c-.07-.82 0-1.64.18-2.44zM.56 9.5A8.88 8.88 0 01.5 9.1c1.97.84 4.4.8 6.3-.23a7.33 7.33 0 00-.32 2.52c-.37.15-.72.32-1.1.43a5.93 5.93 0 01-4.2-.25 7.48 7.48 0 01-.62-2.05zm6.36 5.95a3.64 3.64 0 01-.98.31h-.03l.04-.18.09-.37.09-.4.33-.1a6.1 6.1 0 00.47.75zm-1.8-1.1c-.78 0-1.53-.26-2.17-.69a5.04 5.04 0 01-1.58-1.74c.81.34 1.68.51 2.56.5a5.4 5.4 0 002.58-.66c.06.72.24 1.41.51 2.07a3.7 3.7 0 01-1.9.52zm1.96-2.3a7.36 7.36 0 01.11-2.74c.7.81.68 2.02-.11 2.75zm3.76 4.48a4.5 4.5 0 01-2.07-1.12 1.9 1.9 0 011.75-.12c.56.26.87.77 1 1.35a4.23 4.23 0 01-.68-.1zm1.4 1.7c-.07-.03-.18 0-.24 0h-1.1l.08-.2.36-.84c.17.02.33.03.5.03l.23.5.12.29.07.21h-.02zm-.3-1.59a2.04 2.04 0 00-3.3-1.37 5.88 5.88 0 01-1.49-2.81 2.14 2.14 0 00.1-3.4c.17-.59.42-1.16.76-1.68.62.55 1.55.7 2.29.31.73-.37 1.28-1.37 1.07-2.2a4.36 4.36 0 013.01 1.13c-.53.15-1 .43-1.34.89-.4.56-.51 1.3-.18 1.93.31.57.94.94 1.59.97.6.03 1.17-.22 1.6-.62-.03.04.1.7.1.8a10.9 10.9 0 010 1.14c-.05.09-.44.1-.55.14a2.7 2.7 0 00-1.7 1.37c-.45.86-.38 1.9.18 2.7-.63.44-1.38.68-2.15.7zm2.38-.87a2.55 2.55 0 01-.07-2.37 2.4 2.4 0 011.87-1.25l-.07.47a5.29 5.29 0 01-1.73 3.15zm2.27.78c-.17.01-.39-.04-.53-.04l-.37-.03c.16-.37.34-.73.51-1.1a4.57 4.57 0 00.24.04l.07.62c.01.08.08.36.08.51zm5.24-7.88a7.32 7.32 0 01-1.64 4.4 4.88 4.88 0 01-3.85 1.75A8.88 8.88 0 0019.5 3.16c.61.23 1.14.64 1.5 1.19.81 1.24.93 2.89.84 4.33z"/>
    <path fill="#272442" d="M12.6 11.6a1.8 1.8 0 00-2.1-1.45 1.9 1.9 0 00-1.41 1.35c-.11.3-.15.6-.1.92a1.8 1.8 0 002.04 1.56c1.07-.17 1.76-1.36 1.57-2.39zm-1.39 1.95c-1.32.5-2.2-1.03-1.78-2.15.15-.39.46-.7.85-.83a1.5 1.5 0 011.88.82c.33.8-.14 1.87-.95 2.16z"/>
  </g>
</svg>
