<svg xmlns="http://www.w3.org/2000/svg" viewBox="0 0 499.45 185.95">
  <g>
    <polygon points="39.76 19.76 169.5 47.8 165.32 61.22 91.95 152.19 83.3 150.99 40.06 32.88 39.76 19.76" fill="#c69ff7"/>
    <polygon points="317.14 47.5 189.48 50.78 190.68 177.54 253.01 146.52 318.33 175.75 322.21 148.61 317.14 47.5" fill="#fc9a70"/>
    <path d="M262.56,55.55c-7.75,10.32-10.28,21.09-4.47,33.05s20.23,16.08,33,15.23c9.27-.62,12.49-4.65,18.11-10.94,2.13-2.39,7.57-5.24,8.83-8.13.49-1.13.19-1.77.13-3.09-.21-4.88-.69-9.66-.69-14.57,0-5.64-1.3-11.07.58-16.29-3.43-.14-7.09.77-10.56.91-12.17.52-24.34,2.63-36.54,2.34" fill="#ffecd4"/>
    <path d="M224.2,77.06c-3.11,5.76-7.76,9.76-13.19,13.24-3.94,2.52-7.53,4.47-12.17,5.22-2.66.43-5.52,0-8.13.55-.46-8.49-1.37-17.22-2-25.75-.29-3.73-.44-7.45-.65-11.18-.14-2.32-.85-5.14-.58-7.43.14-1.18,9.16-2.73,10.24-2.9a22.07,22.07,0,0,1,7.69.43c6.89,1.18,17.47-.9,22.63,5.4C232.87,60.59,227.2,71.5,224.2,77.06Z" fill="#ffecd4"/>
    <path d="M188.59,125.94c6.48-1.25,11.42-3.61,18.39-2.46,5.43.89,10.36,2.39,14.44,6.28A37.49,37.49,0,0,1,229.15,141c2.33,4.89,2.81,9.17,4.37,14.18-2.23-.07-4.07,1.67-5.73,3-5.5,4.35-11.3,8.14-17,12.27A106,106,0,0,1,190.12,182c-.39-8.8.49-17.69.23-26.56-.15-5.48-.59-10.91-.57-16.4C189.79,136.48,187.9,129.15,188.59,125.94Z" fill="#ffecd4"/>
    <path d="M319.23,137.27c-6.16-10.54-23.5-8.78-32.76-4.78-7.82,3.38-16.19,9.31-20.52,16.29,1,.88,2.68,1.24,4,1.89,3.05,1.53,5.75,3.78,8.73,5.46,5.83,3.29,12,5.89,18,8.82,5.5,2.7,11.45,4.15,16.83,7,2.26,1.18,5.76,1.33,6.84,3.86,2.73-7.79.4-16.33-.53-24.26C319.39,148,317.9,143.05,319.23,137.27Z" fill="#ffecd4"/>
    <polygon points="460.3 16.78 387.23 40.04 336.23 48.09 366.05 101.48 418.84 157.26 439.42 105.95 460.3 16.78" fill="#ffec8d"/>
    <path d="M418,150.74c-31.17-28.58-57.62-61.72-77.69-99q26.1-3.72,51.84-9.54a494.43,494.43,0,0,0,62.09-18.63A888.06,888.06,0,0,1,418,150.74Zm-127.79,4.1q-9-4.49-18-8.71l-1.49-.7c13.51-9.85,30.06-18.85,45.22-8.14q.5,15.78,1.07,31.57Q303.75,161.56,290.21,154.84Zm-34.06-14.08c-7-.56-13.69,2.39-20,6.06-6-17.77-24.36-28.94-42.68-24.64,0-1.66-.07-3.32-.11-5-.12-6-.15-11.93-.18-17.92,21.9,0,39.91-19.52,38.73-41.28q13.19.36,26.36.15c-9.18,12.28-6.28,31,6.7,40.56,15.78,11.66,36,7.52,49.54-4.77q.57,17.27,1.09,34.53C309,125.23,301,124.8,294,126.19c-11.21,2.23-20,9.2-27.47,17.37A33.82,33.82,0,0,0,256.15,140.76Zm-32.31,13.75c-9.82,5.84-19.55,12.11-29.61,17.64.13-7.72-.29-15.53-.32-23.18,0-7.45-.18-14.89-.34-22.34,16.56-2,32.08,7.65,36.12,24.2C227.69,152.12,225.73,153.38,223.84,154.51ZM191.56,55.6l2.86.27q14.87,1.29,29.77,1.88C225.68,77,212.46,93,193.16,95,193.08,81.85,192.87,68.64,191.56,55.6Zm72.77,2.45q24.41-.59,48.73-3,.63,14.39,1.12,28.78c-10.43,12.33-27.27,19.77-42.56,11.22C258.35,87.63,253.76,69.12,264.33,58.05ZM138.2,89.44q-15.54,21.12-32.4,41.21-4.14,4.95-8.36,9.83c-1.68,1.94-6,8.56-8.77,7.53-2.64-1-4.37-7.39-5.43-9.76q-2.85-6.42-5.6-12.9c-6.9-16.32-13.09-32.9-19-49.59Q53.57,61.52,49,47.13C46.46,39,44.31,30.37,41,22.46,59.11,29,77.41,35,96.19,39.82a561.65,561.65,0,0,0,67.53,12.75C155.2,64.84,147.07,77.39,138.2,89.44ZM495.77.17Q477.94,6.91,459.64,12.7a4.65,4.65,0,0,0-1.82.56A712.34,712.34,0,0,1,304.69,43.67C239.24,49.19,173.2,46,108.84,32.6c-35.87-7.49-72-16.2-106-30C0,1.43-1.22,6,1.58,7.17c11.33,4.6,22.66,9.08,34.06,13.31a2.11,2.11,0,0,0,0,.51c.68,9.39,3.68,19.09,6.15,28.15q4,14.53,8.59,28.9c6,18.82,13,37.35,20.59,55.59,2.89,7,5.28,17.45,11.5,22.24,6.66,5.15,13.63.08,18.25-5.15,12.75-14.41,24.83-29.45,36.53-44.73,12.86-16.8,26-34,37-52.15,4.29.49,8.58.93,12.87,1.35-2.28,20.49-1.8,41.42-2.41,62-.31,10.59-.69,21.18-.83,31.77s-1,21.31-.2,31.78c.28,3.51,4.22,6.76,7.65,4.39,10.44-7.23,21.85-13.22,32.83-19.58,5.52-3.19,11-6.41,16.55-9.58,4.83-2.77,10-5.94,15.84-5,5.25.83,10.23,3.93,15,6.24q8.08,3.95,16.09,8.1c11,5.69,21.75,11.7,32.46,17.85,3.48,2,8.4-.51,8.23-4.73C326.6,137,324.11,95.51,322.62,54c3.65-.41,7.29-.88,10.94-1.36,19.9,42,47.94,80.33,82.92,111.06,3.18,2.8,7.47,1.5,8.93-2.35A881.54,881.54,0,0,0,465.76,19.21h0Q482.1,12.78,498,5.52C501,4.16,498.87-1,495.77.17Z" fill="#272442"/>
  </g>
</svg>
