<svg xmlns="http://www.w3.org/2000/svg" viewBox="0 0 499.45 181.86">
  <g>
    <polygon points="53.03 24.34 27.36 145.9 80.71 137.09 130.29 173.58 149.17 45.98 53.03 24.34" fill="#ffec8d"/>
    <path d="M101.35,36.92c-.76.25-61.91,37.25-61.91,37.25l-7,46.81L149.17,46Z" fill="#ff9d7b"/>
    <polygon points="143.13 96.57 80.71 137.09 99.33 143.88 130.29 173.58 143.13 96.57" fill="#ff9d7b"/>
    <polygon points="187.93 50.26 272.24 54.03 323.83 48.75 258.39 168.04 187.93 50.26" fill="#f95252"/>
    <path d="M448.16,21.32,384.27,36.67l-39.8,9.56,26.17,126.59,44.55-43.28,62.66,23.9Z" fill="#3bd2d3"/>
    <polygon points="384.27 36.67 384.73 44.47 354.53 100.09 368.38 148.16 430.29 28.62 384.27 36.67" fill="#74deda"/>
    <polygon points="457.72 59.82 419.97 128.03 449.67 141.62 469.04 104.37 457.72 59.82" fill="#74deda"/>
    <path d="M454.58,66.69q5.18,22.2,9.58,44.54l-16.72,25.28q-11.37-5.28-22.7-10.65Q439.8,96.34,454.58,66.69ZM452.76,139l12.58-21.68q2.87,14.94,5.34,30Zm-34.05-16-.7-.33a5.33,5.33,0,0,0-7.1,1.86A177.91,177.91,0,0,1,374,166.21q-1.36-7-2.72-14a3.71,3.71,0,0,0,.61-.84C392.14,111.92,411,71.79,430.2,31.83q7.31-2.32,14.56-4.84,4.41,16.84,8.42,33.73Q435.83,91.79,418.72,123Zm-49.4,19q-3.06-15.68-6.1-31.36-1-5.28-2.13-10.54a3.32,3.32,0,0,0,.23-.37C370.71,81,379.43,61.89,388.56,43c1.19-.27,2.39-.51,3.59-.78q17.06-3.87,33.81-9.05C406.85,69.31,387.54,105.39,369.31,142ZM356.7,79.73c-2.07-9.47-3.12-20.5-7.38-29.34q16.5-2.6,32.85-6c-7.68,15.46-15.56,30.8-23.08,46.33Q357.91,85.21,356.7,79.73Zm-99.61,80.43c-22.47-34.32-43.56-69.43-64.83-104.49l2.16.2a638.07,638.07,0,0,0,121.74-1.14Q286.88,107.59,257.09,160.16ZM139.35,93.54c-19.21,11.72-38.76,24.53-55.89,39.2-8-1.13-16.14.47-23.86,2.57-8.11,2.21-18.3,6.68-27.31,6.11,1.5-6.46,2.41-13.21,3.46-19.8q28.66-17.53,57-35.53Q107.14,77,121.49,67.83c8-5.08,16.4-9.81,24.09-15.37Q142.57,73,139.35,93.54Zm-11.39,73c-6.38-4.28-11.4-10.65-16.56-16.2-6.6-7.11-14.07-14-23.65-16.7l-.4-.1C105,124.44,122,113.14,138.1,101.6,134.72,123.24,131.29,144.87,128,166.52ZM42.73,85.38Q43.86,80,45.05,74.63c19-11,38.39-21.52,56.81-33.4,12.17,3,24.48,5.48,36.87,7.59-7.6,4.55-14.9,9.84-22.28,14.6q-13.86,8.94-27.7,17.91-26.11,16.94-52,34.26Q39.58,100.46,42.73,85.38Zm12.18-58c13,4.43,26.05,8.46,39.39,12C78,48.6,62.23,58.86,46.34,68.78,49.4,55,52.5,41.25,54.91,27.36ZM495.77.17a716,716,0,0,1-191.08,43.5C239.24,49.18,173.2,46,108.84,32.6c-35.87-7.49-72-16.2-106-30C0,1.43-1.22,6,1.58,7.17,17.34,13.57,33.1,19.73,49,25.33,42,44.27,37.29,64.07,32.92,83.75q-3.37,15.19-6.35,30.47c-1.95,10.08-4.66,20.76-5,31A4.83,4.83,0,0,0,26.34,150a127.8,127.8,0,0,0,29.12-4.21c9.76-2.64,20.51-6.1,30.53-2.71,9.52,3.22,16,11.85,22.5,19.08s13.13,13.37,22.06,17.1c2.36,1,5.92-1.08,6.3-3.58,6.41-41.39,12.29-82.86,19-124.21q14.16,2,28.38,3.41c19.79,41.14,43.44,80.53,68.42,118.7,2.19,3.34,7.52,3.84,9.59,0Q294.69,113.26,328,53.38q7.92-1,15.81-2.14c-.87,10,2.4,21.13,4,30.95,1.67,10.43,3.35,20.85,5.27,31.24q5.93,32.13,11.87,64.28c.61,3.29,5.43,5.39,8.19,3.33a189.5,189.5,0,0,0,44.16-47.26c19.38,9.31,38.61,18.95,57.91,28.41,4.86,2.39,9.36-1.52,8.57-6.59a973.9,973.9,0,0,0-29.44-132c14.8-5.47,29.38-11.54,43.71-18C501,4.16,498.87-1,495.77.17Z" fill="#272442"/>
  </g>
</svg>
