<svg xmlns="http://www.w3.org/2000/svg" xmlns:xlink="http://www.w3.org/1999/xlink" viewBox="0 0 509.45 191.86">
  <defs>
    <clipPath id="bc0ef861-fdcb-49a5-ace9-a6e446974a83" transform="translate(5 5)">
      <polygon points="54.5 24.01 150.73 46.15 130.95 172.48 89.33 139.13 51.26 140.9 23.51 144.74 46.53 37 54.5 24.01" fill="none"/>
    </clipPath>
    <clipPath id="ba7442af-8a2e-4053-8891-6454ebc18ef4" transform="translate(5 5)">
      <polygon points="74.28 29.91 45.65 141.19 73.69 135.88 97.6 34.05 74.28 29.91" fill="none"/>
    </clipPath>
    <clipPath id="a34bd1d6-b8c3-4848-a99e-57b9c39627b1" transform="translate(5 5)">
      <polygon points="123.87 41.72 100.84 148.28 130.95 172.48 150.73 46.15 123.87 41.72" fill="none"/>
    </clipPath>
    <clipPath id="e60269f8-9b31-405f-a00e-c1ab2e658aa6" transform="translate(5 5)">
      <polygon points="322.52 48.8 186.15 50.58 258.17 168.06 322.52 48.8" fill="none"/>
    </clipPath>
    <clipPath id="e7c0cff9-fb41-400a-88d8-a5ec21768fcd" transform="translate(5 5)">
      <polygon points="346.81 46.86 449.02 21.94 477.62 153.89 415.05 129.54 368.33 176.26 346.81 46.86" fill="none"/>
    </clipPath>
    <clipPath id="ab3d3315-7525-4b6b-baa3-47a80f002c9a" transform="translate(5 5)">
      <path d="M449,21.94c-.28.85,28.6,132,28.6,132l-33.13-13.31L424.11,29Z" fill="none"/>
    </clipPath>
    <clipPath id="a0d4818d-e5c0-45b5-b77d-0d915da91c6d" transform="translate(5 5)">
      <path d="M389.84,37.23,398.66,83a99.69,99.69,0,0,0,6.82,20.5c2.29,5.32,4.51,10.78,5,16.55.83,9.22-4.06,16.62-9.89,23.17L387.93,157.5l-.07.07L365.78,40.06Z" fill="none"/>
    </clipPath>
    <clipPath id="a2d74efc-29f4-4ce3-8022-8707b7398f55" transform="translate(5 5)">
      <path d="M470.68,147.28l-21-9.7a3.78,3.78,0,0,0-.06-.47c-8.48-34.54-16.78-69.07-23.49-104q9.34-2.87,18.59-6.1C455.19,66.81,464,106.71,470.68,147.28Zm-50.11-23.07a21,21,0,0,1-5.13-4.29c-.26-.32-.5-.64-.74-1-.69-2.5-1.58-4.94-2.25-7.13q-3.88-12.73-7.76-25.48c-2.48-8.11-5.11-16.2-6.95-24.48-1.49-6.67-2.53-13.4-4.57-19.89q14.59-3.34,29-7.66c3.06,23.29,6.78,46.51,11.56,69.51,2,9.74,3.93,19.66,6.86,29.18C433.91,130.22,426.75,128,420.57,124.21ZM392,149.09c-3.14-16.91-7.63-33.65-11.49-50.38q-3.11-13.39-6.19-26.8c-1.84-7.95-2.92-17.13-6.06-24.79q9.48-1.77,18.91-3.83c.27,5.27,1.86,10.76,2.92,15.66,1.78,8.28,4.33,16.34,6.73,24.45q2.06,7,4.13,14a69.28,69.28,0,0,0,2.73,9.32c.13.43.26.87.38,1.3,1.1,3.77,2.17,7.54,3.16,11.33a39,39,0,0,1,.91,5.29c-1,6.8-5.72,12.28-10,17.46C397.44,142.9,391.82,148.13,392,149.09Zm-18,17.12-10.8-55.58c-2-10.34-4.25-20.61-6.51-30.9-2.08-9.47-3.12-20.5-7.38-29.34,5.4-.85,10.79-1.79,16.17-2.77.23,8.37,3.06,17.35,4.64,25.44q2.64,13.53,5.27,27.06c3.55,18.22,6.44,36.75,11,54.76Q380.49,160.79,374,166.21Zm-116.92-6.05c-22.47-34.31-43.56-69.43-64.83-104.49l2.16.2a638.07,638.07,0,0,0,121.74-1.14Q286.88,107.59,257.09,160.16ZM128,166.52c-6.38-4.29-11.4-10.65-16.56-16.2-1.74-1.87-3.54-3.73-5.42-5.5a5.49,5.49,0,0,0,.29-.84c4-16.49,6.63-33.37,9.81-50,3-15.87,6.21-31.72,8.89-47.65q10.44,2,21,3.71C140.28,88.9,133.93,127.68,128,166.52Zm-28.47-27.1a37.66,37.66,0,0,0-11.74-5.8,36.31,36.31,0,0,0-9.8-1.26c4.09-15,6.86-30.44,10.23-45.58,3.43-15.45,7.17-30.92,9.73-46.54q11.24,2.85,22.64,5.17c-3.83,15.55-7.19,31.21-10.67,46.83S102.36,123.6,99.49,139.42Zm-28.13-6.6a89.67,89.67,0,0,0-11.76,2.49c-3,.82-6.33,2-9.77,3,7.84-35,16.14-69.77,25.86-104.27q9,2.7,18.07,5.09C89.29,54.3,86,69.81,82.34,85.17,78.63,101,74.18,116.82,71.36,132.82Zm-39.07,8.6c1.94-8.33,2.89-17.13,4.43-25.47q2.82-15.32,6-30.57c4.06-19.33,8.8-38.55,12.18-58,5.14,1.76,10.31,3.43,15.5,5.06-10.64,35.5-20.14,71.46-27.34,107.82A37,37,0,0,1,32.29,141.42ZM495.77.17a716,716,0,0,1-191.08,43.5C239.24,49.18,173.2,46,108.84,32.6c-35.87-7.49-72-16.2-106-30C0,1.43-1.22,6,1.58,7.17,17.34,13.57,33.1,19.73,49,25.33,42,44.27,37.29,64.07,32.92,83.75q-3.37,15.19-6.35,30.47c-1.95,10.08-4.66,20.76-5,31A4.83,4.83,0,0,0,26.34,150a127.79,127.79,0,0,0,29.12-4.2c9.76-2.65,20.51-6.11,30.53-2.72,9.52,3.22,16,11.85,22.5,19.08s13.13,13.37,22.06,17.1c2.36,1,5.92-1.08,6.3-3.58,6.41-41.39,12.29-82.86,19-124.21q14.16,2,28.38,3.41c19.79,41.14,43.44,80.53,68.42,118.7,2.19,3.34,7.52,3.84,9.59,0Q294.69,113.26,328,53.38q7.92-1,15.81-2.14c-.87,10,2.4,21.13,4,30.95,1.67,10.43,3.35,20.85,5.27,31.24q5.93,32.13,11.87,64.28c.61,3.29,5.43,5.39,8.19,3.33a189.5,189.5,0,0,0,44.16-47.26c19.38,9.31,38.61,18.95,57.91,28.41,4.86,2.39,9.36-1.52,8.57-6.59a973.9,973.9,0,0,0-29.44-132c14.8-5.47,29.38-11.54,43.71-18C501,4.16,498.87-1,495.77.17Z" fill="none"/>
    </clipPath>
  </defs>
  <g id="f5dbe0d4-2f3f-490d-9ebc-5adfe383f824" data-name="Layer 2">
    <g id="e7e2a867-15ac-47e3-8a2f-415d99576548" data-name="Layer 1">
      <g>
        <g clip-path="url(#bc0ef861-fdcb-49a5-ace9-a6e446974a83)">
          <rect x="23.51" y="24.01" width="137.22" height="158.47" fill="#f95252"/>
        </g>
        <g clip-path="url(#ba7442af-8a2e-4053-8891-6454ebc18ef4)">
          <rect x="45.65" y="29.91" width="61.95" height="121.28" fill="#ffecd4"/>
        </g>
        <g clip-path="url(#a34bd1d6-b8c3-4848-a99e-57b9c39627b1)">
          <rect x="100.84" y="41.72" width="59.89" height="140.76" fill="#ffecd4"/>
        </g>
        <g clip-path="url(#e60269f8-9b31-405f-a00e-c1ab2e658aa6)">
          <rect x="186.15" y="48.8" width="146.37" height="129.25" fill="#74deda"/>
        </g>
        <g clip-path="url(#e7c0cff9-fb41-400a-88d8-a5ec21768fcd)">
          <rect x="346.8" y="21.94" width="140.82" height="164.32" fill="#ffecd4"/>
        </g>
        <g clip-path="url(#ab3d3315-7525-4b6b-baa3-47a80f002c9a)">
          <rect x="424.11" y="21.94" width="63.52" height="141.95" fill="#c69ff7"/>
        </g>
        <g clip-path="url(#a0d4818d-e5c0-45b5-b77d-0d915da91c6d)">
          <rect x="365.78" y="37.23" width="54.82" height="130.34" fill="#c69ff7"/>
        </g>
        <g clip-path="url(#a2d74efc-29f4-4ce3-8022-8707b7398f55)">
          <rect width="509.45" height="191.86" fill="#272442"/>
        </g>
      </g>
    </g>
  </g>
</svg>
