<svg xmlns="http://www.w3.org/2000/svg" viewBox="0 0 24 24">
  <defs/>
  <g fill="none" fill-rule="nonzero">
    <path fill="#3BD2D3" d="M15.04 7.78l.21.02c.35.02.7.07 1.05.14l.23.06.79-3.56-2.26-.21-.02 3.55zM14.02 3.4c-.08-.06-.19-.08-.31-.08l-1.32-.08.05 4.42h.23l1.3.05.24.01-.05-3.89c0-.16-.02-.33-.14-.43zM9.4 7.74l.25-.02 1.3-.05h.22l.06-4.07-1.84.32.01 3.82zM8.04 4.12h-.01a.31.31 0 00-.16-.04h-.14l-1.52.2c-.16.03-.28.06-.34.15l-.01.01v.01c-.05.08-.05.15-.04.27l.33 3.36.29-.04a39.9 39.9 0 011.67-.2l.22-.02-.15-3.3c0-.19-.03-.32-.14-.4z"/>
    <path fill="#F95252" d="M20.7 16.66l-.1-.06c-.29-.28-.7-.43-1.19-.43-.28 0-.56.04-.83.13a6.9 6.9 0 00-1.17.57c-.22.13-.46.26-.7.37-.44.22-.88.33-1.26.33-.23 0-.47-.05-.68-.14-.31-.14-.57-.4-.82-.64-.32-.3-.64-.63-1.08-.74a1.4 1.4 0 00-.35-.04c-.6 0-1.18.37-1.72.76-.47.33-1.01.66-1.55.66a1.2 1.2 0 01-.42-.07c-.36-.14-.63-.45-.89-.75l-.1-.13c-.27-.3-.68-.7-1.2-.71-.46 0-.82.3-1.17.6l-.01.02-.33.27c-.4.3-.95.46-1.53.46-.68 0-1.34-.22-1.81-.6l-.35-.28-.03.44a8.75 8.75 0 00.02 1.66l.01.1.08.06c.3.34.76.53 1.3.53.14 0 .28-.02.41-.04a5.8 5.8 0 001.7-.66 3.75 3.75 0 011.7-.4c.58.05 1.11.36 1.63.66.59.34 1.14.67 1.78.67l.23-.02c.46-.06.85-.3 1.26-.54.43-.25.87-.51 1.35-.51h.05c.5.01.9.3 1.34.6.3.2.6.41.94.53.26.1.53.14.8.14.65 0 1.3-.23 1.93-.46.6-.22 1.27-.46 1.94-.46.19 0 .37.02.56.06l.28.07v-.29c.02-.54 0-1.08-.02-1.6v-.12zM19.74 19.58c-.44 0-.95.12-1.55.37l-.3.13h-.03c-.6.26-1.21.53-1.84.53l-.17-.01c-.55-.04-1.06-.3-1.55-.54-.57-.27-1.1-.53-1.7-.55h-.06c-.6 0-1.15.25-1.7.49-.52.23-1.06.46-1.62.46h-.14a3.88 3.88 0 01-1.54-.59 3.8 3.8 0 00-1.63-.6h-.1c-.54 0-1.04.2-1.56.42l-.01.01-.49.2c-.32.12-.65.19-1 .2-.3 0-.57-.07-.79-.2l-.39-.23.04.45c.06.55.08 1.1.06 1.65v.26l.25-.02a141.3 141.3 0 017.81-.26h.52c2.67 0 5.4.1 8.02.21l1.85.07h.2l.04-.19c.11-.62.2-1.25.27-1.88l.02-.18-.17-.06c-.23-.1-.48-.14-.74-.14z"/>
    <path fill="#F95252" d="M3.49 15.9c.3 0 .61-.06.9-.18.31-.14.58-.33.87-.55.12-.09.26-.2.4-.28.4-.27.76-.4 1.1-.4.08 0 .17 0 .26.03.4.1.7.4 1.01.72.3.3.59.6.98.74.15.05.32.08.48.07.37 0 .77-.12 1.2-.36l.57-.36c.28-.19.57-.39.88-.52.25-.11.52-.17.8-.18.3 0 .55.08.75.24.17.13.3.31.42.5.12.17.24.35.4.49.26.24.62.36 1.05.36.34 0 .68-.07 1-.2a8 8 0 00.83-.42h.02c.33-.19.67-.37 1.04-.5.19-.06.39-.09.59-.08.41 0 .82.11 1.12.3l.47.33-.11-.56c-.1-.47-.25-.84-.45-1.14-.7-1.02-2.07-1.32-3.32-1.48a46.7 46.7 0 00-10.34-.17c-1.25.13-2.67.33-3.67 1.23-.4.38-.73.87-.96 1.45l-.06.14.11.11c.44.44 1.04.68 1.66.67z"/>
    <path fill="#FFFFFF" d="M20.55 18.49a2.43 2.43 0 00-.67-.1c-.7 0-1.41.27-1.99.48-.57.22-1.25.45-1.88.45-.26 0-.5-.04-.75-.13-.33-.11-.62-.32-.92-.52-.43-.3-.88-.6-1.4-.62h-.06c-.52 0-.98.27-1.42.53-.38.23-.78.47-1.2.52l-.22.02c-.6 0-1.16-.33-1.71-.65a4.22 4.22 0 00-1.88-.7c-.56 0-1.11.23-1.57.44-.1.04-.2.08-.28.13-.45.2-.9.43-1.39.51-.12.02-.25.03-.38.03a1.7 1.7 0 01-.98-.28l-.42-.29.05.5a78.55 78.55 0 00.09.87v.08l.07.06c.26.27.63.4 1.1.4.36 0 .72-.07 1.06-.2l.5-.2a4 4 0 011.6-.4c.56.02 1.08.3 1.57.58a3.91 3.91 0 001.75.6c.58 0 1.12-.23 1.68-.48a4.2 4.2 0 011.64-.47h.05c.57.02 1.12.28 1.64.54.53.26 1.03.5 1.6.55h.18c.66 0 1.3-.26 1.9-.52l.33-.14a4.07 4.07 0 011.5-.36c.21 0 .42.03.61.1l.28.09.03-.3.05-.89.01-.18-.17-.05zM3.6 17.25c.62 0 1.19-.17 1.61-.48l.36-.3c.34-.29.66-.57 1.07-.57.47 0 .85.39 1.1.67l.1.13c.26.3.55.64.95.78.15.06.3.09.46.09.58 0 1.15-.35 1.63-.69.44-.3 1.04-.73 1.65-.73.1 0 .2.01.3.04.4.1.7.39 1.02.7.27.26.53.51.86.66.24.1.5.16.75.16.4 0 .85-.12 1.32-.34.24-.11.47-.25.7-.38.37-.2.74-.42 1.14-.55.26-.09.53-.13.8-.14.35 0 .65.09.9.25l.39.26-.04-.47a19.93 19.93 0 00-.06-.7v-.08l-.06-.06c-.36-.46-1.01-.62-1.51-.62-.22 0-.43.03-.64.1-.37.12-.7.3-1.06.5-.27.15-.54.29-.83.4-.3.13-.62.2-.95.2h-.06a1.4 1.4 0 01-.9-.32c-.15-.13-.26-.3-.37-.47-.13-.19-.27-.38-.46-.53a1.35 1.35 0 00-.83-.27c-.3 0-.59.07-.86.2-.32.13-.6.32-.9.52-.18.12-.37.25-.56.36-.28.16-.7.35-1.13.35-.15 0-.3-.03-.44-.08-.36-.12-.63-.4-.92-.7-.31-.32-.63-.65-1.08-.76l-.3-.03c-.35 0-.75.14-1.17.42l-.4.29c-.27.2-.55.4-.85.54a2.26 2.26 0 01-2.3-.37l-.27-.24-.1.35c-.1.3-.16.61-.2.92l-.02.12.08.08c.5.5 1.28.8 2.09.8zM15.91 11.37H16c.55 0 1.06-.43 1.14-.96.1-.65-.3-1.03-.67-1.17a1.22 1.22 0 00-.42-.07c-.4 0-.78.2-.99.55a1.1 1.1 0 00.86 1.65zM11.93 9.22a1.09 1.09 0 00.86 1.65h.08c.55 0 1.06-.43 1.14-.96.1-.64-.3-1.03-.67-1.17a1.23 1.23 0 00-.42-.07c-.4 0-.78.2-.99.55zM9.92 8.8H9.9c-.46.01-1.02.3-1.14.95a1.09 1.09 0 001.4 1.24c.55-.16.91-.78.8-1.34a1.03 1.03 0 00-1.04-.85zM6.66 9h-.02c-.46 0-1.02.3-1.14.95-.08.51.2 1.01.67 1.2a1.1 1.1 0 00.72.04c.56-.16.92-.78.8-1.34A1.03 1.03 0 006.66 9z"/>
    <path fill="#FFEC8D" d="M16.98 8.21a4.07 4.07 0 00-1.73-.41 40.17 40.17 0 00-8.81.24c-.73.1-1.55.26-2.06.82a2.29 2.29 0 00-.5 1.78c.08.63.33 1.25.55 1.79l.07.18.2-.04c.58-.14 1.16-.21 1.71-.26a46.77 46.77 0 0110.35.16c.41.05.82.12 1.23.22l.26.07.03-.27c.07-.77.13-1.52-.01-2.26a2.89 2.89 0 00-1.3-2.02zM6.85 11.06a.95.95 0 01-1.22-1.08c.11-.57.6-.83 1.01-.84h.02c.46 0 .8.28.9.74.1.49-.23 1.04-.7 1.18zm3.27-.2a.99.99 0 01-.64-.03.99.99 0 01-.58-1.05c.1-.57.6-.83 1-.84h.02c.46 0 .8.29.9.74.1.49-.23 1.04-.7 1.18zm3.76-.97c-.08.47-.53.85-1 .85h-.07a.97.97 0 01.11-1.93c.13 0 .25.02.37.06.43.16.66.55.59 1.02zm3.12.5c-.08.47-.53.85-1.01.85h-.07a.98.98 0 01-.58-.25.98.98 0 01-.17-1.2c.18-.3.51-.49.87-.48.12 0 .25.02.37.06.43.16.66.55.59 1.02zM15.95 4.3l.04.01.4.04.06-.02c.32-.11.58-.5.67-.8.1-.36.04-.8-.16-1.23-.15-.3-.35-.57-.54-.82l-.22-.28-.55.99c-.17.3-.38.69-.37 1.1.01.4.3.83.67 1zM13.18.08l-.54.98c-.17.3-.38.68-.37 1.1 0 .48.4.97.84 1.07l.12.01c.42 0 .77-.49.87-.84.1-.36.04-.8-.16-1.23-.15-.3-.36-.59-.54-.82l-.22-.27zM10.13.54l-.55.98c-.17.3-.38.69-.37 1.1.01.48.4.97.85 1.07l.11.02c.42 0 .78-.49.87-.84.1-.37.05-.8-.15-1.23-.15-.31-.36-.6-.55-.83l-.21-.27zM6.74.98l-.55.98c-.17.31-.38.7-.37 1.1.01.48.4.97.85 1.07l.11.02c.42 0 .78-.49.87-.84.1-.37.05-.8-.15-1.23a4.3 4.3 0 00-.55-.82L6.74.98z"/>
    <path fill="#D8DEEC" d="M21.89 22.32c-.17-.2-.5-.25-.74-.25l-2.77-.1-.1-.01c-2.63-.1-5.34-.21-8.03-.21h-.52a138.58 138.58 0 00-8.7.32c-.25.01-.52.05-.66.24-.08.1-.1.22-.08.34.03.18.13.34.28.45.23.16.52.2.86.22a149.37 149.37 0 0011.54.38c2.12-.01 4.27-.1 6.36-.17l.43-.02.8-.02c.27-.01.59-.03.86-.14.3-.12.52-.36.56-.63.02-.16 0-.3-.1-.4z"/>
    <path fill="#272442" d="M22.07 22.17c-.18-.21-.49-.33-.91-.34l-.56-.02c.37-1.93.46-3.9.28-5.86a4.43 4.43 0 00-.62-2.13 3.31 3.31 0 00-1.75-1.22c.07-.8.14-1.6-.01-2.42a3.13 3.13 0 00-1.4-2.17l-.3-.15.75-3.37a.23.23 0 00-.04-.19c-.06-.09-.2-.1-.33-.11.22-.33.33-.72.31-1.12-.04-.81-.63-1.47-1.05-1.95a.23.23 0 00-.38.04c-.12.21-.26.41-.4.6l-.23.33c-.19.26-.44.68-.48 1.15-.02.26.03.52.14.75a.23.23 0 00-.19.06.23.23 0 00-.08.17l-.02 3.3c-.12 0-.24 0-.36-.02l-.05-3.67c0-.15 0-.43-.22-.6a.42.42 0 00-.07-.05c.23-.44.27-1.02.09-1.58A4.91 4.91 0 0013.27.1a.23.23 0 00-.39.04l-.26.44-.3.55c-.23.44-.32.84-.28 1.22.02.26.12.5.28.71-.12.02-.15.1-.16.24-.03.31 0 .63 0 .94l.04 3.2h-.8l.06-3.82a.23.23 0 00-.27-.23h-.05c.18-.42.2-.93.06-1.44a4.7 4.7 0 00-.95-1.61.23.23 0 00-.4.08c-.1.27-.24.52-.4.8-.1.15-.2.31-.28.48-.3.63-.32 1.23-.05 1.66.09.13.19.24.31.33-.14.03-.27.08-.27.24v3.6l-.6.05-.14-3.06c-.02-.33-.17-.68-.56-.67l-.11.01c.15-.4.17-.87.03-1.35-.17-.57-.52-1.07-.82-1.52a.23.23 0 00-.38 0c-.29.4-.58.82-.74 1.32a1.9 1.9 0 00.12 1.59l.15.19c-.2.02-.36.09-.46.24-.1.16-.07.33-.06.43l.3 3.14c-.62.12-1.25.33-1.69.81a2.51 2.51 0 00-.55 1.96c.07.64.3 1.24.54 1.8-.59.2-1.14.48-1.6.9-.7.63-1.5 1.87-1.43 4.23.02.6.08 1.2.14 1.78.08.8.17 1.63.13 2.44l-.42.03c-.22.01-.61.04-.83.33a.68.68 0 00-.12.52c.04.24.17.46.37.6.31.22.7.25.99.27a150 150 0 0011.55.37c2.13 0 4.29-.09 6.38-.17l1.21-.04c.3-.01.64-.03.95-.15.38-.16.66-.47.7-.82a.72.72 0 00-.14-.58zM1.85 20.42c.44.21 1 .23 1.61.03.26-.09.52-.2.77-.31.31-.14.61-.27.92-.35.52-.13 1.06-.1 1.56.1.24.1.47.2.69.33a3.85 3.85 0 003.57.33c.17-.07.35-.15.52-.24.4-.2.8-.4 1.2-.4.4.02.76.22 1.14.43l.43.22a4.27 4.27 0 003.07.23l.8-.3c.24-.12.5-.21.75-.3.4-.12.97-.21 1.42.05l.07.03a6.96 6.96 0 01-.24 1.52l-1.85-.07c-2.8-.1-5.7-.22-8.55-.2a139.28 139.28 0 00-7.83.26c.04 0 0-.6-.05-1.36zm.06-5.1c.78.55 1.91.6 2.83.09.19-.11.37-.23.55-.36.25-.18.5-.35.77-.45.43-.16.9-.12 1.3.09.23.12.43.3.63.47.3.27.61.54 1.02.66.16.05.33.08.5.08.68 0 1.33-.39 1.84-.68.63-.37 1.35-.71 1.95-.45.28.12.5.35.74.6.25.28.52.56.89.72.2.1.42.14.65.14.46 0 .98-.17 1.58-.51l.2-.12c.53-.3 1.08-.63 1.64-.6.45.02.89.25 1.29.5.02.02.04.03.07.03l.02.24.05.58a2.5 2.5 0 00-1.92-.04c-.42.14-.8.35-1.18.55-.24.14-.5.27-.76.39-.5.22-1.24.43-1.86.14-.29-.13-.53-.36-.8-.61-.37-.36-.76-.72-1.3-.8-.76-.11-1.42.39-1.9.75-.5.38-1.02.72-1.53.6-.38-.07-.68-.38-.99-.71-.37-.4-.75-.8-1.32-.86-.64-.08-1.14.3-1.63.67-.17.13-.34.25-.52.36-.92.56-2.26.4-3.03-.36l-.02-.01c.05-.38.12-.75.24-1.1zm3.06 1.87c.19-.12.37-.25.55-.4.43-.32.84-.63 1.3-.57.4.05.7.37 1.03.72.35.36.7.74 1.23.85.69.15 1.33-.24 1.91-.69.52-.4 1.02-.74 1.54-.66.4.06.72.36 1.06.68.28.26.56.53.92.7.27.12.57.18.87.18.51 0 1-.16 1.38-.33.27-.12.54-.26.8-.4.37-.2.72-.39 1.1-.52.7-.24 1.38-.18 1.8.17l.01.01c.03.42.05.83.05 1.24a5.2 5.2 0 00-2.49.44c-.88.31-1.72.6-2.52.36-.34-.1-.66-.3-.98-.52-.42-.26-.85-.54-1.37-.62-.76-.12-1.5.2-2.14.5l-.06.02c-.6.27-1.3.55-1.92.35-.27-.09-.52-.26-.78-.45a5.61 5.61 0 00-.5-.33c-.6-.33-1.3-.44-1.96-.32-.51.1-.97.33-1.41.55-.27.13-.53.26-.8.36-.66.25-1.5.27-1.91-.24l-.05-.7V17c.94.72 2.32.82 3.34.2zm-2.52 1.94c.44.04.88-.02 1.3-.18.28-.11.57-.24.84-.38.44-.22.85-.43 1.3-.51.56-.1 1.14-.01 1.64.27l.46.3c.28.2.56.4.91.51.74.24 1.52-.03 2.25-.36l.06-.02c.62-.28 1.26-.57 1.88-.47.42.07.79.3 1.18.56.35.22.7.44 1.1.57.25.07.51.1.77.1.7 0 1.38-.23 2.04-.47.82-.28 1.59-.55 2.34-.41l-.01.17-.09.97a2.35 2.35 0 00-1.68-.03c-.27.08-.54.19-.8.3-.24.11-.5.2-.75.3-.9.26-1.87.2-2.73-.21l-.4-.21c-.42-.23-.85-.47-1.36-.48a3 3 0 00-1.43.44c-.17.09-.32.17-.49.24-.84.34-1.78.33-2.6-.03-.2-.08-.37-.18-.56-.28a5.86 5.86 0 00-.74-.37 3.1 3.1 0 00-1.84-.11 5.8 5.8 0 00-1 .37c-.23.12-.47.22-.72.3-.92.3-1.38-.05-1.5-.17l-.01-.01-.08-.92c.23.13.47.2.72.22zm13.9-11.41a6.72 6.72 0 00-1.08-.16l.02-3.08 1.74.17-.68 3.07zm-.6-3.67c-.26-.16-.36-.5-.33-.77.03-.36.24-.7.4-.93l.21-.31c.1-.12.18-.25.27-.38.4.47.7.92.73 1.44.02.39-.14.77-.42 1.05l-.69-.04-.12-.02a.23.23 0 00-.06-.04zm-2.06-.5c.06 0 .15 0 .19.03.04.04.04.2.04.26l.06 3.64-1.3-.05-.05-3.95 1.06.07zm-.96-2.23l.3-.51.09-.16c.27.36.5.7.63 1.1.13.4.15.95-.16 1.35h-.18l-.33-.03a.23.23 0 00-.11-.08c-.25-.1-.43-.38-.46-.7-.03-.28.04-.6.22-.97zM11 3.88l-.05 3.56c-.43 0-.87.03-1.3.05l-.01-3.37 1.36-.24zM9.59 1.9l.26-.46c.1-.16.2-.33.28-.5.26.33.5.71.62 1.13.15.53.07 1.08-.22 1.42l-.44.08-.02-.02c-.2-.12-.43-.26-.56-.46-.26-.4-.03-.97.08-1.19zm-3.3.54c.1-.33.28-.63.48-.92.23.35.45.71.56 1.1.11.4.13.97-.18 1.35l-.37.05A.28.28 0 006.73 4a1 1 0 01-.37-.35c-.2-.32-.22-.75-.07-1.2zm-.23 2.12s.03-.02.18-.04l1.1-.15h.02l.4-.05h.15s.03.02.04.2l.14 3.1c-.56.04-1.12.11-1.68.19h-.05l-.3-3.1v-.15zm-1.94 6.05c-.07-.64.09-1.22.43-1.6.46-.5 1.23-.64 1.92-.74 2.9-.4 5.84-.48 8.76-.24.59.05 1.16.11 1.63.39a2.66 2.66 0 011.18 1.85 7.8 7.8 0 010 2.2c-.4-.1-.83-.18-1.25-.23a46.8 46.8 0 00-10.4-.17c-.57.06-1.17.13-1.75.27a6.54 6.54 0 01-.52-1.73zm-1.22 3.1c.94-.86 2.32-1.06 3.53-1.17 3.43-.33 6.88-.27 10.3.16 1.2.16 2.5.44 3.15 1.38.17.27.3.55.37.86a2.73 2.73 0 00-1.23-.4c-.7-.04-1.3.31-1.9.65l-.2.12c-.76.44-1.35.55-1.8.36-.29-.12-.5-.36-.74-.61-.26-.28-.52-.56-.9-.72-.79-.34-1.64.05-2.37.48-.68.4-1.35.74-1.96.56-.31-.1-.57-.33-.85-.57-.22-.19-.44-.39-.71-.53a2.1 2.1 0 00-1.68-.12c-.34.12-.62.32-.9.51-.15.12-.32.23-.5.33-.78.43-1.8.37-2.43-.14.19-.44.47-.83.82-1.15zm18.85 8.98c-.03.18-.19.35-.41.44-.24.1-.52.11-.8.12l-1.2.05a149.42 149.42 0 01-17.88-.2c-.32-.03-.57-.06-.76-.2a.46.46 0 01-.18-.28.22.22 0 01.03-.17c.09-.1.3-.13.5-.15A139.04 139.04 0 019.72 22c2.85-.02 5.74.1 8.54.2l2.87.11c.28.01.49.07.57.17.02.03.06.1.04.22z"/>
    <path fill="#272442" d="M5.9 11.33c.18.13.4.2.63.2h.1c.48-.04.9-.32 1.14-.74.22-.43.2-.95-.06-1.36a1.27 1.27 0 00-2.27.29c-.13.4-.08.85.13 1.22.08.16.19.29.32.4zm-.02-1.47a.78.78 0 01.77-.54.8.8 0 01.67.37c.17.27.18.6.03.88a.96.96 0 01-.75.5.63.63 0 01-.43-.11.69.69 0 01-.19-.24c-.15-.27-.18-.6-.1-.86zM9.1 11.07a1.06 1.06 0 00.75.2c.47-.05.9-.32 1.13-.74.22-.43.2-.95-.06-1.36a1.27 1.27 0 00-2.27.29c-.13.38-.08.83.13 1.22.08.16.19.29.32.4zm0-1.47c.09-.29.34-.5.65-.53a.8.8 0 01.78.36c.17.26.18.6.04.88a.96.96 0 01-.76.49.63.63 0 01-.43-.1 1.1 1.1 0 01-.29-1.1zM12.12 10.95c.19.14.41.2.64.2h.1c.48-.04.91-.32 1.14-.74.23-.43.2-.95-.06-1.36a1.27 1.27 0 00-2.27.29c-.12.4-.08.85.13 1.22.08.15.19.29.32.4zm0-1.47a.78.78 0 01.76-.54.8.8 0 01.67.37c.17.26.18.6.04.88a.96.96 0 01-.76.49.63.63 0 01-.43-.1.7.7 0 01-.19-.24c-.15-.27-.18-.6-.1-.86zM15.28 11.47c.19.13.41.2.64.2h.1c.48-.05.91-.32 1.14-.75.22-.42.2-.94-.06-1.35a1.27 1.27 0 00-2.27.29c-.12.4-.08.85.13 1.22.08.15.19.29.32.4zm0-1.47c.09-.3.34-.5.65-.54a.8.8 0 01.78.36c.17.27.18.6.04.89a.96.96 0 01-.76.49.63.63 0 01-.43-.1.7.7 0 01-.19-.24c-.14-.28-.18-.6-.1-.86z"/>
  </g>
</svg>
