<svg xmlns="http://www.w3.org/2000/svg" viewBox="0 0 24 24">
  <defs/>
  <g fill="none" fill-rule="nonzero">
    <path fill="#C67045" d="M21.25 16.34c-.44 0-.89-.04-1.33-.1l-1.2-.2-.02-.01c-.72-.13-1.46-.27-2.2-.3l-.4-.01c-1.41 0-2.83.33-4.2.66-1.36.32-2.76.66-4.14.66-.5 0-1.01-.05-1.5-.15-.7-.15-1.38-.4-2.03-.66l-.05-.02-.8-.3c-.6-.2-1.4-.45-2.23-.45-.2 0-.4.02-.6.05l-.2.03.27 3.84.27-.07c.46-.11.93-.17 1.4-.17 1.13 0 2.27.3 3.24.58l.62.19c1.26.38 2.57.77 3.89.77h.3c1.27-.06 2.5-.51 3.7-.95 1.28-.47 2.59-.95 3.93-.95l.42.02c.68.05 1.36.24 2.02.42.8.22 1.55.43 2.33.43l.45-.03.19-.02.02-.18c.1-.9.22-2.06.24-3.26v-.36l-.33.15c-.6.26-1.27.39-2.06.39zm-17.63 1.6c-.1.18-.25.31-.44.37a.61.61 0 01-.17.02.73.73 0 01-.37-.1.7.7 0 01-.33-.43.7.7 0 01.42-.82c.1-.04.19-.06.29-.06.16 0 .4.05.56.32.14.21.15.48.04.7zm4.05.85a.57.57 0 01-.33.3.53.53 0 01-.17.03.65.65 0 01-.6-.37.5.5 0 010-.42c.08-.17.3-.28.54-.28h.03c.27 0 .48.12.55.31.05.14.04.3-.02.43zm3.98.17a.77.77 0 01-.68.04.65.65 0 01-.38-.56c0-.19.12-.38.33-.52.15-.1.33-.17.52-.17.08 0 .16.01.23.04.22.1.36.33.35.58a.75.75 0 01-.37.6zm3.85-1.28c-.02.24-.22.46-.48.53a.75.75 0 01-.8-.26.64.64 0 01.06-.8c.1-.1.24-.15.38-.14.13 0 .27.03.4.09.28.13.45.36.44.58zm2.75.13a.59.59 0 01-.44.15.6.6 0 01-.5-.7c.07-.33.34-.44.56-.44h.07c.19.02.52.16.52.57 0 .16-.08.31-.2.42zm3.82.33a.57.57 0 01-.21.38.59.59 0 01-.43.14.62.62 0 01-.52-.64c.04-.37.3-.5.54-.5h.06c.25.02.6.2.56.62zM5.13 12.72c1.26 0 2.44-.13 3.22-.23.8-.1 1.62-.23 2.4-.36h.05c1.72-.27 3.5-.55 5.27-.6h.49c.47 0 .94.02 1.4.03l1.38.02c.91 0 2.11-.04 3.26-.36l.26-.07-.1-.24a8.85 8.85 0 00-.93-1.7 7.38 7.38 0 00-1.1-1.24l-.2-.18-.15.22v.03l-.05.06-.02.02v.01l-.04.06-.02.03-.05.05v.01l-.01.01a2.5 2.5 0 01-.07.09l-.1.1-.02.02a2.1 2.1 0 01-.1.1l-.02.01-.09.08-.03.02a2.7 2.7 0 01-.1.09h-.01l-.02.01-.1.07-.02.01-.13.08-.03.01-.11.07h-.02c-.04.03-.09.04-.13.06l-.03.02-.14.05-.14.05h-.03l-.14.05h-.02a3.3 3.3 0 01-.13.03h-.03l-.14.03-.03.01-.13.02H17.92l-.13.01h-.26l-.07-.01h-.06l-.04-.01h-.04l-.07-.02h-.03l-.07-.02h-.03l-.1-.02a2.66 2.66 0 01-1.78-1.33l-.01-.02-.03-.06v-.03l-.03-.05-.01-.04-.03-.07v-.02l-.03-.08v-.03a1.86 1.86 0 01-.03-.09v-.06l-.01-.03-.02-.08V7.3a1.43 1.43 0 01-.01-.1v-.02-.06-.04-.06-.03-.1-.1l.02-.32-.32.09c-2.4.63-4.78 1.44-7.1 2.22l-.16.06c-1.6.54-3.2 1.12-4.79 1.71-.79.3-1.48.6-1.92 1.19l-.2.25.31.1c1.26.43 2.65.64 4.26.64z"/>
    <path fill="#CBE580" d="M20.66 1.47a4.96 4.96 0 00-2.7 1.92l.23.21-.47.37.7-.02a6.66 6.66 0 002.16-.53 4.44 4.44 0 001.8-1.87l.18-.35h-.39c-.51.02-1.02.1-1.5.27z"/>
    <path fill="#FFFFFF" d="M23.61 14.95l-.01-.28-.28.07c-.66.16-1.38.24-2.2.24-.99 0-2-.12-2.98-.23-.99-.11-2.01-.23-3.03-.23-.44 0-.88.02-1.32.08-.93.11-1.85.37-2.74.63h-.03l-1.04.3c-.7.18-1.63.38-2.6.38-.41 0-.83-.04-1.25-.13-.63-.14-1.23-.41-1.82-.67-.33-.15-.66-.3-1-.43a5.15 5.15 0 00-1.78-.36c-.37 0-.75.07-1.1.2l-.16.07.07.95.25-.04c.19-.02.37-.04.56-.04.84 0 1.63.25 2.24.46l.83.31h.01c.65.26 1.33.52 2.02.66.5.1 1.01.15 1.52.15 1.36 0 2.7-.32 4.13-.66 1.37-.33 2.79-.66 4.2-.66h.4c.74.04 1.48.18 2.2.3.38.08.81.16 1.23.22.44.06.88.1 1.33.1.8 0 1.48-.13 2.08-.4l.3.08v-.31c0-.26-.02-.51-.03-.76zM22.75 19.65c-.79 0-1.58-.22-2.34-.43-.66-.18-1.34-.37-2.02-.42a5.83 5.83 0 00-.43-.01c-1.33 0-2.58.45-3.9.94h-.01a12.78 12.78 0 01-4.01.96c-1.32 0-2.63-.4-3.89-.78l-.62-.19c-.97-.28-2.1-.58-3.23-.58-.5 0-1.01.07-1.5.2l-.18.05.11 1.54.33-.2a3.46 3.46 0 011.76-.43c.37 0 .74.04 1.1.12.63.14 1.25.36 1.85.57h.01a11.46 11.46 0 006.98.6c.7-.15 1.4-.38 2.07-.6.98-.33 2-.66 3.03-.78.32-.03.65-.05.98-.05 1.44 0 2.87.32 4.13.62l.25.05.03-.25.09-.69.03-.28-.29.02-.33.02z"/>
    <path fill="#FFDAC4" d="M22.93 11.36l-.07-.2-.21.05c-1.17.33-2.38.37-3.3.37-.47 0-.94 0-1.4-.02l-1.39-.02h-.5c-1.76.04-3.54.32-5.26.59h-.05c-.79.13-1.6.26-2.4.36-.78.1-1.96.23-3.22.23-1.64 0-3.06-.22-4.35-.66l-.2-.07-.09.2a4.79 4.79 0 00-.23 2.23l.02.3.3-.1c.3-.1.63-.16.95-.16a5 5 0 011.73.36c.33.12.66.27.98.4l.02.02c.59.26 1.2.53 1.84.68.43.09.86.14 1.29.13.98 0 1.91-.2 2.62-.39l1.04-.29h.05c.88-.26 1.79-.52 2.71-.64.43-.05.87-.07 1.3-.07 1 0 2.03.12 3.02.23.98.11 1.99.23 3 .23.85 0 1.6-.09 2.28-.26l.2-.05-.02-.2c-.09-1.18-.31-2.27-.66-3.25zM18.84 20.02c-.33 0-.67.02-1 .06-1.05.12-2.06.45-3.04.77-.67.22-1.37.45-2.07.6a11.3 11.3 0 01-6.9-.59c-.6-.21-1.23-.44-1.88-.58a5.53 5.53 0 00-1.14-.12c-.78 0-1.45.19-1.98.55l-.1.08.06 1.04c.05.57.12 1.15.54 1.48.33.25.74.28 1.21.28 5.7.07 11.5.1 17.3.11h.02c.95 0 1.94-.05 2.58-.69.53-.52.66-1.3.77-2.1l.03-.21-.21-.05c-1.28-.3-2.73-.63-4.19-.63z"/>
    <path fill="#935252" d="M21.53 17.38h-.08c-.37 0-.64.24-.68.62a.76.76 0 00.72.8c.17 0 .33-.06.46-.17.14-.12.24-.29.26-.48.04-.46-.32-.74-.68-.77zM17.95 16.68h-.08a.68.68 0 00-.7.55.75.75 0 00.7.87c.18 0 .35-.07.48-.19a.72.72 0 00.25-.52c0-.44-.34-.67-.65-.7zM15.11 16.97c-.14-.07-.3-.1-.46-.1a.65.65 0 00-.47.18.79.79 0 00-.06.98c.22.28.59.4.94.3.31-.08.55-.34.58-.64.02-.34-.26-.6-.53-.72zM11.72 17.66a.73.73 0 00-.28-.05c-.22 0-.42.07-.6.19-.25.17-.39.4-.39.64a.79.79 0 00.82.76.89.89 0 00.9-.83.75.75 0 00-.45-.7zM7.15 17.9H7.1c-.3 0-.56.15-.67.37a.65.65 0 000 .54c.14.27.42.45.72.45.08 0 .15 0 .22-.03.19-.07.33-.2.41-.39a.68.68 0 00.03-.53c-.11-.29-.42-.4-.67-.4zM3.02 16.78a.87.87 0 00-.35.07.84.84 0 00-.5.98.88.88 0 00.84.63c.07 0 .14 0 .2-.02a.85.85 0 00.49-1.28.8.8 0 00-.68-.38z"/>
    <path fill="#ED6D66" d="M18.22 4.1h-.02c-1.12 0-2.24.59-2.78 1.45-.17.28-.3.58-.36.9a2.4 2.4 0 00.22 1.6c.33.6.96 1.05 1.73 1.24a3.21 3.21 0 003.22-1.05c.1-.15.2-.3.28-.46l.02-.05c.38-.83.33-1.8-.13-2.51a2.48 2.48 0 00-2.18-1.12z"/>
    <path fill="#272442" d="M23.84 14.85a12.66 12.66 0 00-.79-3.83 9.1 9.1 0 00-1.03-1.95c-.35-.5-.76-.95-1.23-1.36.37-.88.3-1.87-.19-2.62a2.6 2.6 0 00-1.27-1.03 6.78 6.78 0 001.37-.44 4.7 4.7 0 002.05-2.32.23.23 0 00-.2-.32 5.74 5.74 0 00-4.56 1.95 3.8 3.8 0 011.78-2.5.23.23 0 10-.23-.4 4.26 4.26 0 00-2.09 3.92c-.92.2-1.76.74-2.23 1.48-.16.26-.28.54-.35.83-2.47.65-4.93 1.48-7.31 2.29l-.16.05c-1.6.54-3.21 1.12-4.8 1.72-.64.25-1.51.57-2.04 1.27-.62.83-.6 1.9-.52 3.01l.52 7.25c.05.6.13 1.26.63 1.65.41.32.96.32 1.35.33 5.72.07 11.54.1 17.3.1h.02c1.01 0 2.05-.05 2.75-.75.63-.63.75-1.6.84-2.3.25-1.96.5-4 .39-6.03zm-4.77-12.3a5.67 5.67 0 013.1-1.11 4.24 4.24 0 01-1.7 1.77c-.12.07-.65.26-1.25.4-.3.06-.65.15-.96.1l-.06-.01a.11.11 0 01-.03-.06c-.1-.36.66-.92.9-1.1zM15.29 6.5c.06-.3.17-.57.33-.83.5-.8 1.54-1.33 2.59-1.34h.01c.87 0 1.57.36 2 1.01.41.65.45 1.57.08 2.34a2.4 2.4 0 01-.36.54 2.96 2.96 0 01-2.87.85 2.43 2.43 0 01-1.66-1.3c-.17-.4-.2-.84-.12-1.27zM2.76 10.76c1.59-.6 3.2-1.18 4.79-1.72L7.7 9c2.31-.78 4.7-1.59 7.09-2.22V7.22l.01.1v.02l.02.08v.04l.02.07v.03l.02.07.01.03a2.28 2.28 0 00.06.2l.01.02.03.07.01.03.03.06.02.03.04.09a2.9 2.9 0 001.88 1.36l.11.03h.04l.07.02h.04l.07.01.04.01h.07l.05.01h.06l.05.01h.42l.15-.01h.03l.14-.02h.03l.15-.03.04-.01.13-.03h.02l.15-.05.04-.01.15-.05.15-.06.03-.01.14-.07h.02l.12-.07.03-.02.13-.08.03-.01.1-.08.03-.01.12-.1.03-.02.1-.09.02-.01.11-.1.03-.03.1-.11.07-.09.02-.02.05-.06.02-.04.05-.06.02-.03.05-.08c.4.35.76.75 1.06 1.19.37.52.67 1.07.9 1.66-1.46.4-3.04.36-4.57.32-.62-.01-1.27-.03-1.9-.02-1.79.04-3.57.32-5.3.6-.8.12-1.63.25-2.45.35-2.1.27-4.84.46-7.37-.39.41-.53 1.07-.81 1.82-1.1zM.7 12.28c1.47.5 3 .67 4.43.67 1.16 0 2.27-.1 3.25-.23.82-.1 1.65-.24 2.45-.36 1.72-.27 3.49-.55 5.24-.59.62-.01 1.26 0 1.88.02 1.58.04 3.21.08 4.76-.35.08-.03.46 1.72.48 1.87.07.42.1.85.1 1.28-1.27.43-2.6.18-4-.08-.5-.1-1.02-.19-1.53-.25a11.4 11.4 0 00-3.78.18c-.79.17-1.56.43-2.32.68-.44.14-.9.3-1.35.42a7.73 7.73 0 01-3.66.34 9.91 9.91 0 01-2.13-.77l-.87-.38a5.06 5.06 0 00-3.1-.42c.01-.9.05-2.07.15-2.03zm.16 7.28c1.5-.41 3.1-.06 4.6.38l.62.2c1.28.38 2.6.78 3.96.78h.3c1.32-.07 2.57-.53 3.79-.97 1.44-.53 2.8-1.03 4.24-.92.66.05 1.33.24 1.98.42.9.24 1.81.5 2.76.42-.03.22-.1.45-.14.67l-.02.08a10.6 10.6 0 00-5.63-.58c-1.01.17-2 .5-2.95.8-1.17.4-2.38.79-3.62.9-.85.06-1.7 0-2.53-.2-.68-.17-1.34-.43-1.98-.68-.55-.21-1.12-.43-1.7-.6-1.44-.42-2.66-.38-3.61.1l-.07-.8zm22.03 1.9a2.5 2.5 0 01-.62 1.39c-.57.57-1.52.62-2.44.62-5.75 0-11.56-.04-17.28-.11-.43 0-.8-.03-1.07-.23-.35-.27-.41-.8-.45-1.32l-.07-.93c.88-.53 2.01-.59 3.45-.17.56.16 1.12.38 1.65.59.66.25 1.34.52 2.05.69a8.34 8.34 0 002.68.2c1.29-.1 2.53-.5 3.73-.9.93-.3 1.9-.62 2.87-.8 1.86-.3 3.77-.1 5.52.62 0 .12 0 .23-.02.34zm.27-2.07c-.9.1-1.77-.14-2.7-.4-.66-.18-1.35-.37-2.05-.42-1.55-.12-3.02.42-4.44.94-1.18.43-2.4.88-3.64.94-1.39.06-2.77-.36-4.11-.77l-.63-.18c-1.54-.46-3.19-.82-4.76-.41L.6 15.74c.97-.15 1.96.13 2.71.4l.85.31c.66.26 1.34.52 2.05.67.51.1 1.03.15 1.55.15 1.42 0 2.82-.33 4.2-.66a16.6 16.6 0 014.53-.65c.73.03 1.46.17 2.17.3l1.24.21c1.46.2 2.58.1 3.5-.3a31.33 31.33 0 01-.23 3.22zm.23-3.69c-.05 0-.1 0-.15.02-.2.05-.4.16-.57.2-.26.08-.51.13-.78.15-.64.07-1.3.03-1.93-.06-.41-.06-.82-.14-1.22-.21-.73-.13-1.48-.27-2.24-.3-1.57-.08-3.14.3-4.66.65-1.91.46-3.72.9-5.54.51-.68-.14-1.34-.4-1.99-.64l-.85-.32a6.25 6.25 0 00-2.9-.43l-.01-.47c.79-.23 1.75-.11 2.92.36l.86.37c.7.32 1.44.65 2.23.8.37.08.75.12 1.14.11 1.04 0 2.02-.24 2.74-.44l1.37-.44c.74-.24 1.5-.5 2.27-.66 1.2-.26 2.42-.32 3.63-.17.49.06 1 .15 1.49.24 1.37.25 2.78.52 4.13.1.04.2.09.42.06.63z"/>
    <path fill="#272442" d="M11.76 17.58c-.28-.12-.66-.07-.97.14-.28.19-.43.45-.43.73a.88.88 0 00.9.85c.18 0 .36-.05.5-.14a.98.98 0 00.5-.79.84.84 0 00-.5-.8zm-.16 1.3c-.18.1-.4.12-.6.03a.56.56 0 01-.31-.47c0-.16.1-.32.28-.45.21-.14.48-.19.66-.11.19.09.3.28.3.48a.65.65 0 01-.33.52zM15.15 16.89c-.4-.19-.8-.15-1.04.1a.87.87 0 00-.07 1.1.97.97 0 001.04.34c.35-.1.62-.4.65-.73.03-.32-.2-.64-.58-.81zm.25.78c-.01.2-.18.38-.4.44a.65.65 0 01-.7-.22c-.14-.2-.12-.51.04-.68.16-.16.46-.12.67-.03.2.1.41.27.4.5zM2.64 16.76a.93.93 0 00-.56 1.1c.07.24.23.44.45.57a.97.97 0 00.72.1.94.94 0 00.53-1.42.9.9 0 00-1.14-.35zm.9 1.15a.62.62 0 01-.39.3.64.64 0 01-.75-.43c-.08-.35.12-.6.37-.72a.64.64 0 01.25-.05c.2 0 .38.1.48.28.12.19.13.42.03.62zM7.15 17.81c-.36 0-.67.16-.8.42a.74.74 0 00.01.62.9.9 0 00.8.51.77.77 0 00.72-.47c.1-.2.1-.41.03-.6-.11-.29-.4-.47-.76-.48zm.43.94a.48.48 0 01-.27.26.55.55 0 01-.65-.3.42.42 0 010-.34c.06-.14.24-.23.45-.23h.03c.17 0 .39.07.46.26.04.11.04.24-.02.35zM17.96 16.59c-.35-.04-.77.14-.88.62a.84.84 0 00.79.99c.2 0 .4-.08.54-.22a.81.81 0 00.28-.6c0-.49-.38-.75-.73-.79zm.23 1.15a.48.48 0 01-.79-.46c.07-.3.33-.39.53-.36.21.02.43.17.43.47 0 .13-.06.26-.17.35zM20.68 18a.85.85 0 00.8.9c.2-.01.38-.08.53-.2a.8.8 0 00.3-.54c.04-.52-.37-.84-.78-.87-.37-.04-.8.17-.85.7zm.33.02c.03-.3.24-.41.44-.41h.06c.25.02.5.21.47.52a.47.47 0 01-.18.32.48.48 0 01-.36.11.52.52 0 01-.43-.54z"/>
  </g>
</svg>
