<svg xmlns="http://www.w3.org/2000/svg" viewBox="0 0 24 24">
  <defs/>
  <g fill="none" fill-rule="nonzero">
    <path fill="#CEB4F7" d="M15.53 7.75c-1.14-.53-1.96-1.31-3.28-1.35a6.74 6.74 0 00-3.01.5c-1.6.7-2.58 2-3.43 3.44-.96-.68-1.99-1.44-3.04-2C2.1 8 1.45 7.55.75 7.3c-.1-.04-.27-.14-.38-.1-.3.12-.08.31-.03.56.1.48.15 1 .2 1.5.08.67-.06 1.4.04 2.06.15 1.05 1.27 1.6.9 2.79-.08.29-.25.57-.23.88.02.31.18.6.2.92.07.64-.2 1.27-.16 1.89.13-.18.35-.21.54-.3.52-.22.99-.5 1.46-.81.76-.49 1.52-.92 2.23-1.48.38-.3.58-.67 1-.4.7.45 1.18.99 2 1.28.95.35 1.98.46 3 .56a5.69 5.69 0 004.11-1.6c.1-.1.31-.47.45-.49.14-.02.4.33.48.4.33.3.7.57 1.11.77.81.42 1.77.54 2.52 1.08.36.26.9.7 1.38.63.37-.88.13-2.1.2-3.05.07-.9.31-1.8.39-2.7.08-.88.06-1.7.27-2.57.14-.57.3-1.42.16-2-.7.41-1.46.59-2.22.9-.8.32-1.5.7-2.22 1.14-.29.16-.79.63-1.15.6-.22-.01-.22-.05-.33-.29-.16-.33-.3-.74-.41-1.09-.19-.53-.23-.39-.73-.62z"/>
    <path fill="#E4F3EE" d="M1.86 7.67c.15.38.2.92.28 1.33.13.76-.13 1.48.08 2.23.2.74.54 1.47.52 2.26-.01.4-.17.79-.17 1.19-.01.46.14.92.28 1.36.08.26.26.67.03.9-.15.15-.53.27-.74.31-.19.04-.39.18-.57.19-.17-.46.05-1.02-.06-1.51-.1-.42-.35-.8-.4-1.23-.04-.48.23-.9.28-1.38.05-.41-.04-.83-.24-1.18-.26-.49-.52-.83-.55-1.38-.04-.7.2-1.34-.03-2.04C.44 8.3 0 7.27.7 7.1c.19-.04.37.04.53.12.21.1.43.34.63.45zM6.06 9.44c-.4.85-.76 1.94-.49 2.9.1.35.3.24.61.1.29-.14.53-.36.7-.63.3-.5.3-1.14.06-1.68-.14-.32-.34-.68-.88-.69zM6.9 8.43c.21-.39.8-.75 1.17-.95.47-.26.96-.48 1.47-.66.47-.16.97-.35 1.47-.4.3-.05.65-.14.94-.05.02.81-.04 1.38-.47 2.08-.45.73-1.4.99-2.21.99-.6 0-1.18-.3-1.73-.5-.2-.06-.86-.33-.64-.5zM14.31 6.83c-.1.43-.27.87-.1 1.31.13.39.47.67.84.83.23.1 1.26.2 1.35-.15.07-.26-.6-.8-.74-.94-.36-.32-.73-.6-1.35-1.05zM12.34 9.93c-.8.22-1.4 1.35-1.43 2.12-.03.77.3 1.59.98 1.99.87.5 1.86.1 2.52-.54.37-.34.72-.7.83-1.21.11-.48 0-1.14-.2-1.58-.38-.88-1.9-1.1-2.7-.78zM5.94 13.77c.98-.4 2.17-.4 3.06.22.48.34.84.67.93 1.28.04.28.05.79-.18 1-.2.19-.5.07-.73-.04a9.25 9.25 0 01-1.71-.94c-.5-.35-1.1-1.1-1.37-1.52zM11.9 16.65c.15-1.2 1.92-1.8 2.76-.98-.1.18-.37.3-.54.4-.32.19-.66.34-1.02.45-.24.08-.94.36-1.2.13zM21.92 7.25c-.6.61-.92 1.5-.96 2.34-.05.8.06 1.74-.28 2.47-.23.51-.41.86-.44 1.44-.02.4.08.76.08 1.16-.01.36-.06.73-.15 1.08-.08.3-.3.6-.25.91.18.01.29.24.46.31.24.1.44.24.67.35.21.1.5.21.6-.02.09-.22-.01-.65 0-.88a32.77 32.77 0 01.2-2.22c.14-1.06.16-2.15.39-3.2.12-.57.13-1.12.2-1.7.04-.44.17-.86.19-1.3.01-.25.06-.49.09-.72 0-.08.08-.15 0-.22-.18-.2-.76.22-.8.2z"/>
    <path fill="#272442" d="M22.68 6.7c-.5.18-.98.46-1.45.7l-1.41.7a119 119 0 00-2.75 1.43 5.25 5.25 0 00-1.9-2.48 5.68 5.68 0 00-3.76-.98 6.88 6.88 0 00-3.96 1.5c-.48.4-.9.86-1.23 1.39-.24.33-.44.7-.6 1.07-.48-.37-.96-.76-1.47-1.11-.55-.4-1.1-.78-1.66-1.17l-.77-.54c-.25-.17-.5-.4-.81-.47-.5-.13-.87.3-.86.78 0 .25.1.48.2.72.12.34.2.69.24 1.05.07.62-.08 1.2-.08 1.82 0 .54.24.94.54 1.36.14.2.28.39.33.62.06.28-.04.57-.12.84-.08.27-.17.54-.19.82-.02.3.07.58.16.86.12.36.18.69.12 1.07-.06.35-.2.69-.32 1.03-.08.22.18.35.36.27a19.09 19.09 0 005.15-3.06c.17.22.36.42.58.6a7.19 7.19 0 004.43 1.46c.86.02 1.72-.1 2.5-.47a5.22 5.22 0 002-1.72l.03.02a39.23 39.23 0 005.58 2.92c.13.06.32-.09.3-.23-.18-1.73.49-3.39.5-5.1 0-.87.06-1.74.17-2.6.12-.92.2-1.89.48-2.76.06-.2-.14-.4-.33-.34zm-8.38.51c.67.37 1.25.89 1.7 1.52a1.3 1.3 0 01-1.31-.26 1.39 1.39 0 01-.39-1.26zm-4.45-.3a6.7 6.7 0 011.87-.3c-.02.24.06.49.02.74a2.1 2.1 0 01-.25.74c-.29.5-.76.87-1.31 1.05-1.07.36-2.2.04-3.14-.54a6.66 6.66 0 012.81-1.7zM6.3 9.67c.9.74.62 2.19-.47 2.58-.1-.9.08-1.78.47-2.58zm-3.66 7.1a.18.18 0 000 .12c-.35.17-.7.32-1.06.46.12-.34.2-.7.19-1.07-.01-.53-.35-1-.32-1.53.03-.48.28-.92.3-1.4.02-.47-.21-.84-.48-1.21-.13-.18-.27-.35-.35-.56-.1-.28-.09-.58-.06-.88.05-.56.06-1.11-.02-1.68-.05-.27-.11-.53-.2-.8-.06-.22-.26-.62-.07-.83.16-.2.51.1.67.2l.45.28c.34.62.25 1.4.22 2.08-.02.42-.01.85.1 1.26.1.37.26.72.4 1.08a2 2 0 01.13 1.17c-.08.38-.24.74-.25 1.13-.03.73.63 1.46.35 2.17zm3.45-2.25c-.91.81-1.91 1.53-2.99 2.12.09-.71-.41-1.33-.39-2.05.01-.43.21-.83.27-1.25.04-.4-.05-.79-.2-1.16-.15-.38-.35-.75-.45-1.16-.13-.48-.1-.98-.09-1.48 0-.49-.02-1-.2-1.44l.04.02L3.79 9.2c.58.36 1.17.68 1.76 1.02a4.4 4.4 0 00-.25 1.3c-.38-.19-.76-.39-1.15-.57-.23-.11-.42.23-.2.33l1.35.6a4.43 4.43 0 00.14.9c-.59.12-1.15.34-1.66.66-.21.14-.01.49.2.35.48-.3 1-.54 1.54-.72.12.5.33.98.6 1.42a.25.25 0 00-.03.03zm3.47 1.7c-.47-.12-.93-.3-1.37-.51a4.33 4.33 0 01-1.93-1.98 3.03 3.03 0 012.4.26c.75.43 1.38 1.37.9 2.23zm2.95.16l-.34.05a1.78 1.78 0 012.23-.84c-.55.41-1.2.68-1.89.8zm3.35-2.43c-.3.51-.69.98-1.13 1.37a2.05 2.05 0 00-2.86 1.13 7.61 7.61 0 01-1.9-.14c.45-.94-.13-1.98-.95-2.52a3.12 3.12 0 00-2.85-.26c-.12-.28-.21-.57-.27-.87.67-.21 1.2-.8 1.3-1.5.1-.69-.21-1.37-.75-1.79l.2-.33.27-.31c1.02.74 2.32 1.13 3.55.66.57-.22 1.07-.61 1.38-1.15.16-.27.27-.58.3-.9.04-.22.06-.51-.02-.74.68.03 1.34.2 1.95.49l.04.02c-.18.54-.08 1.16.34 1.58.45.47 1.15.58 1.75.37.13.23.24.47.32.71a5 5 0 01-.67 4.17zm4.14.1c.02.76.17 1.58-.16 2.3a39.28 39.28 0 01-3.56-2.04c.23-.36.43-.75.6-1.14.46.12.89.34 1.26.65.2.15.46-.1.28-.28a2.5 2.5 0 00-1.41-.71c.15-.43.25-.87.3-1.33.61-.1 1.21-.18 1.83-.23a.16.16 0 100-.31 3.98 3.98 0 00-1.81.26c.02-.46-.03-.92-.16-1.37l2.86-1.28 1.3-.62c-.28.36-.44.82-.52 1.24-.16.84-.09 1.7-.3 2.54-.12.4-.29.78-.4 1.19-.09.37-.13.75-.11 1.13zm2.1-4.33c-.14.87-.23 1.74-.27 2.61-.07 1.6-.55 3.16-.48 4.76l-1.1-.54c.3-.65.26-1.34.22-2.04-.02-.37-.03-.76.03-1.13.07-.4.24-.8.36-1.2.27-.8.22-1.61.25-2.45.03-.74.19-1.4.65-1.97l.7-.33c-.05.77-.23 1.54-.36 2.3z"/>
    <path fill="#272442" d="M15.37 11.32c-.25-1.36-1.8-2.07-3.02-1.56-.74.3-1.27.93-1.5 1.66-.22.66-.26 1.35.12 1.97.49.8 1.51 1.17 2.41.96a2.7 2.7 0 001.99-3.03zm-1.71 2.51c-1.02.49-2.29 0-2.6-1.1-.06-.36-.04-.72.05-1.07.07-.3.21-.59.4-.83a2.7 2.7 0 011.2-.77c.8-.18 1.72.14 2.1.95.49 1.06-.15 2.34-1.15 2.82z"/>
  </g>
</svg>
