<svg xmlns="http://www.w3.org/2000/svg" xmlns:xlink="http://www.w3.org/1999/xlink" viewBox="0 0 515.33 515.33">
  <defs>
    <clipPath id="f334c986-5cab-4f49-b068-ccbd8f209e6a" transform="translate(27.24 11.48)">
      <path d="M157.51,129.92a4.19,4.19,0,0,0,.4.54c12.81-12.07,26.2-25.58,45.15-24.41,17.59,1.08,31.25,16.2,43.33,27.41,29.7,27.57,59.79,55.11,85.39,86.39,15.62,19.08,43.27,41.87,28.42,68.17-3,5.23-19.64,17.07-17.73,23.43s20.27,5.64,25.59,6.71c19.78,4,39,10.31,58.71,14.59,15.61,3.39,30.43,6.44,45.3,12.33-2.59,3.48-8.18,5.43-11.59,8.84a123.81,123.81,0,0,0-13.35,16.17c-4.77,6.76-9.82,13.42-17.47,17.3-8.38,4.26-18.76,3.46-27,7.76-11.91,6.22-10.9,22-24.41,26.49-15.47,5.1-28.14,7.87-33.69,25.68-2.4,7.73-1.62,15.87-7.18,22.36-3.86,4.51-13,10.35-19,7,2.6-13.84-6.35-29.49-8.72-42.85s-4-26.06-7.79-39.19c-3.09-10.85-1.7-29.71-12.66-36.45-6.67-4.11-12.4.34-19.15,1.28A50.1,50.1,0,0,1,244.68,356c-20.33-8.18-36.76-27.43-51.76-42.41-24.46-24.41-54.63-47.18-72.69-77.12a93.9,93.9,0,0,1-12.18-31.95c-.73-4.39-1.38-14.07,1.29-17.88-14.88-6.68-35.11-6.88-51-8.52C42,176.44,23.91,170.22,8.55,165c11.53-6.55,18-13,23.06-25.68,5.3-13.23,6-20.6,20.14-26.09,10.27-4,20-8.3,22.48-20.17,2.23-10.75,2.08-17.45,11.65-24.53,6.83-5.06,18.27-6.59,23.24-12.53s6.34-17.14,8.37-24.46c1.29-4.66,6.59-25.93,14.42-23.95,2.32.58,6.63,13.58,7.59,16.07A265.75,265.75,0,0,1,148,51.55c4.11,15.64,5.14,29.73,5.09,45.59,0,8.23,1.74,15.53,3,23.56C156.6,124,155.87,127.38,157.51,129.92Z" fill="none"/>
    </clipPath>
    <clipPath id="afef431d-8924-47fa-b01f-66691af6a3fb" transform="translate(27.24 11.48)">
      <path d="M148.26,35.6c.35,5.31-3.39,11.69-5.28,16.6-2.26,5.86-4.94,12.47-9.75,16.85-10.55,9.61-26.26,10.5-32.49,25.06-5.56,13-9.39,27.14-22.95,33.86-7.37,3.65-14.84,4.76-20.15,11.64-4.71,6.11-7.09,15.25-10.07,22.4-2.34,5.6-4.79,10.47-11,10.19-8-.36-16.11-4.76-23.62-6.95,4.47-10.95,15.56-18.5,20.84-29.35,4.6-9.44,3.76-18.6,14.38-23.68,8.41-4,17.38-1.49,23-10.22,4.17-6.45,4-14.62,5-21.91,1.42-10.16,5.51-15.94,15.06-19,6.91-2.23,16.12-3.43,20.76-9.73,4.39-6,4.91-15.42,7.35-22.37C122,21.56,123.3,12.2,130.2,7.09c2.25,6.38,6.43,9.91,9.58,15.42C143,28.2,141.76,36.26,148.26,35.6Z" fill="none"/>
    </clipPath>
    <clipPath id="a0ba5a1b-39e9-4ea4-8b18-b5357f83f024" transform="translate(27.24 11.48)">
      <path d="M128.82,156.16c15.53,3.61,33.69,2.66,49.84,4.9,12.85,1.79,25.83,3.12,38.74,4.74,14.84,1.87,29.65,4.61,44.52,6.21,5.47.59,10.89.93,16.38,1.1,3.19.09,7,1.55,9.88,1.13-3.57-6.09-9.1-9.62-14.4-14.16-8.33-7.14-16-15.19-24.49-22.05-13.5-10.9-26.2-25.73-43.41-30-8-2-15.57-3.62-22.95,1-6.31,3.94-11.66,10.53-17.47,15.2-7.31,5.88-15.42,11.22-22.4,17.5C139.43,144.93,131.79,151.13,128.82,156.16Z" fill="none"/>
    </clipPath>
    <clipPath id="e09cedda-96aa-4add-95a4-0ea6dac35198" transform="translate(27.24 11.48)">
      <path d="M113.26,217.68c10.87-.42,23.13,1.17,34.35,1.66,12.85.57,25.9,1.21,38.72,2.28,21.16,1.76,42.27,4.37,63.43,6,33.08,2.53,66.08,8.78,99.05,10,3.82,6.36,10.21,11.06,13.84,17.46,3.41,6,5.17,14.92,5.18,21.61,0,3.81,1.25,8.45.18,11.91s-6.92,9.7-10.07,11.14c-4.49,2-9.83-.43-14.85-.83-21.86-1.72-44.14-1.94-66.24-4.58-26.81-3.21-54.68-3.63-81.61-4.21-6.34-.14-14.44.9-20.29-1.17s-11.67-6.74-16.23-10.9a256.67,256.67,0,0,1-26.78-29.17C126.11,241.64,117.17,231.32,113.26,217.68Z" fill="none"/>
    </clipPath>
    <clipPath id="a0e24f6c-80f8-4656-bd6f-fb93bdd393f5" transform="translate(27.24 11.48)">
      <path d="M444.54,336.83c-6.84,2.75-14,3.57-20.14,8.09-8.88,6.51-12.62,17.07-21.07,23.86-9.14,7.35-20.69,6.31-30.37,12-10.42,6.15-14.45,18.39-25.38,24.06C335,411.39,323.1,417,314.43,428.76c-3.78,5.14-3.06,9.5-3.55,15.81-.74,9.57,0,19.57,5.51,27.91,3.11,4.74,9.12,7.51,14,4.61,7-4.2,8.32-12.1,9.91-18.86,3.4-14.46,13.31-29.59,27.24-35.58,4.75-2,10.19-3.32,14.74-5.45,5-2.34,5.78-5.73,8.57-10.77,2.13-3.86,4.33-8.51,8-11.12,5.79-4.07,14.47-4.74,21.11-6.55,13.49-3.66,23.59-11.78,31.53-23.19,4.88-7,9.77-13.69,17.4-17.72C462.71,340.58,448.52,339.92,444.54,336.83Z" fill="none"/>
    </clipPath>
    <clipPath id="a8706d82-5e39-4f7f-a605-11140a561716" transform="translate(27.24 11.48)">
      <path d="M432,379.07c-8.31,6.4-18.14,5-27.63,7.83-9.74,3-13.35,9.83-17.49,18.45-5,10.35-14.65,8.26-24.14,11.22-10,3.13-16.32,11.29-20.4,20.63-4.35,10-5.94,23.57-14.83,30.83-.91.75-3.64,2.83-5,2.09s-1.58-5.74-1.88-7.08c-1.48-6.52-2.89-13.06-4.3-19.59-.1-.45-.19-.89-.29-1.33a3.74,3.74,0,0,0,.14-1.07c-.47-15.54,15.2-22.1,27-27.91,6.51-3.2,13.08-6.8,17.94-12.32,5-5.7,7.7-13.94,15.05-17.14,5.8-2.52,12.36-2.47,18.31-4.53,6.46-2.24,11.4-6.64,15.52-12,7.72-10,15.4-27.77,30.81-25.77,6.27,2.07,12.48,4.49,18.76,6.61C449.26,357.08,443.23,370.4,432,379.07ZM330.11,410.54c-6.69,3.43-13.47,8.39-17.77,14.68Q305,391,297.62,356.8a129.85,129.85,0,0,0,13.07-8.15,167.57,167.57,0,0,1,21,35.76c2.21,5.1,9.81.79,7.54-4.29a119.82,119.82,0,0,0-23.74-35c3.05-2.28,6-4.63,8.89-7q5-4,9.78-8.28c6.64,4.29,14,7.72,20.76,11.68,8.15,4.74,16.16,9.77,23.89,15.15,4.17,2.9,8-4,3.89-6.86-13-9.15-28.57-19.41-44.58-23.52q5.16-4.71,10.08-9.65c20.38,4.77,40.85,9.46,61,15.12q11.61,3.27,23.14,6.87c-8.14,1.2-15.49,8.31-20.48,14.67-6,7.67-10.95,16-20.89,18.82-6.78,1.9-14.06,2-20.33,5.55-7.46,4.19-10.18,12.26-15.78,18.25C348.26,403.06,338.52,406.22,330.11,410.54Zm6.08-101.18a305.34,305.34,0,0,1-34,28.38c-9.73,7-20.94,14.08-33.24,14.83s-23.51-5.23-33.31-12.18c-11.14-7.9-21.42-17.22-31.66-26.23q-11.85-10.43-23.24-21.39c11.47.89,23,1.18,34.47,1.79,15.19.81,30.37,1.74,45.56,2.35,28.28,1.14,56.57,2.1,84.84,3.34C342.42,303.49,339.13,306.52,336.19,309.36Zm-216.4-89.55c75.4,5.07,150.66,11.17,225.71,20.1,1.6,2.22,3.18,4.45,4.69,6.72,6.07,9.05,12.15,19.75,9.79,31.06-1.48,7.13-6,13.51-11.21,19.25-29.34-2.24-58.66-4.8-88-7.17-14.8-1.19-29.63-2.08-44.45-3.08s-29.64-2.53-44.45-2.68a443.3,443.3,0,0,1-30.5-34C134.27,241.13,125.64,230.86,119.79,219.81Zm-2.94-39.52c4.21-8.5,10.57-15.37,17.52-21.65,51.71,6.73,103.48,13.06,155.24,19.43l1.46,1.41c17.63,17.29,35.62,35.47,50.68,55.36-74.79-9.78-150-17.79-225.27-22.21C112.38,202.23,111.39,191.28,116.85,180.29ZM144.53,150c11.25-9.34,20.84-20.88,32.59-29.55,12.24-9,25.95-11.59,39.54-3.89,11.19,6.34,21.42,14.79,31.4,23.14,10.87,9.73,21.69,19.49,32.28,29.51C233.47,164,186.6,158.85,139.7,154Q142.12,152,144.53,150ZM56.3,171.38,47,169.56c9.09-8.87,8.16-24.72,19.17-32.14,6.57-4.42,14.62-5.92,20.81-11,5.48-4.52,8.69-10.85,11.34-17.31,2.82-6.86,5-14.33,9.47-20.37,5.52-7.47,15-9.9,22.35-15.07A33.47,33.47,0,0,0,143,55.32c5.48,23.95,8.4,48.82,10.4,73.18a3.75,3.75,0,0,0,.14.77c-2.72,2.68-5.54,5.25-8.42,7.76-.54-12.75-7.48-26.32-13.57-36.68-2.39-4.06-8.1-.6-6.25,3.55,3.09,6.91,6,13.91,8.61,21,2,5.36,3.69,11.15,6.49,16.2-5.49,4.68-11,9.31-16.2,14.31A75.45,75.45,0,0,0,98.75,137c-4.82-2.24-8.9,5.13-4.06,7.16a121,121,0,0,1,25.7,15.09c-.67.71-1.34,1.42-2,2.14a67.85,67.85,0,0,0-12,18.12Q81.22,176.28,56.3,171.38Zm-17.58-5a3.56,3.56,0,0,0-1.36,1.23c-6-1.24-11.93-2.57-17.81-4.09a45.93,45.93,0,0,0,12.52-13.41,53.65,53.65,0,0,0,5.87-14.55c1.46-5.41,2.44-11.89,7.45-15.25,3.77-2.53,8.79-3,13.09-4.12,4.88-1.26,9.7-3.17,13.37-6.75,7-6.81,7.23-16.56,8.75-25.57.78-4.65,1.87-9.27,5.39-12.64,4.12-3.94,10-5.72,15.12-8,9.46-4.27,16.09-10.54,19.72-20.37a141.41,141.41,0,0,0,3.85-14c.67-2.65,1.33-5.31,2.17-7.91.42-1.32,1.57-6.22,3.06-7.15a1.93,1.93,0,0,1,.59,1c.55,1.47,1.24,2.91,1.8,4.38q1.55,4.05,2.9,8.16c1.19,3.59,2.29,7.22,3.34,10.86a29,29,0,0,1-4.77,22.69c-4.7,6.52-11.84,9.39-18.78,12.87-6.55,3.29-12.07,7.41-16,13.69-3.56,5.65-5.47,12.21-7.9,18.38-2.79,7.07-6.28,13.52-13.1,17.36-6.1,3.43-13,5.28-18.43,9.84-4.91,4.11-7.51,9.85-9.75,15.71C47.28,155.3,45.41,162.84,38.72,166.4ZM475.56,341.3c-9.67-5.29-20.51-8.33-31-11.57q-16.11-5-32.49-8.76a371.27,371.27,0,0,0-59.3-9c2.4-2.56,4.74-5.15,7-7.81,8.73-10.31,15.4-22.25,13.27-36.16-2.26-14.72-12.33-26.75-21.39-37.95a529,529,0,0,0-38.17-42q-14.9-14.83-30.57-28.89-9.92-9.92-20.28-19.39c-11.63-10.6-23.79-21.21-36.77-30.15-11.24-7.75-24.06-11.64-37.38-7-11,3.8-19.57,11.32-27.66,19.36-.92-24.13-1.43-48.09-5.89-72a187.65,187.65,0,0,0-11.34-38.5c-1.93-4.59-4.63-9.57-9.81-11-6-1.71-11.28,2.24-13.9,7.33-5,9.81-4.49,21.65-7.81,32-1.69,5.27-4.51,9.76-9.26,12.76-5.26,3.33-11.46,4.85-16.89,7.86-9.51,5.29-13.27,13.75-15.27,24-.9,4.65-1.45,9.93-4,14-3.09,4.91-8.91,5.84-14.17,7-5.49,1.27-11,2.68-15.48,6.28-5.43,4.35-7.75,10.9-9.39,17.44-1.67,6.7-3.2,13-7.55,18.55-4.52,5.8-10.83,9.59-17.48,12.51-4.1,1.8-2.91,8.5,1.23,9.38,17.05,3.63,33.82,8.53,50.94,12,16.06,3.24,32.23,5.92,48.47,8.14a43,43,0,0,0-.76,7.47c-.16,13.19,5.81,25.62,12.7,36.52,17.3,27.34,39.9,51.7,63.21,74,12,11.47,24.48,22.46,37.19,33.13,10.18,8.55,20.8,16.93,33.37,21.64,13.12,4.91,25.76,3.76,37.65-.61q8.71,39.54,17.33,79.11c1.43,6.53,2.89,13.05,4.27,19.59,1.19,5.63,1.46,13.17,5.54,17.63,7.28,8,19.13,2.52,25-4.16,8.24-9.33,9.49-22,14.12-33.06,2.13-5.1,5.2-10.29,10.28-12.88,4.42-2.26,9.63-2.42,14.42-3.39,4.3-.87,8.54-2.3,12-5.13,4.37-3.61,6.3-8.65,8.55-13.67s4.89-8.16,10.32-9.66c5.11-1.41,10.49-1.56,15.63-2.88,10.68-2.72,18.21-10.38,24.71-18.87,6.91-9,13.81-20.19,25.54-23C478.9,350.32,479.76,343.6,475.56,341.3Z" fill="none"/>
    </clipPath>
  </defs>
  <g id="f0240333-c482-4f46-af30-3f43777678a5" data-name="Layer 2">
    <g id="a08b7c11-7587-4d31-88d5-6598aea52479" data-name="Layer 1">
      <g>
        <g clip-path="url(#f334c986-5cab-4f49-b068-ccbd8f209e6a)">
          <rect x="125.2" y="0.29" width="211.76" height="492.94" transform="translate(-79.56 247.16) rotate(-45)" fill="#ffec8d"/>
        </g>
        <g clip-path="url(#afef431d-8924-47fa-b01f-66691af6a3fb)">
          <rect x="-22.2" y="62.97" width="204.74" height="63.61" transform="translate(-16.29 95.93) rotate(-45)" fill="#f95252"/>
        </g>
        <g clip-path="url(#a0ba5a1b-39e9-4ea4-8b18-b5357f83f024)">
          <rect x="153.15" y="96.51" width="110.77" height="136.23" transform="translate(-28.09 207.16) rotate(-45)" fill="#ff9d7b"/>
        </g>
        <g clip-path="url(#e09cedda-96aa-4add-95a4-0ea6dac35198)">
          <rect x="158.7" y="128.63" width="173.21" height="241.75" transform="translate(-77.33 258.02) rotate(-45)" fill="#ff9d7b"/>
        </g>
        <g clip-path="url(#a0e24f6c-80f8-4656-bd6f-fb93bdd393f5)">
          <rect x="278.25" y="367.13" width="206.31" height="63.95" transform="translate(-143.25 398.07) rotate(-45)" fill="#f95252"/>
        </g>
        <g clip-path="url(#a8706d82-5e39-4f7f-a605-11140a561716)">
          <rect x="118.62" y="-6.41" width="223.61" height="505.17" transform="translate(-79.35 246.52) rotate(-45)" fill="#272442"/>
        </g>
      </g>
    </g>
  </g>
</svg>
