<svg xmlns="http://www.w3.org/2000/svg" xmlns:xlink="http://www.w3.org/1999/xlink" viewBox="0 0 539.22 457.31">
  <defs>
    <clipPath id="ebb269a8-55db-48ed-829d-b2b545d19ec5" transform="translate(19.17 20.18)">
      <path d="M277.3,92.62c-25.53,2.24-47.8-3.22-71.49,9.7-18.71,10.21-35.22,21.62-47.94,39.11-21,28.91-25,61.58-25.16,95.54-24-2.19-49.74-5.17-74-4.28-15.08.56-31.16-.45-46.09,1.91-2.13.34-6.31.38-7.75,2.2-4,5.09,1.74,6.37,5.1,10.21,6.53,7.45,12.86,16.15,18.8,24.16,8.28,11.15,13.17,25.33,21.64,36C63.85,324,89,322.26,94.72,347c1.37,5.95,1.39,12.63,4.85,17.93s9.13,8.79,12.82,14c7.55,10.61,9.44,24.33,16.32,35,.53-4.55,3.87-7.26,6.49-10.72,6.92-9.14,12.17-19,17.38-29.12,8.35-16.22,17.39-31.55,24.15-48.61,3.65-9.23,3.35-17.75,13.57-17.22,16.74.87,30.81,5.34,48,2.29,20.46-3.63,39.71-12.2,58.41-20.76,19.54-8.95,31.5-24.76,43.88-41.82,6.1-8.39,9.81-18,12.35-28.11.71-2.79.7-11.41,2.83-13.07,2.39-1.87,10.46,1.61,12.54,2.09a98.26,98.26,0,0,0,27.58,2.39c18.42-.93,36.57-8.49,55.17-6.63,8.95.9,22.89,3.18,30.65-3-2.34-19.2-19.14-38.34-27.38-55.59-7.91-16.57-12.74-34.77-20.59-51.54C426.2,78.2,417.44,63.87,412.4,46.6c-3.33-11.44-9-28.1-17.44-36.8C387,24,375.14,34.9,365,48.13c-10.58,13.72-19,27.53-27.48,42.5-3.3,5.85-7.39,19.11-14,22.34-4.1,2-4.46,1.43-8.85-1.7-6.14-4.37-12.56-10.07-18.28-15C287.74,88.82,288.49,91.64,277.3,92.62Z" fill="none"/>
    </clipPath>
    <clipPath id="eefac0e7-2249-4dbe-a802-e638f88b3888" transform="translate(19.17 20.18)">
      <path d="M35.86,230.09c6.53,5.13,13.12,14.07,18.52,20.59,9.92,12,12.79,27.25,24,38.36C89.48,300,103,309.39,110.48,323.42c3.88,7.24,5.16,15.64,9.1,22.72,4.57,8.2,12,14.82,18.73,21.13,4,3.76,11.44,9,9.74,15.42-1.15,4.32-6.62,10.25-9.82,13.08-2.92,2.58-5.12,7.06-8.27,9.15-7.52-6.41-9.34-18.44-16.38-26-6-6.4-14.08-10.46-19.31-17.71C88.56,353.33,89,343,85,334.21a39.25,39.25,0,0,0-16.13-18.36c-9.46-5.9-17.5-9.2-23.71-18.67-7.83-11.93-10.26-25.5-21.15-35.56C17.39,255.53-1,242.05,9.76,232c2.94-2.75,7-3.11,10.62-3.47C24.94,228,31.38,230.24,35.86,230.09Z" fill="none"/>
    </clipPath>
    <clipPath id="efca77bb-4ec0-403e-96ea-4f442b66e1da" transform="translate(19.17 20.18)">
      <path d="M127.91,218.52c1.59,19.09,6.35,41.9,20.7,55.89,5.37,5.23,7.89,1.24,11.74-4.46a32.07,32.07,0,0,0,6-17.89c.24-12.14-6.23-23.18-15.89-30.23C144.66,217.64,137.34,213.28,127.91,218.52Z" fill="none"/>
    </clipPath>
    <clipPath id="a7930109-d51e-4d36-bc04-77d77cac4664" transform="translate(19.17 20.18)">
      <path d="M132.38,192.27c-.24-8.91,6.46-21.22,10.91-28.65a184.28,184.28,0,0,1,19.17-26.43c6.61-7.59,13.57-16,21.56-22.11,4.84-3.69,10.11-8.92,16.16-10.33,8.61,14.12,13.44,24.66,12.92,41.39-.54,17.49-14.45,31.55-28.91,39.89-10.35,6-23.61,6.83-35.43,8.9C144.66,195.66,130.25,197.62,132.38,192.27Z" fill="none"/>
    </clipPath>
    <clipPath id="a6b0341f-c30b-4eea-aeb6-1589d9dbbdb8" transform="translate(19.17 20.18)">
      <path d="M246.47,88.87c2.73,8.49,4.15,18,11.38,24.15,6.34,5.38,15.23,7,23.34,6,5.05-.61,24.13-9.43,22.3-16.3-1.43-5.34-18.56-8.21-22.56-9C271.33,91.7,261.92,90.37,246.47,88.87Z" fill="none"/>
    </clipPath>
    <clipPath id="b2fb730b-91e3-4f0e-822c-d6095209213a" transform="translate(19.17 20.18)">
      <path d="M243.32,163.43c-11.82,11.84-10.87,37.79-3.58,51.78,7.2,13.82,21.2,25,37.34,25.1,20.51.11,33.67-17.24,39-35.1,2.89-9.71,5.45-19.51,2.23-29.75-3-9.57-11.51-20-19.52-25.82C283.05,138.14,253.93,149.64,243.32,163.43Z" fill="none"/>
    </clipPath>
    <clipPath id="ac4c722e-46f0-465a-9506-f4980b3f0f30" transform="translate(19.17 20.18)">
      <path d="M169.74,296c13.11-17,34.16-29,56.06-27.17,11.8,1,21.63,3.22,29.31,13.06,3.54,4.54,8.9,13.23,6.93,19.39-1.71,5.36-7.91,6.13-13.23,6.79a187.83,187.83,0,0,1-39.62.73C196.94,307.66,178.72,300.43,169.74,296Z" fill="none"/>
    </clipPath>
    <clipPath id="a7de5282-a34f-43f3-a022-60d529b036fe" transform="translate(19.17 20.18)">
      <path d="M303.78,286.14c-9.48-22.68,15.56-51,38.58-45.4.25,4.15-3.47,8.92-5.39,12.41a92.62,92.62,0,0,1-13.35,18.54C320.15,275.46,310.72,287.59,303.78,286.14Z" fill="none"/>
    </clipPath>
    <clipPath id="abf43852-b2e0-4939-83a7-46c36fdd4651" transform="translate(19.17 20.18)">
      <path d="M384.52,19c-4.15,16.79-.85,35.73,6.88,51,7.3,14.4,18.75,29.91,20.31,46.25,1.09,11.35,1.41,19.23,6.81,29.73,3.66,7.11,9.18,12.65,13.12,19.64A91.48,91.48,0,0,1,440,186.08c1.6,5.86,1.06,13.63,4.92,18.51,3.17-1.59,7.46,1.26,11.18.8,5.28-.66,10.14-.26,15.38-.78,4.68-.47,10.77-1.16,10.19-6.3-.54-4.68-6.66-11.24-8.93-15.45-2.4-4.44-4.55-9-6.66-13.55-4.22-9.07-8.37-18.36-12.2-27.64-8.29-20-19.19-39.46-25.76-60.12-3.59-11.27-8.95-21.17-13.72-31.86-3.71-8.32-5.75-16.91-9.95-25.1-2.26-4.4-3.76-9.09-5.72-13.44-.62-1.39-.05-3.35-2-3.91C391.41,5.71,385.47,19,384.52,19Z" fill="none"/>
    </clipPath>
    <clipPath id="a83d256a-6b26-4e8e-b23b-859d51bf1bb7" transform="translate(19.17 20.18)">
      <path d="M413.05,60.78a418.11,418.11,0,0,0,21.7,48.71c14.84,28.74,22.33,61.19,39.78,88.51q-12.3.93-24.59,1.67c-1.44-14.39-9.27-26.13-17-38.07-4.13-6.36-8.29-13-10.89-20.14-2.89-8-4-16.47-5.76-24.72-3.58-16.87-12.68-30.58-20.61-45.62-7.06-13.38-11-26.56-8.72-41.37,3.08-4.25,6.22-8.53,9.08-12.93C402.9,30.86,407.73,46.28,413.05,60.78Zm6.87,97.48c8,13.13,19.23,26.06,20.63,41.94a800.28,800.28,0,0,1-83.42.49,151.27,151.27,0,0,0-1.06-26.2,68.65,68.65,0,0,1,28.83-1.39c5,.72,7.12-6.25,2.06-7.71-10.75-3.09-21.76-2-32,1.83a115.28,115.28,0,0,0-8.12-26.38c9.75-8,19.44-15.62,29.92-22.73a3.2,3.2,0,0,0-3.19-5.54,80.72,80.72,0,0,0-29.33,23,89.87,89.87,0,0,0-16.58-22.39q18.87-25.65,37.19-51.67c5.57-7.93,11.06-15.92,16.58-23.9-1.27,9,.6,18.89,3.46,27,5.73,16.36,15.83,30.85,20.35,47.69,2.2,8.19,3.05,16.68,5.29,24.87A82,82,0,0,0,419.92,158.26ZM346.1,198.43a118.92,118.92,0,0,1-5.94,35.78c-24.9,1.72-43.51,24.25-38.86,48.85a155,155,0,0,1-34.65,16.82c-1.75-21.11-22.5-33.5-42.53-34.58a63.37,63.37,0,0,0-52.87,24.23,92.18,92.18,0,0,1-13.44-12.45c9.53-10.62,12.9-26.26,7.59-39.7-5.16-13-17.6-21.93-31.27-23.84,0-2.61,0-5.23.15-7.85.37-2.75.88-5.49,1.46-8.21,25.57,2.64,52.31-3.69,69.21-24.47,7.86-9.66,12.65-21.57,12.63-34.1a50.69,50.69,0,0,0-3.73-19c-1.7-4.16-4.23-9.57-8-12.71A103.44,103.44,0,0,1,245,95.9c.34,0,.68,0,1-.05,2.36,11.42,10.38,21.19,22,24.49C280.8,124,294.2,118.83,302.5,109a86.46,86.46,0,0,1,13,9.29C338.51,138.18,346.68,168.91,346.1,198.43Zm-34.17,76.92c-1.78,1.43-3.62,2.83-5.5,4.19-.67-18.48,12.37-34.81,30.7-37.47A87,87,0,0,1,311.93,275.35Zm-53.58,27.08A133.56,133.56,0,0,1,229,307.32a88,88,0,0,1-54-15.11c11.4-12.31,27.88-20,44.77-19.9C237.52,272.4,258.16,282.5,258.35,302.43Zm-78.3,5.31a336.07,336.07,0,0,1-31,67.64c-5.71-13.39-20.87-19.19-27.74-32-4.11-7.68-4.67-16.75-8.06-24.74-3.21-7.54-8.71-13.35-15.06-18.4-6.61-5.23-13.91-9.67-19.86-15.68-7.13-7.21-11.66-16.43-16.54-25.19S51.31,242,43.7,235.88l.7,0q20.6.82,41.19,1.55c13.83.48,27.52.22,41.32.17a89,89,0,0,0,8.87,25.53c-8.73.47-17.47.85-26.19,1.46-5.07.35-5.06,8.34,0,7.89,10-.91,19.92-2.1,29.88-3.14a89.55,89.55,0,0,0,9,11.7c.81.89,1.64,1.75,2.48,2.59a100.86,100.86,0,0,0-22.31,28.62c-2.43,4.63,4.63,8.7,7.08,4a137.26,137.26,0,0,1,19.62-28.18,100.51,100.51,0,0,0,25.15,18.77A5.89,5.89,0,0,0,180.05,307.74Zm-38,74.53a3.71,3.71,0,0,0,1.14,2.25c-4.33,6.52-8.9,12.85-13.76,18.88-1.47-7.28-3.68-14.43-7.5-20.72-5.61-9.26-16.41-14.23-21.24-23.82-4.36-8.67-4.37-18.87-8.85-27.55S79.46,318.59,71,314.88c-4-1.78-8.25-3.54-11.73-6.32-4.77-3.8-7.51-9.4-10.06-14.8-4.92-10.46-10.16-20.26-17.45-29.31a122.15,122.15,0,0,0-11.44-12.09c-3.53-3.34-10.89-8.28-9.9-13.92.93-5.23,10.15-3.48,13.91-3.33l10.73.42c12.32,7.37,18.67,21.94,25.12,34.36,3.94,7.57,8.29,15,14.33,21.12,5.49,5.57,12,9.9,18.09,14.83,6.53,5.34,11.69,11.21,14.27,19.38,2.36,7.47,3.26,15.4,6.94,22.43C120.7,360.77,139.81,367,142.08,382.27Zm-7.64-161.83c23.53,3.63,33.23,32.09,18,50C141.69,255.78,135.83,238.34,134.44,220.44Zm34.37-85a136.18,136.18,0,0,1,29.87-24.29c2.12,4.5,6,8.12,7.95,12.91a42.7,42.7,0,0,1,3.07,15.67c.1,11.8-4.68,23-12.46,31.78-15.21,17.15-38.42,23.07-60.66,22.34C142,172.06,153.71,151.69,168.81,135.42Zm81.35-39.76a101,101,0,0,1,45.14,9.47c-6.17,7.17-16.17,10.87-25.54,8.7C260.7,111.73,253.16,104.39,250.16,95.66Zm142.16-94c-7,8.15-12.49,17.85-18.41,26.8S362.06,46.3,356.2,55.27Q339,81.63,322.47,108.37c-16.35-14-37.15-22.14-58.8-24.27-27.2-2.67-53.73,5.67-76,20.81-24.36,16.1-44.19,39-54.49,66.58a119.83,119.83,0,0,0-7.45,37,106.86,106.86,0,0,0,.48,24.91c-12.42-1.63-24.72-3.48-37.24-4.62Q68.4,226.9,47.8,225.13L28.87,223.5c-6.19-.53-13-1.9-19.08-.16-10,2.86-12.18,14.27-7.23,22.44,2.71,4.43,6.87,7.46,10.8,10.69a88.88,88.88,0,0,1,14.93,15.95c7.52,10.25,10.78,22.16,17,33C50.8,315,59.12,319.37,68.78,323.8c4.26,1.95,8.72,4,11.9,7.56,3.95,4.4,5.25,10.35,6.54,15.95s2.46,11.26,5,16.44c2.69,5.44,7,9.54,11.5,13.52,5.71,5.07,10.22,10.21,12.9,17.51,2.54,6.9,3.47,14.17,4.84,21.35.9,4.73,6.82,4.37,9.13,1.21C142.8,400.69,154.76,384,164.9,366a387.81,387.81,0,0,0,25.19-54.76,89,89,0,0,0,16.28,4.58c31.76,5.68,64.91-4.33,92.76-19.36,15.4-8.31,29.39-19.25,39.41-33.73,8.79-12.69,14.08-27.73,16.58-42.89.42-2.5.77-5,1.07-7.58.23,0,.46.05.71.06,42.54,1.12,85.47.38,127.69-5.33,3-.41,4.77-4.82,3-7.23C467,171.34,461.79,135.28,444.7,105a432.53,432.53,0,0,1-23.53-47.52c-7.11-17.23-15.59-35-19.54-53.3C400.77.18,395.05-1.52,392.32,1.65Z" fill="none"/>
    </clipPath>
    <clipPath id="fc450a19-1d16-4449-a45b-6e2fec45b09f" transform="translate(19.17 20.18)">
      <path d="M306.15,218.66c-13,19-40.25,23.26-57,7a53.62,53.62,0,0,1-10-19.38,47.57,47.57,0,0,1-1.3-18.65A54.93,54.93,0,0,1,251,162c12.53-11.41,31.79-15.06,46.62-4.7C317,170.9,319,200,306.15,218.66Zm4.53-61.61c-18.1-21.28-52.46-18.1-69,3.22-10,12.83-12.83,29.33-9.56,44.52,3,13.85,9.18,26.3,22.15,33.37,16.71,9.11,38.46,5.2,52.12-7.63C326.4,211.74,328.47,178,310.68,157.05Z" fill="none"/>
    </clipPath>
  </defs>
  <g id="fa0b4f7d-7d7b-40b3-854d-88a678b9d62a" data-name="Layer 2">
    <g id="f018dead-0dc3-447c-a0bf-8542f45eda1b" data-name="Layer 1">
      <g>
        <g clip-path="url(#ebb269a8-55db-48ed-829d-b2b545d19ec5)">
          <rect x="16.45" y="90.04" width="465.56" height="241.32" transform="translate(-52.79 173.03) rotate(-30)" fill="#c69ff7"/>
        </g>
        <g clip-path="url(#eefac0e7-2249-4dbe-a802-e638f88b3888)">
          <rect x="46.7" y="202.96" width="64.52" height="220.15" transform="translate(-126.77 101.6) rotate(-30)" fill="#74deda"/>
        </g>
        <g clip-path="url(#efca77bb-4ec0-403e-96ea-4f442b66e1da)">
          <rect x="126.28" y="206.89" width="43.24" height="73.59" transform="translate(-82.86 126.78) rotate(-30)" fill="#fff"/>
        </g>
        <g clip-path="url(#a7930109-d51e-4d36-bc04-77d77cac4664)">
          <rect x="114.12" y="120.7" width="113.46" height="73.15" transform="translate(-36.58 126.68) rotate(-30)" fill="#fff"/>
        </g>
        <g clip-path="url(#a6b0341f-c30b-4eea-aeb6-1589d9dbbdb8)">
          <rect x="246.68" y="71.07" width="56.06" height="55.33" transform="translate(6.61 170.77) rotate(-30)" fill="#fff"/>
        </g>
        <g clip-path="url(#b2fb730b-91e3-4f0e-822c-d6095209213a)">
          <rect x="228.52" y="142.14" width="98.84" height="100.99" transform="translate(-39.91 184.96) rotate(-30)" fill="#fff"/>
        </g>
        <g clip-path="url(#ac4c722e-46f0-465a-9506-f4980b3f0f30)">
          <rect x="171.06" y="261.86" width="91.45" height="68.31" transform="translate(-99.79 168.23) rotate(-30)" fill="#fff"/>
        </g>
        <g clip-path="url(#a7de5282-a34f-43f3-a022-60d529b036fe)">
          <rect x="288.58" y="241.27" width="66.12" height="39.39" transform="translate(-68.22 215.97) rotate(-30)" fill="#fff"/>
        </g>
        <g clip-path="url(#abf43852-b2e0-4939-83a7-46c36fdd4651)">
          <rect x="390.88" y="1.25" width="67.67" height="221.75" transform="translate(20.01 247.57) rotate(-30)" fill="#74deda"/>
        </g>
        <g clip-path="url(#a83d256a-6b26-4e8e-b23b-859d51bf1bb7)">
          <rect x="12.12" y="82.04" width="476.64" height="252.87" transform="translate(-51.51 173.33) rotate(-30)" fill="#272442"/>
        </g>
        <g clip-path="url(#fc450a19-1d16-4449-a45b-6e2fec45b09f)">
          <rect x="223.72" y="138.81" width="106" height="107.67" transform="translate(-40.08 184.35) rotate(-30)" fill="#272442"/>
        </g>
      </g>
    </g>
  </g>
</svg>
