<svg xmlns="http://www.w3.org/2000/svg" viewBox="0 0 24 24">
  <defs/>
  <g fill="none" fill-rule="nonzero">
    <path fill="#FFEC8D" d="M5.29 10.54h.03c.02-.81.02-1.7.68-2.28.61-.55 1.56-.5 2.32-.53 1.88-.07 3.78-.15 5.64.04 1.14.11 2.8-.05 3.18 1.3.07.27-.09 1.21.18 1.35.27.15.85-.48 1.06-.62.78-.51 1.62-.94 2.41-1.44.62-.4 1.21-.8 1.9-1.09.02.2-.1.45-.1.67 0 .33.04.65.1.97.06.38.11.77-.01 1.15-.14.41-.5.73-.63 1.14-.19.6.36 1.08.07 1.67-.34.67-.67 1.18-.27 1.95.18.33.47.57.5.97.02.28-.08.77-.4.86-.36-.54-1.17-.76-1.69-1.12-.51-.36-.98-.73-1.54-1.04-.45-.25-1.03-.92-1.61-.78-.35.09-.4.42-.59.67-.24.32-.57.57-.94.72-.94.4-2.11.3-3.1.3-1.6 0-3.34.25-4.92-.14a4.36 4.36 0 01-1.45-.65c-.17-.12-.5-.42-.54-.63-.71.27-1.38.93-1.96 1.4-.6.48-1.39.87-2.06 1.2.16-.6.16-1.02-.09-1.6-.26-.6-.48-.87-.2-1.52.21-.46.39-.93.08-1.4-.28-.42-.5-.64-.42-1.19.06-.39.38-.81.35-1.17-.03-.36-.35-.77-.53-1.08-.1-.2-.63-1.07-.31-1.26.1-.06.66.23.78.28.4.19.8.4 1.19.64.65.38 1.15.8 1.66 1.33.27.27.57.45.88.67.12.1.21.23.35.26z"/>
    <path fill="#FF9D7B" d="M1.89 7.74c.18.17.27.5.37.72a2 2 0 01.23.88c-.03.66-.52 1.2-.24 1.89.24.6.58 1.2.35 1.86-.12.36-.33.65-.28 1.05.05.35.27.73.41 1.06.1.26.19.5-.03.7-.27.25-.68.37-1 .55-.21-.5-.1-1.12-.28-1.65-.16-.46-.49-.74-.3-1.25.14-.4.52-.62.42-1.1-.08-.34-.35-.6-.56-.88-.29-.38-.34-.7-.13-1.12.16-.3.42-.64.36-1-.05-.34-.34-.67-.49-.97C.56 8.15.3 7.8.36 7.4c.28.14.53.12.82.2.3.07.51.38.7.14zM5.2 12.34c.64-.39 1.2-1.02 1.8-1.47.49-.37.96-.75 1.43-1.12.55-.43 1.13-.82 1.67-1.26.2-.16.39-.32.57-.5.11-.1.28-.18.37-.29-.32-.08-.62-.01-.94.01-.51.04-1.03.03-1.53.08-.8.09-1.7.02-2.42.44-.33.2-.63.4-.72.79-.08.33-.03.73-.07 1.07-.05.43-.14.88-.16 1.31-.01.22-.06.68 0 .94zM6.72 14.87c.34-.37.8-.72 1.18-1.07.44-.4.89-.81 1.35-1.2.75-.63 1.53-1.24 2.28-1.88 1.17-1 2.45-1.89 3.58-2.93.33.08.7.03 1.03.12.3.08.66.32.88.54.12.12.31.24.4.38.07.15.09.55.03.7-.08.22-.34.3-.52.46-.77.66-1.51 1.39-2.32 2.03-.99.77-1.92 1.67-2.82 2.54-.22.2-.45.5-.7.63-.27.12-.61.16-.9.17-.61.02-1.23 0-1.84-.08-.42-.04-1.06-.09-1.63-.4zM21.51 7.9c-.13.32-.34.58-.4.93-.07.51.15.98.1 1.48-.06.54-.47.89-.6 1.4-.15.54.12 1.07-.05 1.62-.2.63-.4 1.2-.3 1.87.04.3.2.42.4.64.29.33.64.64 1.1.73.26.05.54-.05.6-.3.1-.38-.12-.68-.29-.95a2.42 2.42 0 01-.27-2.07c.09-.22.23-.44.3-.66.1-.24 0-.38-.07-.64-.05-.2-.13-.42-.1-.62.06-.33.32-.64.48-.91.32-.57.39-1.16.27-1.8a2.4 2.4 0 010-1.15c-.45-.04-.94.4-1.17.44z"/>
    <path fill="#272442" d="M22.68 7.03c-.5.15-.95.4-1.4.64a17.23 17.23 0 00-3.6 2.43l-.03-.48c-.05-.63-.22-1.24-.75-1.63-.56-.4-1.28-.47-1.95-.54-.87-.09-1.75-.13-2.63-.12-.65 0-1.3.02-1.95.05-.44 0-.87.01-1.3.03-.74.03-1.48.08-2.2.22-.63.11-1.18.4-1.46 1a3.47 3.47 0 00-.28 1.54C4.31 9.4 3.51 8.63 2.58 8a8.76 8.76 0 00-1.64-.9c-.22-.08-.47-.16-.69-.04-.25.14-.3.45-.21.7.15.49.56.86.8 1.3.1.24.16.48.1.73-.06.28-.21.54-.29.82-.14.48.02.88.29 1.29.12.18.28.37.33.59.06.26-.1.48-.24.7-.14.22-.27.44-.3.7-.03.33.1.62.27.9.16.26.32.52.36.85.04.34-.04.67-.17.98-.07.2.19.38.35.27.68-.44 1.4-.83 2.07-1.28.63-.42 1.25-.86 1.86-1.32.06.1.14.18.22.27a3.2 3.2 0 001.61.78c1.47.33 3.01.39 4.51.35.77-.01 1.54-.06 2.3-.13a5.45 5.45 0 001.82-.38c.59-.27.97-.73 1.21-1.26l3.17 2.03.78.5c.23.15.48.39.77.4.5.02.7-.55.68-.96-.03-.58-.41-1.03-.62-1.55-.1-.24-.17-.5-.09-.76.07-.22.24-.4.37-.59.1-.17.2-.35.22-.56.02-.26-.08-.49-.17-.73-.09-.24-.1-.43.02-.65.13-.22.3-.4.42-.61.26-.44.26-.94.2-1.43-.08-.53-.22-1.12.08-1.6.11-.19-.08-.44-.3-.38zm-20.1 8.6v.1l-.72.44a2.13 2.13 0 00-.31-1.52c-.13-.23-.31-.47-.26-.74.04-.21.19-.4.3-.57.11-.2.2-.42.21-.66 0-.45-.3-.78-.55-1.13-.13-.18-.24-.36-.24-.59 0-.27.14-.52.23-.76.17-.45.19-.88-.02-1.32-.1-.2-.21-.4-.33-.58L.7 7.97C.67 7.9.55 7.7.57 7.63a.1.1 0 01.05.01l.2.09a8.66 8.66 0 01.83.42c.31.2.53.53.59.9.06.37-.08.7-.2 1.04-.1.32-.15.64-.07.97.07.3.22.59.34.87.14.32.24.65.14 1-.09.31-.25.6-.28.93-.03.3.08.57.2.83.13.3.32.61.21.95zm.74-.4l-.36.24c0-.6-.55-1.08-.43-1.69.07-.36.29-.67.32-1.04.03-.33-.07-.64-.2-.94-.13-.32-.3-.64-.35-.98-.07-.43.17-.82.24-1.23.06-.35 0-.71-.18-1.02a24.1 24.1 0 012.77 2.08c0 .18 0 .35-.02.53a3.97 3.97 0 00-1.65-.76c-.21-.05-.28.25-.09.32.33.13.66.26.98.41.24.11.48.25.74.32-.03.33-.06.67-.06 1-.5-.02-.98.05-1.44.23-.23.09-.13.46.1.37a5.6 5.6 0 011.34-.35v.14c.02.34.09.67.2.99-.62.48-1.25.93-1.9 1.37zm2.2-3.6c.06-.68 0-1.38.1-2.05.1-.7.47-1.23 1.17-1.43.58-.15 1.19-.21 1.8-.27a84.5 84.5 0 012.02-.09L5.5 11.91l.03-.29zm.09 1.9a3.46 3.46 0 01-.14-1.29c1.92-1.48 3.83-2.96 5.74-4.46h.09c1.15-.01 2.34 0 3.48.15a147.85 147.85 0 00-8.12 6.67c-.48-.2-.87-.53-1.05-1.07zM7 14.73a207.8 207.8 0 018.07-6.75l.38.06c.5.1 1.05.25 1.34.7.19.28.25.64.27 1l-3.13 2.65-1.56 1.36c-.52.46-1.06.9-1.55 1.38-.7 0-1.42-.04-2.12-.12-.52-.06-1.14-.11-1.7-.28zm10.05-4.17c-.01.69-.08 1.37-.19 2.05a3.1 3.1 0 01-.6 1.58c-.38.43-.94.6-1.5.7-.62.1-1.26.13-1.9.17-.48.03-.97.05-1.46.06l1.19-1.07 1.57-1.42 2.9-2.68-.01.61zm3.12 3.52c-.1.34-.16.72-.1 1.07l-2.73-1.77c.07-.22.12-.46.16-.7.64.1 1.27.25 1.87.5.24.09.34-.3.1-.4a5.58 5.58 0 00-1.93-.36 11.05 11.05 0 00.12-1.12c.36-.08.7-.2 1.06-.3.43-.1.85-.2 1.28-.28.24-.05.14-.4-.1-.36-.72.13-1.57.3-2.23.7.01-.22.02-.44.01-.66.83-.5 1.66-1.03 2.5-1.5l1-.53c-.24.3-.24.78-.2 1.15.06.45.17.89-.07 1.3-.16.3-.4.53-.48.86-.1.38.07.73.08 1.11.01.45-.2.88-.34 1.3zm2.31-4.37c-.06.48-.43.75-.65 1.16-.22.42-.11.76.04 1.18.17.5-.21.75-.43 1.16-.23.43-.16.9 0 1.35.2.47.59.97.53 1.5 0 .05-.02.21-.1.23-.06.02-.23-.14-.29-.17l-.78-.5-.05-.04a.16.16 0 00-.03-.03c-.53-.5-.23-1.23-.03-1.8.1-.33.2-.66.18-1-.02-.35-.2-.71-.06-1.06.1-.27.32-.49.45-.75.14-.29.16-.6.12-.9-.08-.59-.41-1.42.16-1.86l.83-.4c-.04.64.2 1.27.12 1.93z"/>
  </g>
</svg>
