<svg xmlns="http://www.w3.org/2000/svg" viewBox="0 0 24 24">
  <defs/>
  <g fill="none" fill-rule="nonzero">
    <path fill="#F95252" d="M11.84.21c-.34.03-.67.13-1.01.18-.4.06-.82.08-1.22.17a3.6 3.6 0 00-2 1.25c-.24.3-.53.53-.77.83a8.44 8.44 0 00-1.18 1.92c-.36.79-.38 1.58-.38 2.43 0 .9.16 1.72.4 2.57.19.63.62 1.15 1.1 1.6a8.52 8.52 0 006.7 2.1 5.26 5.26 0 003.89-2.53c.37-.6.6-1.3.84-1.96.26-.67.27-1.25.18-1.97-.21-1.74-.7-3.62-2.2-4.7-.68-.5-1.26-1.09-2.07-1.4L13.08.32a2.74 2.74 0 00-.72-.15c-.16-.01-.33.02-.52.04z"/>
    <path fill="#FFEC8D" d="M12.51 5.06c.01-.16.14-.35.21-.5.18-.33.37-.65.58-.96l.89-1.22c.21-.28.44-.55.68-.8.08-.1.23-.4.37-.4.13.02.3.31.37.4.24.27.54.48.8.74.2.2.38.42.57.63.11.12.28.28.31.45-.44.22-.87.5-1.34.68-.42.16-.84.31-1.24.5-.23.11-.46.21-.68.33-.16.08-.32.22-.48.29-.35.14-.5-.26-1.04-.14zM11.5 5.02c-.15-.2-.26-.42-.42-.62-.2-.24-.43-.47-.65-.7-.18-.2-.4-.32-.6-.48-.26-.2-.5-.48-.7-.73-.11-.14-.19-.33-.31-.46-.13-.12-.3-.18-.44-.3-.16-.14-.3-.33-.5-.42-.11.16-.3.27-.44.4-.38.34-.71.73-1 1.15-.15.24-.65.83-.53 1.13.16.37.85.31 1.17.42.52.18 1.1.32 1.58.57.45.22.92.35 1.38.55.14.05.28.06.42.1.06.02.24.14.3.13.17 0 .33-.28.45-.41.08-.1.28-.41.29-.33zM5.36 8.53c.73-.41 1.52-.68 2.31-.94.65-.2 1.28-.45 1.93-.64l.67-.2c.12-.04.4-.18.53-.15.14.03.38.36.48.46-.26.26-.41.63-.58.95L10 9.44c-.12.24-.2.47-.34.7-.17.25-.35.5-.5.76-.23.37-.42.77-.63 1.15-.1.2-.15.25-.38.16-.19-.08-.32-.23-.48-.35l-.53-.4c-.4-.36-.68-.78-.97-1.22-.2-.3-.4-.53-.5-.87a4.6 4.6 0 00-.31-.84zM12.08 7c.1.1.17.29.26.42.15.22.3.42.41.67.23.5.48 1 .77 1.47.25.43.53.93.7 1.4.2.52.27 1.08.46 1.61.03.08.05.21.15.24.1.02.3-.21.34-.25.21-.16.45-.28.67-.45.76-.58 1.58-1.22 1.87-2.16.14-.45.34-.8-.13-1.07-.64-.4-1.34-.73-2.04-1.01-.63-.26-1.16-.67-1.83-.85-.46-.12-.86-.38-1.32-.5-.02.18-.17.35-.31.48z"/>
    <path fill="#D3D3D3" d="M11.2 13.37c-.01 1.61-.14 3.23-.08 4.83.02.58-.02 1.15.02 1.72.03.46.08.93.1 1.39.01.52-.01 1.1.1 1.61.08.32.4.9.78.9.42-.02.76-.54.89-.9.14-.39.17-.85.14-1.26-.05-.51-.06-1.03-.13-1.53-.11-.95-.06-1.92-.2-2.87-.13-.79-.14-1.58-.17-2.38-.01-.25 0-.51-.03-.76-.01-.22-.06-.44-.02-.65a1.73 1.73 0 00-.4-.05c-.28 0-.65-.13-1-.05z"/>
    <path fill="#272442" d="M18.41 5.15a7.19 7.19 0 00-2.63-3.73 7.58 7.58 0 00-2-1.06 4.86 4.86 0 00-2.63-.28h-.06a5.88 5.88 0 00-3.35 1.2c-1.31 1-2.2 2.5-2.55 4.1a6.63 6.63 0 00.65 4.88 7.4 7.4 0 003.87 2.9c.43.17.88.3 1.34.37-.05.67-.04 1.35-.06 2.01-.03.8-.06 1.6-.07 2.4 0 .8-.06 1.6 0 2.4.07.77.06 1.55.13 2.33.05.54.27 1.17.87 1.3.57.14 1.09-.32 1.26-.84.12-.33.12-.69.1-1.04 0-.38-.03-.76-.05-1.15l-.13-2.38c-.03-.45-.04-.9-.1-1.35-.05-.43-.1-.86-.13-1.3l-.09-1.36c-.02-.3.01-.62-.02-.93a6.55 6.55 0 005.22-3.55 6.9 6.9 0 00.43-4.92zm-2.9-3.4c.6.43 1.1.97 1.51 1.58-.28.1-.56.25-.82.37l-.86.4a4.5 4.5 0 00-1.41-1.15c.36-.51.75-1.01 1.16-1.5l.42.3zm-4.85 4.8c-.36.05-.72.18-1.08.29a3.05 3.05 0 01-.1-1.42l.24.08.65.22.26.08-.02.1c-.04.22-.02.44.05.65zm.1.23c.08.13.18.24.3.33l-.24.4-.36.58-.15-.13a2.62 2.62 0 01-.6-.83c.35-.1.72-.2 1.06-.35zm.28.86c.08-.13.17-.26.24-.4.1.05.2.08.32.1a.9.9 0 00.5-.11l.6 1.17a2.14 2.14 0 01-2-.15c.1-.2.23-.4.34-.6zm1.24-.53c.15-.11.27-.27.34-.44l1.14.54a1.8 1.8 0 01-.77 1.03c-.21-.39-.45-.77-.7-1.13zm.4-.6a.78.78 0 00-.04-.44c-.12-.32-.63-.18-.5.14.1.27 0 .57-.29.69-.3.13-.63-.09-.77-.36-.34-.63.25-1.3.85-1.43a1.6 1.6 0 011.6.62c.24.35.33.8.28 1.22l-1.14-.45zm.15-1.84c.15-.2.27-.46.4-.66l.4-.63a3.7 3.7 0 011.23.97l-.63.33c-.2.12-.44.22-.64.36-.23-.17-.48-.3-.76-.37zm.2-.88c-.16.25-.38.53-.49.82a1.83 1.83 0 00-1 .16l-1.08-1.2c.8-.68 1.94-.71 2.91-.31l-.35.53zm-1.78 1.15c-.22.16-.4.37-.52.61a2.24 2.24 0 00-.28-.1l-.61-.21-.3-.1a3.22 3.22 0 01.7-1.34c.34.37.68.75 1.01 1.14zM9.4 4.45c-.08.19-.15.38-.2.58a173.48 173.48 0 01-1.37-.48 6.64 6.64 0 011.05-2.19l1.1 1.16c-.24.28-.44.6-.58.93zm-.98.61l.73.25c-.1.54-.06 1.1.1 1.64l-1.16.37-.32.1a5.44 5.44 0 01-.02-2.58l.67.22zM8.2 7.6l1.14-.36c.19.47.5.89.9 1.2-.22.37-.43.73-.63 1.1l-.22.4a4.86 4.86 0 01-1.55-2.21l.36-.13zm1.7 2.05c.18-.35.38-.69.57-1.03.02 0 .03.02.04.03.73.44 1.62.5 2.4.18a32.49 32.49 0 01.78 1.56 3.85 3.85 0 01-4.05-.25l.26-.49zm3.32-.97c.46-.27.8-.69 1-1.19l.01-.05.93.45.43.21a3.94 3.94 0 01-1.6 2.12l-.23-.48-.54-1.06zm2.05-1.08l-.96-.44a2.17 2.17 0 00-.52-1.93l.53-.28.72-.36a3.88 3.88 0 01.64 3.21l-.4-.2zM11.45.54c1.16-.2 2.37.16 3.4.76-.42.5-.81 1-1.18 1.53l-.31-.12a3.27 3.27 0 00-2.43.06c-.28.13-.53.3-.74.52L9.9 3c-.29-.3-.58-.58-.88-.86A4 4 0 0111.45.54zM9.7.74c-.4.3-.77.66-1.07 1.06a21 21 0 00-.37-.3C8.7 1.18 9.2.93 9.7.74zm-1.57.86l.37.38A7.3 7.3 0 007.37 4.4l-.2-.07-.65-.22-.3-.11a6.61 6.61 0 011.91-2.4zM5.5 7.1c0-.97.2-1.92.58-2.8l.36.1.61.21.26.09c-.2.94-.2 1.94.05 2.87a71.95 71.95 0 00-1.37.48l-.42.15a6.84 6.84 0 01-.07-1.1zm1.52 4a4.94 4.94 0 01-1.39-2.58c.15-.04.3-.11.44-.16a69.34 69.34 0 011.38-.5 5.16 5.16 0 001.75 2.46l-.31.58c-.2.39-.42.78-.6 1.18-.46-.28-.88-.6-1.27-.98zm5.79 10.78c.04.55.13 1.4-.49 1.69-.28.13-.55-.02-.7-.27-.18-.28-.19-.63-.2-.95-.03-.72-.02-1.44 0-2.16.02-.72-.03-1.44-.03-2.16l-.03-2.44c0-.66.03-1.34 0-2 .34.04.68.06 1.02.05 0 .21.04.42.06.64.04.37.05.74.07 1.12l.05 1.07c0 .36-.02.71 0 1.07.05 1.45.15 2.9.25 4.34zm-1.47-8.8l-.14-.02h-.1a6.5 6.5 0 01-2.52-.81c.21-.4.4-.82.6-1.23l.27-.51a4.45 4.45 0 004.45.31c.26.59.51 1.18.75 1.79a5.79 5.79 0 01-3.3.47zm6.4-3.75a6.07 6.07 0 01-2.77 3.11c-.24-.6-.5-1.19-.77-1.78a4.2 4.2 0 001.88-2.31l.45.23c.41.21.82.46 1.23.67l-.03.08zm.13-.42l-1.14-.59-.55-.28a4.3 4.3 0 00-.64-3.68l.75-.34c.3-.13.63-.23.92-.4.93 1.57 1.2 3.5.67 5.3z"/>
  </g>
</svg>
