<svg xmlns="http://www.w3.org/2000/svg" viewBox="0 0 24 24">
  <defs/>
  <g fill="none" fill-rule="nonzero">
    <path fill="#FFEC8D" d="M.36 22.88l8.82-17.7.69 1.43 1.23 2.13 2.24 2.58 1.56 1.41 1.72 1.1 1.58.68-.14.72-1.24.9-8.88 3.99-5.6 2.64-1.52.52z"/>
    <path fill="#FF9D7B" d="M8.2 7.13c-.29.5-.5 1.07-.73 1.6-.19.4-.47.8-.59 1.23.18.04.3.32.45.42.37.24.79.33 1.2.47.33.1.7.14 1.05.15.27.02.63.05.9-.05-.01-.07-.08-.15-.12-.22l-.29-.5c-.25-.4-.5-.8-.79-1.2A1.96 1.96 0 019 8.52c-.09-.22-.21-.4-.35-.59-.16-.25-.27-.56-.45-.79zM5.69 12.07c.13.06.2.14.31.22.18.12.37.22.57.29.47.18.9.49 1.4.65.26.09.54.2.81.26.3.07.63.1.93.13.58.05 1.14.07 1.72.01.26-.03.5-.09.76-.17.14-.04.34-.16.48-.16.14 0 .22.15.3.24a6.62 6.62 0 001.75 1.4c.2.12.5.25.64.46-.11.13-.4.21-.55.27-.45.18-.91.31-1.39.4a11.35 11.35 0 01-5.38-.04c-.5-.11-.93-.4-1.42-.55-.35-.11-.72-.2-1.06-.37a5.82 5.82 0 01-1.04-.6c.08-.06.1-.15.14-.23a26.67 26.67 0 01.63-1.38c.12-.22.3-.47.4-.83zM3.02 17.25c-.34.7-.7 1.38-1.06 2.05-.1.17-.1.12-.05.22.03.08.11.15.17.2.23.24.53.39.82.56.36.23.71.46 1.11.61.33.13.66.32 1.02.39.4.07.79-.05 1.18-.14.32-.07.65-.24.94-.39l1.36-.73c.3-.16.58-.34.89-.49.13-.06.38-.16.47-.29-.17-.14-.58-.1-.79-.13l-1.23-.17c-.25-.04-.5-.07-.75-.13l-.6-.18a4.43 4.43 0 01-1.79-.85c-.2-.15-.45-.25-.67-.38-.14-.08-.28-.18-.41-.27-.08-.06-.2-.2-.3-.2-.05.1-.1.23-.31.32z"/>
    <path fill="#F95252" d="M8.19 6.67c0 .38.28.84.4 1.2.14.4.33.7.56 1.07.24.36.42.74.65 1.1.25.39.55.75.83 1.12.26.35.55.7.9.96.38.28.65.68 1.03.95.33.24.62.52.93.8.44.38.92.7 1.4 1.03.35.24.71.48 1.08.68.23.13.58.43.85.46.19.03.3-.11.44-.21.38-.26 1.05-.6 1.08-1.11.08-1.21-.45-2.25-1.07-3.24a14.4 14.4 0 00-2.53-2.9c-.51-.49-1.05-.98-1.64-1.37a7.02 7.02 0 01-.81-.6c-.31-.27-.65-.48-1-.7-.55-.36-1.21-.46-1.85-.6-.2-.04-.2-.07-.32.04-.1.08-.2.27-.26.36-.18.25-.46.58-.67.96z"/>
    <path fill="#CEB4F7" d="M21.9 3.06c.06.2 0 .4 0 .6-.02.25 0 .53-.07.77-.12.37-1.02 1.15-.2 1.4.65.2 1.01-.9 1.18-1.32.13-.33.24-.78.21-1.14-.06-.7-.74-.86-1.11-.31z"/>
    <path fill="#FFEC8D" d="M12.17 1.67c.39.38.56.94.68 1.46.14.6.01 1.15-.12 1.75.44-.04.63-.6.82-.92.29-.47.4-1.03.33-1.58-.04-.26-.13-.79-.32-.99-.33-.36-1.05.06-1.39.28z"/>
    <path fill="#74DEDA" d="M19.6 4.64c-.42.36-.75.9-.83 1.45-.05.4-.08.81-.22 1.21-.18.02-.4-.13-.58-.2-.23-.07-.62-.16-.76-.39-.2-.31.11-.81.26-1.1.19-.4.28-.84.6-1.15.32-.29 1.03-.78 1.5-.64.41.13.3.4.04.82z"/>
    <path fill="#FC9A70" d="M22.96 7.72c.07 1.28-1.3 2.15-2.38 2.47-.45.13-.93.05-1.4.14-.43.1-.56.4-.13.65.53.31 1.2.26 1.8.23a3.49 3.49 0 001.62-.56c.53-.35 1.18-1.11 1.26-1.76.04-.34 0-.62-.17-.93-.07-.12-.51-.54-.6-.24z"/>
    <path fill="#F95252" d="M19.04.34c-.6.16-1.13.6-1.59 1-.2.18-.56.46-.5.79.05.2.26.48.37.65.15.22.2.33.39.16.48-.43.92-.8 1.51-1.09.16-.07.53-.15.64-.28.3-.35-.37-1.14-.82-1.23z"/>
    <path fill="#272442" d="M18.63 13.53a6.54 6.54 0 00-.72-1.5 16.63 16.63 0 00-2.85-3.57 17.69 17.69 0 00-5.04-3.4c-.23-.1-.53-.31-.78-.27-.25.05-.51.41-.63.62-.27.48-.44 1.03-.68 1.52l-.9 1.88c-.44.9-.89 1.8-1.3 2.73A282.66 282.66 0 00.03 22.9c-.07.15-.02.33.15.38 1.11.31 2.3-.2 3.28-.65l3.58-1.67 7.14-3.36 1.78-.84c.52-.25 1.05-.47 1.54-.76.4-.23.77-.53 1-.93.28-.48.28-1.04.13-1.55zM7.5 9.02l.07-.16.75-1.47c.47 1.2 1.08 2.34 1.82 3.4-.22 0-.44 0-.67-.02a5.87 5.87 0 01-2.4-.88l.43-.87zM5.9 12.1c.36-.64.7-1.3 1.03-1.97.44.35.94.62 1.48.78.59.18 1.33.33 1.95.2a16.5 16.5 0 001.84 2.08 8.4 8.4 0 01-3.25.08c-1.1-.2-2.09-.63-3.06-1.14l.01-.03zm-.1.2a8.03 8.03 0 006.72 1.22h.02a16.52 16.52 0 002.48 1.85 12 12 0 01-8.17.09c-.74-.26-1.46-.58-2.16-.94l1.11-2.22zM2.18 22.7c-.29.1-.6.2-.91.23-.22.01-.44 0-.65-.06l1.48-3.02c.78.8 1.78 1.37 2.88 1.54l-1 .48c-.59.3-1.17.6-1.8.83zm5.53-2.62l-2.18 1.05a5.16 5.16 0 01-3.28-1.61l1.18-2.43a10.75 10.75 0 005.94 2.2l-1.66.79zm8.33-3.97l-1.65.78-4.3 2.06c-.19 0-.37 0-.55-.02a11.98 11.98 0 01-2.73-.52 15.38 15.38 0 01-3.27-1.53 92.56 92.56 0 011.07-2.17c2.36 1.65 5.53 2.13 8.33 1.65a11.63 11.63 0 002.52-.75c.26.14.51.28.78.4l-.2.1zm1.36-.7a5.9 5.9 0 01-.68.38c-.3-.2-.63-.35-.94-.53-.35-.2-.7-.4-1.04-.63A16.92 16.92 0 018.5 7.04l.69-1.32.28.59a17.02 17.02 0 008.55 8.46c-.13.25-.36.47-.61.63zm-6.73-7.78c-.25-.41-.48-.84-.69-1.28-.1-.23-.21-.46-.3-.7l-.05-.14a17.13 17.13 0 018.03 7.25c.25.44.51.95.5 1.46a16.43 16.43 0 01-7.5-6.59h.01zM13.9 1.9c-.08-.25-.2-.5-.43-.64-.26-.16-.58-.15-.87-.1-.28.06-.57.17-.6.49-.05.34.23.66.37.94.38.75.55 1.66.02 2.39a.15.15 0 00-.03.08c-.07.14.07.33.25.24a2.82 2.82 0 001.3-3.4zm-.28 1.42c-.12.42-.32.82-.61 1.15.1-.4.1-.82.02-1.22-.08-.36-.2-.7-.37-1.03-.05-.12-.26-.38-.19-.52.05-.1.37-.15.47-.17.9-.16.82 1.25.68 1.79zM20.06 4.1c-.07-.42-.51-.57-.88-.5-.41.06-.82.32-1.13.6-.48.41-.8.97-.94 1.59l-.04.1c-.19.41-.22.87.18 1.18.29.22.8.38 1.16.33.48-.06.54-.46.58-.86.03-.47.12-.96.4-1.36.24-.35.75-.58.67-1.09zm-.96.8a2.4 2.4 0 00-.4.83c-.1.31-.13.63-.17.95-.02.2-.08.28-.3.25-.15-.02-.3-.06-.44-.11-.16-.06-.32-.15-.38-.33a3 3 0 011.28-2.17c.19-.12.78-.5.98-.28.24.25-.44.7-.57.86zM22.99 7.36c-.12-.04-.2.06-.22.17-.08.67-.22 1.19-.73 1.65a3.67 3.67 0 01-2.2.9c-.24 0-.46-.05-.7-.05-.38-.01-.67.3-.56.68.11.4.56.56.92.66a3.8 3.8 0 004.28-1.9c.36-.8.11-1.83-.79-2.1zm.32 2.07a3.52 3.52 0 01-3.41 1.55c-.24-.04-.73-.12-.85-.36-.03-.07-.02-.12 0-.14a9.35 9.35 0 001.29-.07c.56-.08 1.1-.26 1.6-.59.63-.43 1.25-1.23 1.21-2.05a.9.9 0 01.42.6c.08.38-.06.75-.26 1.06zM20.2 1.41c-.08-.25-.19-.5-.29-.74-.07-.18-.13-.4-.28-.54-.3-.27-.7-.06-1 .1-.33.18-.64.4-.92.64-.15.1-.29.2-.42.32-.24.2-.54.43-.66.73-.13.33 0 .66.2.92.18.23.42.5.73.44.28-.07.46-.4.66-.57.52-.47 1.14-.8 1.81-1 .12-.03.22-.17.18-.3zm-2.3.97l-.3.28c-.02.03-.07.12-.11.12-.04.01-.03.01-.09-.06-.18-.24-.43-.45-.22-.75.14-.21.35-.4.54-.58.3-.27 1.07-1 1.5-.94.34.06.34.6.43.87a4.9 4.9 0 00-1.76 1.06zM23.09 2.9c-.17-.49-1.1-.44-1.36-.05-.1.16-.09.34-.07.52a2.59 2.59 0 01-.1.98c-.17.27-.35.54-.5.83-.15.3.1.48.35.61.28.15.6.2.88.03.26-.16.41-.44.52-.71.14-.35.23-.72.28-1.1.04-.33.11-.78 0-1.1zm-.36.6a4.2 4.2 0 01-.16 1c-.09.28-.18.62-.4.84-.1.1-.22.16-.36.13-.5-.08-.05-.39.09-.62.15-.28.24-.58.25-.9 0-.28-.32-.87.1-.97.1-.02.33-.07.42 0 .11.1.07.39.06.51zM11.33 4.08a4.56 4.56 0 00-1.29-1.51c-.29-.22-.58.27-.29.5.47.33.86.77 1.14 1.27.17.28.6.03.44-.26zM14.8 3.7c.01.63-.09 1.23-.37 1.8-.12.25.25.47.38.22.34-.62.55-1.3.54-2.01 0-.35-.55-.35-.54 0zM19.87 8.25c-.46.05-.91.2-1.32.41-.26.14-.03.52.22.4.34-.18.72-.29 1.1-.31.33-.02.32-.53 0-.5zM21.55 13.3a2.08 2.08 0 00-1.71-.67c-.29.02-.3.47 0 .45.51-.02 1.01.18 1.36.57.21.24.56-.12.35-.35zM23.84 12.33a2.02 2.02 0 00-1.01-.5c-.27-.04-.4.36-.12.42.3.06.57.2.78.43.22.22.59-.14.35-.35zM15.4 1.81c-.02-.21-.02-.43-.03-.64-.01-.26-.4-.21-.35.05.03.2.08.4.1.6.02.17.3.18.29 0zM21.55 6.98c-.36-.1-.74-.07-1.07.08-.23.1-.07.5.17.4.25-.09.52-.1.77-.01.3.1.43-.39.13-.47z"/>
  </g>
</svg>
