<svg xmlns="http://www.w3.org/2000/svg" viewBox="0 0 24 24">
  <defs/>
  <g fill="none" fill-rule="nonzero">
    <path fill="#CBE580" d="M16.9 9.93c.26.16.5.25.68.25a.4.4 0 00.12-.02l.18-.06-.1-.15c-.07-.08-.2-.19-.4-.33a2.03 2.03 0 01-.35-.3V9.3c-.17-.16-.4-.39-.62-.56-.21-.17-.38-.26-.49-.26l-.07.01h-.01l-.01.01a.2.2 0 00-.08.2c.03.34.61.9 1.14 1.23zM11.36 12.11v-.04l-.02-.04a.17.17 0 00-.13-.08h-.04c-.28 0-.81.32-1.2.73-.2.22-.32.42-.33.58l-.02.26.22-.13.3-.24c.05-.04.09-.09.12-.1l.2-.14c.81-.53.9-.7.9-.8zM9.5 6.89a.18.18 0 00-.13-.05H9.3c-.33.1-.77.8-.97 1.38-.13.38-.15.68-.05.84l.09.16.12-.13c.08-.08.16-.26.24-.45l.08-.17.14-.22.01-.03c.13-.2.3-.47.43-.72.16-.32.2-.52.11-.61z"/>
    <path fill="#F95252" d="M15.4 14.32a1.13 1.13 0 00-.36-.05c-.38 0-.78.17-1.1.48a4.03 4.03 0 00-1.02 1.86c-.12.38-.13.78-.14 1.16l-.01.27-.15 3.18v.01l-.05 1.14-.01.26.15-.01c.83-.08 1.65-.2 2.47-.37.11-.02.16-.1.25-.81l.12-1.1.03-.26.42-3.04.04-.24c.13-.81.34-2.16-.65-2.48zM9.7 17.75v-.94a2.97 2.97 0 00-.09-.5 3.4 3.4 0 01-.06-.36c-.04-.34-.1-.73-.33-1.06a1.79 1.79 0 00-1.4-.8c-.42 0-.82.17-1.12.46-.69.65-.56 1.78-.46 2.7l.04.4.28 3.13.12 1.35.02.24.1.02.22.03c.86.14 1.74.23 2.62.27h.14l-.07-4.47v-.47z"/>
    <path fill="#5BD0FC" d="M14.17 11.92v-.03l-.01-.02a.21.21 0 00-.17-.12h-.06c-.39 0-1.06.46-1.47.9-.17.18-.46.53-.42.8l.03.17.15-.06c.11-.04.28-.18.44-.33l.02-.01c.05-.05.1-.1.14-.12l.23-.16.01-.01c.26-.16.5-.34.74-.53.25-.2.38-.37.37-.48zM13.09 7.41l.12-.01.18-.06-.1-.15a2 2 0 00-.4-.33l-.15-.12-.19-.18c-.17-.17-.4-.4-.63-.58-.22-.18-.38-.27-.5-.27-.02 0-.04 0-.06.02h-.01l-.02.02a.2.2 0 00-.07.18c.03.34.61.92 1.14 1.23.27.17.51.25.69.25zM6.58 10.81l-.02-.01a.18.18 0 00-.12-.05l-.07.01c-.33.1-.77.8-.97 1.38-.13.38-.15.68-.05.84l.08.16.13-.13c.08-.09.16-.27.24-.45a2.26 2.26 0 01.22-.4l.01-.02c.13-.2.3-.47.43-.72.14-.3.19-.48.13-.58v-.03z"/>
    <path fill="#FFFFFF" d="M17.14 7.65c-.27-.1-.56-.15-.84-.14-.71 0-1.45.25-2.16.5l-.05.02c-.55.2-1.26.4-1.94.4-.48 0-.88-.1-1.24-.3a.09.09 0 11.1-.16c.32.2.7.29 1.14.29.65 0 1.35-.21 1.88-.4l.05-.02a8.22 8.22 0 011.9-.5h.1l.02-.1c.3-1.36.15-2.39-.43-3.05a3.81 3.81 0 00-1.97-1l-.15-.03-.06-.02c-.68-.17-1.39-.35-1.96-.78a2.16 2.16 0 01-.7-.97 1.6 1.6 0 01-.1-.7l.02-.25-.22.11a5.7 5.7 0 00-3 4.12l-.03.14.14.02c.36.05.73.16 1.06.25.28.09.57.17.86.23.19.03.38.05.58.05.6 0 1.07-.18 1.36-.53a.09.09 0 11.14.11c-.32.39-.86.6-1.5.6-.21 0-.42-.02-.62-.06-.3-.05-.58-.14-.86-.22h-.01c-.43-.13-.83-.25-1.26-.28h-.21c-1.09 0-2.17.62-2.7 1.56a3.14 3.14 0 00.22 3.3l.06.12.11-.05c.44-.2.91-.3 1.4-.28.31 0 .64.03.95.1.64.14 1.24.38 1.83.61.41.17.83.33 1.26.46.48.16 1 .24 1.5.25.61 0 1.14-.14 1.58-.42a.09.09 0 01.1.15 3 3 0 01-1.68.45c-.53 0-1.05-.1-1.55-.25-.44-.14-.87-.3-1.28-.47-.58-.23-1.18-.47-1.8-.6-.3-.07-.61-.1-.92-.1-.85 0-1.57.27-2.03.77-.4.43-.61 1.05-.63 1.74 0 .5.08 1.01.28 1.67l.05.15.14-.07c.14-.07.3-.1.47-.11h.03c.38 0 .79.2 1.08.55.12.13.22.29.3.45l.12.24.12-.25a1.82 1.82 0 011.73-1.04 2 2 0 011.6 1.14l.11.23.13-.22a1.89 1.89 0 011.55-.95h.13a1.88 1.88 0 011.52 1.26l.1.29.15-.26c.16-.3.36-.55.6-.78.36-.34.8-.53 1.23-.53.14 0 .27.02.4.06.34.12.61.36.76.68l.12.26.12-.26c.16-.34.36-.6.58-.8.25-.21.56-.34.9-.36H18l.03-.09c.36-.93.8-2.1.77-3.25-.04-1.44-.86-2.39-1.66-2.68zm-5.86-4.17c0 .03-.04.1-.28.1-.25 0-.62-.08-.95-.16h-.01l-.22-.06-.16-.01c-.25-.03-.47-.05-.5-.14a.1.1 0 01.01-.1c.1-.13.35-.2.7-.2h.02c.59 0 1.21.19 1.37.4.04.05.05.12.02.17zm1.92.64a.2.2 0 01.12-.16h.05c.25 0 .64.7.87 1.13l.13.24.11.16c.18.23.33.44.28.54a.11.11 0 01-.1.06h-.03c-.2 0-.44-.16-.7-.46-.42-.46-.74-1.08-.74-1.42v-.09zm-1.86 1.62a.13.13 0 01.09-.03c.26 0 .8.53 1.11.84l.02.02a4.88 4.88 0 00.33.29c.24.17.44.33.43.44 0 .04-.03.06-.08.09a.37.37 0 01-.15.02c-.18 0-.42-.08-.7-.25-.57-.35-1.1-.92-1.13-1.23a.2.2 0 01.08-.19zM6.89 7.4l-.03.01-.2.15-.13.12h-.01c-.16.15-.36.35-.49.35H6a.11.11 0 01-.06-.1c-.05-.19.09-.47.37-.79.44-.5 1.06-.89 1.39-.89a.3.3 0 01.03 0 .2.2 0 01.17.11c.13.25-.59.74-1.01 1.04zm2.07.83v.01l-.15.23-.08.17c-.11.26-.22.5-.34.51a.12.12 0 01-.1-.06c-.11-.16-.1-.46.04-.87.22-.64.68-1.28.97-1.37l.07-.01c.05 0 .1.01.13.04.2.18-.26.91-.54 1.35zm3.48 1.64c-.01.03-.04.1-.28.1a4.61 4.61 0 01-1.19-.22l-.16-.02c-.24-.02-.46-.04-.5-.13a.1.1 0 01.02-.1c.1-.13.34-.2.7-.2.6 0 1.23.19 1.38.4.04.05.05.12.03.17zm-6.41 2.28l-.02.02-.13.21-.06.15-.02.03c-.11.26-.22.5-.34.5a.12.12 0 01-.1-.05c-.1-.16-.1-.47.04-.87.22-.65.67-1.29.97-1.38h.07c.05 0 .1 0 .13.04.2.18-.26.9-.54 1.35zm2.4 1.07a.08.08 0 01-.06.03h-.04c-.16-.03-.33-.23-.48-.56-.25-.54-.35-1.18-.22-1.42.03-.05.08-.09.14-.1.24 0 .4.78.47 1.15v.02a10.83 10.83 0 00.1.37c.08.23.15.44.1.51zm2.03-.31l-.2.13-.12.1c-.13.12-.31.29-.42.29H9.7a.1.1 0 01-.06-.1c-.03-.15.09-.39.34-.65.38-.41.9-.73 1.2-.73h.03c.06 0 .12.04.14.1.1.2-.54.63-.89.86zm2.6.02h-.01l-.23.16a2.1 2.1 0 00-.16.13c-.16.15-.38.35-.51.35h-.03a.12.12 0 01-.07-.1c-.04-.2.1-.5.41-.82.47-.5 1.13-.9 1.48-.9h.04c.08 0 .15.05.18.11.12.27-.64.77-1.1 1.07zm2.95-1.06a.11.11 0 01-.1.06.3.3 0 01-.03 0c-.19 0-.44-.16-.7-.46-.46-.5-.8-1.21-.73-1.51a.2.2 0 01.12-.16h.05c.25 0 .64.7.87 1.12l.01.03.12.22.11.15c.18.23.33.45.28.55zm1.72-1.72a.39.39 0 01-.15.03c-.18 0-.42-.09-.69-.25-.58-.36-1.11-.93-1.14-1.24a.2.2 0 01.08-.19.13.13 0 01.09-.02c.27 0 .8.52 1.11.83l.2.2.14.1.02.01c.23.17.43.33.42.44 0 .04-.03.07-.08.09z"/>
    <path fill="#FFEC8D" d="M11.04 9.3h-.01c-.3 0-.53.05-.65.14l-.2.16.24.08c.13.03.25.05.37.05h.02l.16.02.23.06c.47.11.8.17.98.17.1 0 .17-.02.21-.06l.04-.02.01-.05v-.04a.18.18 0 00-.03-.1c-.15-.23-.78-.41-1.37-.41zM11.24 3.54l.04-.03.01-.05v-.04a.19.19 0 00-.03-.1c-.15-.22-.8-.4-1.37-.41-.31 0-.54.05-.66.15l-.2.15.24.08c.13.03.25.05.38.06l.01-.14v.14l.16.01.23.06c.47.11.79.17.97.17.1 0 .17-.02.22-.05zM8.34 12.71a1.84 1.84 0 01-.1-.39c-.2-.94-.3-1.08-.4-1.13l-.04-.02h-.05a.17.17 0 00-.12.1c-.13.23-.03.88.22 1.42.13.28.27.46.41.53l.23.11-.04-.25a2.18 2.18 0 00-.1-.37z"/>
    <path fill="#F95252" d="M18.01 13.84c-.32 0-.63.12-.87.33-.85.74-1.03 2.08-1.18 3.15l-.03.27-.47 3.3-.01.15c-.06.57-.1.89-.12.95a.12.12 0 01.08-.06l.05.26.65-.15c.37-.09.71-.19.96-.43.28-.26.39-.63.5-1.1l1.21-4.84c.15-.58.24-1.17-.1-1.55a.88.88 0 00-.67-.28z"/>
    <path fill="#ED6D66" d="M14.62 9.8h-.05a.2.2 0 00-.12.16c-.08.34.31 1.05.72 1.51.27.3.52.46.7.46h.2l-.06-.18c-.04-.1-.16-.27-.27-.42a1.66 1.66 0 01-.23-.37l-.02-.03c-.1-.2-.27-.5-.43-.73a1.58 1.58 0 00-.28-.33.27.27 0 00-.16-.08zM14.63 6.1h.19l-.06-.18c-.04-.1-.16-.28-.27-.43l-.01-.01-.1-.15-.12-.2-.02-.04a8.4 8.4 0 00-.43-.73 1.58 1.58 0 00-.28-.33.27.27 0 00-.16-.07h-.05a.2.2 0 00-.12.16c-.08.34.31 1.06.72 1.51.27.3.52.46.71.46z"/>
    <path fill="#F95252" d="M9.7 17.73v.23a302626.39 302626.39 0 00.08 4.6v.14h.13a22.91 22.91 0 002.53-.06h.12l.3-6.53v-.01-.02c.05-.4-.07-.83-.35-1.18a1.57 1.57 0 00-1.19-.61c-.39 0-.76.15-1.05.42-.67.6-.62 1.69-.58 2.57l.02.45z"/>
    <path fill="#ED6D66" d="M5.95 8.08L6.12 8c.1-.04.23-.15.4-.31a2.6 2.6 0 01.37-.3h.02c.19-.14.45-.32.66-.5.28-.25.4-.42.34-.53a.2.2 0 00-.17-.1l-.05-.01c-.36 0-1 .46-1.38.9-.27.29-.4.56-.38.74l.02.19z"/>
    <path fill="#F95252" d="M6.53 22.33l.18.04-.03-.28a1289.9 1289.9 0 01-.41-4.74c-.06-.94-.13-2-.75-2.73a1.3 1.3 0 00-.95-.48h-.03c-.56.01-1 .53-1.14 1.03-.16.56-.07 1.15.04 1.72.26 1.33.6 2.64 1.05 3.91.2.6.39.89.98 1.19.3.14.63.25 1.06.34z"/>
    <path fill="#272442" d="M18.91 13.9a1.1 1.1 0 00-.54-.32c.38-1 .78-2.1.74-3.25a3.8 3.8 0 00-.5-1.78c-.33-.58-.8-.99-1.36-1.2-.26-.1-.53-.14-.81-.15.28-1.41.1-2.5-.53-3.22a4.08 4.08 0 00-2.13-1.09l-.2-.05c-.66-.17-1.33-.34-1.85-.73-.52-.4-.88-1.16-.59-1.74a.22.22 0 00-.28-.3 5.98 5.98 0 00-3.65 4.59 3.43 3.43 0 00-3 1.73A3.42 3.42 0 004.43 10c-.16.1-.3.23-.43.37-.44.48-.7 1.17-.71 1.94-.01.56.09 1.15.33 1.9-.25.24-.43.55-.53.88-.17.62-.07 1.26.04 1.86.26 1.34.62 2.66 1.06 3.96.23.64.45 1.01 1.14 1.36.52.26 1.1.37 1.64.46a22.83 22.83 0 009.22-.38c.39-.1.8-.22 1.1-.5.36-.36.49-.86.59-1.26l1.2-4.84c.17-.67.27-1.35-.17-1.84zM3.74 12.33a2.5 2.5 0 01.6-1.65c.59-.65 1.64-.89 2.82-.63.6.13 1.2.37 1.78.6.41.16.84.33 1.28.46 1.7.52 2.75.17 3.34-.21a.22.22 0 10-.24-.38c-.51.34-1.44.63-2.97.16-.42-.12-.84-.3-1.25-.45-.59-.24-1.2-.48-1.85-.62a3.9 3.9 0 00-2.43.18l-.01-.02a3 3 0 01-.2-3.15 3 3 0 012.78-1.5c.4.04.8.15 1.22.27.29.09.59.17.89.23.95.18 1.79-.04 2.24-.58a.22.22 0 00-.34-.29c-.52.62-1.52.49-1.82.43-.28-.05-.57-.14-.84-.22-.35-.1-.71-.2-1.08-.26A5.6 5.6 0 0110.6.67c-.03.26 0 .52.1.76.15.41.41.77.76 1.03.59.45 1.3.63 2 .81l.2.05c.73.19 1.46.43 1.91.96.56.63.7 1.61.4 2.93-.65.06-1.31.29-1.92.5l-.06.02c-.97.34-2.07.62-2.91.12a.22.22 0 00-.23.4c1 .58 2.22.28 3.28-.1l.06-.01c.98-.35 2-.7 2.9-.36.76.27 1.53 1.17 1.57 2.56a8.52 8.52 0 01-.76 3.2c-.36.02-.7.16-.97.4-.27.23-.46.53-.61.84a1.43 1.43 0 00-.83-.76c-.45-.14-1.15-.09-1.78.5-.24.24-.45.5-.62.8a2 2 0 00-1.64-1.34 1.9 1.9 0 00-1.4.5c-.16.14-.3.32-.4.51a2.14 2.14 0 00-1.72-1.2 1.93 1.93 0 00-1.44.53c-.17.17-.32.36-.42.57a2.46 2.46 0 00-.31-.47 1.6 1.6 0 00-1.22-.6c-.19 0-.36.05-.53.13a5.1 5.1 0 01-.27-1.63zm.88 8.44a28.48 28.48 0 01-1.04-3.9c-.11-.55-.2-1.12-.05-1.65.13-.46.52-.93 1.02-.94.3-.01.63.15.87.44.17.2.3.42.4.66v.01a.2.2 0 000 .05l.4 4.95c.04.6.09 1.2.2 1.8-.31-.07-.6-.17-.89-.32-.54-.27-.71-.52-.91-1.1zm2.27 1.5a16 16 0 01-.23-1.91l-.38-4.86c.23-.2.28-.62.52-.84.3-.3.72-.45 1.1-.42.5.03.93.34 1.2.73.11.15.18.47.32.66.05 1.08.03 2.18.01 3.25-.02 1.2-.03 2.43.03 3.65a24.09 24.09 0 01-2.57-.25zm3.02.28a49.9 49.9 0 01-.03-3.66c.02-1.05.03-2.14 0-3.21.1-.08.09-.2.13-.33.07-.2.19-.39.35-.53.3-.27.7-.41 1.06-.38.37.03.72.23.98.55.16.2.2.63.4.82a51.35 51.35 0 00-.5 6.72c-.8.06-1.6.06-2.39.02zm2.97-.07l-.14.01a51 51 0 01.5-6.64.68.68 0 00.2-.23c.18-.27.34-.54.58-.76.4-.38.92-.53 1.33-.4.35.12.45.36.6.66.03.07.08.13.14.18a146.2 146.2 0 00-.94 6.83 23.2 23.2 0 01-2.27.35zm5.77-6.83l-1.2 4.84c-.12.44-.22.8-.47 1.04-.23.21-.56.3-.9.4l-.47.1c.26-2.23.57-4.48.93-6.7a.36.36 0 00.06-.08c.2-.36.3-.69.63-.97.37-.33 1.03-.43 1.35-.06.3.33.2.89.07 1.43z"/>
    <path fill="#272442" d="M5.33 13.31h.06c.1 0 .18-.02.25-.08.2-.12.33-.3.44-.46.2-.28.44-.6.61-.94v-.01c.2-.41.37-.83.2-1.11a.41.41 0 00-.35-.2c-.49-.02-1.07.78-1.08.8-.27.39-.44.78-.5 1.16-.06.3 0 .54.14.7a.4.4 0 00.23.14zm.07-.77c.05-.3.2-.64.43-.98.15-.21.53-.58.68-.6.01.04.02.19-.21.66-.16.32-.37.6-.58.88-.1.13-.19.26-.3.35-.05-.08-.04-.2-.02-.3zM7.84 13.33c.06.1.15.17.24.23.08.04.17.07.26.07.07 0 .13-.02.2-.05.13-.06.28-.22.26-.6a1.38 1.38 0 00-.08-.36 1.5 1.5 0 01-.05-.19l-.03-.2a1.9 1.9 0 00-.15-.63v-.01c-.1-.2-.27-.55-.63-.59a.52.52 0 00-.47.18c-.27.33-.1.98-.03 1.25.1.33.26.63.48.9zm-.1-1.86s.01-.02.06-.02h.02c.1 0 .2.2.26.33v.01c.08.15.1.3.12.49l.03.23.07.25.06.23c0 .12-.02.17-.03.18H8.3a.46.46 0 01-.11-.12 2.28 2.28 0 01-.4-.75c-.1-.37-.13-.73-.05-.83zM9.72 13.64h.12c.33-.06.61-.23.84-.37.26-.16.54-.34.78-.6.1-.1.18-.24.23-.38a.56.56 0 00-.3-.68c-.26-.12-.45-.02-.6.06l-.03.02c-.36.19-.7.37-1 .66-.3.27-.46.55-.48.83 0 .1.01.19.06.27.07.12.21.2.38.2zm.34-.97c.27-.24.58-.41.9-.59l.04-.01c.14-.08.15-.07.2-.05.05.03.08.1.05.15a.53.53 0 01-.13.2c-.18.22-.44.37-.67.51a1.99 1.99 0 01-.72.32c.02-.17.12-.34.33-.53zM11.9 13.85c.08.06.17.09.27.09.07 0 .14-.02.2-.04.37-.12.64-.38.9-.63l.09-.08c.2-.2.42-.39.65-.56l.01-.01c.15-.11.32-.24.42-.45.1-.22.04-.37-.02-.46-.1-.15-.32-.23-.6-.21l-.23.03c-.35.1-.75.3-1.1.58-.46.35-.73.83-.75 1.3 0 .2.05.35.16.44zm.29-.41c.01-.35.22-.7.57-.97.31-.24.65-.42.95-.5l.14-.02.18.01V12c-.05.1-.16.18-.28.27l-.01.01a8.31 8.31 0 00-.78.68c-.23.22-.45.44-.72.53h-.05v-.04zM14.1 10.16c.02.2.1.38.18.54.2.4.46.76.77 1.08.12.13.26.24.4.32a.93.93 0 00.6.1c.12-.02.24-.1.3-.22.05-.12.04-.25-.04-.39-.08-.15-.19-.3-.3-.43l-.08-.1a8.8 8.8 0 01-.52-.77l-.3-.46c-.08-.11-.31-.45-.65-.32-.26.1-.36.4-.35.65zm.46-.02c0-.08.01-.15.05-.2.05.03.1.09.13.14l.29.45c.17.28.35.55.54.8l.09.1c.09.11.17.22.24.34a.47.47 0 01-.23-.06c-.11-.07-.21-.15-.3-.24a3.93 3.93 0 01-.7-.98.95.95 0 01-.11-.35zM16.52 10.07c.27.2.61.42 1 .42a1 1 0 00.16-.01c.24-.04.42-.2.44-.4.03-.24-.15-.4-.23-.46l-.8-.68-.16-.14a2.26 2.26 0 00-.86-.56.45.45 0 00-.56.3c-.13.33.1.62.18.74.24.3.52.56.83.8zm-.6-1.38l.02-.02h.02c.22.06.46.28.68.47l.16.14a87.02 87.02 0 01.86.74.22.22 0 01-.05.01c-.29.05-.59-.14-.82-.32-.27-.2-.52-.44-.74-.7-.1-.15-.15-.25-.12-.32zM12.3 9.13a1.46 1.46 0 00-.4-.09h-.03l-.13-.02c-.33-.04-.66-.08-1-.04-.23.02-.45.1-.64.23a.47.47 0 00-.18.23.33.33 0 00.02.27c.05.1.16.18.31.22l.86.22c.3.09.63.17.96.19h.1c.09 0 .18-.01.27-.04a.53.53 0 00.34-.33c.1-.34-.17-.71-.47-.84zm.05.7a.1.1 0 01-.06.05.54.54 0 01-.19.01c-.3-.01-.59-.1-.87-.17l-.77-.2a1 1 0 01.33-.1c.29-.03.58 0 .89.04l.14.02h.04c.1.01.19.03.28.07.12.05.23.2.2.29zM9.79 6.67a.5.5 0 00-.37-.16c-.3.01-.55.3-.7.48l-.05.05a3 3 0 00-.65 1.19c-.07.24-.1.5-.08.75.02.33.19.44.28.47.05.02.09.02.13.02.1 0 .2-.04.29-.1a.8.8 0 00.17-.23l.92-1.56c.08-.12.14-.25.18-.4.04-.2 0-.39-.12-.5zm-.32.41c-.03.1-.07.19-.13.27l-.92 1.57c0 .02-.02.04-.03.05v-.02c-.01-.2.01-.4.07-.6a2.55 2.55 0 01.6-1.07c.07-.09.27-.32.37-.32l.04.02v.1zM8.22 6.27a.51.51 0 00-.44-.32.89.89 0 00-.41.07c-.24.1-.47.23-.68.39-.31.21-.75.55-.98 1.04a.82.82 0 00-.09.5.5.5 0 00.28.38.36.36 0 00.35-.05c.09-.06.17-.13.24-.21l.15-.15.53-.37.33-.24c.17-.12.34-.25.49-.4.29-.27.28-.5.23-.64zm-.54.32a4.13 4.13 0 01-.76.59 9.05 9.05 0 00-.75.58l-.1.1c-.01-.08.01-.15.05-.22.14-.3.4-.57.82-.86.19-.14.38-.25.6-.34a.55.55 0 01.2-.04.1.1 0 01.06.02s-.01.07-.12.17zM11.4 6.87c.2.21.4.4.63.56.17.13.35.22.55.28a.9.9 0 00.69-.04c.2-.08.32-.28.31-.5a.45.45 0 00-.07-.25.5.5 0 00-.15-.13h-.01c-.13-.1-.25-.2-.35-.33l-.16-.17c-.2-.2-.42-.37-.66-.51-.31-.2-.68-.38-.95-.22-.1.06-.23.2-.23.48 0 .35.22.63.4.84zm.06-.92c.05 0 .18.02.5.21.2.13.4.28.57.45l.14.15c.13.15.27.28.43.4h.01l.03.02c0 .04-.01.07-.07.1a.54.54 0 01-.37 0 1.37 1.37 0 01-.4-.21 3.4 3.4 0 01-.56-.5c-.14-.14-.29-.33-.29-.54l.01-.08zM12.92 4.42c.02.22.13.4.21.55.21.37.44.75.75 1.08.25.26.51.4.77.4l.15-.02a.32.32 0 00.26-.3 1.4 1.4 0 00-.23-.87c-.27-.46-.6-.9-.98-1.28-.09-.1-.37-.39-.67-.22-.23.12-.3.43-.26.66zm.47-.25a5.91 5.91 0 011.05 1.32c.09.15.18.33.18.5-.16-.01-.32-.16-.41-.25a5 5 0 01-.85-1.38c0-.07 0-.13.03-.2zM11.37 2.9c-.16-.12-.36-.13-.52-.15h-.1a7.49 7.49 0 01-.35-.05 4.81 4.81 0 00-.71-.07c-.23 0-.56.03-.8.25a.36.36 0 00-.11.27c0 .1.05.2.12.26.11.1.25.16.39.2a5.88 5.88 0 001.53.23h.23c.1 0 .2-.01.3-.05a.4.4 0 00.26-.33.64.64 0 00-.24-.56zm-.44.49h-.1a5.6 5.6 0 01-1.52-.25.98.98 0 01.37-.06c.22 0 .43.03.65.06l.38.05.1.01c.12 0 .24.02.3.06.03.03.05.08.06.12a.97.97 0 01-.24.01z"/>
  </g>
</svg>
