<svg xmlns="http://www.w3.org/2000/svg" width="52" height="60" viewBox="0 0 52 60">
  <g fill="none">
    <path fill="#6BCCFB" d="M22.9524324,10.9777547 C22.3964657,10.9767568 21.8444906,10.8830769 21.31921,10.7007069 C18.7066528,9.79347193 17.3240333,6.94016632 18.2312682,4.32760915 C18.922079,2.31567568 20.8253638,0.973596674 22.9524324,0.998544699 L22.9524324,0.998544699 L22.9993347,0.998544699 C22.9348441,1.32336798 22.9348441,1.65767152 22.9993347,1.9824948 C23.2755094,3.17713098 24.3501455,4.01525988 25.5759667,3.99230769 L25.5759667,3.99230769 L26.9441164,3.99230769 C30.802079,3.99230769 33.9295634,7.1197921 33.9295634,10.9777547 L33.9295634,10.9777547 L34.9274844,10.9777547 C37.6106018,10.9777547 39.7991507,13.0956952 39.9124794,15.7509246 L39.9170894,15.9673597 C39.9170894,18.7229938 37.6831185,20.9569647 34.9274844,20.9569647 L41.9129314,20.9569647 C44.5960488,20.9569647 46.7845977,23.0749052 46.8979264,25.7301346 L46.9025364,25.9465696 C46.9025364,28.7022037 44.6685655,30.9361746 41.9129314,30.9361746 L9.97945946,30.9361746 C7.29634205,30.9361746 5.10779315,28.8182341 4.99446448,26.1630047 L4.98985447,25.9465696 C4.98985447,23.1908108 7.22382536,20.9569647 9.97945946,20.9569647 L16.9649064,20.9569647 C14.281789,20.9569647 12.0932401,18.8390241 11.9799115,16.1837947 L11.9753015,15.9673597 C11.9753015,13.2116008 14.2092723,10.9777547 16.9649064,10.9777547 Z"/>
    <path fill="#FFF" d="M11.9753015,25.9465696 L11.9753015,27.9424116 L9.97945946,27.9424116 L9.97945946,25.9465696 L11.9753015,25.9465696 Z M22.9524324,25.9465696 L22.9524324,27.9424116 L20.9565904,27.9424116 L20.9565904,25.9465696 L22.9524324,25.9465696 Z M40.9150104,25.9465696 L40.9150104,27.9424116 L38.9191684,27.9424116 L38.9191684,25.9465696 L40.9150104,25.9465696 Z M16.9649064,23.9507277 L16.9649064,25.9465696 L14.9690644,25.9465696 L14.9690644,23.9507277 L16.9649064,23.9507277 Z M28.9399584,23.9507277 L28.9399584,25.9465696 L26.9441164,25.9465696 L26.9441164,23.9507277 L28.9399584,23.9507277 Z M35.9254054,23.9507277 L35.9254054,25.9465696 L33.9295634,25.9465696 L33.9295634,23.9507277 L35.9254054,23.9507277 Z M25.9461954,15.9673597 L25.9461954,17.9632017 L23.9503534,17.9632017 L23.9503534,15.9673597 L25.9461954,15.9673597 Z M20.9565904,13.9715177 L20.9565904,15.9673597 L18.9607484,15.9673597 L18.9607484,13.9715177 L20.9565904,13.9715177 Z M34.9274844,13.9715177 L34.9274844,15.9673597 L32.9316424,15.9673597 L32.9316424,13.9715177 L34.9274844,13.9715177 Z M28.9397089,6.48648649 L28.9397089,8.48232848 L26.9438669,8.48232848 L26.9438669,6.48648649 L28.9397089,6.48648649 Z"/>
    <path fill="#FFC63F" d="M5.98777547,30.9361746 L45.9046154,30.9361746 C48.6602495,30.9361746 50.8942204,33.1701455 50.8942204,35.9257796 L50.8942204,35.9257796 C50.8942204,38.6814137 48.6602495,40.9153846 45.9046154,40.9153846 L5.98777547,40.9153846 C3.23214137,40.9153846 0.998170478,38.6814137 0.998170478,35.9257796 L0.998170478,35.9257796 C0.998170478,33.1700208 3.23214137,30.9361746 5.98777547,30.9361746 Z"/>
    <path fill="#DB106F" d="M41.9129314,58.8779626 L9.97945946,58.8779626 L2.99401247,38.9195426 C4.42839917,37.007526 7.1412474,36.6203326 9.05326403,38.0548441 C9.21692308,38.1775884 9.37172557,38.3119335 9.51642412,38.4565073 L9.97945946,38.9195426 L10.9115177,37.9874844 C12.6014969,36.2982536 15.34079,36.2982536 17.0307692,37.9874844 L17.9628274,38.9195426 L18.8948857,37.9874844 C20.5848649,36.2982536 23.324158,36.2982536 25.0141372,37.9874844 L25.9461954,38.9195426 L26.8782536,37.9874844 C28.5682328,36.2982536 31.307526,36.2982536 32.9975052,37.9874844 L33.9295634,38.9195426 L34.8616216,37.9874844 C36.5516008,36.2982536 39.290894,36.2982536 40.9808732,37.9874844 L41.9129314,38.9195426 L42.3759667,38.4565073 C44.0660707,36.7662786 46.8064865,36.7662786 48.4967152,38.4563825 C48.6414137,38.6010811 48.7756341,38.7558836 48.8983784,38.9195426 L41.9129314,58.8779626 Z"/>
    <path fill="#FFF" d="M0.000249289047,35.9257796 C0.000249289047,37.8913098 0.975841996,39.7287318 2.60482328,40.8285655 L9.03742204,59.2072765 C9.17738046,59.6076923 9.5552183,59.8758836 9.97945946,59.8758836 L41.9129314,59.8758836 C42.3371726,59.8758836 42.7150104,59.6076923 42.8549688,59.2072765 L49.2875676,40.8285655 C50.9165489,39.7287318 51.8921416,37.8913098 51.8921416,35.9257796 C51.8890229,32.791185 49.4689397,30.189605 46.3427027,29.9602079 C48.565447,27.5200416 48.3891892,23.7400416 45.9490229,21.5172973 C44.845447,20.5120166 43.4056965,19.9561746 41.9129314,19.9590437 L39.3782121,19.9590437 C41.5882328,17.5066528 41.3917672,13.727027 38.9393763,11.5168815 C37.8387942,10.5250728 36.4090229,9.97721414 34.9274844,9.97983368 L34.8586279,9.97983368 C34.3526819,5.99226611 30.9636175,3.00112266 26.9441164,2.99438669 L25.5759667,2.99438669 C24.8291476,3.01796258 24.1657796,2.52049896 23.9792931,1.7968815 C23.9398753,1.59929314 23.9398753,1.39571726 23.9792931,1.1981289 C24.0308108,0.900997921 23.9466112,0.596382536 23.7497713,0.367858628 C23.5501871,0.135093555 23.2590437,0.000997920998 22.9524324,4.76110736e-05 C20.3893971,-0.0350519751 18.0970478,1.58931393 17.2812474,4.01925156 C16.6520582,5.87463617 16.9600416,7.91987526 18.107526,9.50781705 C18.2290229,9.67234927 18.3588773,9.83064449 18.4967152,9.98182952 L16.9649064,9.98182952 C13.663659,9.97621622 10.9827443,12.6477755 10.977131,15.9491476 C10.9746362,17.4306861 11.5223701,18.8604574 12.5141788,19.9610395 L9.97945946,19.9610395 C6.67871102,19.9546778 3.99779626,22.6253638 3.99143451,25.9261123 C3.98856549,27.4188773 4.54440748,28.8586279 5.54968815,29.9622037 C2.42432432,30.1914761 0.00436590437,32.7919335 0.000249289047,35.9257796 L0.000249289047,35.9257796 Z M4.12765073,39.1360915 C4.69222453,38.5832432 5.43505198,38.2491892 6.22328482,38.1940541 C7.18665281,38.1306861 8.13093555,38.4827027 8.81787942,39.1610395 L9.04939709,39.3925572 L11.8146362,57.8800416 L10.6879834,57.8800416 L4.12765073,39.1360915 Z M34.907526,39.3526403 L35.5671518,38.6930146 C36.8684407,37.3955925 38.9740541,37.3955925 40.275343,38.6930146 L40.8511435,39.268815 L38.0589605,57.8800416 L33.9814553,57.8800416 L34.907526,39.3526403 Z M31.9816216,57.8800416 L26.9441164,57.8800416 L26.9441164,39.3326819 L27.5837838,38.6930146 C28.8850728,37.3955925 30.9906861,37.3955925 32.2919751,38.6930146 L32.9106861,39.3117256 L31.9816216,57.8800416 Z M24.9482744,57.8800416 L19.9107692,57.8800416 L18.9817048,39.3117256 L19.6004158,38.6930146 C20.9017048,37.3955925 23.0073181,37.3955925 24.3086071,38.6930146 L24.9482744,39.3326819 L24.9482744,57.8800416 Z M16.9848649,39.3526403 L17.9109356,57.8800416 L13.8334304,57.8800416 L11.0392516,39.268815 L11.615052,38.6930146 C12.916341,37.3955925 15.0219543,37.3955925 16.3232432,38.6930146 L16.9848649,39.3526403 Z M41.2044075,57.8800416 L40.0777547,57.8800416 L42.8509771,39.3925572 L43.0824948,39.1610395 C44.3723077,37.8699792 46.4613306,37.8588773 47.7647401,39.1360915 L41.2044075,57.8800416 Z M19.7211642,8.33326403 C18.9550104,7.26212058 18.7535551,5.88686071 19.1802911,4.64095634 C19.6223701,3.36661123 20.6928898,2.41209979 22.0093971,2.11821206 C22.0093971,2.13817048 22.0163825,2.1581289 22.0193763,2.17808732 C22.383368,3.8431185 23.8717672,5.02004158 25.5759667,4.99022869 L26.9441164,4.99022869 C29.864657,4.99384615 32.3579626,7.1008316 32.848815,9.97983368 L22.9524324,9.97983368 C21.6745946,9.97721414 20.4743451,9.36561331 19.7211642,8.33326403 Z M12.9732225,15.9673597 C12.9732225,13.7628274 14.7603742,11.9756757 16.9649064,11.9756757 L34.9274844,11.9756757 C37.1320166,11.9756757 38.9191684,13.7628274 38.9191684,15.9673597 C38.9191684,18.1718919 37.1320166,19.9590437 34.9274844,19.9590437 L16.9649064,19.9590437 C14.7603742,19.9590437 12.9732225,18.1718919 12.9732225,15.9673597 Z M9.97945946,21.9548857 L41.9129314,21.9548857 C44.1174636,21.9548857 45.9046154,23.7420374 45.9046154,25.9465696 C45.9046154,28.1511019 44.1174636,29.9382536 41.9129314,29.9382536 L9.97945946,29.9382536 C7.77492723,29.9382536 5.98777547,28.1511019 5.98777547,25.9465696 C5.98777547,23.7420374 7.77492723,21.9548857 9.97945946,21.9548857 Z M5.98777547,31.9340956 L45.9046154,31.9340956 C48.1091476,31.9340956 49.8963116,33.7212474 49.8963116,35.9257796 C49.8980457,36.6248233 49.7126819,37.3115177 49.3594179,37.9146362 L49.3474428,37.903659 C49.1411227,37.6831185 48.916341,37.4805405 48.675842,37.297921 C48.637921,37.2689813 48.6009979,37.2390437 48.5630769,37.2111019 C48.3279418,37.0410811 48.0793347,36.8905198 47.8196258,36.7610395 C47.7727235,36.7370894 47.7258212,36.7151351 47.6769231,36.692183 C47.4119751,36.5698129 47.1371726,36.4696466 46.8556341,36.3928067 C46.8157173,36.3808316 46.7748025,36.3738462 46.7338877,36.3638669 C46.4322661,36.2855301 46.1244075,36.233763 45.8138046,36.2091892 C45.6870686,36.2002079 45.5613306,36.1962162 45.4355925,36.1962162 C45.3098545,36.1962162 45.1950936,36.2201663 45.0743451,36.2281497 C44.9166736,36.2391268 44.76,36.2471102 44.6043243,36.2710603 C44.4296881,36.2990021 44.2610395,36.3449064 44.090395,36.3898129 C43.9377131,36.4297297 43.7850312,36.4626611 43.636341,36.5155509 C43.4498545,36.5879002 43.2676091,36.6708524 43.0904782,36.7640333 C42.9727235,36.8219127 42.8509771,36.8638254 42.7382121,36.9336798 C42.447817,37.1033264 42.1741372,37.3001663 41.9209148,37.5214553 L41.6864033,37.2869439 C39.6053638,35.2113929 36.237131,35.2113929 34.1560915,37.2869439 L33.9295634,37.5084823 L33.7030353,37.2819543 C31.6219958,35.2064033 28.253763,35.2064033 26.1727235,37.2819543 L25.9461954,37.5084823 L25.7196674,37.2819543 C23.6386279,35.2064033 20.270395,35.2064033 18.1893555,37.2819543 L17.9628274,37.5084823 L17.7362994,37.2819543 C15.6552599,35.2064033 12.287027,35.2064033 10.2059875,37.2819543 L9.97147609,37.5164657 C8.66170478,36.349896 6.85546778,35.9154262 5.15850312,36.3588773 C5.11758836,36.3688565 5.0766736,36.375842 5.03675676,36.387817 C4.7552183,36.464657 4.4804158,36.5648233 4.21546778,36.6871933 C4.16656965,36.7101455 4.11567568,36.7320998 4.07276507,36.7560499 C3.81305613,36.8855301 3.56444906,37.0360915 3.32931393,37.2061123 C3.29139293,37.2340541 3.25446985,37.2639917 3.21654886,37.2929314 C2.9760499,37.4755509 2.75126819,37.6781289 2.54494802,37.8986694 L2.53297297,37.9096466 C2.18058212,37.3079002 1.9952183,36.6230769 1.99608841,35.9257796 C1.99608841,33.7211227 3.78324324,31.9340956 5.98777547,31.9340956 L5.98777547,31.9340956 Z"/>
  </g>
</svg>
