<svg xmlns="http://www.w3.org/2000/svg" viewBox="0 0 24 24">
  <defs/>
  <g fill="none" fill-rule="nonzero">
    <path fill="#F95252" d="M2.65 8.14L7.23 9.2l-.94 6.02-1.98-1.59-1.82.09-1.32.18 1.1-5.14z"/>
    <path fill="#FFECD4" d="M3.59 8.43l-1.37 5.3 1.34-.25L4.7 8.62zM5.95 8.99l-1.1 5.08 1.44 1.15.94-6.02z"/>
    <path fill="#74DEDA" d="M15.43 9.33l-6.5.08 3.43 5.6z"/>
    <path fill="#FFECD4" d="M16.58 9.23l4.88-1.18 1.36 6.29-2.98-1.16-2.23 2.22z"/>
    <path fill="#CEB4F7" d="M21.46 8.05c-.02.04 1.36 6.29 1.36 6.29l-1.58-.63-.97-5.33 1.19-.33zM18.64 8.78l.42 2.18c.07.33.18.66.32.98.11.25.22.5.24.78.04.44-.2.8-.47 1.1l-.6.69-1.06-5.6 1.15-.13z"/>
    <path fill="#272442" d="M23.69 7c-2.93 1.11-6 1.81-9.11 2.08-3.12.27-6.27.11-9.34-.53A29.37 29.37 0 01.18 7.12c-.13-.05-.19.17-.06.22.75.3 1.5.6 2.26.87-.33.9-.55 1.84-.76 2.78-.11.49-.21.97-.3 1.46-.1.48-.23.99-.24 1.47 0 .13.1.23.22.23a6.1 6.1 0 001.4-.2c.46-.12.97-.29 1.45-.13.45.16.76.57 1.07.91.31.35.63.64 1.05.82.12.05.28-.05.3-.17l.9-5.93c.46.07.91.12 1.36.17a49.95 49.95 0 003.26 5.66c.1.16.36.18.46 0 1.03-1.92 2.08-3.83 3.14-5.73l.75-.1c-.04.47.12 1 .2 1.47.07.5.15 1 .24 1.49l.57 3.06c.03.16.26.26.39.16a9.04 9.04 0 002.1-2.25c.93.44 1.85.9 2.77 1.35.23.12.44-.07.4-.31-.32-2.13-.79-4.23-1.4-6.3.7-.26 1.4-.54 2.09-.85.14-.07.03-.32-.11-.26zm-22.1 6.74c.09-.4.14-.81.2-1.21l.3-1.46c.19-.92.41-1.84.58-2.76l.73.24c-.5 1.69-.96 3.4-1.3 5.14-.17.04-.34.06-.51.05zm1.86-.4c-.19.02-.38.06-.56.11-.14.04-.3.1-.47.14.38-1.66.77-3.32 1.24-4.97l.86.25c-.21.72-.37 1.46-.55 2.2-.17.75-.39 1.5-.52 2.26zm1.34.3a1.73 1.73 0 00-1.03-.34c.2-.7.33-1.44.5-2.16.16-.74.33-1.48.46-2.22l1.08.25c-.19.74-.35 1.48-.51 2.23-.17.74-.36 1.5-.5 2.25zm1.36 1.3c-.3-.2-.54-.5-.79-.77a5.58 5.58 0 00-.26-.26l.02-.04c.19-.8.31-1.6.46-2.39.15-.76.3-1.51.43-2.27l1 .18c-.27 1.85-.58 3.7-.86 5.55zm6.16-.3c-1.07-1.64-2.08-3.31-3.1-4.99l.11.01c1.93.17 3.88.15 5.8-.05l-2.81 5.03zm5.57.29l-.51-2.65-.31-1.48c-.1-.45-.15-.98-.36-1.4l.77-.13c.02.4.15.83.23 1.21l.25 1.3c.17.86.3 1.75.52 2.6-.19.2-.38.37-.59.55zm.86-.82c-.15-.8-.36-1.6-.55-2.4l-.3-1.28c-.08-.38-.13-.82-.28-1.18l.9-.19c.01.26.09.52.14.75.08.4.2.78.32 1.17a529.56 529.56 0 00.5 1.71l.04.25c-.05.33-.27.59-.48.84-.03.03-.3.28-.3.33zm1.36-1.19a1 1 0 01-.28-.25l-.1-.34-.38-1.21c-.11-.4-.24-.78-.33-1.17-.07-.32-.12-.64-.22-.95.47-.1.93-.23 1.39-.37.14 1.12.32 2.22.55 3.32.1.46.19.94.33 1.39-.32-.13-.66-.24-.96-.42zm2.4 1.1l-1.01-.46v-.02c-.4-1.65-.8-3.3-1.12-4.96.3-.1.59-.19.88-.3.5 1.9.92 3.8 1.24 5.74z"/>
  </g>
</svg>
