<svg xmlns="http://www.w3.org/2000/svg" viewBox="0 0 24 24">
  <defs/>
  <g fill="none" fill-rule="nonzero">
    <path fill="#FFEC8D" d="M2.58 8.16l-1.23 5.8 2.55-.42 2.36 1.74.9-6.09z"/>
    <path fill="#FF9D7B" d="M4.88 8.76c-.04.01-2.95 1.78-2.95 1.78l-.34 2.23 5.57-3.58-2.28-.43zM6.87 11.6L3.9 13.54l.88.32 1.48 1.42z"/>
    <path fill="#F95252" d="M9 9.4l4.03.18 2.46-.26-3.12 5.7z"/>
    <path fill="#3BD2D3" d="M21.42 8.02l-3.05.73-1.9.45 1.25 6.04 2.12-2.06 3 1.14z"/>
    <path fill="#74DEDA" d="M18.37 8.75l.02.37-1.44 2.65.66 2.3 2.95-5.7zM21.87 9.85l-1.8 3.25 1.42.65.92-1.77z"/>
    <path fill="#272442" d="M23.69 7c-2.93 1.11-6 1.81-9.11 2.08-3.12.27-6.27.11-9.34-.53A29.37 29.37 0 01.18 7.12c-.13-.05-.19.17-.06.22.75.3 1.5.6 2.26.87-.33.9-.55 1.84-.76 2.78-.11.49-.21.97-.3 1.46-.1.48-.23.99-.24 1.47 0 .13.1.23.22.23a6.1 6.1 0 001.4-.2c.46-.12.97-.29 1.45-.13.45.16.76.57 1.07.91.31.35.63.64 1.05.82.12.05.28-.05.3-.17l.9-5.93c.46.07.91.12 1.36.17a49.95 49.95 0 003.26 5.66c.1.16.36.18.46 0 1.03-1.92 2.08-3.83 3.14-5.73l.75-.1c-.04.47.12 1 .2 1.47.07.5.15 1 .24 1.49l.57 3.06c.03.16.26.26.39.16a9.04 9.04 0 002.1-2.25c.93.44 1.85.9 2.77 1.35.23.12.44-.07.4-.31-.32-2.13-.79-4.23-1.4-6.3.7-.26 1.4-.54 2.09-.85.14-.07.03-.32-.11-.26zM2.67 8.3c.62.22 1.24.4 1.87.58-.77.44-1.53.93-2.28 1.4.14-.66.3-1.31.4-1.98zm-.58 2.77l.1-.51c.91-.53 1.84-1.03 2.71-1.6.58.15 1.17.27 1.76.37-.36.21-.7.47-1.06.7a719.53 719.53 0 00-3.8 2.48l.29-1.44zm4.06 3.87c-.3-.2-.54-.5-.79-.77a2.55 2.55 0 00-1.13-.8h-.02a19.8 19.8 0 002.42-1.53l-.48 3.1zm.54-3.48c-.91.56-1.84 1.17-2.66 1.87-.38-.06-.77.02-1.14.12-.39.1-.87.32-1.3.3.07-.32.11-.64.16-.95a189.32 189.32 0 004.1-2.57c.37-.24.77-.46 1.14-.73l-.3 1.96zm5.62 3.18c-1.07-1.64-2.08-3.31-3.1-4.99l.11.01c1.93.17 3.88.15 5.8-.05l-2.81 5.03zm4.75-3.84c-.1-.45-.15-.98-.36-1.4.53-.08 1.05-.18 1.57-.28l-1.1 2.2a84.5 84.5 0 00-.11-.52zm.6 2.97a1239.41 1239.41 0 01-.38-2.01l1.3-2.71.17-.04c.54-.12 1.08-.26 1.6-.43-.9 1.72-1.82 3.45-2.7 5.2zm2.35-.9l-.03-.02a.25.25 0 00-.34.09 8.48 8.48 0 01-1.76 1.99l-.13-.67a.18.18 0 00.03-.04c.97-1.88 1.87-3.8 2.78-5.7l.7-.23a72 72 0 01.4 1.6L20 12.87zm1.63.76l.6-1.04.25 1.43-.85-.4zm.08-3.45c.17.7.32 1.41.46 2.12l-.8 1.21-1.08-.5 1.42-2.83z"/>
  </g>
</svg>
