<svg xmlns="http://www.w3.org/2000/svg" viewBox="0 0 24 24">
  <defs/>
  <g fill="none" fill-rule="nonzero">
    <path fill="#CEB4F7" d="M1.94 7.94l6.19 1.34-.2.64-3.5 4.34-.41-.06-2.06-5.63z"/>
    <path fill="#FC9A70" d="M15.17 9.26l-6.09.16.06 6.05 2.97-1.48 3.12 1.39.18-1.3z"/>
    <path fill="#FFECD4" d="M12.57 9.65c-.37.5-.5 1-.22 1.57.28.57.97.77 1.58.73.44-.03.6-.22.86-.52.1-.11.36-.25.42-.39.03-.05.01-.08 0-.15l-.02-.7c0-.26-.07-.52.02-.77-.16 0-.34.04-.5.05-.58.02-1.16.12-1.74.1M10.74 10.67c-.15.28-.37.47-.63.64-.19.12-.36.2-.58.24-.13.03-.26 0-.39.03-.02-.4-.06-.82-.1-1.23l-.03-.53c0-.11-.04-.25-.02-.35 0-.06.43-.13.49-.14.12-.02.24-.01.36.02.33.05.84-.05 1.08.26.23.28-.04.8-.18 1.06zM9.04 13c.3-.05.54-.17.88-.11.26.04.5.11.69.3.15.15.27.33.36.53.12.24.14.44.21.68-.1 0-.2.08-.27.14-.26.21-.54.39-.81.59-.3.22-.64.4-.99.55-.02-.42.03-.85.01-1.27l-.02-.78c0-.12-.1-.47-.06-.62zM15.27 13.55c-.3-.5-1.12-.42-1.56-.23-.38.16-.77.44-.98.77.05.05.13.06.19.1.14.07.27.17.42.25.27.16.57.29.85.43.27.12.55.2.8.33.11.06.28.06.33.18.13-.37.02-.78-.02-1.15-.02-.17-.1-.4-.03-.68z"/>
    <path fill="#FFEC8D" d="M22 7.8L18.5 8.9l-2.43.4 1.42 2.54 2.52 2.66.98-2.45z"/>
    <path fill="#272442" d="M23.69 7a33.16 33.16 0 01-1.81.63 33.97 33.97 0 01-7.3 1.45c-3.12.27-6.27.11-9.34-.53A29.37 29.37 0 01.18 7.12c-.13-.05-.19.17-.06.22A57.43 57.43 0 001.75 8c.03.45.17.91.29 1.34a35.46 35.46 0 001.4 4.03c.13.34.24.83.54 1.06.32.25.65 0 .87-.24.6-.69 1.18-1.4 1.74-2.14a28.3 28.3 0 001.77-2.48l.61.06c-.1.98-.09 1.98-.11 2.96-.02.5-.04 1-.04 1.51-.01.5-.05 1.02-.01 1.52 0 .17.2.32.36.2.5-.34 1.04-.62 1.57-.93l.79-.45c.23-.14.47-.29.75-.24.25.04.49.19.72.3a36.82 36.82 0 012.31 1.23c.17.1.4-.02.4-.22-.09-1.98-.2-3.96-.28-5.94l.52-.06c.95 2 2.29 3.83 3.96 5.3.15.13.35.07.42-.12.83-2.2 1.48-4.46 1.93-6.77.52-.2 1.03-.43 1.53-.66.15-.06.04-.3-.1-.25zM6.64 11.27a39.14 39.14 0 01-1.95 2.44c-.08.1-.28.4-.41.36-.13-.05-.21-.35-.26-.47a40.78 40.78 0 01-1.64-4.34c-.12-.39-.22-.8-.38-1.18a26.78 26.78 0 005.85 1.44c-.4.58-.79 1.18-1.21 1.75zm6.01-1.5a31.2 31.2 0 002.33-.14l.05 1.38c-.5.59-1.3.94-2.03.53-.63-.35-.85-1.23-.35-1.76zm-3.47-.1h.14c.47.05.94.07 1.42.1.07.91-.56 1.67-1.48 1.77 0-.63-.02-1.26-.08-1.88zm1.54 4.7c-.47.29-.93.58-1.41.85l-.02-1.1-.01-1.07c.79-.1 1.53.36 1.72 1.15l-.28.18zm1.54-.65c-.33-.02-.65.12-.95.3a1.75 1.75 0 00-2.04-1.18v-.24l-.01-.86c1.04 0 1.9-.93 1.85-1.97.41.02.83.02 1.25.01a1.4 1.4 0 00.32 1.94c.75.55 1.72.35 2.36-.23l.06 1.64c-.32-.15-.7-.17-1.03-.1-.54.1-.96.44-1.31.83a1.61 1.61 0 00-.5-.14zm1.63.67l-.86-.41-.07-.04c.64-.47 1.43-.9 2.15-.38l.05 1.5-1.27-.67zm6.09-.2a17.97 17.97 0 01-3.7-4.71 23.58 23.58 0 005.43-1.34c-.43 2.06-1 4.08-1.73 6.06z"/>
  </g>
</svg>
