<svg xmlns="http://www.w3.org/2000/svg" viewBox="0 0 24 24">
  <defs/>
  <g fill="none">
    <path fill="#FFEC8D" d="M9.9 6.8c-.24-.26-.84-.27-1.17-.3-.54-.05-1.34-.07-1.79.29-.78.64-1.02 1.59-.94 2.54.03.34 0 .97.33 1.06.16.04.53-.06.7-.06h2.43c.44-.01 1.61.17 1.87-.22.2-.3.14-1.1.1-1.5-.08-.75-.73-1.7-1.52-1.82z"/>
    <path fill="#FF9D7B" d="M14.57 6.56c-1.3-.7-2.5.08-3.3 1.1-.26.32-.03.4.07.8.13.55.07 1.2-.07 1.73 1.11.11 2.2.07 3.33.07.5 0 1.53.32 1.93-.07.33-.32-.03-.75-.1-1.1-.11-.55-.06-1.1-.34-1.61a1.96 1.96 0 00-.5-.64 1.62 1.62 0 00-.55-.27c-.1-.03-.4.03-.47-.01z"/>
    <path fill="#F95252" d="M8.62 4.01c-.83.43-.5 1.84-.33 2.51.87-.17 2.42.2 2.77 1.16.16-.35.71-.6 1.02-.8.28-.2.6-.42.94-.51.5-.13 1.04-.07 1.55-.01.04-.5-.06-1.27-.4-1.66-.26-.3-.5-.05-.9-.19-.35-.12-.52-.38-.86-.14-.3.2-.48 1.18-.98 1.1-.2-.03-.46-.32-.56-.49-.15-.24-.1-.67-.3-.89-.47-.49-1.32.48-1.95-.08z"/>
    <path fill="#D1632E" d="M11.17 1.96c-.76-.05-1.6.37-2.16.86-.27.24-.84.85-.4 1.2.61.49 1.61-.55 2.15.22.17.25.15.6.3.87.25.44.72.43 1-.01.23-.36.19-.85.67-.92.33-.05.44.18.74.24.24.04.5 0 .67-.2.28-.35.05-.67-.17-.97a2.8 2.8 0 00-1.33-1c-.46-.2-.91-.23-1.47-.29z"/>
    <path fill="#F95252" d="M11.33.17c-.5.08-1.09.47-.93 1.03.11.39.51.53.9.53a.9.9 0 00.86-.59c.12-.32-.19-1.27-.83-.97z"/>
    <path fill="#E4F3EE" d="M16.13 10.36c-.76-.14-1.61-.12-2.38-.13-1.14-.01-2.27-.1-3.4-.06-1.39.06-2.8-.02-4.18.14-.43.05-1.27.04-.88.6.24.34.53.64.81.94.68.7 1.57 1.45 1.35 2.51-.21 1.1-.6 2.71.26 3.6.54.56 1.2 1 1.8 1.5.27.23.56.4.75.7.17.27.39.76.31 1.08-.22.89-1.6.94-2.11 1.53-.28.33-.34.68-.01.94.47.38 1.44.2 2.05.19 1.04-.04 2.06-.2 3.1-.23.28-.01.63.07.78-.23.18-.37-.31-.69-.58-.85-.72-.42-2.03-.9-1.8-1.97.29-1.4 1.98-1.63 2.66-2.7.46-.72.77-1.52.73-2.38-.04-.8-.47-1.75-.15-2.56.24-.63 1-1 1.44-1.49.32-.35.61-1.23-.55-1.13z"/>
    <path fill="#3BD2D3" d="M9.22 12.44a5.95 5.95 0 00-.07 4.24c.15.43.68 1.05 1.03.48.22-.37.2-.86.2-1.28v-1.83c0-.4.02-.86-.1-1.24-.11-.38-.66-.76-1.06-.37zm3.18-.28c-.92 1.06-.53 3.06-.1 4.32.11.36.35.88.77.61.73-.46.5-2 .5-2.72 0-.6-.05-1.21-.22-1.78-.16-.55-.46-.64-.94-.43z"/>
    <path fill="#272442" d="M10.53 13.9l-.08-.83c-.03-.23-.06-.48-.22-.66-.29-.33-.82-.28-1.11 0-.26.25-.33.6-.34.94-.06.49-.1.98-.09 1.48 0 .52.08 1.05.22 1.55.11.4.27.93.67 1.14.35.18.69-.03.83-.35.19-.44.16-.99.17-1.45.01-.61 0-1.22-.05-1.83zm-.84 3.32c-.3-.18-.44-.68-.53-1a6.22 6.22 0 01-.22-1.83c.01-.44-.04-1.2.22-1.59a.86.86 0 01.05-.05c.23-.29.72-.38.86.05.12.4.13.86.17 1.27.03.43.05.86.05 1.28 0 .28.04 2.24-.6 1.87zm3.92-3.57l-.08-.81c-.03-.24-.06-.49-.22-.67-.29-.33-.81-.28-1.11 0-.26.25-.33.6-.33.94-.07.5-.1.99-.1 1.48 0 .53.08 1.05.22 1.55.11.4.28.93.68 1.14.34.18.68-.03.82-.35.2-.44.16-.99.17-1.45.01-.6 0-1.22-.05-1.83zm-.84 3.33c-.3-.17-.43-.68-.52-1a6.22 6.22 0 01-.22-1.83c0-.44-.05-1.2.22-1.59a.87.87 0 01.04-.05c.23-.29.73-.38.86.05.13.4.13.86.17 1.28.03.42.05.85.05 1.28 0 .28.05 2.23-.6 1.86z"/>
    <path fill="#272442" d="M16.79 10.11a.98.98 0 00-.13-.03 3.15 3.15 0 00-2.03-3.83c.15-.3.1-.73.04-1.03a1.7 1.7 0 00-.42-.85c.2-.29.25-.65.13-.98-.27-.67-.98-1.15-1.62-1.42a4 4 0 00-.9-.25c.3-.16.53-.39.54-.75 0-.55-.5-.9-1.01-.92-.5-.03-1.09.27-1.22.8-.09.35.05.72.36.92a2.74 2.74 0 00-.31.1c-.36.06-.7.19-1 .39-.49.31-1.08.93-1 1.56.01.1.05.2.1.29-.56.55-.56 1.55-.26 2.25A2.1 2.1 0 006 7.66a3.36 3.36 0 00-.02 2.39c-.3.02-.63.07-.83.28-.31.33-.08.79.16 1.08.49.61 1.2 1.07 1.6 1.75.53.88.04 1.89 0 2.83-.03.91.33 1.8 1 2.44.67.64 1.63.98 2.12 1.82.23.38.31.84.06 1.23-.19.29-.5.47-.79.63-.43.25-1.42.64-1.39 1.27.03.58.94.56 1.35.6 1.4.1 2.81-.1 4.21-.12.22 0 .47.02.69-.05.4-.11.47-.54.3-.87-.36-.75-1.3-.9-1.88-1.43-.75-.68-.22-1.58.47-2.06.72-.5 1.48-.87 1.99-1.62.47-.7.65-1.56.54-2.4-.1-.86-.5-1.85 0-2.64.42-.65 1.22-1 1.56-1.7.18-.4.08-.83-.35-.98zm-1.92-3.35c.6.28 1.07.8 1.3 1.43.2.62.18 1.24-.02 1.85h-1.7a43.37 43.37 0 00-3-.13 3 3 0 00-.15-2.14.17.17 0 00.09-.07 2.88 2.88 0 013.48-.94zM11 1.55c-.34-.1-.59-.37-.35-.78a.95.95 0 01.85-.43c.75.05.74 1.09.07 1.23a1.2 1.2 0 01-.57-.02zm-2.33 1.9c.07-.17.17-.33.3-.47.82-.7 1.97-1 3.03-.75.6.13 1.16.43 1.6.86.2.2.44.46.42.76-.03.29-.24.45-.51.38-.24-.07-.45-.22-.7-.25a.69.69 0 00-.63.25c-.2.25-.44 1.41-.92 1.03-.4-.31-.24-.97-.6-1.33-.46-.45-1.03-.02-1.53.08-.15.03-.33.05-.45-.07-.12-.13-.07-.34-.01-.5zm-.4 1.72c.02-.3.12-.59.24-.87.08.06.17.1.27.12.31.05.6-.07.88-.2.2-.08.43-.2.65-.15.21.04.3.22.36.42.09.29.1.6.29.86.15.22.4.36.67.29.29-.08.46-.35.56-.6.1-.26.2-.73.55-.71.3.01.56.28.86.31a.7.7 0 00.41-.07c.12.23.2.47.26.72.02.15.03.3.02.45-.01.13-.05.26-.06.4a2.9 2.9 0 00-3.08 1.35c-.3-.48-.8-.84-1.35-.98-.36-.09-.73-.1-1.1-.13h-.2a.22.22 0 00-.01-.09 2.11 2.11 0 01-.22-1.12zM6.46 7.62c.18-.3.43-.55.74-.7.42-.2.9-.18 1.34-.15.75.04 1.68.09 2.2.71.26.33.4.74.43 1.16.03.44-.07.85-.16 1.27a70.6 70.6 0 00-4.58.12l-.18.01c-.18-.8-.23-1.7.21-2.42zm10.16 3.4c-.4.6-1.08.94-1.46 1.55-.45.72-.3 1.57-.15 2.35.15.83.18 1.62-.23 2.38-.18.34-.43.64-.73.88-.34.27-.73.47-1.1.72-.6.42-1.2 1.02-1.21 1.81-.03.78.62 1.27 1.23 1.61.37.2.8.4 1.05.76.06.1.13.22.02.3-.07.04-.26.02-.34.02l-.78.01c-1.03.02-2.06.07-3.1.17-.3-.02-1.49.16-1.32-.36.12-.36.76-.48 1.05-.64.57-.3 1.14-.71 1.23-1.4.12-.88-.53-1.62-1.2-2.08-.41-.27-.84-.49-1.22-.8a2.7 2.7 0 01-.82-1.13 2.64 2.64 0 01-.1-1.4c.09-.49.23-.96.26-1.45.05-.88-.38-1.54-1.02-2.1-.3-.26-.62-.5-.9-.8-.13-.14-.32-.33-.37-.53-.05-.26.3-.23.47-.24 1.1-.07 2.2-.15 3.3-.2a89.3 89.3 0 013.7-.1h.75l1.06.06 1.49.08c.15 0 .35-.01.48.07.19.1.06.34-.04.47z"/>
  </g>
</svg>
