<?xml version="1.0" encoding="UTF-8"?>
<svg width="60px" height="69px" viewBox="0 0 60 69" version="1.1" xmlns="http://www.w3.org/2000/svg" xmlns:xlink="http://www.w3.org/1999/xlink">
    <title>source</title>
    <g id="Page-6" stroke="none" stroke-width="1" fill="none" fill-rule="evenodd">
        <g id="source" fill-rule="nonzero">
            <path d="M4.66024345,67.5100563 C5.54658066,67.5100563 6.2631686,66.7928625 6.2631686,65.9071312 L6.2631686,51.0315752 C8.60389989,52.6551126 11.4344813,53.6196566 14.4924064,53.6196566 C23.1702689,53.6196566 30.0887936,45.9548383 28.8362809,37.0381132 C27.9954124,31.0216879 23.4503561,26.0237627 17.487887,24.8864381 C11.7806495,23.8024628 7.59024981,26.6251626 6.26741187,28.5039317 C6.2674128,26.4147938 4.57415699,24.7172938 2.47653162,24.7172938 L1.60292515,24.7172938 C0.717193861,24.7172938 -6.66133815e-15,25.4344876 -6.66133815e-15,26.3202189 L-6.66133815e-15,65.9071312 C-6.66133815e-15,66.7928625 0.717193861,67.5100563 1.60292515,67.5100563 L4.66024345,67.5100563 Z M14.4966488,47.3558812 C9.96371727,47.3558812 6.26741095,43.6595749 6.26741095,39.1272502 C6.26741095,34.5943187 9.959474,30.9022565 14.4966488,30.9022565 C19.0332176,30.9022565 22.7252798,34.5943187 22.7252798,39.1272502 C22.7252798,43.6595749 19.0332176,47.3558812 14.4966488,47.3558812 Z" id="p" fill="#3B3E57"></path>
            <g id="Group" transform="translate(17.696250, 0.000000)">
                <path d="M24.3379628,40.8030591 C24.6186515,40.8298243 24.8573398,41.0362858 24.9544923,41.3363471 C25.0441715,41.6133267 24.9990384,41.9261601 24.8391216,42.162629 L24.7967627,42.2200903 L23.7912775,43.473428 C23.1977429,44.2162839 22.8114846,45.1405589 22.681968,46.1226184 L22.6617873,46.2964977 L22.4971833,47.9677034 C22.4654387,48.2897258 22.2778629,48.5689482 22.0126568,48.6889621 C21.7678512,48.7997441 21.4956873,48.7573162 21.2936558,48.5812856 L21.2446655,48.5345059 L20.1784101,47.4205563 C19.5464067,46.7630158 18.7496001,46.3481387 17.8946918,46.2289256 L17.7432442,46.210968 L16.2868029,46.0718513 C16.0062086,46.0449923 15.7676309,45.8385567 15.6705077,45.5385857 C15.5808554,45.2616894 15.6259329,44.9489532 15.785744,44.7125026 L15.8280755,44.6550441 L16.8336234,43.4015496 C17.427158,42.6586936 17.8134163,41.7344187 17.942933,40.7523592 L17.9631137,40.5784799 L18.1276549,38.907431 C18.1593552,38.5854044 18.3468932,38.3061493 18.6120839,38.186088 C18.8568753,38.0752622 19.1290464,38.1176406 19.3311031,38.2936338 L19.3801002,38.3404044 L20.4464908,39.4544212 C21.078534,40.1118931 21.8753235,40.5267567 22.7302126,40.6460389 L22.8816568,40.6640096 L24.3379628,40.8030591 Z" id="Path" fill="#DAE807"></path>
                <path d="M36.4568534,42.1188169 C37.8743634,42.7518263 38.5119925,44.412519 37.8822422,45.8312144 C37.2505255,47.2498589 35.588142,47.8878391 34.1692048,47.2561831 C32.7502676,46.624527 32.1120993,44.9624301 32.743816,43.5437856 C33.3755328,42.1251411 35.0379162,41.4871609 36.4568534,42.1188169 Z" id="Path" fill="#4160F7"></path>
                <path d="M20.7180505,30.7982146 C25.1372481,28.6743566 30.0522605,30.8973733 31.7875655,35.7686313 L31.8474853,35.9416549 L32.5094011,37.91612 C32.6146753,38.225874 32.563548,38.5843174 32.3753767,38.8557382 C32.1872053,39.1271589 31.8907522,39.27007 31.598257,39.2303774 C31.3301402,39.1939651 31.102916,39.0092171 30.987693,38.7391858 L30.9590989,38.6634738 L30.2970325,36.688939 C28.958081,32.709378 25.0251415,30.8451026 21.449731,32.4601488 L21.2988783,32.5304646 L16.1055525,35.0340098 C15.6780733,35.2376586 15.2032712,35.0168003 15.043375,34.5399287 C14.8923619,34.08955 15.0758962,33.5708459 15.4556927,33.3395254 L15.5247248,33.3017598 L20.7180505,30.7982146 Z" id="Path" fill="#4160F7"></path>
                <path d="M28.8045351,21.6660631 C29.2026099,21.4871354 29.6581803,21.6744911 29.82208,22.0845339 C29.9768741,22.4717965 29.8161444,22.9191891 29.4624612,23.1184366 L29.3980684,23.1509593 L13.6953146,30.2089525 C13.2972961,30.3878503 12.8417933,30.2005224 12.6779136,29.790541 C12.5231456,29.4033331 12.6838517,28.9560067 13.0374821,28.7567849 L13.1018652,28.7242663 L28.8045351,21.6660631 Z" id="Path" fill="#4FBDC2"></path>
                <path d="M20.6250795,10.1609862 C20.9114919,10.2180845 21.1534203,10.3987808 21.2751779,10.6420418 L21.3053482,10.709891 L22.0028267,12.4711836 C23.7406575,16.875839 21.3662302,21.5801144 16.6891368,23.0677587 L16.5231097,23.1189225 L10.9585638,24.7723955 C10.500541,24.9064121 9.99415023,24.6708689 9.82571954,24.2454628 C9.6666461,23.8436904 9.86554786,23.4153259 10.2727444,23.2529325 L10.3467343,23.2270953 L15.9112802,21.5736223 C19.7276946,20.4351901 21.7079762,16.6744532 20.3989088,13.1151834 L20.3416345,12.9649195 L19.6442302,11.2034828 C19.5333148,10.9270226 19.5898412,10.6237306 19.7924074,10.4084377 C19.9949736,10.1931448 20.3126173,10.0987588 20.6250795,10.1609862 Z" id="Path" fill="#21AADB"></path>
                <path d="M40.5714584,24.9848324 C40.9917064,24.823413 41.4631291,25.0333842 41.6244177,25.4538195 C41.7762112,25.8495262 41.599182,26.2906318 41.2274689,26.4757405 L41.155524,26.5073749 L38.9817558,27.3423544 L39.8160172,29.5171074 C39.9203771,29.7890953 39.8717715,30.0961457 39.6885097,30.3225957 C39.5052479,30.5490457 39.2151686,30.6605123 38.9275501,30.6149544 C38.6638998,30.5731929 38.4390234,30.4053711 38.3229918,30.1681877 L38.294098,30.1018248 L37.4598365,27.9270717 L35.2860683,28.7620512 C34.8657791,28.923457 34.3943347,28.7134361 34.2330678,28.2929565 C34.0812871,27.8972109 34.258361,27.4560837 34.6301163,27.2709907 L34.7020691,27.2393598 L36.8758373,26.4043802 L36.0415758,24.2296272 C35.8826246,23.8097853 36.0927944,23.3403245 36.5117457,23.1793985 C36.9060528,23.0279388 37.3456778,23.203415 37.5316121,23.573433 L37.5634288,23.6450589 L38.3976902,25.8198119 L40.5714584,24.9848324 Z" id="Path" fill="#FF7D78"></path>
                <path d="M9.14197713,13.9280889 C9.42256182,13.9549449 9.66112962,14.1613797 9.75824672,14.4613524 C9.84789327,14.7382503 9.80281422,15.05099 9.64300608,15.2874446 L9.60067543,15.3449041 L8.59514845,16.598422 C8.00162619,17.3412917 7.6153716,18.2655798 7.48584956,19.24765 L7.46566784,19.4215312 L7.3010529,21.0927545 C7.26928872,21.4147297 7.08174822,21.6939096 6.81659731,21.8139333 C6.57184263,21.9247244 6.29972624,21.8823544 6.097697,21.7064033 L6.04870623,21.659644 L4.98216379,20.5457186 C4.35020482,19.8881496 3.55342128,19.4732721 2.69853416,19.3540973 L2.5470903,19.3361468 L1.09069859,19.1970455 C0.810064172,19.1702619 0.571426233,18.9638362 0.474273569,18.6638278 C0.384594188,18.386897 0.429679528,18.0741054 0.589524514,17.8376277 L0.631865009,17.7801631 L1.63752727,16.5267124 C2.23110843,15.7838862 2.61737529,14.859578 2.74683748,13.8774879 L2.76700788,13.7036032 L2.93148753,12.0323128 C2.96323432,11.7102869 3.15080664,11.4310597 3.4160051,11.3110417 C3.66080368,11.2002559 3.9329582,11.242681 4.13498122,11.4187109 L4.18396949,11.4654905 L5.25037665,12.5793486 C5.88233562,13.2369176 6.67911915,13.6517952 7.53400627,13.7709699 L7.68545013,13.7889204 L9.14197713,13.9280889 Z" id="Path" fill="#21AADB"></path>
                <path d="M36.6417854,9.55274337 C36.9224546,9.57949564 37.1611199,9.78594257 37.2582555,10.0859936 C37.3479191,10.3629638 37.3027781,10.675793 37.1428637,10.9122642 L37.1005055,10.9697263 L36.0949805,12.2232403 C35.5013163,12.9660019 35.1150216,13.8903243 34.9856247,14.8724185 L34.9654667,15.0463038 L34.8008154,16.7174836 C34.7691234,17.0395558 34.5815562,17.318861 34.3163314,17.4389259 C34.0715084,17.5497551 33.7993187,17.5073344 33.5972877,17.3312747 L33.5482981,17.284487 L32.4820169,16.1705393 C31.8500556,15.5130788 31.0533261,15.0982528 30.1984895,14.9790403 L30.0470545,14.9610822 L28.5907146,14.8220324 C28.3100454,14.7952802 28.0713801,14.5888332 27.9742445,14.2887822 C27.8845809,14.011812 27.9297219,13.6989828 28.0896363,13.4625116 L28.1319945,13.4050495 L29.1364568,12.1517597 C29.7301211,11.4089981 30.1164158,10.4846757 30.2458127,9.50258148 L30.2659706,9.32869623 L30.4306219,7.65751641 C30.4623139,7.33544419 30.6498811,7.05613899 30.915106,6.93607407 C31.1599289,6.82524491 31.4321186,6.86766558 31.6341496,7.0437253 L31.6831393,7.09051303 L32.7494204,8.20446074 C33.381342,8.86198988 34.1780887,9.27682935 35.0329444,9.39597277 L35.1843828,9.41391778 L36.6417854,9.55274337 Z" id="Path" fill="#4FBDC2"></path>
                <path d="M23.9918337,1.80458934 C24.3995265,2.86659713 24.1272916,4.06960115 23.3020766,4.85262078 C22.4768616,5.63564041 21.2611862,5.84446592 20.2219399,5.38171854 C18.8043709,4.74861203 18.1667349,3.08762057 18.7965358,1.66865306 C19.2591879,0.629418065 20.3023513,-0.0287875361 21.4395817,0.000968386301 C22.5768122,0.0307243087 23.5841408,0.742581554 23.9918337,1.80458934 Z" id="Path" fill="#BF62B0"></path>
            </g>
        </g>
    </g>
</svg>