<svg xmlns="http://www.w3.org/2000/svg" width="170" height="60" viewBox="0 0 170 60">
  <g fill="none">
    <path fill="#6BCCFB" d="M22.9524324,10.9777547 C22.3964657,10.9767568 21.8444906,10.8830769 21.31921,10.7007069 C18.7066528,9.79347193 17.3240333,6.94016632 18.2312682,4.32760915 C18.922079,2.31567568 20.8253638,0.973596674 22.9524324,0.998544699 L22.9524324,0.998544699 L22.9993347,0.998544699 C22.9348441,1.32336798 22.9348441,1.65767152 22.9993347,1.9824948 C23.2755094,3.17713098 24.3501455,4.01525988 25.5759667,3.99230769 L25.5759667,3.99230769 L26.9441164,3.99230769 C30.802079,3.99230769 33.9295634,7.1197921 33.9295634,10.9777547 L33.9295634,10.9777547 L34.9274844,10.9777547 C37.6106018,10.9777547 39.7991507,13.0956952 39.9124794,15.7509246 L39.9170894,15.9673597 C39.9170894,18.7229938 37.6831185,20.9569647 34.9274844,20.9569647 L41.9129314,20.9569647 C44.5960488,20.9569647 46.7845977,23.0749052 46.8979264,25.7301346 L46.9025364,25.9465696 C46.9025364,28.7022037 44.6685655,30.9361746 41.9129314,30.9361746 L9.97945946,30.9361746 C7.29634205,30.9361746 5.10779315,28.8182341 4.99446448,26.1630047 L4.98985447,25.9465696 C4.98985447,23.1908108 7.22382536,20.9569647 9.97945946,20.9569647 L16.9649064,20.9569647 C14.281789,20.9569647 12.0932401,18.8390241 11.9799115,16.1837947 L11.9753015,15.9673597 C11.9753015,13.2116008 14.2092723,10.9777547 16.9649064,10.9777547 Z"/>
    <path fill="#FFF" d="M11.9753015,25.9465696 L11.9753015,27.9424116 L9.97945946,27.9424116 L9.97945946,25.9465696 L11.9753015,25.9465696 Z M22.9524324,25.9465696 L22.9524324,27.9424116 L20.9565904,27.9424116 L20.9565904,25.9465696 L22.9524324,25.9465696 Z M40.9150104,25.9465696 L40.9150104,27.9424116 L38.9191684,27.9424116 L38.9191684,25.9465696 L40.9150104,25.9465696 Z M16.9649064,23.9507277 L16.9649064,25.9465696 L14.9690644,25.9465696 L14.9690644,23.9507277 L16.9649064,23.9507277 Z M28.9399584,23.9507277 L28.9399584,25.9465696 L26.9441164,25.9465696 L26.9441164,23.9507277 L28.9399584,23.9507277 Z M35.9254054,23.9507277 L35.9254054,25.9465696 L33.9295634,25.9465696 L33.9295634,23.9507277 L35.9254054,23.9507277 Z M25.9461954,15.9673597 L25.9461954,17.9632017 L23.9503534,17.9632017 L23.9503534,15.9673597 L25.9461954,15.9673597 Z M20.9565904,13.9715177 L20.9565904,15.9673597 L18.9607484,15.9673597 L18.9607484,13.9715177 L20.9565904,13.9715177 Z M34.9274844,13.9715177 L34.9274844,15.9673597 L32.9316424,15.9673597 L32.9316424,13.9715177 L34.9274844,13.9715177 Z M28.9397089,6.48648649 L28.9397089,8.48232848 L26.9438669,8.48232848 L26.9438669,6.48648649 L28.9397089,6.48648649 Z"/>
    <path fill="#FFC63F" d="M5.98777547,30.9361746 L45.9046154,30.9361746 C48.6602495,30.9361746 50.8942204,33.1701455 50.8942204,35.9257796 L50.8942204,35.9257796 C50.8942204,38.6814137 48.6602495,40.9153846 45.9046154,40.9153846 L5.98777547,40.9153846 C3.23214137,40.9153846 0.998170478,38.6814137 0.998170478,35.9257796 L0.998170478,35.9257796 C0.998170478,33.1700208 3.23214137,30.9361746 5.98777547,30.9361746 Z"/>
    <path fill="#DB106F" d="M41.9129314,58.8779626 L9.97945946,58.8779626 L2.99401247,38.9195426 C4.42839917,37.007526 7.1412474,36.6203326 9.05326403,38.0548441 C9.21692308,38.1775884 9.37172557,38.3119335 9.51642412,38.4565073 L9.97945946,38.9195426 L10.9115177,37.9874844 C12.6014969,36.2982536 15.34079,36.2982536 17.0307692,37.9874844 L17.9628274,38.9195426 L18.8948857,37.9874844 C20.5848649,36.2982536 23.324158,36.2982536 25.0141372,37.9874844 L25.9461954,38.9195426 L26.8782536,37.9874844 C28.5682328,36.2982536 31.307526,36.2982536 32.9975052,37.9874844 L33.9295634,38.9195426 L34.8616216,37.9874844 C36.5516008,36.2982536 39.290894,36.2982536 40.9808732,37.9874844 L41.9129314,38.9195426 L42.3759667,38.4565073 C44.0660707,36.7662786 46.8064865,36.7662786 48.4967152,38.4563825 C48.6414137,38.6010811 48.7756341,38.7558836 48.8983784,38.9195426 L41.9129314,58.8779626 Z"/>
    <path fill="#FFF" d="M0.000249289047,35.9257796 C0.000249289047,37.8913098 0.975841996,39.7287318 2.60482328,40.8285655 L9.03742204,59.2072765 C9.17738046,59.6076923 9.5552183,59.8758836 9.97945946,59.8758836 L41.9129314,59.8758836 C42.3371726,59.8758836 42.7150104,59.6076923 42.8549688,59.2072765 L49.2875676,40.8285655 C50.9165489,39.7287318 51.8921416,37.8913098 51.8921416,35.9257796 C51.8890229,32.791185 49.4689397,30.189605 46.3427027,29.9602079 C48.565447,27.5200416 48.3891892,23.7400416 45.9490229,21.5172973 C44.845447,20.5120166 43.4056965,19.9561746 41.9129314,19.9590437 L39.3782121,19.9590437 C41.5882328,17.5066528 41.3917672,13.727027 38.9393763,11.5168815 C37.8387942,10.5250728 36.4090229,9.97721414 34.9274844,9.97983368 L34.8586279,9.97983368 C34.3526819,5.99226611 30.9636175,3.00112266 26.9441164,2.99438669 L25.5759667,2.99438669 C24.8291476,3.01796258 24.1657796,2.52049896 23.9792931,1.7968815 C23.9398753,1.59929314 23.9398753,1.39571726 23.9792931,1.1981289 C24.0308108,0.900997921 23.9466112,0.596382536 23.7497713,0.367858628 C23.5501871,0.135093555 23.2590437,0.000997920998 22.9524324,4.76110736e-05 C20.3893971,-0.0350519751 18.0970478,1.58931393 17.2812474,4.01925156 C16.6520582,5.87463617 16.9600416,7.91987526 18.107526,9.50781705 C18.2290229,9.67234927 18.3588773,9.83064449 18.4967152,9.98182952 L16.9649064,9.98182952 C13.663659,9.97621622 10.9827443,12.6477755 10.977131,15.9491476 C10.9746362,17.4306861 11.5223701,18.8604574 12.5141788,19.9610395 L9.97945946,19.9610395 C6.67871102,19.9546778 3.99779626,22.6253638 3.99143451,25.9261123 C3.98856549,27.4188773 4.54440748,28.8586279 5.54968815,29.9622037 C2.42432432,30.1914761 0.00436590437,32.7919335 0.000249289047,35.9257796 L0.000249289047,35.9257796 Z M4.12765073,39.1360915 C4.69222453,38.5832432 5.43505198,38.2491892 6.22328482,38.1940541 C7.18665281,38.1306861 8.13093555,38.4827027 8.81787942,39.1610395 L9.04939709,39.3925572 L11.8146362,57.8800416 L10.6879834,57.8800416 L4.12765073,39.1360915 Z M34.907526,39.3526403 L35.5671518,38.6930146 C36.8684407,37.3955925 38.9740541,37.3955925 40.275343,38.6930146 L40.8511435,39.268815 L38.0589605,57.8800416 L33.9814553,57.8800416 L34.907526,39.3526403 Z M31.9816216,57.8800416 L26.9441164,57.8800416 L26.9441164,39.3326819 L27.5837838,38.6930146 C28.8850728,37.3955925 30.9906861,37.3955925 32.2919751,38.6930146 L32.9106861,39.3117256 L31.9816216,57.8800416 Z M24.9482744,57.8800416 L19.9107692,57.8800416 L18.9817048,39.3117256 L19.6004158,38.6930146 C20.9017048,37.3955925 23.0073181,37.3955925 24.3086071,38.6930146 L24.9482744,39.3326819 L24.9482744,57.8800416 Z M16.9848649,39.3526403 L17.9109356,57.8800416 L13.8334304,57.8800416 L11.0392516,39.268815 L11.615052,38.6930146 C12.916341,37.3955925 15.0219543,37.3955925 16.3232432,38.6930146 L16.9848649,39.3526403 Z M41.2044075,57.8800416 L40.0777547,57.8800416 L42.8509771,39.3925572 L43.0824948,39.1610395 C44.3723077,37.8699792 46.4613306,37.8588773 47.7647401,39.1360915 L41.2044075,57.8800416 Z M19.7211642,8.33326403 C18.9550104,7.26212058 18.7535551,5.88686071 19.1802911,4.64095634 C19.6223701,3.36661123 20.6928898,2.41209979 22.0093971,2.11821206 C22.0093971,2.13817048 22.0163825,2.1581289 22.0193763,2.17808732 C22.383368,3.8431185 23.8717672,5.02004158 25.5759667,4.99022869 L26.9441164,4.99022869 C29.864657,4.99384615 32.3579626,7.1008316 32.848815,9.97983368 L22.9524324,9.97983368 C21.6745946,9.97721414 20.4743451,9.36561331 19.7211642,8.33326403 Z M12.9732225,15.9673597 C12.9732225,13.7628274 14.7603742,11.9756757 16.9649064,11.9756757 L34.9274844,11.9756757 C37.1320166,11.9756757 38.9191684,13.7628274 38.9191684,15.9673597 C38.9191684,18.1718919 37.1320166,19.9590437 34.9274844,19.9590437 L16.9649064,19.9590437 C14.7603742,19.9590437 12.9732225,18.1718919 12.9732225,15.9673597 Z M9.97945946,21.9548857 L41.9129314,21.9548857 C44.1174636,21.9548857 45.9046154,23.7420374 45.9046154,25.9465696 C45.9046154,28.1511019 44.1174636,29.9382536 41.9129314,29.9382536 L9.97945946,29.9382536 C7.77492723,29.9382536 5.98777547,28.1511019 5.98777547,25.9465696 C5.98777547,23.7420374 7.77492723,21.9548857 9.97945946,21.9548857 Z M5.98777547,31.9340956 L45.9046154,31.9340956 C48.1091476,31.9340956 49.8963116,33.7212474 49.8963116,35.9257796 C49.8980457,36.6248233 49.7126819,37.3115177 49.3594179,37.9146362 L49.3474428,37.903659 C49.1411227,37.6831185 48.916341,37.4805405 48.675842,37.297921 C48.637921,37.2689813 48.6009979,37.2390437 48.5630769,37.2111019 C48.3279418,37.0410811 48.0793347,36.8905198 47.8196258,36.7610395 C47.7727235,36.7370894 47.7258212,36.7151351 47.6769231,36.692183 C47.4119751,36.5698129 47.1371726,36.4696466 46.8556341,36.3928067 C46.8157173,36.3808316 46.7748025,36.3738462 46.7338877,36.3638669 C46.4322661,36.2855301 46.1244075,36.233763 45.8138046,36.2091892 C45.6870686,36.2002079 45.5613306,36.1962162 45.4355925,36.1962162 C45.3098545,36.1962162 45.1950936,36.2201663 45.0743451,36.2281497 C44.9166736,36.2391268 44.76,36.2471102 44.6043243,36.2710603 C44.4296881,36.2990021 44.2610395,36.3449064 44.090395,36.3898129 C43.9377131,36.4297297 43.7850312,36.4626611 43.636341,36.5155509 C43.4498545,36.5879002 43.2676091,36.6708524 43.0904782,36.7640333 C42.9727235,36.8219127 42.8509771,36.8638254 42.7382121,36.9336798 C42.447817,37.1033264 42.1741372,37.3001663 41.9209148,37.5214553 L41.6864033,37.2869439 C39.6053638,35.2113929 36.237131,35.2113929 34.1560915,37.2869439 L33.9295634,37.5084823 L33.7030353,37.2819543 C31.6219958,35.2064033 28.253763,35.2064033 26.1727235,37.2819543 L25.9461954,37.5084823 L25.7196674,37.2819543 C23.6386279,35.2064033 20.270395,35.2064033 18.1893555,37.2819543 L17.9628274,37.5084823 L17.7362994,37.2819543 C15.6552599,35.2064033 12.287027,35.2064033 10.2059875,37.2819543 L9.97147609,37.5164657 C8.66170478,36.349896 6.85546778,35.9154262 5.15850312,36.3588773 C5.11758836,36.3688565 5.0766736,36.375842 5.03675676,36.387817 C4.7552183,36.464657 4.4804158,36.5648233 4.21546778,36.6871933 C4.16656965,36.7101455 4.11567568,36.7320998 4.07276507,36.7560499 C3.81305613,36.8855301 3.56444906,37.0360915 3.32931393,37.2061123 C3.29139293,37.2340541 3.25446985,37.2639917 3.21654886,37.2929314 C2.9760499,37.4755509 2.75126819,37.6781289 2.54494802,37.8986694 L2.53297297,37.9096466 C2.18058212,37.3079002 1.9952183,36.6230769 1.99608841,35.9257796 C1.99608841,33.7211227 3.78324324,31.9340956 5.98777547,31.9340956 L5.98777547,31.9340956 Z"/>
    <path fill="#DB106F" d="M.855095827 39.7191888C1.42515971 39.7191888 1.71019165 39.4383775 1.71019165 38.8767551L1.71019165 38.8767551 1.72189384 32.5508439 1.74237268 32.5772231C1.78374828 32.624025 1.84236372 32.6638066 1.918219 32.6965679L1.99982088 32.7269891C2.17451788 32.7831513 2.43656338 32.8205928 2.78595737 32.8393136 3.13535136 32.8580343 3.62266404 32.8673947 4.2478954 32.8673947 4.94668338 32.8673947 5.53053914 32.8439938 5.99946265 32.7971919 6.46838617 32.75039 6.84076661 32.6801872 7.11660398 32.5865835 8.44062332 32.1560062 9.44283241 31.5382215 10.1232312 30.7332293 10.8036301 29.9282371 11.1438295 28.9173167 11.1438295 27.700468 11.1438295 26.9703588 10.9967162 26.2870515 10.7024897 25.650546 10.4082632 25.0140406 10.008299 24.4664587 9.50259717 24.0078003 8.99689534 23.549142 8.39465043 23.1887676 7.69586244 22.9266771 6.99707445 22.6645866 6.24311899 22.5335413 5.43399606 22.5335413L5.43399606 22.5335413 1.13093319 22.5335413C.818317511 22.5335413.551674727 22.5943838.331004836 22.7160686.110334945 22.8377535 0 23.0577223 0 23.375975L0 23.375975 0 38.8486739C0 39.4290172.285031942 39.7191888.855095827 39.7191888zM1.72440146 31.5092895L1.73777539 24.3026521 5.544331 24.3026521C6.05922742 24.3026521 6.55573467 24.3868955 7.03385277 24.5553822 7.51197086 24.723869 7.9303242 24.9578783 8.28891277 25.2574103 8.64750134 25.5569423 8.93253329 25.9079563 9.1440086 26.3104524 9.35548391 26.7129485 9.46122157 27.1482059 9.46122157 27.6162246 9.46122157 28.1029641 9.34169204 28.5569423 9.10263299 28.9781591 8.86357394 29.399376 8.54176369 29.7644306 8.13720222 30.0733229 7.73264075 30.3822153 7.27291182 30.6302652 6.7580154 30.8174727 6.24311899 31.0046802 5.70983342 31.0982839 5.1581587 31.0982839L5.1581587 31.0982839 2.45495253 31.1263651C2.19750433 31.1263651 1.9952236 31.1965679 1.84811033 31.3369735 1.80607797 31.3770894 1.77005024 31.4237002 1.74002712 31.476806L1.72440146 31.5092895zM15.3262135 40C15.8227208 40 16.144531 39.8127925 16.2916443 39.4383775L16.2916443 39.4383775 18.2500896 34.1029641 25.5046122 34.1029641 27.40789 39.4102964C27.4998358 39.6349454 27.6331572 39.7847114 27.8078542 39.8595944 27.9825512 39.9344774 28.1894292 39.9719189 28.4284883 39.9719189 28.7227148 39.9719189 28.9203982 39.925117 29.0215386 39.8315133 29.122679 39.7379095 29.1732491 39.625585 29.1732491 39.4945398 29.1732491 39.4383775 29.1686519 39.3915757 29.1594573 39.3541342 29.1502627 39.3166927 29.1364708 39.2698908 29.1180817 39.2137285L29.1180817 39.2137285 23.0772434 22.7301092C22.8749627 22.2433697 22.4704012 22 21.863559 22 21.5877217 22 21.3440653 22.0514821 21.13259 22.1544462 20.9211147 22.2574103 20.7694041 22.4305772 20.6774584 22.673947 18.6178727 28.1965679 17.0823781 32.3525741 16.0709744 35.1419657 15.0595707 37.9313573 14.5538689 39.3634945 14.5538689 39.4383775 14.5538689 39.8127925 14.8113171 40 15.3262135 40zM24.89777 32.3057722L18.8569318 32.3057722 21.8359753 24.3026521 21.8911428 24.3026521 24.89777 32.3057722zM32.0867813 39.7191888C32.6568452 39.7191888 32.9418771 39.4290172 32.9418771 38.8486739L32.9418771 38.8486739 32.9418771 24.3026521 36.9691026 24.3026521C37.4656099 24.3026521 37.9391307 24.3822153 38.3896651 24.5413417 38.8401994 24.700468 39.2401636 24.9157566 39.5895576 25.1872075 39.9389516 25.4586583 40.2193862 25.7769111 40.4308615 26.1419657 40.6423369 26.5070203 40.7480745 26.8861154 40.7480745 27.2792512 40.7480745 27.7098284 40.6147531 28.1170047 40.3481103 28.50078 40.0814676 28.8845554 39.722879 29.226209 39.2723446 29.525741 38.8218103 29.825273 38.3023166 30.0592824 37.7138635 30.2277691 37.1254105 30.3962559 36.5185683 30.4804992 35.8933369 30.4804992L35.8933369 30.4804992 34.2383127 30.4804992C33.686638 30.4804992 33.4108006 30.7706708 33.4108006 31.351014 33.4108006 31.6692668 33.4705654 31.9032761 33.5900949 32.0530421 33.7096245 32.2028081 33.9256971 32.2776911 34.2383127 32.2776911L34.2383127 32.2776911 36.3346767 32.2776911C36.9599081 32.5959438 37.5575557 33.0078003 38.1276196 33.5132605 38.6976834 34.0187207 39.2401636 34.6271451 39.75506 35.3385335 40.0492865 35.7316693 40.4078751 36.274571 40.8308257 36.9672387 41.2537763 37.6599064 41.7594782 38.5397816 42.3479312 39.6068643 43.1754433 39.6630265 43.5800048 39.6911076 43.5616156 39.6911076 43.9845662 39.6911076 44.3477521 39.6209048 44.6511732 39.4804992 44.9545943 39.3400936 45.1063049 39.0826833 45.1063049 38.7082683 45.1063049 38.3900156 44.9683862 38.1700468 44.6925488 38.0483619 44.4167114 37.9266771 44.1132903 37.8658346 43.7822855 37.8658346L43.7822855 37.8658346 43.4512807 37.8658346C43.4145024 37.8845554 43.3685295 37.8939158 43.313362 37.8939158 42.3019583 36.1154446 41.6031703 34.9641186 41.216998 34.4399376 40.4078751 33.2979719 39.5895576 32.3900156 38.7620455 31.7160686 39.9757299 31.2293292 40.8951878 30.6349454 41.5204191 29.9329173 42.1456505 29.2308892 42.4582662 28.374415 42.4582662 27.3634945 42.4582662 26.7082683 42.3065556 26.0858034 42.0031345 25.4960998 41.6997134 24.9063963 41.2997492 24.3915757 40.803242 23.9516381 40.3067347 23.5117005 39.7320736 23.1653666 39.0792585 22.9126365 38.4264434 22.6599064 37.7506418 22.5335413 37.0518538 22.5335413L37.0518538 22.5335413 32.2798675 22.5335413C31.9672518 22.5335413 31.7144009 22.599064 31.5213147 22.7301092 31.3282286 22.8611544 31.2316855 23.0858034 31.2316855 23.4040562L31.2316855 23.4040562 31.2316855 38.8486739C31.2316855 39.4290172 31.5167174 39.7191888 32.0867813 39.7191888zM54.4744313 39.7191888C55.0628844 39.7191888 55.3571109 39.4290172 55.3571109 38.8486739L55.3571109 38.8486739 55.3571109 24.3026521 60.9841931 24.3026521C61.2416413 24.3026521 61.411741 24.2043682 61.4944922 24.0078003 61.5772434 23.8112324 61.618619 23.600624 61.618619 23.375975 61.5818407 23.1700468 61.5174787 22.9781591 61.4255329 22.800312 61.3335871 22.6224649 61.1772792 22.5335413 60.9566093 22.5335413L60.9566093 22.5335413 47.9370858 22.5335413C47.6796376 22.5335413 47.5095379 22.6318253 47.4267867 22.8283931 47.3440355 23.024961 47.3026599 23.226209 47.3026599 23.4321373 47.3026599 23.6380655 47.3440355 23.8346334 47.4267867 24.0218409 47.5095379 24.2090484 47.6796376 24.3026521 47.9370858 24.3026521L47.9370858 24.3026521 53.5917517 24.3026521 53.5917517 38.8486739C53.5917517 39.4290172 53.8859783 39.7191888 54.4744313 39.7191888zM70.8764105 39.7191888C71.4648636 39.7191888 71.7590901 39.4290172 71.7590901 38.8486739L71.7590901 38.8486739 71.7590901 31.9126365C72.218819 31.1263651 72.6739507 30.3681747 73.124485 29.6380655 73.5750194 28.9079563 74.0393456 28.149766 74.5174637 27.3634945 75.3081975 26.0156006 75.919637 24.9765991 76.3517822 24.2464899 76.7839274 23.5163807 77 23.1045242 77 23.0109204 77 22.7301092 76.8712759 22.524181 76.6138277 22.3931357 76.3563795 22.2620905 76.1357096 22.1965679 75.951818 22.1965679 75.8598722 22.2152886 75.7633292 22.2480499 75.6621888 22.2948518 75.5610484 22.3416537 75.4920891 22.4118565 75.4553108 22.5054602L75.4553108 22.5054602 70.8764105 30.0592824 65.9665055 22.5054602C65.911338 22.4118565 65.8423786 22.3463339 65.7596274 22.3088924 65.6768762 22.2714509 65.5987223 22.2527301 65.5251657 22.2527301 65.3228849 22.2527301 65.1022151 22.3416537 64.863156 22.5195008 64.624097 22.6973479 64.5045674 22.9173167 64.5045674 23.1794072 64.5045674 23.3291732 64.9688937 24.1341654 65.8975461 25.5943838 66.8261986 27.0546022 68.2099827 29.1513261 70.0488984 31.8845554L70.0488984 31.8845554 70.0213147 38.8486739C70.0213147 39.4290172 70.3063466 39.7191888 70.8764105 39.7191888zM.860948053 17.7191888C1.43491342 17.7191888 1.72189611 17.4383775 1.72189611 16.8767551L1.72189611 16.8767551 1.73367839 10.5508439 1.75429738 10.5772231C1.79595615 10.624025 1.85497275 10.6638066 1.93134718 10.6965679L2.01350754 10.7269891C2.18940016 10.7831513 2.45323908 10.8205928 2.8050243 10.8393136 3.15680953 10.8580343 3.64745734 10.8673947 4.27696775 10.8673947 4.9805382 10.8673947 5.56838983 10.8439938 6.04052263 10.7971919 6.51265543 10.75039 6.88758442 10.6801872 7.1653096 10.5865835 8.49839046 10.1560062 9.5074586 9.53822153 10.192514 8.73322933 10.8775695 7.92823713 11.2200972 6.91731669 11.2200972 5.70046802 11.2200972 4.97035881 11.0719771 4.28705148 10.7757369 3.65054602 10.4794967 3.01404056 10.0767952 2.46645866 9.56763239 2.00780031 9.05846957 1.54914197 8.45210293 1.18876755 7.74853247.926677067 7.04496202.664586583 6.28584654.533541342 5.47118601.533541342L5.47118601.533541342 1.13867323.533541342C.823918029.533541342.555450357.594383775.333270214.716068643.111090071.83775351 0 1.05772231 0 1.37597504L0 1.37597504 0 16.8486739C0 17.4290172.286982684 17.7191888.860948053 17.7191888zM1.73620316 9.50928946L1.74966862 2.30265211 5.58227608 2.30265211C6.10069642 2.30265211 6.60060174 2.38689548 7.08199205 2.55538222 7.56338236 2.72386895 7.98459888 2.95787832 8.34564161 3.2574103 8.70668434 3.55694228 8.99366702 3.90795632 9.20658966 4.31045242 9.4195123 4.71294852 9.52597362 5.14820593 9.52597362 5.61622465 9.52597362 6.10296412 9.40562604 6.55694228 9.16493088 6.97815913 8.92423573 7.39937598 8.60022302 7.76443058 8.19289276 8.07332293 7.7855625 8.38221529 7.3226872 8.63026521 6.80426687 8.8174727 6.28584654 9.00468019 5.74891119 9.09828393 5.19346083 9.09828393L5.19346083 9.09828393 2.47175409 9.12636505C2.21254392 9.12636505 2.00887879 9.19656786 1.86075869 9.33697348 1.81843867 9.37708937 1.78216436 9.42370021 1.75193577 9.47680601L1.73620316 9.50928946zM15.4311052 18C15.9310105 18 16.2550232 17.8127925 16.4031433 17.4383775L16.4031433 17.4383775 18.3749921 12.1029641 25.6791643 12.1029641 27.595468 17.4102964C27.6880431 17.6349454 27.8222769 17.7847114 27.9981695 17.8595944 28.1740622 17.9344774 28.382356 17.9719189 28.6230512 17.9719189 28.9192914 17.9719189 29.1183278 17.925117 29.2201603 17.8315133 29.3219929 17.7379095 29.3729092 17.625585 29.3729092 17.4945398 29.3729092 17.4383775 29.3682804 17.3915757 29.3590229 17.3541342 29.3497654 17.3166927 29.3358791 17.2698908 29.3173641 17.2137285L29.3173641 17.2137285 23.2351827.730109204C23.0315176.243369735 22.6241873 0 22.0131919 0 21.7354668 0 21.4901429.0514820593 21.2772202.154446178 21.0642976.257410296 20.9115487.430577223 20.8189737.673946958 18.7452923 6.19656786 17.1992889 10.3525741 16.1809632 13.1419657 15.1626375 15.9313573 14.6534747 17.3634945 14.6534747 17.4383775 14.6534747 17.8127925 14.9126849 18 15.4311052 18zM25.0681689 10.3057722L18.9859875 10.3057722 21.9854194 2.30265211 22.0409645 2.30265211 25.0681689 10.3057722zM38.4441078 17.7191888C39.0365882 17.7191888 39.3328284 17.4290172 39.3328284 16.8486739L39.3328284 16.8486739 39.3328284 2.30265211 44.998422 2.30265211C45.2576322 2.30265211 45.428896 2.20436817 45.5122136 2.00780031 45.5955311 1.81123245 45.6371899 1.60062402 45.6371899 1.37597504 45.6001599 1.1700468 45.5353574.978159126 45.4427823.800312012 45.3502072.622464899 45.1928296.533541342 44.9706495.533541342L44.9706495.533541342 31.8620211.533541342C31.6028109.533541342 31.4315471.631825273 31.3482295.828393136 31.2649119 1.024961 31.2232532 1.22620905 31.2232532 1.43213729 31.2232532 1.63806552 31.2649119 1.83463339 31.3482295 2.02184087 31.4315471 2.20904836 31.6028109 2.30265211 31.8620211 2.30265211L31.8620211 2.30265211 37.5553872 2.30265211 37.5553872 16.8486739C37.5553872 17.4290172 37.8516274 17.7191888 38.4441078 17.7191888zM54.8472512 17.7191888C55.4397315 17.7191888 55.7359717 17.4290172 55.7359717 16.8486739L55.7359717 16.8486739 55.7359717 2.30265211 61.4015654 2.30265211C61.6607755 2.30265211 61.8320394 2.20436817 61.9153569 2.00780031 61.9986745 1.81123245 62.0403333 1.60062402 62.0403333 1.37597504 62.0033032 1.1700468 61.9385007.978159126 61.8459256.800312012 61.7533506.622464899 61.595973.533541342 61.3737928.533541342L61.3737928.533541342 48.2651644.533541342C48.0059543.533541342 47.8346904.631825273 47.7513728.828393136 47.6680553 1.024961 47.6263965 1.22620905 47.6263965 1.43213729 47.6263965 1.63806552 47.6680553 1.83463339 47.7513728 2.02184087 47.8346904 2.20904836 48.0059543 2.30265211 48.2651644 2.30265211L48.2651644 2.30265211 53.9585306 2.30265211 53.9585306 16.8486739C53.9585306 17.4290172 54.2547708 17.7191888 54.8472512 17.7191888zM76.4438553 17.6349454C76.7030655 17.6349454 76.8743294 17.5366615 76.9576469 17.3400936 77.0409645 17.1435257 77.0826232 16.9422777 77.0826232 16.7363495 77.0826232 16.5304212 77.0409645 16.3338534 76.9576469 16.1466459 76.8743294 15.9594384 76.7030655 15.8658346 76.4438553 15.8658346L76.4438553 15.8658346 67.1122893 15.8377535 67.1122893 9.6599064 72.2502051 9.6599064C72.5094153 9.6599064 72.6806792 9.56162246 72.7639967 9.3650546 72.8473143 9.16848674 72.888973 8.95787832 72.888973 8.73322933 72.851943 8.52730109 72.7871405 8.33073323 72.6945654 8.14352574 72.6019904 7.95631825 72.4446128 7.86271451 72.2224326 7.86271451L72.2224326 7.86271451 67.1122893 7.86271451 67.1122893 2.30265211 76.4438553 2.30265211C76.7030655 2.30265211 76.8743294 2.20436817 76.9576469 2.00780031 77.0409645 1.81123245 77.0826232 1.6099844 77.0826232 1.40405616 77.0826232 1.19812793 77.0409645 1.00156006 76.9576469.814352574 76.8743294.627145086 76.7030655.533541342 76.4438553.533541342L76.4438553.533541342 66.3624314.533541342C66.0661912.533541342 65.8301248.60374415 65.6542322.744149766 65.4783395.884555382 65.3903932 1.10452418 65.3903932 1.40405616L65.3903932 1.40405616 65.3903932 16.7082683C65.3903932 17.0265211 65.4829683 17.2605304 65.6681184 17.4102964 65.8532685 17.5600624 66.0939637 17.6349454 66.3902039 17.6349454L66.3902039 17.6349454 76.4438553 17.6349454zM81.5158114 17.7191888C82.0897768 17.7191888 82.3767595 17.4290172 82.3767595 16.8486739L82.3767595 16.8486739 82.3767595 2.30265211 86.4315471 2.30265211C86.9314524 2.30265211 87.4082139 2.38221529 87.8618317 2.54134165 88.3154495 2.70046802 88.718151 2.91575663 89.0699362 3.18720749 89.4217215 3.45865835 89.7040754 3.77691108 89.916998 4.14196568 90.1299207 4.50702028 90.236382 4.88611544 90.236382 5.27925117 90.236382 5.70982839 90.1021482 6.11700468 89.8336805 6.50078003 89.5652128 6.88455538 89.2041701 7.22620905 88.7505523 7.52574103 88.2969345 7.82527301 87.7738854 8.05928237 87.181405 8.22776911 86.5889247 8.39625585 85.9779293 8.48049922 85.3484189 8.48049922L85.3484189 8.48049922 83.6820678 8.48049922C83.1266174 8.48049922 82.8488923 8.77067083 82.8488923 9.35101404 82.8488923 9.66926677 82.909066 9.90327613 83.0294136 10.0530421 83.1497612 10.2028081 83.3673126 10.2776911 83.6820678 10.2776911L83.6820678 10.2776911 85.7927791 10.2776911C86.4222895 10.5959438 87.0240274 11.0078003 87.5979928 11.5132605 88.1719582 12.0187207 88.718151 12.6271451 89.2365714 13.3385335 89.5328115 13.7316693 89.8938543 14.274571 90.3196996 14.9672387 90.7455448 15.6599064 91.2547077 16.5397816 91.847188 17.6068643 92.6803636 17.6630265 93.0876938 17.6911076 93.0691788 17.6911076 93.4950241 17.6911076 93.8606956 17.6209048 94.1661933 17.4804992 94.471691 17.3400936 94.6244398 17.0826833 94.6244398 16.7082683 94.6244398 16.3900156 94.4855772 16.1700468 94.207852 16.0483619 93.9301269 15.9266771 93.6246292 15.8658346 93.291359 15.8658346L93.291359 15.8658346 92.9580887 15.8658346C92.9210587 15.8845554 92.8747712 15.8939158 92.8192262 15.8939158 91.8009005 14.1154446 91.0973301 12.9641186 90.7085148 12.4399376 89.8938543 11.2979719 89.0699362 10.3900156 88.2367607 9.71606864 89.4587515 9.22932917 90.3845021 8.6349454 91.0140125 7.93291732 91.6435229 7.23088924 91.9582781 6.37441498 91.9582781 5.36349454 91.9582781 4.70826833 91.8055293 4.08580343 91.5000316 3.49609984 91.1945339 2.90639626 90.7918324 2.39157566 90.291927 1.95163807 89.7920217 1.51170047 89.2134276 1.16536661 88.5561447.912636505 87.8988617.659906396 87.2184351.533541342 86.5148646.533541342L86.5148646.533541342 81.710219.533541342C81.3954638.533541342 81.1408824.599063963 80.9464748.730109204 80.7520672.861154446 80.6548633 1.08580343 80.6548633 1.40405616L80.6548633 1.40405616 80.6548633 16.8486739C80.6548633 17.4290172 80.941846 17.7191888 81.5158114 17.7191888zM98.9465379 17.7191888C99.5205033 17.7191888 99.807486 17.4290172 99.807486 16.8486739L99.807486 16.8486739 99.807486 3.51014041 107.944834 16.9890796C108.074439 17.2137285 108.236445 17.3681747 108.430853 17.4524181 108.62526 17.5366615 108.852069 17.5787832 109.111279 17.5787832 109.37049 17.5600624 109.583412 17.4945398 109.750047 17.3822153 109.916682 17.2698908 110 17.0920437 110 16.8486739L110 16.8486739 110 1.12324493C110 .542901716 109.70376.252730109 109.111279.252730109 108.518799.252730109 108.222559.542901716 108.222559 1.12324493L108.222559 1.12324493 108.222559 14.0405616 100.112984.673946958C100.001894.48673947 99.8537735.355694228 99.6686234.280811232 99.4834732.205928237 99.2890656.168486739 99.0854005.168486739 98.4188601.168486739 98.0855899.48673947 98.0855899 1.12324493L98.0855899 1.12324493 98.0855899 16.8486739C98.0855899 17.4290172 98.3725725 17.7191888 98.9465379 17.7191888z" transform="translate(60 14)"/>
  </g>
</svg>
