<svg xmlns="http://www.w3.org/2000/svg" viewBox="0 0 512 500.19">
  <g id="abe1b62a-1ade-4002-abc4-e6faed847bec" data-name="Layer 2">
    <g id="a7a7aa92-dd8b-4f96-aa03-7aa15f9b6138" data-name="Layer 1">
      <g>
        <polygon points="7.65 489.28 196.32 110.71 211.07 141.44 237.5 186.91 285.43 242.22 318.62 272.34 355.49 295.69 389.29 310.44 386.22 325.8 359.79 344.86 169.9 430.28 50.06 486.82 17.49 497.88 7.65 489.28" fill="#ffec8d"/>
        <path d="M175.47,152.57c-6.27,10.82-10.61,22.78-15.8,34.14-3.94,8.62-9.94,17.11-12.52,26.29,3.81.88,6.38,6.88,9.61,9,7.9,5.21,16.91,7.18,25.75,10,7.1,2.23,14.9,3.07,22.32,3.38,5.89.25,13.62.92,19.23-1.11-.19-1.62-1.57-3.29-2.43-4.7-2.15-3.5-4.11-7.1-6.22-10.61-5.31-8.81-10.85-17.29-16.83-25.65a41.86,41.86,0,0,1-6.18-11.21c-1.72-4.84-4.45-8.5-7.28-12.7C181.59,164.13,179.17,157.52,175.47,152.57Z" fill="#ff9d7b"/>
        <path d="M121.62,258.26c2.77,1.13,4.3,3,6.75,4.71a58.45,58.45,0,0,0,12.08,6.08c10.2,3.89,19.44,10.44,29.84,13.92,5.8,1.94,11.63,4.34,17.61,5.67,6.36,1.42,13.35,2,19.83,2.57,12.32,1.15,24.39,1.69,36.71.33a95.6,95.6,0,0,0,16.2-3.56c3.1-.9,7.27-3.52,10.45-3.56,2.86,0,4.63,3.3,6.41,5.21a141.5,141.5,0,0,0,10.71,10.92,199.27,199.27,0,0,0,26.58,18.95c4.37,2.65,10.79,5.47,13.76,9.86-2.44,2.72-8.49,4.53-11.69,5.84a173,173,0,0,1-29.75,8.68,321.34,321.34,0,0,1-44.06,5.75c-23.64,1.69-48-1.33-71-6.63-10.89-2.51-19.93-8.51-30.36-11.86-7.57-2.43-15.6-4.39-22.74-7.87-7.5-3.66-15.8-7.76-22.35-12.94,1.69-1.16,2.4-3.19,3.15-5,2-4.83,4-9.63,6.13-14.4,2.29-5.1,4.74-10.07,7.35-15C115.73,271.19,119.59,265.92,121.62,258.26Z" fill="#ff9d7b"/>
        <path d="M64.52,369c-7.28,14.74-14.74,29.45-22.68,43.85-1.94,3.54-1.9,2.52-1.07,4.68.62,1.63,2.45,3.25,3.67,4.45,5.07,5,11.49,8.16,17.53,11.88,7.72,4.77,15.27,9.72,23.81,13.06,7.12,2.78,14.06,6.81,21.7,8.15,8.68,1.53,17-1,25.44-2.87,6.84-1.54,13.87-5.14,20.1-8.37,9.71-5.05,19.3-10.45,28.93-15.67,6.37-3.44,12.52-7.2,19-10.39,2.87-1.41,8.21-3.48,10.13-6.21-3.64-2.93-12.42-2.2-16.84-2.79-8.8-1.19-17.61-2.46-26.39-3.75-5.3-.77-10.77-1.5-16-2.75-4.39-1.05-8.57-2.77-13-3.76a94.83,94.83,0,0,1-21.74-7.74,130.69,130.69,0,0,1-16.27-10.49c-4.47-3.22-9.62-5.35-14.4-8.06-3.09-1.77-5.92-3.81-8.8-5.84-1.76-1.24-4.34-4.09-6.26-4.45C70.09,364.32,69,367,64.52,369Z" fill="#ff9d7b"/>
        <path d="M175.1,142.6c.07,8.1,6.14,17.93,8.73,25.64,3,8.81,6.9,15.2,11.91,22.9s9,16,13.85,23.61c5.29,8.28,11.85,16,17.69,23.89,5.58,7.51,11.94,14.94,19.45,20.57,8,6,13.78,14.47,21.91,20.44,7,5.11,13.32,11.13,19.82,16.9,9.4,8.34,19.69,15.17,30,22.25,7.42,5.09,15.22,10.09,23.07,14.48,5.06,2.84,12.36,9.08,18.29,9.86,4,.52,6.2-2.42,9.41-4.65,8-5.56,22.33-12.77,23-23.71.55-8.4-3.77-11.52-10.52-13.55-9.4-2.81-23.52-3.51-35.78-13.41-52-42-75.54-54.11-106-97-4.83-6.79-36-72-38-77.29-1-2.56-4.35-.72-4.35-.72a6.17,6.17,0,0,0-2.5,1.65c-2,1.74-4.26,5.77-5.62,7.7C185.73,127.55,179.57,134.6,175.1,142.6Z" fill="#f95252"/>
        <path d="M468.61,65.4c1,4.2-.13,8.59-.35,12.83-.28,5.41.35,11.33-1.36,16.58-2.59,7.91-21.78,24.56-4.25,29.83,13.82,4.16,21.61-19,25.2-28.27,2.74-7.06,5.18-16.51,4.55-24.25C491.19,57.25,476.56,53.79,468.61,65.4Z" fill="#c69ff7"/>
        <path d="M260.35,35.71c8.23,8.13,11.92,20.19,14.5,31.15,3.07,13,.24,24.65-2.63,37.54,9.48-.85,13.45-12.83,17.61-19.65a52,52,0,0,0,6.95-33.95c-.69-5.55-2.71-16.69-6.68-21C283,22,267.48,31,260.35,35.71Z" fill="#ffec8d"/>
        <path d="M419.41,99.33c-9.12,7.6-16.18,19.11-17.85,30.88-1.24,8.79-1.85,17.47-4.73,25.95-4,.34-8.71-2.88-12.47-4.12-5-1.64-13.21-3.52-16.32-8.5-4.19-6.71,2.48-17.34,5.55-23.61,4.1-8.39,6-18,13.1-24.6,6.63-6.14,21.84-16.6,31.9-13.58C427.4,84.4,425,90.31,419.41,99.33Z" fill="#74deda"/>
        <path d="M491.09,165.08c1.51,27.49-27.93,46-50.87,52.81-9.71,2.86-20,1.12-29.79,3.16-9.47,2-12.23,8.34-3,13.73,11.43,6.72,25.79,5.71,38.45,4.91a74.56,74.56,0,0,0,34.73-11.81c11.25-7.53,25.29-23.87,26.93-37.68.88-7.34.18-13.33-3.57-19.84C502.35,167.6,492.91,158.61,491.09,165.08Z" fill="#fc9a70"/>
        <path d="M407.26,7.29c-12.71,3.42-24.19,13-34,21.43-4.44,3.81-12,9.76-10.58,16.82.86,4.36,5.42,10.3,7.88,13.93,3.14,4.64,4.08,7,8.22,3.32,10.29-9,19.59-17.16,32.36-23.13,3.35-1.57,11.21-3.21,13.58-6C431.15,26.06,416.93,9.3,407.26,7.29Z" fill="#f95252"/>
        <g>
          <path d="M228.15,163.28a291.84,291.84,0,0,1-14.66-27.49c-2.27-4.9-4.61-9.86-6.49-14.94-.35-1-.68-1.94-1-2.92A366.45,366.45,0,0,1,377.68,273c5.29,9.41,11,20.14,10.74,31.25C322,275.53,265.34,225.23,228.15,163.28Zm144,166.15a126.07,126.07,0,0,1-14.66,8.25c-6.51-4.05-13.47-7.36-20.11-11.21-7.47-4.32-14.87-8.78-22.07-13.53a346.19,346.19,0,0,1-41.78-32.48,362,362,0,0,1-67.09-81.21,378.81,378.81,0,0,1-24.81-48.57q7.28-14.18,14.62-28.32c2,4.21,4.15,8.39,6.12,12.56,4.2,8.9,8.78,17.64,13.58,26.23a364,364,0,0,0,31.8,47.45,366.81,366.81,0,0,0,84.57,78.23,346.93,346.93,0,0,0,53,29C382.37,321.36,377.48,325.87,372.16,329.43ZM343,344.56l-35.22,16.77q-46.07,21.93-92.11,43.92c-3.85-.06-7.71-.05-11.54-.33-6.86-.52-13.71-1.36-20.5-2.43a280.26,280.26,0,0,1-37.88-8.63c-25-7.62-47.69-19.67-70.11-32.81q4-8.25,8.09-16.49,7.36-15,14.8-29.86C149.05,350,216.85,360.13,276.87,350A248.72,248.72,0,0,0,329,335.18a4.66,4.66,0,0,0,1.76-1.22c5.41,3,10.91,6,16.61,8.53C345.9,343.17,344.42,343.86,343,344.56ZM165,429.43q-23.37,11.19-46.71,22.43C91.94,449,66,437.33,48.21,417.51q12.59-26,25.25-52.07c20.23,17,45,28.54,70,36.42a229.87,229.87,0,0,0,39.89,8.79c5.54.71,11.33,1.38,17.16,1.81Zm-118.3,56c-6.29,2.25-13,4.32-19.64,4.93a44.78,44.78,0,0,1-13.81-1.13Q29.21,457,44.82,424.51c16.84,17.27,38.23,29.3,61.79,33q-10.69,5.16-21.37,10.32C72.57,474,60,480.68,46.71,485.43ZM124.36,263c18.74,15.29,42.47,24.19,66,28.72,25.56,4.92,52.58,4.4,77.72-2.56.14,0,.25-.1.39-.15a353.41,353.41,0,0,0,35.12,27.95c5.84,4.07,11.8,8,17.91,11.71-55.77,21.18-118.53,21.73-174.85,2a351.45,351.45,0,0,1-46.11-20.17Q112.42,286.7,124.36,263Zm2.07-4.12c7.73-13.8,15-28,22-42.16a95.06,95.06,0,0,0,31.67,16.66c12.57,3.92,28.44,7.1,41.67,4.19a352.74,352.74,0,0,0,39.4,44.61,179.82,179.82,0,0,1-69.5,1.7c-23.36-4.11-44.72-13.43-65.52-24.43Zm33.68-66c.56-1.15,1.12-2.31,1.69-3.46q8-15.61,16-31.25a338.21,338.21,0,0,0,38.94,72.48c-4.77,0-9.55.12-14.32-.33a102.37,102.37,0,0,1-20.37-4.05A125.45,125.45,0,0,1,151,211.54Q155.57,202.18,160.11,192.86ZM398.53,289.3c-3.31-11.35-9.44-21.79-15.47-31.87q-8.26-13.8-17.74-26.81A380,380,0,0,0,322.06,181a378.32,378.32,0,0,0-68.17-52.09,380.42,380.42,0,0,0-39.56-20.59c-4.91-2.2-11.25-6.8-16.61-5.86-5.54,1-11,8.83-13.58,13.27-5.86,10.15-9.49,21.94-14.62,32.54q-9.69,20-19.26,40.09c-9.28,19.36-18.9,38.76-27.76,58.43Q81.07,324.77,41.9,404C27.82,432.51,13.78,461.07.63,490c-1.46,3.2-.4,7,3.29,8.08,23.72,6.73,48.94-4.11,70.19-13.92q38.31-17.7,76.52-35.64Q227,412.66,303.29,376.62l38.14-18c11-5.2,22.41-10,32.91-16.16,8.41-5,16.52-11.32,21.43-19.94C401.58,312.29,401.77,300.38,398.53,289.3Z" fill="#272442"/>
          <path d="M291.27,71a61.75,61.75,0,0,1-13,24.53,56.83,56.83,0,0,0,.45-25.92,93.64,93.64,0,0,0-7.9-22.23c-1.19-2.48-5.56-8.07-4.1-11,1.08-2.18,8-3.3,10-3.67C295.9,29.2,294.32,59.53,291.27,71Zm6.12-30.54c-1.82-5.25-4.37-10.56-9.28-13.54-5.56-3.38-12.42-3.22-18.59-2-5.93,1.16-12.18,3.54-13,10.31-.93,7.26,5,14.07,8.06,20.17,8.11,16,11.67,35.49.53,51a3.25,3.25,0,0,0-.64,1.74c-1.6,3,1.44,7.09,5.15,5.12C295.48,99.54,307,68.07,297.39,40.48Z" fill="#272442"/>
          <path d="M408.52,104.9a51.24,51.24,0,0,0-8.71,17.73c-1.91,6.65-2.56,13.43-3.4,20.26-.52,4.22-1.81,6.06-6.4,5.42a46.08,46.08,0,0,1-9.43-2.52c-3.52-1.3-6.92-3.2-8.23-6.89A64.28,64.28,0,0,1,385,106.23,59.53,59.53,0,0,1,399.67,92.5c4.15-2.7,16.71-10.62,21.15-6C425.84,91.68,411.37,101.3,408.52,104.9ZM429,87.54c-1.33-8.77-10.9-11.94-18.68-10.67-8.9,1.45-17.65,7.06-24.35,12.89a62.12,62.12,0,0,0-20,34c-.31.7-.63,1.39-.93,2.09-3.95,9-4.66,18.73,3.85,25.28,6.26,4.82,17,8.12,24.91,7.16,10.16-1.24,11.62-9.93,12.31-18.49.79-9.95,2.63-20.55,8.46-28.9C419.94,103.26,430.69,98.42,429,87.54Z" fill="#272442"/>
          <path d="M498.65,201.72C491,213.85,479,223.4,466,229.26c-12.4,5.61-26.89,8.13-40.36,5.65-5.09-.94-15.53-2.63-18.08-7.82-.75-1.53-.59-2.44.05-3,4,.09,8,.08,12-.07a59.86,59.86,0,0,0,6.28-.1,74.16,74.16,0,0,0,9.15-1.25c12.07-1.8,23.73-5.5,34.11-12.59,13.69-9.34,26.92-26.35,26.08-43.86,4.74,2.53,7.92,7.85,9,13C505.76,187.05,502.76,195.17,498.65,201.72Zm-6.92-44.26c-2.56-.8-4.45,1.32-4.73,3.6-1.77,14.37-4.7,25.36-15.58,35.31a78.57,78.57,0,0,1-32.62,17.41,59.89,59.89,0,0,1-14.59,1.95c-5,.05-9.76-1.16-14.68-1.27-8.17-.18-14.41,6.33-12.07,14.65s12,12,19.54,14.17c33.73,9.76,76.71-8.4,91.55-40.78C516.36,185.46,511,163.47,491.73,157.46Z" fill="#272442"/>
          <path d="M382.69,51c-2.07,1.9-4.1,3.85-6.06,5.88-.62.66-1.75,2.5-2.6,2.68s-.58.19-1.81-1.41c-3.84-5-9.15-9.6-4.81-16,3.11-4.61,7.59-8.7,11.67-12.44C385.31,24,402,8.14,411.17,9.65c7.2,1.2,7.25,13,9.18,18.66a104.94,104.94,0,0,0-24.8,12.43A114.57,114.57,0,0,0,382.69,51Zm49.48-20.79c-1.92-5.4-4.08-10.65-6.31-15.92-1.6-3.78-2.82-8.67-5.94-11.51C413.44-3.06,404.78,1.55,398.4,5a110.44,110.44,0,0,0-19.62,13.58c-3.09,2.11-6.1,4.37-9,6.79-5.09,4.24-11.54,9.28-14.07,15.6-2.82,7.06,0,14.13,4.41,19.85,3.68,4.83,8.74,10.72,15.52,9.23,5.84-1.29,9.79-8.29,14-12.1A97.62,97.62,0,0,1,428.5,36.72C431.08,36,433.14,33,432.17,30.24Z" fill="#272442"/>
          <path d="M486.25,74.69a89.67,89.67,0,0,1-3.57,21.5c-1.77,6.13-3.88,13.31-8.46,18-2.21,2.28-4.66,3.39-7.82,2.87-10.73-1.78-.94-8.36,2-13.43a39.94,39.94,0,0,0,5.28-19.06c.09-6-6.8-18.77,2.2-20.77,2.2-.48,7.18-1.55,9.1,0C487.32,65.74,486.35,72.09,486.25,74.69Zm7.61-12.5c-3.7-10.55-23.45-9.55-29-1.23-2.27,3.4-2,7.19-1.63,11.07A55.34,55.34,0,0,1,463,85a50.08,50.08,0,0,1-1.9,8.11c-3.67,5.77-7.5,11.57-10.56,17.58-3.32,6.52,1.92,10.41,7.3,13.17,6.06,3.12,12.83,4.27,18.93.55,5.48-3.34,8.78-9.37,11.1-15.13a97.45,97.45,0,0,0,6-23.53C494.82,78.62,496.31,69.16,493.86,62.19Z" fill="#272442"/>
          <path d="M242.41,87.29a97.62,97.62,0,0,0-27.6-32.38c-6.23-4.74-12.52,5.93-6.18,10.58A89,89,0,0,1,233,92.77C236.56,98.83,245.65,93.46,242.41,87.29Z" fill="#272442"/>
          <path d="M316.72,79.32c.14,13.35-2.05,26.18-8,38.23-2.65,5.4,5.2,10.14,8.15,4.77,7.21-13.17,11.57-27.92,11.41-43C328.23,71.87,316.64,71.85,316.72,79.32Z" fill="#272442"/>
          <path d="M425.1,176.5a76.68,76.68,0,0,0-28.43,8.8c-5.45,3-.64,11.09,4.85,8.3a59.6,59.6,0,0,1,23.58-6.5C432,186.67,431.78,175.75,425.1,176.5Z" fill="#272442"/>
          <path d="M460.87,284.44a44.54,44.54,0,0,0-36.55-14.35c-6.14.49-6.29,10,0,9.68a36.69,36.69,0,0,1,29.06,12.16C458,297,465.43,289.48,460.87,284.44Z" fill="#272442"/>
          <path d="M509.94,263.69a43.14,43.14,0,0,0-21.68-10.56c-5.73-.93-8.31,7.67-2.44,8.87a31,31,0,0,1,16.68,9.12C507.22,276,515,268.17,509.94,263.69Z" fill="#272442"/>
          <path d="M329.5,38.79c-.5-4.56-.55-9.19-.78-13.77-.27-5.45-8.44-4.52-7.48,1,.73,4.24,1.66,8.49,2.14,12.76C323.81,42.66,329.94,42.71,329.5,38.79Z" fill="#272442"/>
          <path d="M460.91,149.2A34,34,0,0,0,438,151c-4.91,2.09-1.39,10.58,3.67,8.7a24,24,0,0,1,16.47-.4C464.51,161.34,467.41,151,460.91,149.2Z" fill="#272442"/>
        </g>
      </g>
    </g>
  </g>
</svg>
