<?xml version="1.0" encoding="UTF-8"?>
<svg width="747px" height="330px" viewBox="0 0 747 330" version="1.1" xmlns="http://www.w3.org/2000/svg" xmlns:xlink="http://www.w3.org/1999/xlink">
    <title>logo</title>
    <g id="Page-3" stroke="none" stroke-width="1" fill="none" fill-rule="evenodd">
        <g id="logo" fill="#000000" fill-rule="nonzero">
            <path d="M55,0 L56.04257,0.00336337383 C67.1297207,0.0752185891 77.1410054,1.30171278 86,4 C96.1127168,6.08695652 104.523121,9.91304348 112,15 C118.916185,20.3478261 124.595376,27.173913 129,36 C129.367991,36.7552621 129.719776,37.529691 130.055153,38.3227469 L144.758621,0 L545,0 L546.116429,0.00491143317 C556.880261,0.0997101449 566.823535,1.56231884 576,4 C584.624646,7.08516597 592.210006,10.9619549 599.001476,15.5976321 L599,0 L645,0 L693,67 L693,0 L747,0 L747,174 L701,174 L653,107 L653,174 L568.181,174 L524,255 L524,330 L469,330 L469,255 L440.091,202 L424,202 L424,330 L304,330 L278,286 L278,330 L197,330 L191,314 L139,314 L133,330 L78,330 L96.3191188,281.705783 C93.0770108,282.984398 89.6493473,284.074297 86,285 C77.1791908,287.224888 67.2160035,288.436489 56.1858784,288.947874 L55,289 L55,330 L-4.26325641e-14,330 L0,0 L55,0 Z M366,202 L356.753898,201.99978 C358.833195,208.549912 359.899109,215.894513 360,224 C359.861456,232.521739 358.642984,239.913043 356,246 C353.769094,252.086957 351.071048,257.130435 348,261 C344.783707,265.440711 341.068949,269.128728 336.637903,272.517827 L336,273 L366,324.818 L366,202 Z M430.972,177 L354,177 L354,183 L392,183 L392,309 L398,309 L398,183 L430.972,183 L430.972,177 Z M276,177 L248,177 L248,309 L255,309 L255,269 L276,269 L276.853741,269.045752 C283.381062,269.355371 289.494541,268.71956 295.251156,267.202825 L296,267 L321,309 L329,309 L303,265 L303.659578,264.784777 C312.848765,261.725411 320.155417,256.725471 326,250 C331.203252,243.17357 334,234.278107 334,223 C334,215.706114 332.514228,209.023669 330,203 C326.571138,197.568047 322.507114,192.751479 317,189 C312.194106,184.940828 306.119919,181.990138 299,180 C292.136179,177.998028 284.53252,177 276,177 Z M170,177 L161,177 L110,309 L117,309 L122,296 L209,296 L214,309 L221,309 L170,177 Z M55,177 L26,177 L26,309 L33,309 L33,268 L55,268 L55.991527,267.949938 C63.8838957,267.529401 70.8226087,266.624615 77,265 C83.9565217,263.047337 89.7391304,260.313609 95,257 C99.4782609,253.023669 103.26087,248.337278 106,243 C108.652174,236.881657 110,230.112426 110,222 C110,214.491124 108.652174,207.721893 106,202 C103.26087,196.266272 99.4782609,191.579882 95,188 C89.7391304,184.289941 83.9565217,181.556213 77,180 C70.5652174,177.911243 63.3043478,177 55,177 Z M463,177 L456,176.999 L456,178.841 L493,247 L493,309 L500,309 L500,247 L538,177 L530,177 L496,239 L463,177 Z M165,183 L206,290 L124,290 L165,183 Z M165,245 L153,276 L177,276 L165,245 Z M276,183 L276.807685,183.002893 C292.629601,183.116664 304.765217,186.583243 314,193 C322.521739,200.372421 327,210.274701 327,223 C327,235.985885 322.521739,245.844734 314,253 C304.765217,259.459464 292.629601,262.88476 276.807685,262.997142 L276,263 L255,263 L255,183 L276,183 Z M56,183 L57.0572317,183.006758 C62.6944516,183.078893 68.3119696,183.729412 74,185 C79.2748756,186.25 84.2810945,188.373333 89,191 C92.9875622,194.266667 96.4701493,198.253333 99,203 C101.69403,208.306667 103,214.546667 103,222 C103,229.453333 101.69403,235.693333 99,241 C96.4701493,245.746667 92.9875622,249.733333 89,253 C84.2810945,255.626667 79.2748756,257.75 74,259 C68.3119696,260.270588 62.6944516,260.921107 57.0572317,260.993242 L56,261 L33,261 L33,183 L56,183 Z M192.298851,158 L186.758,158 L222,250.911 L222,174 L198.367816,174 L192.298851,158 Z M57,203 L55,203 L55,242 L57,242 C64.6704545,242 69.9412879,240.287162 73,237 C76.3882576,233.435811 78,228.648649 78,222 C78,216.351351 76.3882576,211.564189 73,208 C69.9412879,204.712838 64.6704545,203 57,203 Z M281,203 L278,203 L278,242 L281,242 C287.617647,242 293.308824,240.506757 298,238 C302.661765,234.533784 305,229.527027 305,222 C305,215.472973 302.661765,210.466216 298,207 C293.308824,204.493243 287.617647,203 281,203 Z M143.24,158 L139.701149,158 L133.632184,174 L115.57554,173.999273 C120.897643,178.841346 125.379419,184.744997 129,192 C129.25444,192.522211 129.501133,193.053586 129.740011,193.593945 L143.24,158 Z M506.755,174 L486.73,174 L497,193 L506.755,174 Z M86,129 C77.1791908,131.224888 67.2160035,132.436489 56.1858784,132.947874 L55,133 L55,156 L56.04257,156.003363 C66.1536427,156.068893 75.3699427,157.094708 83.6335053,159.321359 L96.5674569,125.60733 C93.2521561,126.928553 89.7426608,128.050627 86,129 Z M306,46 L276,46 L276,156 L282,156 L283.116429,156.004911 C291.199696,156.076102 298.82021,156.918668 306.000735,158.366283 L306,46 Z M388,46 L363,46 L363,156 L388,156 L388,46 Z M541,130 L541,155.999 L556.363,155.999 L541,130 Z M539,21 L511,21 L511,153 L518,153 L518,113 L539,113 L539.853741,113.045752 C546.381062,113.355371 552.494541,112.71956 558.251156,111.202825 L559,111 L584,153 L592,153 L566,109 L566.659578,108.784777 C575.848765,105.725411 583.155417,100.725471 589,94 C594.203252,87.17357 597,78.2781065 597,67 C597,59.7061144 595.514228,53.0236686 593,47 C589.571138,41.5680473 585.507114,36.7514793 580,33 C575.194106,28.9408284 569.119919,25.9901381 562,24 C555.136179,21.9980276 547.53252,21 539,21 Z M55,21 L26,21 L26,153 L33,153 L33,112 L55,112 L55.991527,111.949938 C63.8838957,111.529401 70.8226087,110.624615 77,109 C83.9565217,107.047337 89.7391304,104.313609 95,101 C99.4782609,97.0236686 103.26087,92.3372781 106,87 C108.652174,80.8816568 110,74.112426 110,66 C110,58.4911243 108.652174,51.7218935 106,46 C103.26087,40.2662722 99.4782609,35.5798817 95,32 C89.7391304,28.2899408 83.9565217,25.556213 77,24 C70.5652174,21.9112426 63.3043478,21 55,21 Z M630,21 L623,21 L623,153 L630,153 L630,33 L716,153 L723,153 L723,21 L716,21 L716,141 L630,21 Z M274,21 L207,21 L207,27 L244,27 L244,153 L251,153 L251,27 L274,27 L274,21 Z M171.057471,21 L161.954023,21 L110.367816,153 L117.448276,153 L122.505747,140 L210.505747,140 L215.563218,153 L222.643678,153 L171.057471,21 Z M473,21 L414,21 L414,153 L473,153 L473,147 L421,147 L421,90 L470,90 L470,83 L421,83 L421,27 L473,27 L473,21 Z M375,21 L308,21 L308,27 L331,27 L331,153 L338,153 L338,27 L375,27 L375,21 Z M164.988506,27 L206.45977,134 L124.528736,134 L164.988506,27 Z M485,108 L443,108 L443,128 L485,128 L485,108 Z M164.988506,89 L153.862069,120 L177.126437,120 L164.988506,89 Z M539,27 L539.807685,27.0028934 C555.629601,27.1166637 567.765217,30.5832429 577,37 C585.521739,44.3724213 590,54.2747014 590,67 C590,79.9858849 585.521739,89.844734 577,97 C567.765217,103.459464 555.629601,106.88476 539.807685,106.997142 L539,107 L518,107 L518,27 L539,27 Z M56,27 L57.0572317,27.0067576 C62.6944516,27.0788927 68.3119696,27.7294118 74,29 C79.2748756,30.25 84.2810945,32.3733333 89,35 C92.9875622,38.2666667 96.4701493,42.2533333 99,47 C101.69403,52.3066667 103,58.5466667 103,66 C103,73.4533333 101.69403,79.6933333 99,85 C96.4701493,89.7466667 92.9875622,93.7333333 89,97 C84.2810945,99.6266667 79.2748756,101.75 74,103 C68.3119696,104.270588 62.6944516,104.921107 57.0572317,104.993242 L56,105 L33,105 L33,27 L56,27 Z M58,47 L56,47 L56,86 L58,86 C65.6704545,86 70.9412879,84.2871622 74,81 C77.3882576,77.4358108 79,72.6486486 79,67 C79,60.3513514 77.3882576,55.5641892 74,52 C70.9412879,48.7128378 65.6704545,47 58,47 Z M543,47 L540,47 L540,86 L543,86 C549.617647,86 555.308824,84.5067568 560,82 C564.661765,78.5337838 567,73.527027 567,67 C567,59.472973 564.661765,54.4662162 560,51 C555.308824,48.4932432 549.617647,47 543,47 Z M219,46 L204.89,46 L219,82.777 L219,46 Z M485,46 L443,46 L443,65 L485,65 L485,46 Z" id="text"></path>
            <path d="M586,228.473161 L596.57525,212 L596.760417,212.694077 L596.86097,213.054135 L596.86097,213.054135 L597.078389,213.800876 L597.318055,214.583898 L597.580566,215.40414 L597.86652,216.262539 L598.176513,217.160035 L598.511144,218.097564 L598.87101,219.076066 L599.256708,220.096478 L599.668836,221.159738 L600.337891,222.837022 L600.337891,222.837022 L600.818708,224.011508 L601.328045,225.232126 L601.593596,225.860028 C601.830365,226.417341 602.072982,226.981859 602.321303,227.553299 L603.083234,229.288099 C603.342818,229.873097 603.607961,230.464733 603.87852,231.062723 L604.706293,232.875469 L605.565687,234.724632 L606.683071,237.084702 L606.683071,237.084702 L607.84681,239.495685 L608.810036,241.458892 L609.800976,243.450849 L610.818762,245.469853 L611.862525,247.5142 L612.393877,248.545344 L612.393877,248.545344 L613.749009,251.147664 L613.749009,251.147664 L615.141,253.78226 L615.707738,254.844391 L615.707738,254.844391 L616.857659,256.981697 L618.028784,259.134975 L619.521185,261.846438 L619.521185,261.846438 L621.043664,264.576868 L622.282166,266.772631 L623.537965,268.9767 L624.803231,271.175259 L625.436501,272.267415 L625.436501,272.267415 L626.703673,274.436477 C627.126118,275.155974 627.54856,275.871859 627.970827,276.583862 L629.236934,278.707962 L629.869272,279.760777 L629.869272,279.760777 L631.131874,281.846932 L632.390852,283.905777 L633.645176,285.935706 L634.893815,287.935107 L636.135738,289.902372 L637.369915,291.835892 L638.595316,293.734057 L640.414707,296.511494 L640.414707,296.511494 L641.613658,298.314233 L642.800227,300.075984 L643.973382,301.79514 C644.167733,302.078027 644.361482,302.359072 644.554608,302.638241 L645.70571,304.290485 L646.27533,305.099226 L646.27533,305.099226 L647.402062,306.680938 C647.588418,306.940515 647.774043,307.19805 647.958917,307.453507 L649.058959,308.961067 L650.008651,310.241787 L650.802777,311.297322 L651.571472,312.304729 L652.315251,313.265017 L653.034632,314.179199 L653.730129,315.048285 L654.402259,315.873287 L655.051538,316.655215 L655.678482,317.395082 L656.283606,318.093897 L656.867427,318.752672 L657.430461,319.372419 L657.973224,319.954149 L658.496232,320.498872 L659,321.0076 L639.656181,322 C627.36971,308.687695 616.611782,294.01344 607.589986,278.260395 C598.865306,263.033033 591.801309,246.901025 586.521979,230.150287 L586,228.473161 Z M603.050803,205.5151 L603.016002,205.191903 L603,205 L603.152474,205.11034 L603.496217,205.375214 L603.688082,205.531511 L604.001706,205.798261 L604.469643,206.21886 L604.996643,206.720131 L605.432085,207.153268 L605.90309,207.638725 L606.410664,208.179479 L606.955809,208.778505 L607.53953,209.438779 L608.162829,210.163275 L608.600845,210.683421 L609.292338,211.521567 L609.776747,212.120235 L610.803093,213.417307 L611.624362,214.480852 L612.490896,215.625481 L613.403699,216.85417 L614.363774,218.169893 L615.372126,219.575626 L615.719145,220.064721 C616.096733,220.598287 616.477853,221.141589 616.862278,221.694259 L618.025238,223.380005 L619.206663,225.119758 L620.405193,226.911317 C620.606298,227.214105 620.808059,227.51896 621.010447,227.825836 L622.232081,229.690976 L623.467417,231.602418 L624.715092,233.557963 L625.973747,235.555408 L627.242019,237.592551 L627.879337,238.625323 L627.879337,238.625323 L629.159484,240.717888 L630.445845,242.84465 L631.73706,245.003407 L633.031767,247.191957 C633.679766,248.293314 634.328565,249.405019 634.977398,250.525832 L636.27488,252.779237 L637.894784,255.626799 L637.894784,255.626799 L639.510043,258.504578 L640.791384,260.815303 L642.3685,263.694406 L642.3685,263.694406 L643.916211,266.558942 L645.131685,268.837034 L645.131685,268.837034 L646.620757,271.663921 L646.620757,271.663921 L648.074078,274.463544 L649.209472,276.680567 L650.319376,278.874917 L650.864407,279.962866 L650.864407,279.962866 L651.9339,282.118856 L652.975002,284.246372 L653.986553,286.343092 L654.967393,288.406693 L655.916361,290.434856 L657.055984,292.916687 L657.055984,292.916687 L658.14173,295.334983 L658.970011,297.220828 L659.370314,298.146689 L659.370314,298.146689 L659.996712,299.61655 L660.668127,301.223732 L661.288407,302.742614 L661.859537,304.175583 L662.383504,305.525027 L662.862294,306.793334 L663.433841,308.362324 L663.814945,309.450596 L664.157495,310.465691 L664.557689,311.709445 L664.818004,312.563077 L665.115762,313.600214 L665.244824,314.077072 L665.415301,314.742211 L665.602545,315.539167 L665.715509,316.072557 L665.83328,316.702514 L665.917827,317.244826 L665.962266,317.597448 L665.983961,317.808088 L666,318 L665.682197,317.764952 L665.409505,317.548826 L664.998224,317.201884 L664.530258,316.781308 L664.274274,316.541204 L664.003228,316.280048 L663.567765,315.846913 L663.096739,315.361455 L662.589147,314.820697 L662.043985,314.221667 L661.460251,313.56139 L660.836941,312.836892 L660.173052,312.045198 L659.467582,311.183335 L658.719527,310.248328 L658.19667,309.582885 L657.654143,308.882731 L656.802823,307.765489 L656.209822,306.974701 L655.281397,305.717376 L654.305372,304.372037 L653.280744,302.935708 C652.525535,301.868517 651.756203,300.762398 650.974563,299.620283 L649.793098,297.880481 L648.594533,296.088886 L647.989264,295.174353 L647.989264,295.174353 L646.767601,293.309194 L645.532242,291.397742 L644.284548,289.442198 L643.025881,287.44476 L641.757601,285.40763 L640.481071,283.333008 L639.197651,281.223093 L637.908705,279.080085 L636.615592,276.906186 L635.319675,274.703594 L634.022314,272.474509 L634.022314,272.474509 L632.400659,269.654251 L632.400659,269.654251 L630.781535,266.800333 L629.489846,264.495851 L628.208443,262.185119 L626.631262,259.306037 L626.631262,259.306037 L625.083496,256.441548 L623.867986,254.163505 L622.673911,251.900015 L621.502432,249.653396 L620.354708,247.425965 L619.231899,245.220038 L618.135164,243.037934 L617.065664,240.881969 L616.024558,238.754461 L615.013006,236.657727 C614.680877,235.964202 614.353866,235.276192 614.032168,234.594083 L613.083203,232.565848 L612.621035,231.565733 L612.621035,231.565733 L611.722054,229.594955 L611.285531,228.624871 L611.285531,228.624871 L610.439144,226.716764 C610.163036,226.088046 609.893013,225.466774 609.629269,224.853334 L609.002888,223.38336 L608.549523,222.302021 L607.91245,220.754027 L607.325183,219.29273 L606.616203,217.475069 L606.137426,216.206782 L605.842357,215.40515 L605.434453,214.266771 L605.066427,213.203156 L604.736291,212.211917 L604.44206,211.290667 L604.181749,210.437021 L603.953371,209.648591 L603.754941,208.92299 L603.584473,208.257833 L603.439981,207.650732 L603.357104,207.277073 L603.220983,206.601152 L603.120452,206.015714 L603.050803,205.5151 Z M693.654583,276.738702 C694.491231,276.68643 695.284494,277.129587 695.703574,277.883373 C696.090418,278.579176 696.097118,279.429375 695.73255,280.127304 L695.633678,280.298436 L693.237468,284.066983 C691.824336,286.299546 691.101019,288.922595 691.157801,291.586229 L691.175937,292.056632 L691.436517,296.564919 C691.486647,297.433627 691.059849,298.257191 690.334057,298.692264 C689.664095,299.093871 688.845521,299.100823 688.173516,298.722336 L688.008739,298.619689 L684.379768,296.131317 C682.229979,294.663633 679.704023,293.912468 677.139016,293.971626 L676.686031,293.990497 L672.344718,294.261098 C671.508306,294.31308 670.71538,293.869942 670.296426,293.116383 C669.909699,292.42079 669.902879,291.570873 670.267144,290.873039 L670.365936,290.701926 L672.762261,286.932936 C674.175393,284.700373 674.89871,282.077324 674.841928,279.41369 L674.823792,278.943286 L674.563098,274.435443 C674.512835,273.566744 674.939507,272.74311 675.665233,272.307917 C676.335134,271.906201 677.153708,271.899114 677.82577,272.277491 L677.990563,272.380111 L681.619961,274.868602 C683.769837,276.336086 686.295736,277.087222 688.860717,277.028256 L689.313698,277.009422 L693.654583,276.738702 Z M617.081084,271.081719 C616.457962,270.921636 615.792433,270.998663 615.230931,271.295948 C614.669479,271.593088 614.257974,272.086079 614.086838,272.666437 C613.915917,273.246848 613.999375,273.867083 614.318959,274.390719 C615.023793,275.545568 615.737629,276.70596 616.460469,277.871896 C617.136856,278.951968 618.622086,279.320456 619.783071,278.696239 C620.944056,278.072022 621.343998,276.689948 620.67778,275.604408 C619.960061,274.447587 619.251899,273.296134 618.553295,272.15005 C618.233745,271.626268 617.704149,271.242002 617.081084,271.081719 Z M715.441912,288.257354 C719.439251,289.333311 721.811339,293.441344 720.7446,297.440661 C719.67266,301.440664 715.560609,303.814444 711.560076,302.742646 C707.559542,301.670849 705.185448,297.559342 706.257388,293.559339 C707.329328,289.559336 711.441379,287.185556 715.441912,288.257354 Z M601.328214,238.312422 C600.807677,237.180592 599.462869,236.686052 598.324502,237.207836 C597.186134,237.72962 596.685284,239.07014 597.205821,240.20197 C598.160982,242.278297 599.185547,244.439606 600.270543,246.668218 L601.375351,248.918609 L602.809979,251.788709 L602.809979,251.788709 L604.300549,254.715104 L605.530666,257.091595 L605.530666,257.091595 L606.7921,259.495276 C607.430314,260.703258 608.079525,261.919963 608.73861,263.143181 L610.069616,265.597646 L610.74437,266.830163 L610.74437,266.830163 C611.343808,267.922147 612.720333,268.320801 613.818925,267.72058 C614.917517,267.120359 615.322161,265.748556 614.722723,264.656572 L613.392618,262.218944 L612.087766,259.796978 L611.445427,258.593083 L611.445427,258.593083 L610.182154,256.201896 L610.182154,256.201896 L608.949065,253.836087 L607.748131,251.499541 L606.581325,249.196145 L606.011335,248.058093 L606.011335,248.058093 L604.899417,245.811707 C604.535178,245.06984 604.177447,244.335118 603.826555,243.608187 L602.794722,241.451417 C602.289391,240.385368 601.800185,239.338308 601.328214,238.312422 Z M677.91739,251.320524 C688.822126,244.652639 702.634105,248.344819 709.011212,259.548231 L709.233182,259.94676 L711.708403,264.502117 C712.100504,265.216267 712.096949,266.102259 711.699082,266.824644 C711.301216,267.547028 710.569854,267.995387 709.7819,268 C709.059609,268.004161 708.390968,267.63487 707.987149,267.020381 L707.883741,266.84681 L705.408097,262.291336 C700.406429,253.111624 689.322857,249.950188 680.462304,255.094696 L680.089261,255.317019 L667.277105,263.171459 C666.221605,263.812106 664.885091,263.440631 664.287196,262.340435 C663.722517,261.301361 664.017314,259.981497 664.936576,259.29024 L665.105234,259.174964 L677.91739,251.320524 Z M694.764902,223.30172 C695.796336,222.680602 697.115226,223.049201 697.710725,224.12501 C698.27314,225.141052 697.989166,226.424528 697.086975,227.087244 L696.921394,227.197569 L656.234633,251.69833 C655.203343,252.319348 653.884649,251.950803 653.289227,250.875157 C652.726902,249.859257 653.010835,248.575971 653.91289,247.913343 L654.078446,247.803032 L694.764902,223.30172 Z M669.217244,192 C669.956657,192.006392 670.646269,192.371654 671.068127,192.969283 L671.176377,193.137939 L673.77354,197.560564 C680.25258,208.624041 676.664913,222.636822 665.77862,229.106862 L665.391372,229.332067 L652.382291,236.713425 C651.31048,237.315335 649.937079,236.938398 649.309863,235.870182 C648.717493,234.861312 649.001186,233.594317 649.932825,232.94171 L650.103911,232.833099 L663.112992,225.451742 C672.033038,220.377305 675.105027,209.132445 670.106015,200.142936 L669.88998,199.764463 L667.29293,195.341408 C666.881701,194.647959 666.87318,193.794672 667.270595,193.104613 C667.668009,192.414554 668.410613,191.993201 669.217244,192 Z M743.716416,246.376711 C744.763312,245.77203 746.101962,246.130881 746.706396,247.178233 C747.275255,248.163988 746.990986,249.408296 746.08278,250.055418 L745.905236,250.169546 L740.490089,253.297375 L743.616531,258.714945 C744.007602,259.39249 744.007662,260.227294 743.616688,260.904893 C743.225715,261.582493 742.503106,262 741.721062,262 C741.004188,262 740.337207,261.649363 739.929798,261.069033 L739.825279,260.905158 L736.698837,255.487589 L731.28369,258.615418 C730.236679,259.22008 728.89795,258.861106 728.293556,257.813627 C727.724714,256.827764 728.009092,255.58338 728.917417,254.936282 L729.094984,254.82216 L734.51013,251.69433 L731.383688,246.276761 C730.785704,245.23 731.145966,243.896563 732.18963,243.293735 C733.171902,242.726368 734.411718,243.007087 735.060345,243.910365 L735.174827,244.08697 L738.301269,249.50454 L743.716416,246.376711 Z M645.655366,190.738692 C646.491751,190.686706 647.28465,191.129847 647.703588,191.883414 C648.0903,192.579015 648.097117,193.428943 647.732861,194.126788 L647.634071,194.297903 L645.23781,198.066952 C643.824715,200.29955 643.101412,202.922637 643.158183,205.586306 L643.176317,206.056715 L643.436872,210.56506 C643.486924,211.433652 643.060209,212.257089 642.334582,212.692165 C641.664771,213.093774 640.84636,213.10086 640.174394,212.722582 L640.009625,212.619989 L636.379811,210.131804 C634.230134,208.664024 631.704238,207.912847 629.139303,207.972098 L628.686331,207.990986 L624.345158,208.261608 C623.508659,208.313808 622.715557,207.870723 622.296499,207.117076 C621.909676,206.421402 621.902855,205.571334 622.267209,204.873412 L622.366025,204.702278 L624.762714,200.933348 C626.176001,198.70084 626.899331,196.077695 626.842376,193.413999 L626.824206,192.943585 L626.563225,188.435121 C626.513099,187.566402 626.939886,186.742826 627.665656,186.307744 C628.335598,185.90613 629.154146,185.899174 629.826128,186.277664 L629.990899,186.380311 L633.620285,188.868377 C635.769962,190.336157 638.295858,191.087334 640.860793,191.028083 L641.313765,191.009195 L645.655366,190.738692 Z M728.654806,201.737539 C729.491399,201.68524 730.284597,202.128374 730.703627,202.882148 C731.090425,203.57794 731.0971,204.42814 730.732536,205.126082 L730.633666,205.297217 L728.237391,209.066289 C726.823821,211.298682 726.10041,213.921901 726.15756,216.585602 L726.175766,217.056016 L726.436197,221.564302 C726.486505,222.433128 726.059765,223.256916 725.333933,223.692138 C724.663934,224.093882 723.845278,224.100865 723.173254,223.722296 L723.008473,223.619626 L719.379389,221.131245 C717.229736,219.66374 714.704002,218.912669 712.139179,218.971798 L711.686226,218.990662 L707.345194,219.261399 C706.508601,219.313698 705.715403,218.870564 705.296373,218.11679 C704.909575,217.420998 704.9029,216.570798 705.267464,215.872856 L705.366334,215.701721 L707.759586,211.933711 C709.173157,209.701318 709.896568,207.078099 709.839418,204.414398 L709.821211,203.943984 L709.56078,199.435698 C709.510473,198.566872 709.937212,197.743084 710.663045,197.307862 C711.333044,196.906118 712.1517,196.899135 712.823724,197.277704 L712.988504,197.380374 L716.617589,199.868755 C718.767155,201.33646 721.292945,202.087559 723.857794,202.028238 L724.310751,202.009338 L728.654806,201.737539 Z M529.541915,319.253 L558.747208,328.38 L523,330 L529.541915,319.253 Z M543.98363,295.533 L632.570242,323.218778 C633.04431,323.803546 633.520896,324.387685 634,324.971194 L576.282319,327.586 L532.751729,313.982 L543.98363,295.533 Z M558.424368,271.812 L606.892411,286.959811 C612.665086,296.424124 619.043392,305.737024 626.027329,314.898511 L547.191487,290.262 L558.424368,271.812 Z M572.865105,248.092 L589.319039,253.23441 C592.733741,261.255093 596.86599,269.558651 601.715786,278.145084 L602.353127,279.266 L561.633203,266.541 L572.865105,248.092 Z M582.052485,233 C583.280373,237.261159 584.738049,241.612906 586.425512,246.055241 L576.07394,242.82 L582.052485,233 Z M673.995159,161.750079 C675.511929,164.377096 675.296765,167.659091 673.450002,170.065615 C671.60324,172.47214 668.488584,173.529248 665.558451,172.743993 C661.560851,171.667865 659.188608,167.559183 660.255417,163.559235 C661.040405,160.629138 663.513252,158.460429 666.520828,158.064412 C669.528404,157.668395 672.47839,159.123063 673.995159,161.750079 Z" id="confetti"></path>
        </g>
    </g>
</svg>