<svg xmlns="http://www.w3.org/2000/svg" viewBox="0 0 24 24">
  <defs/>
  <g fill="none" fill-rule="nonzero">
    <path fill="#F95252" d="M18.42 4.2l-1.8-.57-1.98.42-2.44.83-1.79.05-3.8-.98-1.83-.25-2.72 1.2L.25 6.53.63 8 2.39 9.8l2.09.78 2.21.12 1.66-.4 1.76-1.18 1.34-.1 2.13.78 2.14.83 2.22.03 1.8-.83 1.14-1.09 1.16-1.56.05-.8-3.67-2.17zM8.7 7.3c-.1.36-.44.59-.79.7-.37.13-.77.15-1.16.15a3.23 3.23 0 01-2.16-.65c-.24-.18-.55-.43-.46-.76.06-.22.3-.2.41-.07.24-.14.48-.26.73-.36.4-.17.79-.32 1.2-.4.68-.13 1.43-.1 1.94.44.23.25.39.6.3.95zm9.22-.17c-.47.43-1.02.74-1.63.93-.54.17-1.12.23-1.67.11-.5-.1-1.16-.41-1.22-.99-.06-.56.45-1.07.96-1.22.27-.08.57-.08.85-.05l.5.04c.22 0 .44.01.67.05.58.1 1.28.3 1.58.85.05.1.04.2-.04.28z"/>
    <path fill="#FFEC8D" d="M.63 8l1.05.2 1.26.11 1.23-.23.69-.4-.73-.95.96-.48 1.18-.45 1.03-.03.85.36.6-.1 1.54-.38.95-.63L9 4.6l-1.8-.53-1.58-.35-1.4.19-1.3.75-1.52.77-.72.63-.44.45.12.75zM21.53 7.75l-1.44.14-1.92.46-1.35.6-1.38.65-.76.64 1.04.38 1.62.12 1.76-.52 1.16-.78.62-.7z"/>
    <path fill="#74DEDA" d="M14.12 4.03l.82-1.4 1.2-.93 1.1-.35.45.35 1.1-.26.65.33.02.4.87-.1.37.48.1.46h.8l.43.39-.02.56.37.29.13.48-.08.5.29.28-.03.58-.6.28-.99-.57-1.6-1.03-1.6-.69-1.27-.45-1.39.33zM6.76 1.3l.94.64L8.86 3.7l.15.92-1.8-.53-1.95-.3-2.62.79L.67 5.9l-.5-.57.19-.5.59-.17-.11-.82.64-.44.62-.11-.01-.73.63-.27.8.1.42.17.15-.74.6-.08.65.2.45.09.15-.57.41-.13z"/>
    <path fill="#CEB4F7" d="M1.98 9.35l1.08.76-.04 1.18-.01 1.67.23 6.44.05 2.8-.38.52-.71-.07-.39-.54-.1-1.4.14-6.4.02-3.96z"/>
    <path fill="#272442" d="M22.98 5.79a.73.73 0 00-.32-.63.84.84 0 00.12-.79.82.82 0 00-.53-.49.78.78 0 00-.13-.78c-.27-.34-.7-.4-1.1-.35-.02-.31-.18-.6-.43-.79a1 1 0 00-.95-.1.99.99 0 00-.66-.64c-.41-.14-.85.02-1.23.22a.92.92 0 00-.87-.33c-.49.07-.95.4-1.33.69A4.78 4.78 0 0013.96 4c-.57.25-1.14.5-1.73.66-1.03.28-2 .13-3-.2a4.89 4.89 0 00-1.6-2.88c-.4-.35-.91-.7-1.47-.54a.86.86 0 00-.62.66c-.37-.19-.77-.31-1.19-.17a.97.97 0 00-.63.7c-.42-.17-.86-.26-1.3-.05A.92.92 0 001.9 3C1.1 2.96.48 3.7.59 4.47c-.3.1-.52.34-.58.65-.05.33.1.66.36.85l-.06.08c-.25.3-.31.68-.22 1.06.17.75.75 1.48 1.28 2 .12.13.25.24.38.35-.17 3.74-.21 7.49-.27 11.23-.01.75-.12 1.7.6 2.17.66.4 1.34-.05 1.43-.75.06-.45 0-.93-.03-1.37a191.02 191.02 0 01-.19-4.29c-.03-1.08-.04-2.16-.05-3.24-.01-.93.03-1.87 0-2.8a6.37 6.37 0 005.34.02c.67-.31 1.32-.87 2.04-1.11.45-.07.92 0 1.37.13.95.3 1.79.85 2.73 1.15 1.8.58 3.74.48 5.28-.67a7.73 7.73 0 001.73-1.86c.23-.34.49-.7.64-1.07.09-.21.08-.39.02-.54.31-.07.58-.33.59-.67zM.88 4.9c.13 0 .28-.16.22-.3-.28-.69.33-1.31 1.03-1.1.2.06.36-.17.26-.34-.2-.33.16-.61.47-.64.35-.04.72.14 1.04.27.21.09.34-.18.26-.34-.16-.35.28-.57.57-.57a2 2 0 011 .4c.19.12.38-.11.29-.3-.1-.17.04-.37.21-.43.2-.08.4-.03.58.05.37.18.7.5.97.8.52.54.9 1.21 1.11 1.94l-.07-.02c-.9-.31-1.79-.68-2.74-.8-1.8-.2-3.41.77-4.83 1.77l-.5.34a.31.31 0 00-.06-.02C.26 5.45.47 4.9.88 4.9zM.8 7.74C.57 7.38.3 6.9.53 6.49c.19-.33.59-.53.88-.74 1.35-.92 2.84-1.81 4.53-1.67 1.01.09 1.96.48 2.92.75.59.17 1.19.26 1.8.27l.29.04c-.84.4-1.73.68-2.65.85a2.8 2.8 0 00-2.14-.33 3.58 3.58 0 00-.33.07c-.7.18-1.38.51-1.92.85-.11.07-.16.25-.04.35.24.2.4.5.64.71l.08.08a4.88 4.88 0 01-3.73.1L.8 7.74zm7.64-1.16c.1.14.14.32.1.5-.07.32-.33.54-.62.7a2.87 2.87 0 01-3-.31c-.2-.14-.47-.36-.6-.6.71-.35 1.43-.77 2.24-.85.68-.07 1.38.08 1.88.56zm-5.65 6.06c.01.87.02 1.75.05 2.62.06 1.76.11 3.52.2 5.29.02.41.06.84.05 1.25 0 .31-.13.83-.55.73-.76-.2-.56-1.47-.55-2.03l.04-5.29c.01-1.85 0-3.7-.04-5.55.26.2.53.38.81.54-.05.8-.01 1.63 0 2.44zm16.95-3.15c-.7.51-1.51.84-2.38.91a6.49 6.49 0 01-2.4-.3c.98-.66 2.06-1.2 3.18-1.59a13.7 13.7 0 013.16-.65c-.43.61-.95 1.19-1.56 1.63zm2-2.35l-.23.4a13.06 13.06 0 00-6.77 2.5l-.15-.06c-.98-.35-1.88-.98-2.93-1.14-.6-.1-1.29-.03-1.81.3-.24.1-.48.22-.7.36a6.05 6.05 0 01-8.06-1.36c1.21.46 2.63.39 3.78-.21a3.4 3.4 0 002.5.5c.62-.13 1.32-.44 1.57-1.07.2-.52-.02-.94-.4-1.23a8.48 8.48 0 003.06-.98c1.25-.1 2.5-.78 3.71-1.07a4.17 4.17 0 012.74.27c.9.4 1.75.94 2.6 1.45l.63.39.33.19c.09.05.23.11.3.2.12.17-.07.4-.16.56zm.5-1.1a.44.44 0 01-.13.02c-.5 0-.89-.48-1.28-.72l-1.61-.97a6 6 0 00-2.72-.97c-.79-.04-1.51.2-2.22.48a5.46 5.46 0 012.09-2.09c.18-.1.37-.2.57-.21.15-.02.41.04.43.23.03.19.2.31.39.22.28-.16.58-.33.91-.34.23-.01.69.15.6.46-.04.16.16.34.31.23.47-.31 1.1.03.93.62-.05.17.12.35.3.3.27-.09.57-.17.84-.02.22.11.36.43.1.6a.2.2 0 00.16.37c.53-.13.72.58.24.8-.2.09-.08.38.11.4.44.02.32.5-.01.6z"/>
    <path fill="#272442" d="M13.26 7.36c.25.63.94.94 1.57 1.06.69.14 1.4.05 2.04-.24.3-.13.58-.32.82-.54.24-.21.4-.5.64-.71.11-.1.07-.28-.04-.35a7.32 7.32 0 00-2.26-.93 2.8 2.8 0 00-2.03.29c-.58.26-1 .77-.74 1.42zm.5-.78a2.3 2.3 0 011.88-.56c.81.09 1.52.5 2.25.86a3.07 3.07 0 01-1.5 1.04c-.68.21-1.47.18-2.11-.15-.3-.14-.56-.36-.63-.7a.58.58 0 01.1-.49z"/>
  </g>
</svg>
