<svg xmlns="http://www.w3.org/2000/svg" viewBox="0 0 24 24">
  <defs/>
  <g fill="none" fill-rule="nonzero">
    <path fill="#74DEDA" d="M11.64 2.15L7.68 13.06 5.2 20.88l.73.63 4 1.18 1.94.12s5.06-1.18 5.11-1.25l1.28-1.48-.75-2.68-2.73-7.5-3.14-7.75z"/>
    <path fill="#FF9D7B" d="M13.5.56a.5.5 0 01.04.08c.06.17.06.38-.09.52.04-.04.23 0 .28.01a.7.7 0 01.23.2c.21.21.26.54.14.81-.15.33-.3.56-.63.72-.27.14-.58.18-.87.23-.08.01-.22.01-.27.1-.1-.23-.26-.44-.37-.66-.07-.12-.21-.54-.36-.57-.05.1-.1.2-.12.3-.06.2-.14.39-.19.59l-.3-.03-.64-.08c-.29-.05-.7-.2-.93-.39-.19-.15-.2-.46-.08-.66.1-.15.48-.41.68-.32-.16-.26-.2-.7.16-.8.25-.06.72.06.91.25.15-.15.06-.38.24-.5.25-.18.9-.2.98.2 0-.04.27-.16.3-.18.29-.1.73-.13.9.18z"/>
    <path fill="#FFEC8D" d="M11.63 6.15c.06 0 .12 0 .18.02.13.04.26.08.38.14.16.1.31.22.42.38.1.13.23.3.22.46-.02.17-.12.31-.18.46-.12.27-.27.65-.6.72-.37.1-.78-.04-1.06-.3-.22-.19-.3-.42-.43-.67-.1-.21 0-.52.13-.7.14-.22.25-.42.51-.5a.58.58 0 01.24-.01h.19zM9.27 8.9c.1 0 .2.1.26.17.13.13.24.29.31.46.1.24.1.5.11.75.02.24 0 .48-.06.72-.08.25-.2.54-.38.74-.2.21-.46.3-.74.37l-.36.11c-.06.02-.17.03-.23-.01-.11-.09.03-.4.05-.5a13.08 13.08 0 01.82-2.44c.04-.1.05-.22.08-.33M11.65 13.27c-.13-.07-.36-.03-.5 0a1.82 1.82 0 00-1.25.87c-.22.33-.25.74-.24 1.13.01.36.1.7.33 1 .22.28.51.55.88.64.37.09.77.05 1.14-.03.35-.07.64-.32.88-.56.14-.13.24-.29.3-.46.09-.23.09-.5.09-.73 0-.42-.13-.9-.41-1.22-.34-.38-.85-.76-1.38-.68M6.8 15.43c.12-.01.26.07.36.13.2.1.36.26.5.44.26.4.23.98.13 1.42-.06.23-.12.46-.23.66-.14.26-.38.45-.64.6-.22.11-.45.25-.68.34-.12.04-.32.1-.45.05 0-.15.06-.33.11-.47.14-.42.23-.86.4-1.27.12-.3.21-.6.33-.91.1-.28.13-.57.2-.85M8.44 22.14c.06-.07.1-.2.15-.29.16-.27.36-.51.58-.73.32-.3.73-.49 1.17-.53.8-.1 1.64.07 2.37.41.3.14.58.29.74.59.1.2.24.39.32.6.04.1.06.17-.04.26-.2.16-.54.21-.78.27-.75.15-1.53.2-2.29.1-.53-.06-1.02-.27-1.55-.34-.13-.02-.27-.03-.4-.1a.94.94 0 01-.27-.24zM16.77 15.47c-.25-.06-.56.08-.78.18-.28.13-.55.3-.72.56a2.6 2.6 0 00-.37 1.91c.12.66.73 1.06 1.32 1.27.3.1.69.11 1 .06.16-.02.3-.05.45-.1.09-.04.26-.1.3-.19.03-.05.01-.1 0-.15l-.15-.42c-.07-.18-.16-.35-.24-.52-.1-.23-.16-.47-.26-.7-.15-.36-.24-.72-.34-1.1-.06-.22-.1-.47-.2-.67M14.25 8.87c-.23.08-.46.19-.63.37-.2.2-.29.53-.36.8-.07.29-.07.6.02.89.1.3.3.56.54.76.24.2.47.45.78.5.2.04.37-.02.56-.07.08-.03.2-.04.27-.1.06-.06.04-.18.04-.25-.02-.16-.08-.31-.13-.46l-.2-.59c-.16-.37-.33-.75-.47-1.13-.11-.3-.2-.6-.38-.86"/>
    <path fill="#272442" d="M18.22 18.88l-1.81-5.26A228.57 228.57 0 0012.54 3.3h.07c.74-.15 1.66-.42 1.78-1.3a.93.93 0 00-.66-1 .7.7 0 00-.14-.7c-.3-.34-.8-.26-1.1 0a.9.9 0 00-.96-.26c-.26.1-.46.31-.54.58-.34-.2-.77-.26-1.09.04a.67.67 0 00-.16.74.96.96 0 00-.58.27c-.2.2-.3.54-.14.8.17.3.55.36.85.42.41.08.82.15 1.24.2l-.25.63L10.33 5a147.3 147.3 0 00-2.9 7.96c-.59 1.77-1.08 3.58-1.7 5.34-.15.45-.25.94-.42 1.39-.16.4-.38.74-.29 1.2.15.74 1.03 1.02 1.64 1.25a13.89 13.89 0 009.53.01c.66-.24 1.46-.5 1.97-1.03.25-.25.4-.6.4-.95 0-.44-.2-.87-.34-1.28zm-1.2-1.8l.72 2.1c-.26.1-.5.2-.78.21a1.85 1.85 0 01-1.92-1.4 1.94 1.94 0 011.5-2.35l.49 1.44zm-1.77-5.16c-.83.31-1.6-.4-1.82-1.17-.19-.67.12-1.48.8-1.68l1.02 2.85zM9.67 2.44c-.22-.06-.44-.19-.28-.44.15-.25.51-.27.78-.23h.08c.23-.01.31-.34.06-.41-.25-.07-.2-.37.01-.46.26-.11.52.07.67.26.15.2.44.09.4-.16-.11-.58.66-.78.9-.27.06.13.27.12.34 0 .1-.2.44-.38.65-.2.12.12.13.4-.03.5a.77.77 0 00-.08.03c-.2.1-.06.45.16.37l.04-.02c.2-.1.4-.02.53.14.15.2.12.45 0 .65-.27.48-.85.6-1.35.63a.24.24 0 00-.17.08c-.14-.34-.3-.68-.45-1-.09-.19-.33-.11-.39.04-.1.28-.2.56-.32.84-.51-.13-1.03-.22-1.55-.35zM9.4 8.99c.44.45.64 1.16.47 1.76-.2.7-.82 1.13-1.5 1.25L9.4 8.99zM6 18.9c.31-1.08.68-2.16 1.07-3.23.65.33.83 1.2.55 1.87a2.6 2.6 0 01-1.64 1.41L6 18.9zm2.66 3.24a3 3 0 012.59-1.47 2.83 2.83 0 012.12 1.05c.13.16.22.35.32.52-1.67.28-3.38.25-5.03-.1zm9.15-1.46c-.21.24-.5.39-.79.52-.92.44-1.9.76-2.9.96a3.3 3.3 0 00-1.13-1.3c-.5-.34-1.1-.54-1.7-.56a3.2 3.2 0 00-2.93 1.77 12.13 12.13 0 01-1.5-.46c-.34-.12-.7-.25-.99-.46-.33-.24-.35-.57-.25-.95l.23-.82a2.9 2.9 0 002.19-1.8c.29-.83-.06-1.86-.87-2.2l.56-1.56.5-1.41c.9.03 1.76-.72 1.98-1.56A2.1 2.1 0 009.5 8.7c.57-1.68 1.17-3.35 1.71-5.03l.02-.06.5-1.06c.56 1.5 1.18 2.98 1.75 4.48l.67 1.8c-.8.22-1.22 1.1-1.05 1.93.21 1 1.24 1.91 2.3 1.53l1.07 3.14a2.18 2.18 0 00-.53 4.13c.55.24 1.38.32 1.93-.03l.02.06c.12.37.2.76-.07 1.08z"/>
    <path fill="#272442" d="M12.85 6.8a1.22 1.22 0 00-1.64-.76 1.3 1.3 0 00-.26 2.19c.28.2.63.29.98.22.74-.15 1.15-.95.92-1.65zm-.3.7c-.23.71-1.19.88-1.63.3-.14-.2-.2-.45-.2-.7.05-.3.23-.56.5-.72.1-.05.2-.08.32-.09.65-.06 1.21.57 1 1.21zM13.45 14.34a2.16 2.16 0 00-2.78-1.15 2.11 2.11 0 00-1.21 1.88c-.01.18 0 .37.05.55a2.14 2.14 0 002.62 1.47 2.17 2.17 0 001.32-2.75zm-1.12 2.23c-.8.51-1.92.12-2.38-.67-.39-.7-.17-1.52.36-2.06l.23-.17c.74-.45 1.85-.2 2.33.53.5.75.21 1.88-.54 2.37z"/>
  </g>
</svg>
