<svg xmlns="http://www.w3.org/2000/svg" viewBox="0 0 24 24">
  <defs/>
  <g fill="none" fill-rule="nonzero">
    <path fill="#CEB4F7" d="M7.69 4.51c0-.65-.05-1.07-.85-1.07-.46 0-.9.18-1.32.34-.26.11-.57.15-.81.3-.1.05-.17.13-.26.17-.15.07-.3.1-.44.2a1.4 1.4 0 00-.42.46 2.72 2.72 0 00-.24 1.52c.01.2.04.38.01.59-.03.27-.07.57 0 .84.13.54.8.6 1.27.5.12-.02.32-.16.42-.15.14.01.3.19.46.22.5.1.57-.24.92-.44.13.23.36.3.61.31.45.02.65-.34.74-.73.07-.35.06-.7.04-1.05-.07-.92.06-1.95-.26-2.83"/>
    <path fill="#FFEC8D" d="M3.53 9.63c.07.33.44.45.74.48.41.04.8-.07 1.08-.37.12.18.23.38.47.46.39.13.8-.23 1.12-.39.15.33.93.56 1.06.1.03-.1-.04-.31-.05-.42-.05-.26-.15-.52-.22-.78s-.06-.56-.16-.8c-.2.2-.29.43-.64.4-.25-.03-.44-.33-.65-.36.02.32-.35.55-.64.55a.6.6 0 01-.44-.17c-.07-.07-.1-.18-.19-.23-.3.65-1.08.33-1.54.04 0 .46-.1.93.06 1.49z"/>
    <path fill="#FF9D7B" d="M3.13 5.22c-.27.05-.6.23-.74.29-.3.13-.71.27-.94.52-.31.36-.27.97-.22 1.42.04.4.17.63.48.87.31.22.64.42.99.58.16.07.37.18.5.02.1-.14.08-.35.1-.52.04-.26.02-.48 0-.74-.01-.28.04-.56.02-.84-.02-.27-.05-.58.02-.84.04-.18.14-.34.15-.53.02-.24-.14-.27-.36-.23z"/>
    <path fill="#F95252" d="M6.15 3.76c-.07-.15.12-.6.13-.79.02-.39.1-.78.22-1.15.12-.34.27-.68.43-1 .06-.12.1-.25.24-.2.16.06.2.34.25.47.12.3.19.6.2.92.02.31.01.64.06.95.04.19.07.42 0 .6-.1-.05-.3-.05-.41-.06-.4-.04-.79.05-1.12.26z"/>
    <path fill="#F95252" d="M5.03 1.15c-.15.45-.1 1.02-.1 1.48 0 .37.01.74.05 1.1.03.26.08.24.33.2.27-.05.55-.08.83-.08.05-.47.07-.94.06-1.4 0-.27-.22-.51-.37-.74-.17-.25-.36-.65-.8-.56zM3.42 9.7c.02 0 .05 0 .08.02.2.13.38.27.6.37.16.07.33.19.5.19.2 0 .83-.19.86-.42 0 .3.51.4.74.4.32 0 .56-.2.75-.44.05.21.36.4.57.42.18.02.35-.05.47-.18.09-.1.08-.13.18-.16.16-.06.52 0 .7 0h1.25c.5-.01 1.04-.12 1.52-.04.49.09 1-.03 1.5-.04.68 0 1.37.05 2.06.08.65.03 1.67-.17 1.85.67.06.3.13.61.12.92-.02.38-.23.57-.57.68-.57.2-.97-.19-1.31-.57-.12.55-.75.89-1.27.74-.1-.03-.84-.43-.8-.52-.21.42-1.13.83-1.55.6-.24-.14-.38-.42-.61-.57-.21.32-.56.52-.94.54-.2.01-.34.07-.53 0-.18-.06-.23-.18-.34-.32-.1-.11-.1-.13-.22-.07-.19.08-.33.27-.52.36-.62.3-1.22.02-1.58-.53-.09.44-.86.69-1.25.58-.27-.08-.3-.16-.5-.33-.08-.08-.2-.14-.26-.23-.19.52-.71.44-1.14.37-.1-.01-.24-.02-.32-.08-.14-.11-.12-.41-.14-.57a6.7 6.7 0 010-1.27c.02-.12-.06-.6.1-.6z"/>
    <path fill="#74DEDA" d="M3.29 12.76c.05.36-.15.84 0 1.17.1.22.32.37.52.48.24.12.47.2.73.2.45 0 .72-.22 1.03-.5.13.24.5.47.76.5.5.06.96-.17 1.32-.48.22.34.56.43.94.44.43.02.66-.32.94-.56.23.27.42.58.81.65.24.05.5-.05.68-.2.06-.06.19-.28.26-.31.1-.04.25.13.31.2.18.19.29.26.54.3.3.05.62.1.91-.02.21-.1.33-.28.46-.44.2.28.5.43.85.38.2-.03.38-.11.54-.22.15-.1.18-.27.29-.39.06.05.06.13.09.2a.6.6 0 00.25.26c.22.14.47.18.72.2.28 0 .56-.06.67-.32.08-.2.08-.38.1-.57.04-.23.09-.43.09-.66 0-.26.1-.63 0-.88-.1-.24-.2-.12-.37-.03-.6.34-1.12-.17-1.54-.54-.2.37-.5.74-.96.77-.25.02-.42-.08-.62-.23-.07-.06-.26-.3-.33-.3-.12-.01-.3.26-.4.33a2.1 2.1 0 01-.76.26c-.25.05-.48.08-.68-.1-.18-.16-.21-.43-.39-.58-.16.09-.29.31-.45.43-.2.16-.43.26-.68.3-.43.05-.63-.27-.74-.62-.08 0-.12.07-.17.11-.14.14-.27.28-.45.37a.97.97 0 01-.81.05c-.22-.08-.46-.2-.6-.38-.08-.1-.1-.22-.2-.2-.03.01-.18.24-.21.27-.08.07-.16.12-.24.16a1.9 1.9 0 01-.52.15.89.89 0 01-.66-.11c-.14-.1-.24-.36-.4-.39-.1.38-.55.53-.9.5-.29-.03-.4-.25-.65-.3-.08.2-.1.43-.08.65z"/>
    <path fill="#FF9D7B" d="M3.27 15.51c.1.27.14.54.3.78.16.2.38.37.62.45.26.1.55-.01.77-.16.12-.09.2-.21.32-.29.04.27.28.43.53.5.2.05.45.08.65 0 .21-.1.31-.37.5-.44.13.13.19.24.35.34.2.13.42.22.65.24.45.05.84-.13 1.1-.49.16.33.6.51.95.5.25-.02.51-.11.74-.22.18-.1.3-.26.46-.36.36.5.92.71 1.53.43.14-.07.34-.39.49-.35.08.02.16.16.23.2.14.08.29.12.44.13.4.03.54-.27.85-.42.12-.06.17-.02.3.03.23.1.43.18.69.16.6-.06.8-.54.97-1.05.1-.3.32-.76.2-1.08-.38.14-.84.36-1.25.2-.29-.13-.4-.44-.55-.68-.17.3-.4.63-.77.68-.22.03-.49 0-.66-.14-.11-.1-.13-.25-.2-.37-.14.03-.25.26-.38.36-.22.15-.5.23-.77.23-.46 0-.7-.3-.9-.69-.08.1-.11.25-.2.35-.15.19-.36.24-.6.26a1.1 1.1 0 01-.75-.18c-.17-.13-.23-.36-.39-.47-.13.13-.2.29-.36.4a.95.95 0 01-.6.2c-.22 0-.4-.11-.56-.27-.07-.07-.2-.33-.3-.32-.05.01-.1.13-.13.16-.1.13-.21.25-.35.35a.9.9 0 01-.65.2c-.3-.03-.64-.1-.87-.29-.1-.1-.17-.23-.3-.31-.17.13-.26.36-.45.49-.23.16-.56.26-.82.14-.3-.12-.53-.43-.84-.5.04.39.04.8.01 1.3z"/>
    <path fill="#F95252" d="M4.19 18.09c0 .4.01.83.43 1.02.22.1.47.09.68-.02.1-.06.25-.27.34-.28.1-.02.15.1.22.16.43.36.97.26 1.41-.02.28-.17.26-.47.25-.77-.02-.3-.08-.6-.1-.91-.02-.23 0-.68-.19-.84-.28-.23-.62.3-.9.36a.84.84 0 01-.66-.1c-.07-.03-.15-.08-.21-.14-.05-.04-.12-.2-.17-.22-.12-.06-.22.16-.33.23-.19.14-.38.17-.6.18-.02.5-.16 1-.17 1.35zM13.05 16.62c-.04.17 0 .37-.02.54l-.03.76c-.02.28-.04.6.05.87.23.74 1.43.43 1.8-.02.15.46.93.5 1.25.2.32-.3.26-.68.24-1.08-.02-.4-.1-.78-.32-1.14-.13-.21-.3-.04-.52-.04a.84.84 0 01-.51-.13c-.06-.04-.2-.2-.27-.2-.1-.02-.1.05-.18.13a.95.95 0 01-.45.28c-.33.1-.77.07-1.04-.17z"/>
    <path fill="#CEB4F7" d="M4.08 19.38c-.07.5-.12 1-.15 1.51 0 .2-.03.41 0 .62.02.14 0 .16.16.2.28.1.6.08.9.1.3.02.61.03.93.03.43 0 .96.02 1.37-.12.02-.54 0-1.08-.03-1.62a3.03 3.03 0 00-.14-.92c-.25.19-.5.15-.78.08-.31-.06-.39-.34-.65-.5-.06.3-.67.4-.9.42-.34.02-.46-.17-.66-.4-.02.16.03.38-.05.6zM16.4 18.96c-.34.08-.7.24-1.05.14-.22-.06-.39-.22-.57-.33-.14.27-.58.4-.85.38-.34-.02-.6-.25-.92-.34 0 .3-.08.6-.13.9-.06.4.05.82.02 1.22 0 .14-.11.4.01.47.06.04.3-.02.36-.02.25-.03.5-.04.74-.05h1.22c.29 0 .6.05.9.02.16-.03.2-.09.23-.26.04-.21.04-.45.04-.66 0-.25 0-.5-.03-.76-.01-.14-.05-.27-.02-.41"/>
    <path fill="#7C7C7C" d="M4.7 22.71c.4.05.8.14 1.2.15.1 0 .28 0 .35-.03.07-.03.42-.02.5-.03.13-.01.2-.08.3-.1.32-.08.17-.38.17-.69 0-.07.01-.17-.05-.2-.1-.06-.45 0-.52 0-.32.04-.6.06-.93.03a8.17 8.17 0 00-.95-.03c-.28 0-.59-.04-.87-.01.12.37.35.85.8.91zM16.08 21.29c-.7-.02-1.4.08-2.12.09-.23 0-.46.03-.69.05-.16.02-.38-.02-.52.04.06.26.05.55.27.73.4.34 1.17.22 1.65.24.38.02.77.07 1.14.04.3-.03.59-.03.63-.35.03-.27-.05-.65-.36-.84z"/>
    <path fill="#FFEC8D" d="M19.6 5.76c.3.06.12.77.08.97l-.12.56c-.05.23-.07.5-.17.72.15-.32 1.38-1.03 1.53-.5.07.24-.16.46-.28.63-.13.18-.3.47-.5.58.25-.04 1.12-.2 1.02.26-.04.2-.2.5-.38.6-.12.09-.25.14-.39.17-.07.02-.17.01-.23.05.08.12.23.21.28.36.05.15 0 .3-.09.43-.15.2-.34.22-.56.31-.16.06-.37.13-.33.32.03.14.1.26.01.4-.09.15-.33.22-.48.26-.27.07-.68.14-.95.06-.2-.06-.41-.17-.6-.27-.2-.1-.3-.14-.37-.36-.06-.21-.07-.43-.1-.65-.01-.22-.1-.4-.17-.62-.05-.11-.05-.11.08-.18.2-.1.35-.16.5-.35.11-.13.2-.27.28-.43.18-.34.26-.66.34-1.04.1-.45.22-.89.39-1.32.16-.41.45-1 .97-.98l.25.02z"/>
    <path fill="#272442" d="M21.42 9.04a.57.57 0 00-.4-.53.89.89 0 00-.43 0c.46-.42.96-1.04.4-1.31-.29-.15-.68.03-.95.16-.15.07-.28.16-.41.26l.15-.63c.07-.33.2-.7.16-1.04-.04-.28-.26-.48-.55-.46-.32.02-.56.26-.73.5-.46.62-.56 1.4-.75 2.12-.18.67-.51 1.4-1.21 1.61-.2-.1-.4-.15-.63-.16-.46-.03-.94.01-1.4.02l-1.52.02-3.05.05c-.49.01-.98.03-1.46.02-.16 0-.34 0-.47-.1-.17-.1-.15-.34-.16-.52l-.02-3-.03-1.68c0-.2 0-.39-.04-.58a7.76 7.76 0 00-.2-2.45c-.1-.4-.28-.8-.39-1.2-.03-.13-.22-.2-.32-.08-.2.22-.3.55-.42.83a8.92 8.92 0 00-.4 1.24c-.26-.5-.59-.99-1.01-1.37C5.03.62 4.82.72 4.8.9c-.09.95-.13 1.9-.06 2.85-.3.06-.6.17-.85.35-.33.23-.52.56-.63.93-.49.21-1.05.2-1.52.46-.52.28-.7.8-.74 1.35-.03.55-.05 1.21.4 1.61.45.4 1.1.4 1.6.71l.02.02L3 11.76l-.03 2.11c-.02.64-.09 1.33.12 1.94.17.5.59.98 1.13 1.09a55.38 55.38 0 00-.37 3.06L3.7 21.6c-.03.42.03.87.4 1.14.33.25.78.26 1.19.28.47.02 1 .06 1.46-.03.43-.09.65-.4.7-.82.06-.54.05-1.09.08-1.63.05-1.16.11-2.32.1-3.48a.9.9 0 00.27.08c.4.05.78-.1 1.05-.37.66.6 1.66.6 2.28-.05.24.27.58.46.94.46.24 0 .47-.06.66-.2a31.83 31.83 0 00-.24 4.66c0 .41.1.84.48 1.06.39.21.91.16 1.34.16.47 0 1.01.08 1.48-.04.45-.12.64-.49.68-.92.05-.52.05-1.05.05-1.58 0-1.2-.07-2.44-.32-3.62.11-.06.22-.13.31-.2.61-.55.64-1.6.71-2.35.07-.77.08-1.54.04-2.31.35.23.77.36 1.2.38.42.01 1.07-.15 1.12-.67 0-.09-.07-.3-.03-.36.05-.06.22-.06.29-.07a.94.94 0 00.6-.32c.21-.27.23-.64.03-.92.45-.08.86-.3.85-.82zM3.18 5.48c-.09.65-.07 1.32-.1 1.98l-.03 1.22c-.39-.18-.83-.23-1.2-.45-.48-.28-.45-.92-.43-1.42.03-.56.29-.94.84-1.12.31-.1.64-.17.93-.31l-.01.1zM7.8 9.9c-.21.17-.56.11-.6-.22-.01-.15-.2-.27-.32-.14-.17.2-.38.4-.64.46-.23.05-.55-.06-.59-.33-.02-.19-.25-.27-.36-.1a.94.94 0 01-1.67-.17.14.14 0 00-.04-.05V8.3a1.02 1.02 0 001.46 0c.17.22.44.35.72.33a.84.84 0 00.67-.41c.3.27.76.3 1.08.02v.48c0 .35-.04.77.19 1.07l.1.11zM6.66 1.98l.31-.86.2-.43A7.15 7.15 0 017.6 3.3l-.01-.02c-.39-.2-.93.05-1.32.2.14-.5.24-1.02.4-1.5zm-1.5-.62c.36.35.68.71.94 1.14-.08.35-.12.7-.1 1.07l-.26.08-.6.04a9.62 9.62 0 01.03-2.33zM3.59 5.79c.03-.54.2-.94.65-1.24.48-.32 1.06-.43 1.63-.53.39-.07.76-.32 1.17-.3.57.01.43.49.43.92v.3L7.49 6c0 .52.18 1.33-.1 1.8-.2.34-.68.4-.86 0-.06-.14-.28-.1-.31.04-.13.53-.8.6-1.02.1-.05-.12-.23-.1-.28 0a.75.75 0 01-1.32-.02v-.37c-.02-.59-.04-1.18-.01-1.76zm-.02 5.52l.02-1.43c.43.57 1.3.67 1.83.17.16.22.42.36.7.38.33.01.63-.14.85-.37.28.39.9.45 1.22.04.1.03.22.05.33.05.42.03.85 0 1.27-.01l1.38-.03 2.72-.06 1.39-.03c.35 0 .75-.04 1.09.08.38.15.38.6.42.95.03.26.05.53.06.8a1.05 1.05 0 01-1.53-.41c-.07-.14-.31-.1-.35.05a.85.85 0 01-.62.65.76.76 0 01-.87-.43c-.06-.15-.2-.19-.33-.09-.32.26-.69.57-1.11.6-.32.04-.73-.16-.73-.53 0-.15-.2-.25-.31-.13-.25.3-.54.62-.93.7-.31.08-.77-.1-.73-.47.02-.19-.27-.25-.35-.1-.42.75-1.47.73-1.83-.05-.05-.12-.27-.12-.32 0-.33.73-1.33.8-1.7.06-.07-.14-.25-.08-.3.04-.24.57-.95.56-1.28.17v-.6zM6.9 22.39c-.1.15-.32.15-.48.16-.25.02-.5.02-.74.02-.37 0-.81.03-1.17-.11-.26-.11-.34-.34-.35-.6.94.16 1.89.23 2.83.12 0 .15-.01.3-.1.4zm.16-2.73l-.05 1.47-.01.47c-.95.06-1.9.1-2.84 0l.01-.18a195.03 195.03 0 01.16-2.38c.12.19.32.32.54.35.33.05.64-.13.86-.37.33.4.88.51 1.35.3l-.02.34zm.03-.8c-.18.1-.34.19-.56.17a.77.77 0 01-.63-.42.19.19 0 00-.33 0c-.12.22-.32.42-.57.46-1.09.17-.44-2.15-.55-2.15.32 0 .63-.16.83-.41.2.27.5.45.85.48.37.03.73-.16.95-.45l.16.21c-.08.7-.12 1.4-.15 2.12zm5.94 1.1c0-.31 0-.63.02-.94.48.47 1.29.45 1.77-.06.35.31.84.46 1.28.34l.01.2c.02.48.03.96.02 1.44v.16c-.51-.04-1.05.03-1.56.05-.5.01-1.01.04-1.52.07-.01-.42-.02-.83-.01-1.25zm.03-1.48l.08-1.67c.18.16.4.25.64.26.43.02.8-.25 1.1-.52.3.19.63.28.97.25.09.7.17 1.4.22 2.1-.39.11-.84.01-1.1-.32-.08-.12-.24-.14-.33 0a.9.9 0 01-1.58-.1zM16 22.2c-.11.15-.31.17-.48.18h-.72c-.41 0-.88.05-1.29-.05-.4-.09-.43-.46-.45-.8h1.56c.49 0 1 .04 1.5-.01v.05c-.02.2 0 .46-.12.64zm.63-6.9c-.08.37-.23.78-.59.96-.3.17-.77.14-1.03-.1-.05-.07-.17-.1-.24-.04-.26.2-.51.4-.84.45-.22.05-.53 0-.62-.25-.06-.16-.29-.21-.38-.05-.33.57-1.18.5-1.5-.03-.08-.15-.27-.13-.37 0a1.2 1.2 0 01-1.9 0c-.12-.14-.34-.17-.45 0-.34.57-1.24.52-1.46-.13-.04-.13-.24-.18-.31-.04a.84.84 0 01-.78.5.73.73 0 01-.7-.59c-.05-.2-.36-.18-.4 0-.12.45-.67.53-1 .28-.4-.3-.5-.86-.53-1.34l-.01-.54c.21.25.5.4.83.45.46.04.92-.16 1.2-.53.28.33.72.55 1.16.52.4-.03.77-.24 1-.57.22.32.56.54.96.54.37 0 .72-.19.93-.5.2.32.52.54.9.55.4.01.75-.18.96-.5.23.3.54.54.96.56.42.03.8-.19 1.04-.51.25.25.6.4.96.37.33-.04.62-.23.79-.51.18.26.45.45.76.52.27.05.54.01.78-.11-.03.22-.07.43-.12.65zm.18-1.18c-.45.45-1.3.33-1.46-.35-.04-.18-.3-.17-.34 0-.2.67-1.1.89-1.41.18-.06-.12-.26-.11-.32 0a1 1 0 01-.86.56c-.37.01-.76-.25-.82-.63-.03-.2-.28-.14-.34 0-.14.32-.39.58-.75.59-.35 0-.7-.27-.73-.63a.19.19 0 00-.36-.05.87.87 0 01-.75.61.74.74 0 01-.78-.57c-.04-.15-.27-.2-.34-.05-.37.77-1.45.88-1.86.08-.06-.11-.25-.12-.31 0-.19.38-.58.65-1 .63a1.08 1.08 0 01-.87-.54c0-.55.02-1.1.03-1.64.13.1.29.18.46.2.4.07.76-.1 1-.41.5.63 1.5.64 2 0 .25.33.63.53 1.05.55.4.01.78-.15 1.04-.45.18.28.48.45.81.47.47.03.85-.26 1.14-.6.16.3.47.49.82.53.52.07.98-.22 1.37-.55.26.34.68.55 1.12.5.36-.06.68-.29.85-.62.42.46 1.1.6 1.66.34v.12c.02.58 0 1.15-.04 1.73zm3.3-4.58c-.23 0-.24.29-.05.36a.38.38 0 01.19.54c-.1.17-.26.2-.43.23-.3.05-.63.19-.6.55 0 .2.08.33-.14.43a1.2 1.2 0 01-.57.07c-.44-.03-.86-.2-1.2-.5l-.01-.04c-.04-.4-.05-.88-.3-1.21 1.05-.43 1.27-1.8 1.55-2.8.09-.3.2-.62.38-.9.1-.16.64-.73.71-.23.05.33-.1.73-.18 1.04-.09.37-.2.74-.34 1.1-.07.17.19.31.3.18.32-.37.75-.7 1.24-.8.03 0 .1-.03.14-.01.08.04-.01.16-.04.2a2.75 2.75 0 01-.85.82c-.12.08-.11.3.05.34.19.04.36.02.55-.02.17-.03.47-.13.53.1.13.5-.63.54-.93.55z"/>
    <path fill="#272442" d="M2.3 6.66c-.04-.15-.12-.23-.26-.12a.73.73 0 00-.26.75c.03.13.12.26.26.26.07 0 .14-.05.2-.11.1-.12.14-.54.07-.78zM4.94 5.8c-.48-.03-.86.46-.64.9.06.13.27.1.3-.03.01-.15.14-.38.32-.37.18 0 .23.2.23.35 0 .2.32.33.42.11.18-.43-.16-.95-.63-.97z"/>
  </g>
</svg>
