<svg xmlns="http://www.w3.org/2000/svg" viewBox="0 0 24 24">
  <g fill="none" fill-rule="nonzero">
    <path fill="#D1632E" d="M10.04.52C9.75.47 9.4.5 9.17.53c-.97.1-1.88.5-2.72.97-.7.38-1.38.81-2.02 1.3-.37.29-.73.6-1.1.88-.32.22-.5.62-.39 1 .06.19.2.34.31.5.2.3.34.54.68.69.36.14.7-.01 1-.21.28-.2.55-.39.82-.6.31-.26.7-.37 1.03-.6.3-.2.59-.44.9-.64.3-.2.63-.34.95-.5.46-.23 1-.27 1.44-.56.35-.23.42-.55.43-.95.01-.24-.02-.48-.03-.72 0-.16 0-.36-.14-.47a.67.67 0 00-.29-.1zM13.33.2c-.21.16-.34.45-.45.7-.13.25-.28.5-.36.78-.08.28-.22.6.04.8.2.16.48.22.72.33l1.1.53c.64.34 1.26.73 1.86 1.13.2.13.35.3.53.45.32.26.62.55.94.81.23.2.38.3.69.33.37.02.78-.14 1.1-.34.51-.33.8-.86.42-1.4-.16-.23-.37-.5-.6-.66-.23-.16-.42-.37-.64-.56l-.64-.55c-.49-.44-1.12-.64-1.61-1.07-.25-.2-.62-.3-.92-.43-.31-.16-.62-.32-.95-.46a5.1 5.1 0 00-1.23-.4zM20.01 7.93c.05.1.03.2.03.3l.03.68c0 .46.06.9.06 1.36 0 .71.07 1.43.03 2.14-.03.64-.06 1.24-.18 1.86-.1.56.16.92.59 1.24.2.16.37.3.64.34.28.04.42-.13.57-.35.5-.73.88-1.56.97-2.44.16-1.43.19-2.82 0-4.25-.05-.3-.15-.6-.3-.87-.07-.15-.12-.28-.27-.35-.27-.12-.65-.07-.94-.08-.27 0-.93-.02-1.23.42zM18.23 16.9c-.64.56-1.34 1.05-2.09 1.45-.71.38-1.42.8-2.18 1.06-.57.2-1.14.25-1.35.9-.17.5-.12 1.15.1 1.63.29.62 1.53.27 2 .12.5-.17.92-.47 1.39-.7.59-.3 1.15-.6 1.72-.92a8.92 8.92 0 001.84-1.36c.16-.17.25-.34.36-.54.18-.28 0-.42-.15-.68a7.8 7.8 0 00-.43-.68c-.14-.19-.3-.43-.54-.46-.22-.02-.51.02-.67.18zM3.67 16.8c-.55.26-1.28.65-1.17 1.36.06.4.42.7.7.97.25.23.45.46.74.65.33.21.61.47.93.69.5.34 1.04.62 1.56.94.53.33 1.03.61 1.63.82.37.13.85.35 1.25.2.64-.25.65-1.1.83-1.65.06-.2.12-.26-.04-.41a2.65 2.65 0 00-1.03-.57c-.4-.13-.78-.34-1.16-.52a5.9 5.9 0 01-.83-.48c-.17-.11-.29-.28-.45-.4l-1.5-1.06c-.39-.29-.86-.77-1.46-.54zM1.32 7.08l-.4.98c-.14.32-.3.62-.37.96l-.14.8c-.06.35-.17.72-.2 1.07-.01.33.02.67.02 1 0 .76.1 1.51.08 2.27-.02.72.45 1.16 1.14 1.2.29.01.58 0 .87-.04.2-.04.48-.04.6-.22.14-.19.14-.56.13-.79-.02-.63-.16-1.23-.22-1.86-.08-.82.04-1.65.15-2.45l.23-1.5c.04-.3.02-.6-.17-.86-.36-.5-1.09-.89-1.72-.56z"/>
    <path fill="#FFEC8D" d="M4.8 5.86c.42-.6 1.2-.97 1.82-1.33.52-.3 1.02-.64 1.55-.94a9.96 9.96 0 012.1-.92c.02.35-.06.7-.02 1.05l.22 1.75c.07.57.12 1.15.22 1.72.09.56.24 1.13.25 1.72 0 .3.18.8-.1 1.02-.24.2-.71.2-1 .07-.5-.22-.83-.72-1.26-1.06-.49-.38-.92-.81-1.42-1.18-.52-.38-.97-.9-1.56-1.19a3.45 3.45 0 01-.88-.6c.07-.12.22-.22.09-.11zM12.87 2.72c-.17.35-.17.83-.24 1.21-.08.44-.17.88-.28 1.31-.18.8-.3 1.6-.45 2.4-.05.3-.06.61-.12.92-.05.28-.15.61-.11.9.09.64.7.57 1.13.33.82-.45 1.5-1.12 2.28-1.63.7-.46 1.45-.87 2.16-1.33.27-.17.6-.3.84-.53.15-.14.08-.22-.04-.4-.2-.28-.46-.41-.73-.6-.3-.2-.54-.45-.83-.65-.33-.22-.7-.32-1.03-.52-.3-.18-.6-.4-.92-.56-.31-.16-.65-.3-.96-.49-.17-.1-.55-.25-.7-.36zM13.1 11.35c.16-.62 1.08-.87 1.61-.99.87-.2 1.67-.59 2.49-.93.41-.17.83-.33 1.25-.48l.7-.29c.2-.08.44-.29.65-.3.32-.02.3.38.31.6.01.35.04.74.1 1.1.1.79.05 1.61-.04 2.4-.07.66-.12 1.34-.34 1.96-.03.09-.03.24-.1.29-.12.07-.38-.08-.47-.13-.28-.13-.51-.34-.81-.45-.32-.11-.6-.27-.92-.41-.6-.28-1.22-.52-1.82-.8-.3-.15-.6-.36-.91-.48l-.75-.3c-.21-.08-.46-.17-.61-.36-.14-.17-.12-.36-.33-.43zM12.37 12.49c-.3.04-.38.63-.4.83-.03.47.1.9.16 1.36.12.78.3 1.56.34 2.35.05.7.15 1.39.18 2.09.01.19-.11.81.06.93.16.12.73-.32.88-.39.63-.3 1.26-.64 1.89-.96.44-.23.9-.45 1.33-.71.32-.2.61-.42.92-.64.11-.09.42-.26.47-.4.1-.25-.45-.64-.6-.79-.43-.41-.94-.69-1.41-1.04-.62-.46-1.18-.99-1.76-1.5-.28-.26-.59-.5-.91-.7-.27-.16-.6-.43-1.15-.43zM10.17 12.62c-.47.17-.94.53-1.29.88-.53.5-1.1.87-1.69 1.3-.57.42-1.11.87-1.72 1.22l-.73.4c-.13.06-.29.1-.4.17.08.08.13.18.2.27.2.2.42.33.64.5.45.34.78.82 1.24 1.16.86.64 1.76 1.07 2.76 1.43.13.04.28.1.42.11.13.01.07.05.15-.06.1-.11.15-.45.2-.6.06-.25.09-.5.13-.76.1-.52.04-1.04.12-1.55.08-.55.14-1.14.26-1.68.14-.6.3-1.3.26-1.93-.03-.3-.15-1-.55-.86zM3.56 8a2.27 2.27 0 00-.18-.07 9.7 9.7 0 00-.44 2.5c-.05.84-.1 1.7-.06 2.54.01.27.13.49.17.74.04.27-.04.74.39.69.2-.03.39-.2.57-.27l.79-.3c.84-.34 1.73-.59 2.59-.86.64-.2 1.28-.51 1.87-.81.38-.19.52-.6.25-.95-.16-.2-.36-.26-.58-.38-.35-.18-.72-.34-1.08-.52-.44-.21-.89-.4-1.33-.59-.38-.16-.79-.27-1.16-.45l-.56-.26c-.16-.08-.26-.22-.39-.35A3.56 3.56 0 003.56 8z"/>
    <path fill="#F95252" d="M8.26 5.4a.68.68 0 00-.16-.3.58.58 0 00-.2-.13.47.47 0 00-.58-.02.7.7 0 00-.15.13c-.16.15-.28.33-.35.53-.14.4.04.82.48.88a.8.8 0 00.18.01h.02c.14.05.3.03.42-.05a.57.57 0 00.3-.26.89.89 0 00.04-.8zM15.23 5.12a.66.66 0 00-.23-.44.78.78 0 00-.44-.37.78.78 0 00-.9.29.86.86 0 00-.13.58c-.01.2.07.4.22.55.15.14.36.2.56.15a.7.7 0 00.28-.09c.38.04.68-.29.64-.67zM19.33 10.65a.65.65 0 00-.2-.24.63.63 0 00-.18-.1.54.54 0 00-.47-.1.59.59 0 00-.25.02c-.55.17-.56 1.01-.13 1.31a.7.7 0 00.1.06c.2.15.46.18.7.09a.77.77 0 00.3-.25c.2-.21.25-.53.13-.8zM16.12 16.94a.9.9 0 00-.22-.64c-.35-.38-.91-.17-1.14.22-.2.33-.25.78-.07 1.12.15.29.48.48.8.38a1 1 0 00.62-.64c.04-.14.05-.3.01-.44zM8.7 17.02c-.24-.2-.63-.19-.9-.02a.82.82 0 00-.24.25c-.07.1-.13.2-.17.3a.68.68 0 00.5.88c.35.07.76-.04 1-.3a.7.7 0 00-.18-1.11zM5.13 11.87a.82.82 0 00-.05-.14.79.79 0 00-.04-.2.66.66 0 00-.62-.45.52.52 0 00-.32.1.62.62 0 00-.4.5.8.8 0 00-.06.18c-.08.33.09.68.4.82.3.22.73.18.94-.16a.7.7 0 00.04-.1.7.7 0 00.11-.55z"/>
    <path fill="#FFF" d="M10.66 7.56v-.01a.74.74 0 00-.08-.59.38.38 0 00-.07-.09l-.01-.12c.1-.1.15-.24.13-.38-.02-.27-.3-.46-.55-.31a.52.52 0 00-.1.07c-.04 0-.08 0-.11.02a.5.5 0 00-.15-.05c-.6-.08-1.01.81-.44 1.14.1.06.22.09.35.08a.8.8 0 00.03.37c.03.08.09.15.15.2.04.06.08.1.13.13.15.11.39.06.5-.06.11-.11.19-.25.22-.4zM14.92 7.14c-.05-.23-.24-.42-.5-.42-.4.01-.66.43-.56.79a.5.5 0 00.1.19.15.15 0 00-.04.05l-.02.02h-.01c-.24-.08-.48.14-.48.37-.01.52.48.98.95.61.08-.06.15-.13.2-.2l.12-.14V8.4c.3-.07.54-.34.54-.64l.02-.03c.14-.24-.05-.58-.32-.59zM7.84 10.53v-.07c0-.24-.26-.41-.47-.38a.47.47 0 00-.07-.03c-.1-.14-.31-.16-.47-.1a.34.34 0 00-.24-.11c-.13-.1-.33-.14-.45 0-.31.37-.6 1.32.05 1.5.32.09.54-.14.66-.43a.54.54 0 00.11-.06c.04.07.1.13.17.17.09.12.24.17.39.11.23-.08.32-.23.34-.46 0-.05 0-.1-.02-.14zM8.9 14.1c-.24-.38-.67-.27-.97-.04-.3.04-.6.28-.66.58l-.01.08a.4.4 0 00-.1.49c.24.34.48.63.93.66.42.02.82-.27.64-.73l-.08-.16h.03c.35-.16.44-.56.23-.89zM13.95 15.7a.37.37 0 00-.36-.26h-.02a.62.62 0 00-.34-.14c.08-.26-.03-.58-.39-.6-.91-.07-.6 1.21-.43 1.7a.4.4 0 00.57.24c-.04.02.05 0 .07 0h.04c.07.02.16.03.24.02.4-.07.71-.57.62-.95zM17 11.62c-.23-.16-.53-.11-.74.07a1.8 1.8 0 00-.16.17.19.19 0 01-.05-.04c-.13-.24-.44-.23-.6-.08a.39.39 0 00-.08.05c-.3.24-.34.86.09.98l.07.02c.06.07.13.13.2.18.12.07.25.08.37.04.13.06.28.05.4-.02.18.19.53.15.65-.16.14-.35.2-.96-.14-1.2z"/>
    <path fill="#272442" d="M11.02 8.12a27.2 27.2 0 01-.4-4.4c-.01-.38-.1-.69 0-1.07.08-.34.2-.7.17-1.04-.04-.39-.08-.91-.4-1.18-.36-.31-.84-.18-1.26-.08a14.44 14.44 0 00-4.64 2.1c-.36.23-.7.48-1.04.75-.32.25-.76.53-.83.96-.09.47.3.87.55 1.22.23.33.47.84.92.9.23.03.44-.06.64-.19.7.7 1.48 1.33 2.25 1.96.81.68 1.65 1.33 2.5 1.97.32.25.71.55 1.15.45.4-.1.61-.5.63-.88.02-.48-.15-1-.24-1.47zm-1.15-.9a.16.16 0 00-.14-.11c-.18 0-.45.06-.53-.15-.08-.18.06-.4.2-.52.23-.22.57-.3.88-.24.05.53.12 1.05.2 1.57-.2.07-.58.23-.61 0-.03-.19.09-.35 0-.55zM4.28 5.79c-.24.08-.35-.13-.48-.3l-.42-.55c-.11-.15-.34-.38-.34-.58 0-.34.54-.67.77-.85a17.72 17.72 0 013.3-2.04A13.4 13.4 0 019.2.81c.2-.04.4-.1.6-.09.22.02.3.18.35.38.1.34.19.79.07 1.13-.14.38-.59.5-.93.63a18.6 18.6 0 00-4.5 2.56c-.16.13-.32.3-.52.36zm6.37 4.1c-.29.33-.85-.22-1.08-.4l-2.3-1.75c-.77-.6-1.53-1.23-2.33-1.8l.35-.28A18.05 18.05 0 019.27 3.4c.29-.12.6-.22.87-.38 0 .98.03 1.95.12 2.92a1.15 1.15 0 00-1.29.5c-.13.24-.17.55 0 .77.14.2.4.26.64.23 0 .24-.16.51.1.7.2.17.56.07.82-.03l.09.5c.06.36.3.97.03 1.29z"/>
    <path fill="#272442" d="M8.5 5.38c-.18-.55-.82-.95-1.35-.56-.33.25-.6.77-.52 1.2.08.51.62.86 1.13.74.6-.14.93-.8.74-1.38zm-.4.72c-.25.41-.88.45-1.11 0-.14-.27-.05-.6.15-.86.1-.11.22-.19.36-.22.54-.1.83.68.6 1.08zM13.86 9.32A28.67 28.67 0 0116.8 7.3c.47-.3.95-.55 1.46-.77.44-.2.9-.29 1.3-.55.3-.21.68-.47.77-.87.1-.46-.25-.82-.54-1.14A16.05 16.05 0 0014.6.31c-.37-.16-.82-.4-1.23-.27-.46.15-.63.68-.82 1.07-.18.36-.52.81-.36 1.23.08.22.26.36.47.48-.28.95-.47 1.93-.66 2.9-.2 1.04-.38 2.09-.55 3.14-.07.4-.15.89.16 1.23.27.3.72.3 1.07.13.44-.2.8-.6 1.19-.9zm.24-1.44a.16.16 0 00.03-.18c-.08-.16-.27-.37-.12-.54.12-.15.38-.13.55-.08.3.1.53.37.63.67-.44.3-.87.6-1.29.92-.15-.13-.47-.4-.3-.53.16-.12.36-.09.5-.26zm-1.4-5.6c-.17-.17-.05-.37.04-.57l.29-.63c.08-.17.17-.47.35-.57.3-.16.84.16 1.11.27a17.76 17.76 0 013.36 1.93 13.07 13.07 0 011.57 1.56c.13.15.28.3.36.48.09.2-.01.35-.16.49-.26.24-.6.54-.97.6-.4.05-.71-.29-1-.52a18.61 18.61 0 00-4.38-2.75c-.19-.08-.41-.15-.56-.3zm-.59 7.55c-.42-.1-.2-.85-.16-1.14l.47-2.85c.15-.97.34-1.93.47-2.91l.41.18a18.1 18.1 0 013.88 2.43c.24.2.47.43.74.59-.86.45-1.7.95-2.51 1.48a1.15 1.15 0 00-1.06-.89c-.26 0-.56.1-.68.36-.1.22-.03.48.11.67-.21.12-.52.1-.58.42-.04.27.21.54.43.71l-.4.32c-.28.22-.71.73-1.12.63z"/>
    <path fill="#272442" d="M15.06 5.8c.4-.42.46-1.18-.14-1.45-.38-.17-.96-.16-1.3.1a.94.94 0 00-.12 1.36c.42.46 1.15.43 1.56 0zm-.82-.02c-.48-.02-.8-.56-.52-.97.17-.25.51-.33.83-.28.14.03.27.1.36.21.34.44-.2 1.06-.67 1.04zM14.8 12.68a27.37 27.37 0 013.56 1.66c.6.33 1.37.59 1.85 1.1.38.4.9.84 1.52.63.45-.16.58-.64.7-1.05.48-1.63.7-3.35.58-5.05a15.5 15.5 0 00-.12-1.29c-.05-.4-.07-.91-.4-1.2-.36-.32-.9-.18-1.33-.15-.4.03-.97-.02-1.25.33a.95.95 0 00-.16.64c-.96.26-1.9.6-2.83.94-1 .36-1.99.74-2.97 1.14-.38.15-.84.33-.98.77-.12.39.12.77.44.99.4.26.94.37 1.39.54zm1.36-.53c.06.02.13 0 .16-.06.1-.15.18-.42.4-.39.2.04.31.27.35.44.06.32-.03.64-.25.88-.48-.22-.96-.43-1.45-.63.04-.2.1-.61.3-.53.19.08.27.26.49.3zm4.08-4.07c.05-.25.29-.24.5-.27l.69-.07c.19-.02.5-.1.67 0 .3.17.3.8.34 1.1a17.72 17.72 0 01.07 3.88 13.53 13.53 0 01-.52 2.14c-.06.18-.12.39-.23.55-.12.18-.3.17-.5.11-.34-.1-.78-.24-1.01-.52-.26-.31-.13-.76-.07-1.12.27-1.71.3-3.45.1-5.17-.03-.2-.08-.43-.04-.63zm-6.78 3.38c-.14-.42.63-.62.9-.73.88-.37 1.78-.71 2.67-1.07.92-.36 1.84-.7 2.74-1.1l.07.46a17.94 17.94 0 01-.1 4.57c-.04.3-.12.63-.12.94-.83-.5-1.69-.97-2.57-1.4.35-.35.48-.9.22-1.36-.13-.23-.37-.43-.65-.4-.24.03-.42.23-.52.45-.21-.13-.36-.4-.66-.28-.25.1-.35.45-.4.72l-.46-.18c-.34-.12-1-.23-1.13-.62z"/>
    <path fill="#272442" d="M18.43 11.91c.57.13 1.25-.22 1.17-.87-.04-.41-.35-.9-.76-1.06a.94.94 0 00-1.21.6c-.19.59.21 1.2.8 1.33zm-.4-.71c-.23-.43.06-.98.56-.95.3.01.54.27.67.57.04.13.04.28 0 .41-.2.52-1.02.37-1.24-.03zM8.27 10.23a27.8 27.8 0 01-3.49-1.68c-.5-.28-1.17-.54-1.54-.99a1.8 1.8 0 00-.63-.54c-.35-.17-.82-.4-1.22-.28-.45.15-.6.63-.72 1.04a16.08 16.08 0 00-.56 6.33c.05.4.06.92.39 1.2.35.32.9.2 1.33.18.4-.03.97.04 1.25-.31.14-.18.18-.4.17-.64.97-.24 1.9-.57 2.85-.9 1-.34 2-.71 2.98-1.09.39-.15.85-.32 1-.75.12-.4-.11-.78-.43-1-.4-.27-.93-.4-1.38-.57zm-1.37.5a.16.16 0 00-.17.07c-.09.15-.18.42-.4.38-.2-.03-.3-.27-.34-.44-.06-.31.05-.65.26-.88l1.44.66c-.04.19-.1.6-.31.52-.18-.08-.26-.27-.48-.3zm-4.14 4.02c-.06.25-.3.24-.5.26l-.7.07c-.18.01-.5.09-.67-.02-.3-.18-.29-.8-.32-1.1a17.75 17.75 0 01-.01-3.88 13.86 13.86 0 01.55-2.14c.07-.18.12-.38.24-.54.13-.18.3-.17.5-.11.34.1.78.25 1 .54.26.32.12.76.06 1.12a18.6 18.6 0 00-.18 5.18c.02.2.07.42.03.62zm6.83-3.27c.13.42-.64.6-.9.71l-2.7 1.03c-.92.35-1.85.67-2.76 1.05l-.06-.45a19.03 19.03 0 01.16-4.57c.05-.3.14-.62.15-.94.82.52 1.67 1 2.54 1.43-.35.35-.49.9-.24 1.36.12.24.37.44.64.41.25-.02.43-.21.53-.43.21.13.35.4.66.29.25-.1.35-.45.4-.72l.47.19c.34.13.99.24 1.11.64z"/>
    <path fill="#272442" d="M4.62 10.95c-.56-.14-1.25.2-1.18.85.04.41.34.91.74 1.07a.93.93 0 001.23-.57c.2-.6-.2-1.21-.79-1.35zm.4.72c.22.43-.08.98-.58.94-.3-.02-.54-.28-.66-.58a.65.65 0 010-.42c.21-.51 1.03-.35 1.24.06zM8.6 13.42a27.53 27.53 0 01-3.5 2.45c-.65.39-1.43.53-2.05.96-.32.23-.75.52-.83.94-.1.46.26.82.56 1.13a16.27 16.27 0 005.28 3.54c.37.15.83.4 1.24.25.45-.16.6-.7.8-1.09.16-.36.5-.83.32-1.24a.96.96 0 00-.47-.46c.25-.96.42-1.95.59-2.92.18-1.05.33-2.1.48-3.15.06-.4.13-.9-.18-1.23-.28-.3-.74-.28-1.08-.11-.43.21-.8.63-1.16.93zm-.22 1.44a.16.16 0 00-.02.18c.08.16.27.36.13.54-.12.15-.38.14-.55.09-.3-.1-.54-.36-.64-.66.43-.3.85-.62 1.27-.95.14.13.47.4.3.53-.16.13-.35.1-.49.27zm1.51 5.57c.2.17.07.37-.01.57l-.28.64c-.07.17-.16.48-.34.58-.3.17-.84-.14-1.12-.25a17.8 17.8 0 01-3.4-1.86 13.96 13.96 0 01-1.6-1.52c-.13-.14-.28-.3-.37-.47-.1-.2 0-.35.15-.5.25-.24.6-.55.96-.6.4-.08.72.26 1 .49a18.6 18.6 0 004.45 2.65c.19.07.41.14.56.27zm.44-7.56c.42.09.22.85.18 1.14l-.4 2.86c-.13.97-.3 1.94-.4 2.92l-.43-.17a18.04 18.04 0 01-3.92-2.35c-.25-.19-.49-.42-.76-.57.85-.47 1.68-.99 2.48-1.54.14.48.56.86 1.08.87.26 0 .56-.12.67-.37.1-.23.02-.48-.13-.67.22-.13.53-.12.57-.44.04-.26-.22-.53-.43-.7l.39-.32c.27-.23.69-.75 1.1-.66z"/>
    <path fill="#272442" d="M7.46 16.96c-.39.44-.42 1.2.18 1.45.38.17.96.14 1.3-.13a.93.93 0 00.08-1.35c-.42-.46-1.15-.41-1.56.04zm.83 0c.48.02.82.54.54.97-.17.25-.5.34-.83.3a.65.65 0 01-.36-.21c-.35-.43.18-1.07.65-1.05zM11.95 14.64a27.25 27.25 0 01.4 4.29c.01.4.08.9-.01 1.3-.08.33-.2.55-.16.9.03.4.07.92.4 1.2.36.3.84.17 1.26.07a15.76 15.76 0 005.69-2.84c.31-.26.74-.53.82-.96.09-.48-.3-.88-.55-1.23-.23-.33-.48-.84-.92-.9a.94.94 0 00-.64.19c-.7-.7-1.48-1.33-2.25-1.96a85.63 85.63 0 00-2.5-1.97c-.32-.25-.71-.55-1.16-.45-.4.1-.6.5-.62.88-.03.49.15 1 .24 1.48zm1.15.9c.02.06.07.1.14.1.17 0 .45-.06.53.15.07.19-.07.4-.2.53-.24.2-.56.3-.88.23-.05-.53-.12-1.05-.2-1.57.19-.07.58-.22.61 0 .03.2-.09.35 0 .56zm5.59 1.43c.23-.09.35.12.48.29l.42.55c.11.15.33.38.34.58 0 .35-.54.67-.77.86a17.72 17.72 0 01-3.3 2.04 13.26 13.26 0 01-2.11.64c-.19.04-.4.1-.59.1-.22-.02-.3-.19-.35-.38-.1-.34-.2-.8-.07-1.14.14-.38.59-.5.93-.63a18.6 18.6 0 004.5-2.56c.16-.13.32-.29.52-.36zm-6.37-4.11c.29-.33.85.23 1.08.4l2.29 1.76c.78.6 1.54 1.22 2.34 1.8l-.35.28a17.8 17.8 0 01-3.98 2.26c-.29.11-.6.21-.88.37.02-.97-.02-1.95-.1-2.92.48.12 1.02-.05 1.28-.5.13-.24.17-.55 0-.77-.14-.2-.4-.25-.64-.22 0-.25.16-.52-.1-.71-.2-.17-.56-.07-.82.03l-.09-.5c-.06-.35-.3-.97-.03-1.28z"/>
    <path fill="#272442" d="M14.47 17.37c.18.55.82.96 1.34.56.33-.25.6-.77.53-1.19A.94.94 0 0015.2 16c-.61.14-.93.8-.74 1.37zm.4-.72c.25-.4.88-.44 1.11 0 .14.27.04.61-.15.87-.1.1-.22.18-.36.21-.55.1-.84-.68-.6-1.08z"/>
  </g>
</svg>
