<svg xmlns="http://www.w3.org/2000/svg" viewBox="0 0 24 24">
  <defs/>
  <g fill="none" fill-rule="evenodd">
    <path fill="#3BD2D3" fill-rule="nonzero" d="M1.9 8.99l.32 1.42.3 6.86.62 4.74.66.62 1.42.15 6.07.33h5.05l4.26-.67.9-.95.36-1.69.14-2.32.4-5.93V8.79z"/>
    <path fill="#74DEDA" fill-rule="nonzero" d="M23.41 5.32L1.67 5.6l-.42.78v2.2l.64.4.76.13 19.76-.33 1-.61.13-1.25.12-1.15z"/>
    <path fill="#FFF" d="M2.31 12.6c.28-.36.6-.68.96-.96l.63-.56c.5-.52.9-1.09 1.43-1.58.12-.11.28-.35.43-.43a.57.57 0 01.18 0h.96c.87 0 1.73.06 2.58.05-.19.18-.35.42-.56.6-.41.38-.82.77-1.2 1.18-.74.76-1.53 1.5-2.29 2.25-.58.58-1.12 1.2-1.66 1.8-.32.37-.7.72-1.02 1.05a.96.96 0 01-.1-.41l-.12-.96-.12-.96c-.1-.34-.14-.7-.1-1.07zM2.94 19.42c.14-.11.27-.24.38-.38l.75-.8c.41-.42.85-.82 1.25-1.24.72-.78 1.5-1.48 2.22-2.24.72-.77 1.22-1.3 1.85-1.92l.65-.7c.2-.25.43-.48.68-.68a8.64 8.64 0 00-.04 2.29c.07.5.07 1.01 0 1.51-.08 0-.14.09-.2.15l-.53.58c-.32.37-.59.76-.96 1.1-.38.35-.53.55-.8.82-.82.87-1.61 1.76-2.47 2.61-.6.63-1.24 1.22-1.92 1.75-.1.1-.26.1-.36 0-.23-.1-.27-.31-.34-.55-.14-.76-.2-1.53-.16-2.3zM7.74 22.82c.54-.67 1.11-1.34 1.66-2 .4-.58.85-1.12 1.34-1.62.08.75.06 1.5-.06 2.25 0 .56-.07 1.12-.12 1.69a.96.96 0 00-.49-.16c-.28-.06-.56-.1-.84-.11-.5.04-1 .02-1.5-.05zM14.11 12.2c.96-1.06 2-2.1 2.88-3.24a.8.8 0 00-.79-.07 4.9 4.9 0 00-1.23-.1c-.16 0-.3.06-.45.08-.16.02-.48-.1-.44-.15.04-.05 0 .11 0 .2v.68c-.08.86-.07 1.73.03 2.6zM14.15 16.22c.18-.22.37-.44.57-.65.2-.24.43-.46.63-.69.2-.23.38-.54.6-.79l.83-1.01c.28-.34.72-.96 1.1-1.38l.6-.58c.2-.2.4-.51.6-.76.22-.25.57-.72.88-1.07.08-.1.23-.32.35-.38.13-.06.09 0 .12 0h1.4c.12 0 .35-.09.45 0 .1.09 0 .33 0 .49 0 .32-.04.64-.1.96-.76.7-1.44 1.5-2.02 2.36-.55.79-1.1 1.56-1.67 2.31-.2.25-.43.45-.62.69-.2.24-.42.53-.6.82-.37.55-.72 1.11-1.08 1.66-.38.55-.79 1.08-1.23 1.58-.22.26-.6.55-.7.9-.16-.2-.09-.68-.09-.96 0-.5-.06-.96-.08-1.5-.02-.56.05-1.14 0-1.7 0-.16 0-.18.05-.32l.01.02zM16.4 22.86c.22-.29.4-.62.61-.91.34-.5.7-.96 1.04-1.44.49-.7.96-1.39 1.48-2.09.51-.7.96-1.28 1.33-1.92l.71-1.15c.15-.23.28-.64.52-.79.03.17.03.34 0 .5 0 .36 0 .71.05 1.07 0 .78-.12 1.51-.12 2.28a9.88 9.88 0 01-.76 3.48c-.1.32-.35.57-.66.69a5.4 5.4 0 01-1.34.28c-.47 0-.96 0-1.43-.05h-.87c-.19-.02-.38 0-.56.05z"/>
    <path fill="#F95252" fill-rule="nonzero" d="M10.21 5.76c.2.42.28.88.25 1.33a9.17 9.17 0 00.3 2.58c.04.47.04.95 0 1.42v2.73c0 1.33.07 2.65.16 3.98.05.88 0 1.75 0 2.63-.09.83-.1 1.66-.06 2.5.68.1 1.4 0 2.1.06.35.05.7.05 1.05 0 .17 0 .1.08.18-.1.16-.34 0-.96 0-1.39.04-.7.04-1.4 0-2.1-.1-1.68-.08-3.37-.14-5.04-.04-1.12 0-2.26 0-3.39 0-1.12-.07-2.04-.13-3.07 0-.5-.36-2.23.27-2.4.28-.03.56-.03.83 0h1.31c.5 0 .96-.08 1.5-.11.4.02.8 0 1.19-.08.19-.07.15 0 .18-.22.05-.44 0-.96 0-1.41 0-.73.1-1.46.08-2.2 0-.3 0-.51-.4-.5-.47.13-.92.3-1.36.5-1.1.32-2.16.58-3.12 1.02-.3.13-.74.52-1.08.5-.35-.01-.45-.39-.74-.48a1.58 1.58 0 00-1.06.14 4.8 4.8 0 00-.8.54A8.44 8.44 0 008.33 1.8c-.65-.31-2.05-1.24-2.8-.63-.32.28-.3.9-.3 1.3 0 .78.09 1.55.24 2.32.09.4 0 .8.47.9.83.07 1.66.04 2.47-.11.47 0 1.33-.25 1.75.1l.05.07z"/>
    <path fill="#272442" fill-rule="nonzero" d="M23.93 5.51c-.19-.49-.72-.46-1.16-.47h-3.51c.11-.96.1-1.92.15-2.88.09-.37.09-.75 0-1.12-.21-.37-.57-.4-.92-.3-.96.28-1.82.62-2.72.97-.87.33-1.71.72-2.53 1.17a1.17 1.17 0 00-1.34-.52c-.4.04-.79.22-1.07.52A18.72 18.72 0 006.88.96c-.53-.18-1.3-.5-1.74 0-.18.24-.25.54-.22.84a11.44 11.44 0 00.52 3.48H3.2c-.52-.03-1.03 0-1.54.07a.96.96 0 00-.71.96v1.6c-.07.4.04.8.3 1.12.18.16.42.25.66.24 0 1.44.1 2.88.2 4.32a193.45 193.45 0 00.58 7c-.03.63.11 1.27.41 1.84.44.44 1.06.67 1.69.61l2.3.13c3.1.16 6.2.18 9.32 0l2.37-.13c.67 0 1.35-.08 2-.28.53-.23.93-.7 1.06-1.28.16-.69.27-1.4.33-2.1.46-3.43.63-6.9.49-10.35.38-.06.72-.32.87-.68.16-.48.26-.97.3-1.48.15-.44.18-.9.1-1.36zm-8.3-3.28c.79-.3 1.57-.56 2.37-.8l.62-.2c.15-.05.28-.1.33.1.02.15.02.3 0 .46 0 .22 0 .44-.05.67-.06.84-.19 1.72-.19 2.57h-.96c-1.44 0-2.88 0-4.33.1.03-.21.05-.43.05-.66.74-.01 1.47.05 2.2.2.23 0 .33-.32.1-.36a9.19 9.19 0 00-2.3-.1v-.26c.79-.3 1.57-.57 2.35-.87.2-.08.12-.4-.09-.32-.77.28-1.53.58-2.3.88-.03-.2-.07-.38-.12-.57.8-.19 1.54-.57 2.32-.84zm-4.7 1.5c.07-.5.46-.88.95-.96.23-.05.46-.05.68 0 .24.08.31.33.36.56.11.57.11 1.16 0 1.73v.07l-1.92.1a3.5 3.5 0 01-.08-1.5zM5.43 1.61c.08-.4.4-.36.73-.27 1.53.52 3.02 1.13 4.48 1.82l-.09.28c-.03.1-.05.2-.06.31-.62-.3-1.25-.6-1.92-.86-.19-.09-.33.25-.14.34.66.3 1.34.57 2.03.84 0 .12.02.24.05.36a10.9 10.9 0 00-1.76-.25c-.19 0-.19.28 0 .3.6.1 1.2.14 1.8.12.07.24.16.47.27.69H5.99a12.3 12.3 0 01-.54-2.5c-.06-.39-.06-.79 0-1.18zM1.58 8.64a.85.85 0 01-.12-.5v-1.5c0-.23 0-.52.2-.62.17-.06.35-.08.53-.06H3c2.1 0 4.2-.06 6.3-.1h.95c0 .46.05.96.08 1.39l.07 1.4-7.53.09h-.77c-.19 0-.4.02-.53-.1zm.64.66h3.17c-.53.48-1.02 1.02-1.51 1.53-.5.5-.96.96-1.4 1.53a73.72 73.72 0 00-.26-3.08v.02zm.4 4.6c0-.43-.08-.86-.1-1.3l1.56-1.62c.53-.54 1.2-1.14 1.78-1.74H9.08C8 10.28 6.96 11.4 5.9 12.48c-1.05 1.08-2.07 2.2-3.13 3.32l-.16-1.92v.02zm.46 4.97c-.1-.9-.18-1.83-.27-2.74l3.35-3.4c1.14-1.16 2.29-2.31 3.38-3.51h.88c0 .7.05 1.43.07 2.14-1.35 1.27-2.6 2.68-3.9 4a81.29 81.29 0 00-3.48 3.75l-.03-.24zm.41 3.08c-.1-.29-.15-.58-.17-.88l-.18-1.62c1.29-1.21 2.5-2.53 3.71-3.8 1.22-1.27 2.5-2.5 3.66-3.84v3.18c-.55.55-1.06 1.19-1.58 1.78-.52.6-1.17 1.32-1.77 1.97a96.49 96.49 0 01-3.32 3.55.72.72 0 01-.35-.36v.02zm6.98.84H7.9a20.96 20.96 0 002.67-3.08c0 .95-.06 2-.09 3.06v.02zm.1-3.8c-.47.62-.9 1.28-1.38 1.88-.48.6-1.02 1.21-1.51 1.81l-1.42-.07a7 7 0 01-1.1-.09 7.05 7.05 0 01-1-.11h-.07A59.89 59.89 0 007.56 19l1.78-1.92c.43-.5.88-.96 1.29-1.54-.07 1.12-.07 2.27-.07 3.43l.01.02zm.15-11.65c0-.5-.07-.96-.14-1.5l3.06-.08c0 .96 0 1.92.07 2.82h-2.88l-.1-1.26v.02zm.22 15.46c.27-4.51.24-9.04-.07-13.55h2.88c0 1.02.05 2.03.07 3.04.06 2.25.08 4.51.1 6.72v3.76l-2.98.01v.02zM14.2 9.36v-.18h2.49c-.42.49-.82.96-1.23 1.49l-1.14 1.4c-.04-.93-.07-1.85-.12-2.75v.04zm1.5 1.52c.48-.57.97-1.13 1.4-1.7h2.74l-.48.6-.75.95-1.5 1.75c-.9 1.1-1.84 2.2-2.7 3.34l-.09-3.37c.5-.53.93-1.08 1.39-1.61v.04zm6.46-.96c-.23.27-.43.56-.65.83l-.81 1.08a297.1 297.1 0 00-6.25 8.53V16.1c1.04-1.12 2-2.31 2.98-3.49l1.51-1.8.75-.88c.22-.27.46-.53.67-.82h1.83l-.03.8zM14.4 20.68c2.16-2.74 4.28-5.5 6.34-8.32l.87-1.2.5-.65c0 1.23 0 2.45-.1 3.67-.46.65-.86 1.35-1.3 2.02-.44.66-.96 1.5-1.48 2.23-.52.74-.96 1.47-1.52 2.21a23.7 23.7 0 00-1.38 2l-1.99.1c.06-.66.06-1.38.06-2.06zm7.34-2.8a57.6 57.6 0 01-.26 2.2 4.6 4.6 0 01-.36 1.72c-.34.55-1.03.57-1.6.62l-2.25.17h-.61a71.27 71.27 0 002.93-3.96c.5-.75 1-1.48 1.48-2.23.32-.5.65-.96.96-1.51-.07 1.03-.15 2-.26 2.99h-.03zm1.63-11.7l-.14.79-.12.74c-.01.21-.08.42-.2.6-.23.3-.83.2-1.17.21l-6.27.06h-1.32c-.05-.96-.1-1.92-.18-2.82 2.64 0 5.28-.08 7.92-.14h.79c.16 0 .56-.06.69.07.12.14.02.36 0 .48z"/>
  </g>
</svg>
